<?xml version="1.0" encoding="utf-8" standalone="yes"?>
<!DOCTYPE svg PUBLIC "-//W3C//DTD SVG 1.1//EN" "http://www.w3.org/Graphics/SVG/1.1/DTD/svg11.dtd">
<svg width="800" height="384" viewBox="0 0 686 384" style="fill:none;stroke:none;fill-rule:evenodd;clip-rule:evenodd;stroke-linecap:round;stroke-linejoin:round;stroke-miterlimit:1.5;" version="1.1" xmlns="http://www.w3.org/2000/svg">
    <style id="fontImports">@import url("https://fonts.googleapis.com/css2?family=Shantell+Sans:wght@300..800&amp;display=block");</style>
    <rect id="" x="0" y="0" width="685.913" height="384" style="fill: #ffffff;"></rect>
    <g id="items" style="isolation: isolate">
        <g id="blend" style="mix-blend-mode:normal">
            <g id="g-root-1.cu_sy_mcy9hvlyplhe-fill" data-item-order="999908938" data-item-id="1.cu_sy_mcy9hvlyplhe" data-item-class="Part Indexed Indexed_1 Fill Stroke" data-item-index="1" data-renderer-id="0" transform="translate(3, 155)">
                <g id="1.cu_sy_mcy9hvlyplhe-fill" stroke="none" fill="#d8ceff">
                    <g>
                        <path d="M 28 61C 28 42.7746 42.7746 28 61 28L 139 28C 152.377 28 163.895 35.9597 169.077 47.4013C 172.902 46.4852 176.894 46 181 46L 187.758 46C 181.353 25.154 161.946 10 139 10L 61 10C 32.8335 10 10 32.8335 10 61C 10 89.1665 32.8335 112 61 112L 132.242 112L 139 112C 143.106 112 147.098 111.515 150.923 110.599C 172.4 105.4546 188.595 86.7232 189.913 64L 181 64C 177.778 64 174.663 64.4618 171.719 65.3229C 170.009 78.3943 160.649 89.0594 148.281 92.6771C 145.337 93.5382 142.222 94 139 94L 130.087 94L 61 94C 42.7746 94 28 79.2254 28 61Z"></path>
                    </g>
                </g>
            </g>
            <g id="g-root-2.cu_sy_dhxqc3lypj4b-fill" data-item-order="999908942" data-item-id="2.cu_sy_dhxqc3lypj4b" data-item-class="Part Indexed Fill Stroke" data-item-index="2" data-renderer-id="0" transform="translate(123.0869140625, 191)">
                <g id="2.cu_sy_dhxqc3lypj4b-fill" stroke="none" fill="#fdd0eb">
                    <g>
                        <path d="M 10 58L 18.9132 58C 22.1355 58 25.2499 57.5382 28.1938 56.6771C 29.9041 43.6057 39.264 32.9406 51.6326 29.3229C 54.5766 28.4618 57.691 28 60.9132 28L 69.8265 28L 130 28L 138.913 28C 142.135 28 145.25 28.4618 148.194 29.3229C 160.562 32.9406 169.922 43.6057 171.633 56.6771C 174.577 57.5382 177.691 58 180.913 58L 189.826 58C 188.508 35.2768 172.313 16.5454 150.836 11.4013C 147.012 10.4852 143.019 10 138.913 10L 132.155 10L 67.6716 10L 60.9132 10C 56.8074 10 52.815 10.4852 48.99 11.4013C 27.5133 16.5454 11.3181 35.2768 10 58ZM 138.913 94L 60.9132 94C 47.536 94 36.0178 86.0403 30.8365 74.5987C 27.0115 75.5148 23.019 76 18.9132 76L 12.1548 76C 18.5603 96.846 37.967 112 60.9132 112L 138.913 112C 161.859 112 181.266 96.846 187.672 76L 180.913 76C 176.807 76 172.815 75.5148 168.99 74.5987C 163.809 86.0403 152.291 94 138.913 94Z"></path>
                    </g>
                </g>
            </g>
            <g id="g-root-3.cu_sy_dhxqc3lypj4c-fill" data-item-order="999908946" data-item-id="3.cu_sy_dhxqc3lypj4c" data-item-class="Part Indexed Fill Stroke" data-item-index="3" data-renderer-id="0" transform="translate(243.0869140625, 155)">
                <g id="3.cu_sy_dhxqc3lypj4c-fill" stroke="none" fill="#ffd0ce">
                    <g>
                        <path d="M 18.9132 64L 10 64C 11.3181 86.7232 27.5133 105.4546 48.99 110.599C 52.8149 111.515 56.8074 112 60.9132 112L 67.6716 112L 132.155 112L 138.913 112C 143.019 112 147.012 111.515 150.836 110.599C 172.313 105.4546 188.508 86.7232 189.826 64L 180.913 64C 177.691 64 174.577 64.4618 171.633 65.3229C 169.922 78.3943 160.562 89.0594 148.194 92.6771C 145.25 93.5382 142.135 94 138.913 94L 130 94L 69.8265 94L 60.9132 94C 57.691 94 54.5766 93.5382 51.6326 92.6771C 39.264 89.0594 29.9041 78.3943 28.1938 65.3229C 25.2499 64.4618 22.1355 64 18.9132 64ZM 60.9132 28L 138.913 28C 152.29 28 163.809 35.9597 168.99 47.4013C 172.815 46.4852 176.807 46 180.913 46L 187.672 46C 181.266 25.154 161.859 10 138.913 10L 60.9132 10C 37.967 10 18.5602 25.154 12.1548 46L 18.9132 46C 23.019 46 27.0115 46.4852 30.8365 47.4013C 36.0178 35.9597 47.5359 28 60.9132 28Z"></path>
                    </g>
                </g>
            </g>
            <g id="g-root-4.cu_sy_92487nlypjwl-fill" data-item-order="999908950" data-item-id="4.cu_sy_92487nlypjwl" data-item-class="Part Indexed Fill Stroke" data-item-index="4" data-renderer-id="0" transform="translate(363.0869140625, 191)">
                <g id="4.cu_sy_92487nlypjwl-fill" stroke="none" fill="#fde6cf">
                    <g>
                        <path d="M 138.913 94L 60.9132 94C 47.536 94 36.0178 86.0403 30.8365 74.5987C 27.0115 75.5148 23.019 76 18.9132 76L 12.1548 76C 18.5602 96.846 37.967 112 60.9132 112L 138.913 112C 161.859 112 181.266 96.846 187.672 76L 180.913 76C 176.807 76 172.815 75.5148 168.99 74.5987C 163.809 86.0403 152.291 94 138.913 94ZM 10 58L 18.9132 58C 22.1355 58 25.2499 57.5382 28.1938 56.6771C 29.9041 43.6057 39.264 32.9406 51.6326 29.3229C 54.5766 28.4618 57.691 28 60.9132 28L 69.8265 28L 130 28L 138.913 28C 142.135 28 145.25 28.4618 148.194 29.3229C 160.562 32.9406 169.922 43.6057 171.633 56.6771C 174.577 57.5382 177.691 58 180.913 58L 189.826 58C 188.508 35.2768 172.313 16.5454 150.836 11.4013C 147.012 10.4852 143.019 10 138.913 10L 132.155 10L 67.6717 10L 60.9132 10C 56.8074 10 52.8149 10.4852 48.99 11.4013C 27.5133 16.5454 11.3181 35.2768 10 58Z"></path>
                    </g>
                </g>
            </g>
            <g id="g-root-5.cu_sy_92487nlypjwm-fill" data-item-order="999908954" data-item-id="5.cu_sy_92487nlypjwm" data-item-class="Part Indexed Fill Stroke" data-item-index="5" data-renderer-id="0" transform="translate(483, 155)">
                <g id="5.cu_sy_92487nlypjwm-fill" stroke="none" fill="#fff9ce">
                    <g>
                        <path d="M 138.912964 112C 167.080017 112 189.912964 89.166504 189.912964 61C 189.912964 32.833496 167.080017 10 138.912964 10L 60.913208 10C 37.96698 10 18.560211 25.153992 12.154785 46L 18.913208 46C 23.019012 46 27.011505 46.485199 30.836426 47.401306C 36.0177 35.959702 47.535889 28 60.913208 28L 138.912964 28C 157.139038 28 171.912964 42.774597 171.912964 61C 171.912964 79.225403 157.139038 94 138.912964 94L 69.826416 94L 60.913208 94C 57.690918 94 54.576599 93.538208 51.632568 92.677094C 39.263977 89.059387 29.903992 78.394302 28.193787 65.322906C 25.249786 64.461792 22.135498 64 18.913208 64L 10 64C 11.318115 86.723206 27.513306 105.45459 48.98999 110.598694C 52.81488 111.514801 56.807373 112 60.913208 112L 67.671631 112L 138.912964 112Z"></path>
                    </g>
                </g>
            </g>
            <g id="g-root-tx_thebestb_dhxthvlyqyo8-fill" data-item-order="1000000000" data-item-id="tx_thebestb_dhxthvlyqyo8" data-item-class="Label Stroke Title ColorStrokeBlack" data-item-index="none" data-renderer-id="0" transform="translate(255, 2)">
                <g id="tx_thebestb_dhxthvlyqyo8-fill" stroke="none" fill="#484848">
                    <g>
                        <text style="font: 20px &quot;Shantell Sans&quot;, cursive; white-space: pre;" font-size="20px" font-family="'Shantell Sans', cursive" text-anchor="middle">
                            <tspan x="170" y="45" dominant-baseline="ideographic">{{main_title}}</tspan>
                        </text>
                    </g>
                </g>
            </g>
            <g id="g-root-tx_emotiona_qtebv7lyqx39-fill" data-item-order="1000000000" data-item-id="tx_emotiona_qtebv7lyqx39" data-item-class="Label Stroke Indexed ColorStrokeBlack" data-item-index="3" data-renderer-id="0" transform="translate(279, 86)">
                <g id="tx_emotiona_qtebv7lyqx39-fill" stroke="none" fill="#484848">
                    <g>
                        <text style="font: 20px &quot;Shantell Sans&quot;, cursive; white-space: pre;" font-size="20px" font-family="'Shantell Sans', cursive" text-anchor="middle">
                            <tspan x="150" y="59.5" dominant-baseline="ideographic">{{text_3}}</tspan>
                        </text>
                    </g>
                </g>
            </g>
            <g id="g-root-tx_thoughtp_v8lcwjlyqzgr-fill" data-item-order="1000000000" data-item-id="tx_thoughtp_v8lcwjlyqzgr" data-item-class="Label Stroke Indexed ColorStrokeBlack" data-item-index="5" data-renderer-id="0" transform="translate(483, 86)">
                <g id="tx_thoughtp_v8lcwjlyqzgr-fill" stroke="none" fill="#484848">
                    <g>
                        <text style="font: 20px &quot;Shantell Sans&quot;, cursive; white-space: pre;" font-size="20px" font-family="'Shantell Sans', cursive" text-anchor="middle">
                            <tspan x="190" y="59.5" dominant-baseline="ideographic">{{text_5}}</tspan>
                        </text>
                    </g>
                </g>
            </g>
            <g id="g-root-tx_profound_hxrbmblyqxvz-fill" data-item-order="1000000000" data-item-id="tx_profound_hxrbmblyqxvz" data-item-class="Label Stroke Indexed Indexed_1 ColorStrokeBlack" data-item-index="1" data-renderer-id="0" transform="translate(3, 110)">
                <g id="tx_profound_hxrbmblyqxvz-fill" stroke="none" fill="#484848">
                    <g>
                        <text style="font: 20px &quot;Shantell Sans&quot;, cursive; white-space: pre;" font-size="20px" font-family="'Shantell Sans', cursive" text-anchor="middle">
                            <tspan x="190" y="35.5" dominant-baseline="ideographic">{{text_1}}</tspan>
                        </text>
                    </g>
                </g>
            </g>
            <g id="g-root-owl_4haxeblywjd0-fill" data-item-order="1000000000" data-item-id="owl_4haxeblywjd0" data-item-class="Icon Stroke Indexed Indexed_1 InsideFill InsideColorFill" data-item-index="1" data-renderer-id="0" transform="translate(69, 182)"></g>
            <g id="g-root-1_18nspsjlyjx1j-fill" data-item-order="1000000000" data-item-id="1_18nspsjlyjx1j" data-item-class="Icon Stroke Indexed InsideFill InsideColorFill" data-item-index="3" data-renderer-id="0" transform="translate(309, 182)"></g>
            <g id="g-root-face_v8lcwjlyqzgq-fill" data-item-order="1000000000" data-item-id="face_v8lcwjlyqzgq" data-item-class="Icon Stroke Indexed InsideFill InsideColorFill" data-item-index="5" data-renderer-id="0" transform="translate(549, 182)"></g>
            <g id="g-root-shoc_qn5l03lycxs5-fill" data-item-order="1000000000" data-item-id="shoc_qn5l03lycxs5" data-item-class="Icon Stroke Indexed InsideFill InsideColorFill" data-item-index="2" data-renderer-id="0" transform="translate(189, 218)"></g>
            <g id="g-root-1_v3lk7nlyo6x9-fill" data-item-order="1000000000" data-item-id="1_v3lk7nlyo6x9" data-item-class="Icon Stroke Indexed InsideFill InsideColorFill" data-item-index="4" data-renderer-id="0" transform="translate(429, 218)"></g>
            <g id="g-root-tx_unforget_hxrbmblyqxvy-fill" data-item-order="1000000000" data-item-id="tx_unforget_hxrbmblyqxvy" data-item-class="Label Stroke Indexed ColorStrokeBlack" data-item-index="2" data-renderer-id="0" transform="translate(141, 314)">
                <g id="tx_unforget_hxrbmblyqxvy-fill" stroke="none" fill="#484848">
                    <g>
                        <text style="font: 20px &quot;Shantell Sans&quot;, cursive; white-space: pre;" font-size="20px" font-family="'Shantell Sans', cursive" text-anchor="middle">
                            <tspan x="165" y="35.5" dominant-baseline="ideographic">{{text_2}}</tspan>
                        </text>
                    </g>
                </g>
            </g>
            <g id="g-root-tx_captivat_qtebv7lyqx38-fill" data-item-order="1000000000" data-item-id="tx_captivat_qtebv7lyqx38" data-item-class="Label Stroke Indexed ColorStrokeBlack" data-item-index="4" data-renderer-id="0" transform="translate(387, 314)">
                <g id="tx_captivat_qtebv7lyqx38-fill" stroke="none" fill="#484848">
                    <g>
                        <text style="font: 20px &quot;Shantell Sans&quot;, cursive; white-space: pre;" font-size="20px" font-family="'Shantell Sans', cursive" text-anchor="middle">
                            <tspan x="165" y="35.5" dominant-baseline="ideographic">{{text_4}}</tspan>
                        </text>
                    </g>
                </g>
            </g>
            <g id="g-root-1.cu_sy_mcy9hvlyplhe-stroke" data-item-order="999908938" data-item-id="1.cu_sy_mcy9hvlyplhe" data-item-class="Part Indexed Indexed_1 Fill Stroke" data-item-index="1" data-renderer-id="0" transform="translate(3, 155)">
                <g id="1.cu_sy_mcy9hvlyplhe-stroke" fill="none" stroke-linecap="round" stroke-linejoin="round" stroke-miterlimit="4" stroke="#ffffff" stroke-width="2">
                    <g>
                        <path d="M 28 61C 28 42.7746 42.7746 28 61 28L 139 28C 152.3773 28 163.8955 35.9597 169.0768 47.4013C 172.9017 46.4852 176.8942 46 181 46L 187.7584 46C 181.353 25.154 161.9462 10 139 10L 61 10C 32.8335 10 10 32.8335 10 61C 10 89.1665 32.8335 112 61 112L 132.2416 112L 139 112C 143.1058 112 147.0983 111.5148 150.9232 110.5987C 172.4 105.4546 188.5951 86.7232 189.9132 64L 181 64C 177.7777 64 174.6634 64.4618 171.7194 65.3229C 170.0092 78.3943 160.6492 89.0594 148.2806 92.6771C 145.3366 93.5382 142.2223 94 139 94L 130.0868 94L 61 94C 42.7746 94 28 79.2254 28 61Z"></path>
                    </g>
                </g>
            </g>
            <g id="g-root-2.cu_sy_dhxqc3lypj4b-stroke" data-item-order="999908942" data-item-id="2.cu_sy_dhxqc3lypj4b" data-item-class="Part Indexed Fill Stroke" data-item-index="2" data-renderer-id="0" transform="translate(123.0869140625, 191)">
                <g id="2.cu_sy_dhxqc3lypj4b-stroke" fill="none" stroke-linecap="round" stroke-linejoin="round" stroke-miterlimit="4" stroke="#ffffff" stroke-width="2">
                    <g>
                        <path d="M 10 58L 18.9132 58C 22.1355 58 25.2499 57.5382 28.1938 56.6771C 29.9041 43.6057 39.264 32.9406 51.6326 29.3229C 54.5766 28.4618 57.691 28 60.9132 28L 69.8265 28L 130 28L 138.9132 28C 142.1355 28 145.2499 28.4618 148.1938 29.3229C 160.5624 32.9406 169.9224 43.6057 171.6326 56.6771C 174.5766 57.5382 177.691 58 180.9132 58L 189.8265 58C 188.5084 35.2768 172.3132 16.5454 150.8365 11.4013C 147.0115 10.4852 143.019 10 138.9132 10L 132.1548 10L 67.6716 10L 60.9132 10C 56.8074 10 52.815 10.4852 48.99 11.4013C 27.5133 16.5454 11.3181 35.2768 10 58ZM 138.9132 94L 60.9132 94C 47.536 94 36.0178 86.0403 30.8365 74.5987C 27.0115 75.5148 23.019 76 18.9132 76L 12.1548 76C 18.5603 96.846 37.967 112 60.9132 112L 138.9132 112C 161.8594 112 181.2662 96.846 187.6717 76L 180.9132 76C 176.8074 76 172.8149 75.5148 168.99 74.5987C 163.8087 86.0403 152.2905 94 138.9132 94ZM 30.8365 74.5987C 52.3132 69.4546 68.5084 50.7232 69.8265 28M 28.1938 56.6771C 40.5624 53.0594 49.9224 42.3943 51.6326 29.3229M 130 28C 131.3181 50.7232 147.5133 69.4546 168.99 74.5987M 148.1938 29.3229C 149.9041 42.3943 159.264 53.0594 171.6326 56.6771"></path>
                    </g>
                </g>
            </g>
            <g id="g-root-3.cu_sy_dhxqc3lypj4c-stroke" data-item-order="999908946" data-item-id="3.cu_sy_dhxqc3lypj4c" data-item-class="Part Indexed Fill Stroke" data-item-index="3" data-renderer-id="0" transform="translate(243.0869140625, 155)">
                <g id="3.cu_sy_dhxqc3lypj4c-stroke" fill="none" stroke-linecap="round" stroke-linejoin="round" stroke-miterlimit="4" stroke="#ffffff" stroke-width="2">
                    <g>
                        <path d="M 18.9132 64L 10 64C 11.3181 86.7232 27.5133 105.4546 48.99 110.5987C 52.8149 111.5148 56.8074 112 60.9132 112L 67.6716 112L 132.1548 112L 138.9132 112C 143.019 112 147.0115 111.5148 150.8365 110.5987C 172.3132 105.4546 188.5084 86.7232 189.8265 64L 180.9132 64C 177.691 64 174.5766 64.4618 171.6326 65.3229C 169.9224 78.3943 160.5624 89.0594 148.1938 92.6771C 145.2499 93.5382 142.1355 94 138.9132 94L 130 94L 69.8265 94L 60.9132 94C 57.691 94 54.5766 93.5382 51.6326 92.6771C 39.264 89.0594 29.9041 78.3943 28.1938 65.3229C 25.2499 64.4618 22.1355 64 18.9132 64ZM 60.9132 28L 138.9132 28C 152.2905 28 163.8087 35.9597 168.99 47.4013C 172.8149 46.4852 176.8074 46 180.9132 46L 187.6716 46C 181.2662 25.154 161.8594 10 138.9132 10L 60.9132 10C 37.967 10 18.5602 25.154 12.1548 46L 18.9132 46C 23.019 46 27.0115 46.4852 30.8365 47.4013C 36.0178 35.9597 47.5359 28 60.9132 28ZM 28.1938 65.3229C 40.5624 68.9406 49.9224 79.6057 51.6326 92.6771M 30.8365 47.4013C 52.3132 52.5454 68.5084 71.2768 69.8265 94M 130 94C 131.3181 71.2768 147.5132 52.5454 168.99 47.4013M 148.1938 92.6771C 149.9041 79.6057 159.264 68.9406 171.6326 65.3229"></path>
                    </g>
                </g>
            </g>
            <g id="g-root-4.cu_sy_92487nlypjwl-stroke" data-item-order="999908950" data-item-id="4.cu_sy_92487nlypjwl" data-item-class="Part Indexed Fill Stroke" data-item-index="4" data-renderer-id="0" transform="translate(363.0869140625, 191)">
                <g id="4.cu_sy_92487nlypjwl-stroke" fill="none" stroke-linecap="round" stroke-linejoin="round" stroke-miterlimit="4" stroke="#ffffff" stroke-width="2">
                    <g>
                        <path d="M 138.9132 94L 60.9132 94C 47.536 94 36.0178 86.0403 30.8365 74.5987C 27.0115 75.5148 23.019 76 18.9132 76L 12.1548 76C 18.5602 96.846 37.967 112 60.9132 112L 138.9132 112C 161.8594 112 181.2662 96.846 187.6717 76L 180.9132 76C 176.8074 76 172.815 75.5148 168.99 74.5987C 163.8087 86.0403 152.2905 94 138.9132 94ZM 10 58L 18.9132 58C 22.1355 58 25.2499 57.5382 28.1938 56.6771C 29.9041 43.6057 39.264 32.9406 51.6326 29.3229C 54.5766 28.4618 57.691 28 60.9132 28L 69.8265 28L 130 28L 138.9132 28C 142.1355 28 145.2499 28.4618 148.1938 29.3229C 160.5624 32.9406 169.9224 43.6057 171.6327 56.6771C 174.5766 57.5382 177.691 58 180.9132 58L 189.8264 58C 188.5083 35.2768 172.3132 16.5454 150.8365 11.4013C 147.0115 10.4852 143.019 10 138.9132 10L 132.1548 10L 67.6717 10L 60.9132 10C 56.8074 10 52.8149 10.4852 48.99 11.4013C 27.5133 16.5454 11.3181 35.2768 10 58ZM 28.1938 56.6771C 40.5625 53.0594 49.9224 42.3943 51.6326 29.3229M 30.8365 74.5987C 52.3132 69.4546 68.5084 50.7232 69.8265 28M 130 28C 131.3181 50.7232 147.5133 69.4546 168.99 74.5987M 148.1938 29.3229C 149.9041 42.3943 159.2641 53.0594 171.6327 56.6771"></path>
                    </g>
                </g>
            </g>
            <g id="g-root-5.cu_sy_92487nlypjwm-stroke" data-item-order="999908954" data-item-id="5.cu_sy_92487nlypjwm" data-item-class="Part Indexed Fill Stroke" data-item-index="5" data-renderer-id="0" transform="translate(483, 155)">
                <g id="5.cu_sy_92487nlypjwm-stroke" fill="none" stroke-linecap="round" stroke-linejoin="round" stroke-miterlimit="4" stroke="#ffffff" stroke-width="2">
                    <g>
                        <path d="M 138.913208 112C 167.079712 112 189.913208 89.166504 189.913208 61C 189.913208 32.833496 167.079712 10 138.913208 10L 60.913208 10C 37.96698 10 18.560211 25.153992 12.154785 46L 18.913208 46C 23.019012 46 27.011505 46.485199 30.836426 47.401306C 36.0177 35.959702 47.535889 28 60.913208 28L 138.913208 28C 157.138611 28 171.913208 42.774597 171.913208 61C 171.913208 79.225403 157.138611 94 138.913208 94L 69.826416 94L 60.913208 94C 57.690918 94 54.576599 93.538208 51.632568 92.677094C 39.263977 89.059387 29.903992 78.394302 28.193787 65.322906C 25.249786 64.461792 22.135498 64 18.913208 64L 10 64C 11.318115 86.723206 27.513306 105.45459 48.98999 110.598694C 52.81488 111.514801 56.807373 112 60.913208 112L 67.671631 112L 138.913208 112ZM 28.193787 65.322906C 40.562378 68.940598 49.922424 79.605698 51.632568 92.677094M 30.836426 47.401306C 52.31311 52.545395 68.508301 71.276794 69.826416 94"></path>
                    </g>
                </g>
            </g>
            <g id="g-root-tx_thebestb_dhxthvlyqyo8-stroke" data-item-order="1000000000" data-item-id="tx_thebestb_dhxthvlyqyo8" data-item-class="Label Stroke Title ColorStrokeBlack" data-item-index="none" data-renderer-id="0" transform="translate(255, 2)"></g>
            <g id="g-root-tx_emotiona_qtebv7lyqx39-stroke" data-item-order="1000000000" data-item-id="tx_emotiona_qtebv7lyqx39" data-item-class="Label Stroke Indexed ColorStrokeBlack" data-item-index="3" data-renderer-id="0" transform="translate(279, 86)"></g>
            <g id="g-root-tx_thoughtp_v8lcwjlyqzgr-stroke" data-item-order="1000000000" data-item-id="tx_thoughtp_v8lcwjlyqzgr" data-item-class="Label Stroke Indexed ColorStrokeBlack" data-item-index="5" data-renderer-id="0" transform="translate(483, 86)"></g>
            <g id="g-root-tx_profound_hxrbmblyqxvz-stroke" data-item-order="1000000000" data-item-id="tx_profound_hxrbmblyqxvz" data-item-class="Label Stroke Indexed Indexed_1 ColorStrokeBlack" data-item-index="1" data-renderer-id="0" transform="translate(3, 110)"></g>
            <g id="g-root-owl_4haxeblywjd0-stroke" data-item-order="1000000000" data-item-id="owl_4haxeblywjd0" data-item-class="Icon Stroke Indexed Indexed_1 InsideFill InsideColorFill" data-item-index="1" data-renderer-id="0" transform="translate(69, 182)">
                <g id="owl_4haxeblywjd0-stroke" fill="none" stroke-linecap="round" stroke-linejoin="round" stroke-miterlimit="4" stroke="#795ee3" stroke-width="2">
                    <g transform="translate(7, 10) scale(2)">
                        {{icon_1}}
                    </g>
                </g>
            </g>
            <g id="g-root-1_18nspsjlyjx1j-stroke" data-item-order="1000000000" data-item-id="1_18nspsjlyjx1j" data-item-class="Icon Stroke Indexed InsideFill InsideColorFill" data-item-index="3" data-renderer-id="0" transform="translate(309, 182)">
                <g id="1_18nspsjlyjx1j-stroke" fill="none" stroke-linecap="round" stroke-linejoin="round" stroke-miterlimit="4" stroke="#e15e5a" stroke-width="2">
                    <g transform="translate(7, 10) scale(2)">
                        {{icon_3}}
                    </g>
                </g>
            </g>
            <g id="g-root-face_v8lcwjlyqzgq-stroke" data-item-order="1000000000" data-item-id="face_v8lcwjlyqzgq" data-item-class="Icon Stroke Indexed InsideFill InsideColorFill" data-item-index="5" data-renderer-id="0" transform="translate(549, 182)">
                <g id="face_v8lcwjlyqzgq-stroke" fill="none" stroke-linecap="round" stroke-linejoin="round" stroke-miterlimit="4" stroke="#e3cd09" stroke-width="2">
                    <g transform="translate(7, 10) scale(2)">
                        {{icon_5}}
                    </g>
                </g>
            </g>
            <g id="g-root-shoc_qn5l03lycxs5-stroke" data-item-order="1000000000" data-item-id="shoc_qn5l03lycxs5" data-item-class="Icon Stroke Indexed InsideFill InsideColorFill" data-item-index="2" data-renderer-id="0" transform="translate(189, 218)">
                <g id="shoc_qn5l03lycxs5-stroke" fill="none" stroke-linecap="round" stroke-linejoin="round" stroke-miterlimit="4" stroke="#da5da8" stroke-width="2">
                    <g transform="translate(7, 10) scale(2)">
                        {{icon_2}}
                    </g>
                </g>
            </g>
            <g id="g-root-1_v3lk7nlyo6x9-stroke" data-item-order="1000000000" data-item-id="1_v3lk7nlyo6x9" data-item-class="Icon Stroke Indexed InsideFill InsideColorFill" data-item-index="4" data-renderer-id="0" transform="translate(429, 218)">
                <g id="1_v3lk7nlyo6x9-stroke" fill="none" stroke-linecap="round" stroke-linejoin="round" stroke-miterlimit="4" stroke="#dd8433" stroke-width="2">
                    <g transform="translate(7, 10) scale(2)">
                        {{icon_4}}
                    </g>
                </g>
            </g>
            <g id="g-root-tx_unforget_hxrbmblyqxvy-stroke" data-item-order="1000000000" data-item-id="tx_unforget_hxrbmblyqxvy" data-item-class="Label Stroke Indexed ColorStrokeBlack" data-item-index="2" data-renderer-id="0" transform="translate(141, 314)"></g>
            <g id="g-root-tx_captivat_qtebv7lyqx38-stroke" data-item-order="1000000000" data-item-id="tx_captivat_qtebv7lyqx38" data-item-class="Label Stroke Indexed ColorStrokeBlack" data-item-index="4" data-renderer-id="0" transform="translate(387, 314)"></g>
        </g>
    </g>
</svg>