<svg width="1280" height="720" xmlns="http://www.w3.org/2000/svg" xmlns:xlink="http://www.w3.org/1999/xlink" overflow="hidden">
    <defs>
        <filter id="fx0" x="-10%" y="-10%" width="120%" height="120%" filterUnits="userSpaceOnUse" primitiveUnits="userSpaceOnUse">
            <feComponentTransfer color-interpolation-filters="sRGB">
                <feFuncR type="discrete" tableValues="0 0"/>
                <feFuncG type="discrete" tableValues="0 0"/>
                <feFuncB type="discrete" tableValues="0 0"/>
                <feFuncA type="linear" slope="0.2" intercept="0"/>
            </feComponentTransfer>
            <feGaussianBlur stdDeviation="6.22222 6.20215"/>
        </filter>
        <filter id="fx1" x="-10%" y="-10%" width="120%" height="120%" filterUnits="userSpaceOnUse" primitiveUnits="userSpaceOnUse">
            <feComponentTransfer color-interpolation-filters="sRGB">
                <feFuncR type="discrete" tableValues="0 0"/>
                <feFuncG type="discrete" tableValues="0 0"/>
                <feFuncB type="discrete" tableValues="0 0"/>
                <feFuncA type="linear" slope="0.2" intercept="0"/>
            </feComponentTransfer>
            <feGaussianBlur stdDeviation="6.22222 6.20215"/>
        </filter>
        <filter id="fx2" x="-10%" y="-10%" width="120%" height="120%" filterUnits="userSpaceOnUse" primitiveUnits="userSpaceOnUse">
            <feComponentTransfer color-interpolation-filters="sRGB">
                <feFuncR type="discrete" tableValues="0 0"/>
                <feFuncG type="discrete" tableValues="0 0"/>
                <feFuncB type="discrete" tableValues="0 0"/>
                <feFuncA type="linear" slope="0.2" intercept="0"/>
            </feComponentTransfer>
            <feGaussianBlur stdDeviation="6.22222 6.20215"/>
        </filter>
        <filter id="fx3" x="-10%" y="-10%" width="120%" height="120%" filterUnits="userSpaceOnUse" primitiveUnits="userSpaceOnUse">
            <feComponentTransfer color-interpolation-filters="sRGB">
                <feFuncR type="discrete" tableValues="0 0"/>
                <feFuncG type="discrete" tableValues="0 0"/>
                <feFuncB type="discrete" tableValues="0 0"/>
                <feFuncA type="linear" slope="0.2" intercept="0"/>
            </feComponentTransfer>
            <feGaussianBlur stdDeviation="6.24701 6.20215"/>
        </filter>
        <filter id="fx4" x="-10%" y="-10%" width="120%" height="120%" filterUnits="userSpaceOnUse" primitiveUnits="userSpaceOnUse">
            <feComponentTransfer color-interpolation-filters="sRGB">
                <feFuncR type="discrete" tableValues="0 0"/>
                <feFuncG type="discrete" tableValues="0 0"/>
                <feFuncB type="discrete" tableValues="0 0"/>
                <feFuncA type="linear" slope="0.2" intercept="0"/>
            </feComponentTransfer>
            <feGaussianBlur stdDeviation="6.22222 6.20215"/>
        </filter>
        <clipPath id="clip5">
            <rect x="0" y="0" width="84" height="103"/>
        </clipPath>
        <clipPath id="clip6">
            <rect x="0" y="0" width="84" height="103"/>
        </clipPath>
        <clipPath id="clip7">
            <rect x="0" y="0" width="84" height="103"/>
        </clipPath>
        <clipPath id="clip8">
            <rect x="0" y="0" width="84" height="103"/>
        </clipPath>
        <clipPath id="clip9">
            <rect x="0" y="-4.65661e-10" width="504825" height="504825"/>
        </clipPath>
        <clipPath id="clip11">
            <rect x="-0.25" y="0" width="504825" height="504825"/>
        </clipPath>
        <clipPath id="clip13">
            <rect x="0" y="0" width="504825" height="504825"/>
        </clipPath>
        <clipPath id="clip14">
            <rect x="0" y="4.65661e-10" width="514350" height="504825"/>
        </clipPath>
        <clipPath id="clip16">
            <rect x="0" y="0" width="504825" height="504825"/>
        </clipPath>
        <clipPath id="clip17">
            <rect x="0" y="0" width="514350" height="514350"/>
        </clipPath>
        <clipPath id="clip19">
            <rect x="-0.5" y="0" width="514350" height="514350"/>
        </clipPath>
        <clipPath id="clip20">
            <rect x="0" y="0" width="504825" height="514350"/>
        </clipPath>
        <clipPath id="clip22">
            <rect x="0" y="0" width="504825" height="504825"/>
        </clipPath>
    </defs>
    <g>
        <rect x="0" y="0" width="1280" height="720" fill="#FFFFFF"/>
        <text fill="#0F6FC6" font-family="Open Sans,Open Sans_MSFontService,sans-serif" font-weight="700" font-size="48" transform="translate(85.6 111)">{{header}}</text>
        <text font-family="Open Sans Light,Open Sans Light_MSFontService,sans-serif" font-weight="300" font-size="16" transform="translate(88 146)">{{sub_header}}</text>
        <g filter="url(#fx0)" transform="matrix(3 0 0 3.00971 135 206)">
            <g clip-path="url(#clip5)">
                <path d="M65 41.8937C65 29.2061 54.7207 18.9387 42.0183 18.9387 29.316 18.9387 19 29.2428 19 41.8937 19 53.1512 27.0766 62.5019 37.7598 64.4821 38.7143 64.6654 39.4485 65.5088 39.4485 66.4989 39.4485 66.4989 39.4485 66.4989 39.4485 66.4989 39.4485 66.4989 39.4485 66.5356 39.4485 66.5356 39.4485 66.5356 39.4485 66.5356 39.4485 66.5356 39.4485 67.379 38.9713 68.0757 38.237 68.4424 35.3735 69.9091 33.4645 72.9527 33.6847 76.4363 33.9784 80.6166 37.3927 83.9535 41.6145 84.1735 46.3871 84.3936 50.3152 80.5799 50.3152 75.8496 50.3152 72.6227 48.4429 69.8358 45.763 68.4424 45.0287 68.0757 44.5515 67.379 44.5148 66.5356 44.5148 66.5356 44.5148 66.5356 44.5148 66.5356 44.5148 66.5356 44.5148 66.4989 44.5148 66.4989 44.5148 66.4989 44.5148 66.4989 44.5148 66.4989 44.5515 65.5088 45.249 64.6654 46.2402 64.4821 56.9234 62.5019 65 53.1512 65 41.8937Z" fill="#0F6FC6" fill-rule="evenodd"/>
            </g>
        </g>
        <path d="M330 332.088C330 293.902 299.162 263 261.055 263 222.948 263 192 294.012 192 332.088 192 365.97 216.23 394.113 248.279 400.072 251.143 400.624 253.346 403.162 253.346 406.142 253.346 406.142 253.346 406.142 253.346 406.142 253.346 406.142 253.346 406.253 253.346 406.253 253.346 406.253 253.346 406.253 253.346 406.253 253.346 408.791 251.914 410.888 249.711 411.992 241.121 416.406 235.393 425.566 236.054 436.051 236.935 448.633 247.178 458.676 259.844 459.338 274.161 460 285.946 448.522 285.946 434.285 285.946 424.573 280.329 416.185 272.289 411.992 270.086 410.888 268.654 408.791 268.544 406.253 268.544 406.253 268.544 406.253 268.544 406.253 268.544 406.253 268.544 406.142 268.544 406.142 268.544 406.142 268.544 406.142 268.544 406.142 268.654 403.162 270.747 400.624 273.721 400.072 305.77 394.113 330 365.97 330 332.088Z" fill="#0F6FC6" fill-rule="evenodd"/>
        <g filter="url(#fx1)" transform="matrix(3 0 0 3.00971 487 206)">
            <g clip-path="url(#clip6)" transform="translate(-2.84217e-14 0)">
                <path d="M65 41.8937C65 29.2061 54.7207 18.9387 42.0183 18.9387 29.316 18.9387 19 29.2428 19 41.8937 19 53.1512 27.0766 62.5019 37.7598 64.4821 38.7143 64.6654 39.4485 65.5088 39.4485 66.4989 39.4485 66.4989 39.4485 66.4989 39.4485 66.4989 39.4485 66.4989 39.4485 66.5356 39.4485 66.5356 39.4485 66.5356 39.4485 66.5356 39.4485 66.5356 39.4485 67.379 38.9713 68.0757 38.237 68.4424 35.3735 69.9091 33.4645 72.9527 33.6847 76.4363 33.9784 80.6166 37.3926 83.9535 41.6145 84.1735 46.3871 84.3936 50.3152 80.5799 50.3152 75.8496 50.3152 72.6227 48.4429 69.8358 45.763 68.4424 45.0287 68.0757 44.5515 67.379 44.5148 66.5356 44.5148 66.5356 44.5148 66.5356 44.5148 66.5356 44.5148 66.5356 44.5148 66.4989 44.5148 66.4989 44.5148 66.4989 44.5148 66.4989 44.5148 66.4989 44.5515 65.5088 45.249 64.6654 46.2402 64.4821 56.9234 62.5019 65 53.1512 65 41.8937Z" fill="#0BD0D9" fill-rule="evenodd"/>
            </g>
        </g>
        <path d="M682 332.088C682 293.902 651.162 263 613.055 263 574.948 263 544 294.012 544 332.088 544 365.97 568.23 394.113 600.279 400.072 603.143 400.624 605.346 403.162 605.346 406.142 605.346 406.142 605.346 406.142 605.346 406.142 605.346 406.142 605.346 406.253 605.346 406.253 605.346 406.253 605.346 406.253 605.346 406.253 605.346 408.791 603.914 410.888 601.711 411.992 593.12 416.406 587.393 425.566 588.054 436.051 588.935 448.633 599.178 458.676 611.844 459.338 626.161 460 637.946 448.522 637.946 434.285 637.946 424.573 632.329 416.185 624.289 411.992 622.086 410.888 620.654 408.791 620.544 406.253 620.544 406.253 620.544 406.253 620.544 406.253 620.544 406.253 620.544 406.142 620.544 406.142 620.544 406.142 620.544 406.142 620.544 406.142 620.654 403.162 622.747 400.624 625.721 400.072 657.77 394.113 682 365.97 682 332.088Z" fill="#0BD0D9" fill-rule="evenodd"/>
        <g filter="url(#fx2)" transform="matrix(3 0 0 3.00971 838 206)">
            <g>
                <path d="M65 41.8937C65 29.2061 54.7207 18.9387 42.0184 18.9387 29.316 18.9387 19 29.2428 19 41.8937 19 53.1512 27.0766 62.5019 37.7598 64.4821 38.7143 64.6654 39.4485 65.5088 39.4485 66.4989 39.4485 66.4989 39.4485 66.4989 39.4485 66.4989 39.4485 66.4989 39.4485 66.5356 39.4485 66.5356 39.4485 66.5356 39.4485 66.5356 39.4485 66.5356 39.4485 67.379 38.9713 68.0757 38.237 68.4424 35.3735 69.9091 33.4645 72.9527 33.6848 76.4363 33.9785 80.6166 37.3927 83.9535 41.6145 84.1735 46.3871 84.3936 50.3152 80.5799 50.3152 75.8496 50.3152 72.6227 48.4429 69.8358 45.763 68.4424 45.0287 68.0757 44.5515 67.379 44.5148 66.5356 44.5148 66.5356 44.5148 66.5356 44.5148 66.5356 44.5148 66.5356 44.5148 66.4989 44.5148 66.4989 44.5148 66.4989 44.5148 66.4989 44.5148 66.4989 44.5515 65.5088 45.249 64.6654 46.2402 64.4821 56.9234 62.5019 65 53.1512 65 41.8937Z" fill="#7CCA62" fill-rule="evenodd"/>
            </g>
        </g>
        <path d="M1033 332.088C1033 293.902 1002.16 263 964.055 263 925.948 263 895 294.012 895 332.088 895 365.97 919.23 394.113 951.279 400.072 954.143 400.624 956.346 403.162 956.346 406.142 956.346 406.142 956.346 406.142 956.346 406.142 956.346 406.142 956.346 406.253 956.346 406.253 956.346 406.253 956.346 406.253 956.346 406.253 956.346 408.791 954.914 410.888 952.711 411.992 944.12 416.406 938.393 425.566 939.054 436.051 939.935 448.633 950.178 458.676 962.844 459.338 977.161 460 988.946 448.522 988.946 434.285 988.946 424.573 983.329 416.185 975.289 411.992 973.086 410.888 971.654 408.791 971.544 406.253 971.544 406.253 971.544 406.253 971.544 406.253 971.544 406.253 971.544 406.142 971.544 406.142 971.544 406.142 971.544 406.142 971.544 406.142 971.654 403.162 973.747 400.624 976.721 400.072 1008.77 394.113 1033 365.97 1033 332.088Z" fill="#7CCA62" fill-rule="evenodd"/>
        <g filter="url(#fx3)" transform="matrix(2.9881 0 0 3.00971 663 332)">
            <g clip-path="url(#clip7)">
                <path d="M19.0757 61.1063C19.0757 73.7939 29.3212 84.0613 41.9817 84.0613 54.6422 84.0613 64.9243 73.7572 64.9243 61.1063 64.9243 49.8488 56.8743 40.4981 46.2262 38.5179 45.2749 38.3346 44.5431 37.4912 44.5431 36.5011 44.5431 36.5011 44.5431 36.5011 44.5431 36.5011 44.5431 36.5011 44.5431 36.4644 44.5431 36.4644 44.5431 36.4644 44.5431 36.4644 44.5431 36.4644 44.5431 35.621 45.0187 34.9243 45.7506 34.5576 48.6047 33.0909 50.5074 30.0473 50.2879 26.5637 49.9951 22.3834 46.5922 19.0465 42.3842 18.8265 37.6273 18.6065 33.7121 22.4201 33.7121 27.1504 33.7121 30.3773 35.5783 33.1642 38.2494 34.5576 38.9812 34.9243 39.4569 35.621 39.4935 36.4644 39.4935 36.4644 39.4935 36.4644 39.4935 36.4644 39.4935 36.4644 39.4935 36.5011 39.4935 36.5011 39.4935 36.5011 39.4935 36.5011 39.4935 36.5011 39.4569 37.4912 38.7617 38.3346 37.7737 38.5179 27.1257 40.4981 19.0757 49.8488 19.0757 61.1063Z" fill="#10CF9B" fill-rule="evenodd"/>
            </g>
        </g>
        <path d="M720 515.912C720 554.098 750.615 585 788.445 585 826.276 585 857 553.988 857 515.912 857 482.03 832.946 453.887 801.128 447.928 798.286 447.376 796.099 444.838 796.099 441.858 796.099 441.858 796.099 441.858 796.099 441.858 796.099 441.858 796.099 441.747 796.099 441.747 796.099 441.747 796.099 441.747 796.099 441.747 796.099 439.209 797.52 437.112 799.707 436.008 808.235 431.594 813.921 422.434 813.265 411.949 812.39 399.367 802.222 389.324 789.648 388.662 775.434 388 763.735 399.478 763.735 413.715 763.735 423.427 769.311 431.815 777.293 436.008 779.48 437.112 780.901 439.209 781.01 441.747 781.01 441.747 781.01 441.747 781.01 441.747 781.01 441.747 781.01 441.858 781.01 441.858 781.01 441.858 781.01 441.858 781.01 441.858 780.901 444.838 778.824 447.376 775.872 447.928 744.054 453.887 720 482.03 720 515.912Z" fill="#10CF9B" fill-rule="evenodd"/>
        <g filter="url(#fx4)" transform="matrix(3 0 0 3.00971 311 332)">
            <g clip-path="url(#clip8)" transform="translate(-1.42109e-14 0)">
                <path d="M19 61.1063C19 73.7939 29.2793 84.0613 41.9816 84.0613 54.684 84.0613 65 73.7572 65 61.1063 65 49.8488 56.9234 40.4981 46.2402 38.5179 45.2857 38.3346 44.5515 37.4912 44.5515 36.5011 44.5515 36.5011 44.5515 36.5011 44.5515 36.5011 44.5515 36.5011 44.5515 36.4644 44.5515 36.4644 44.5515 36.4644 44.5515 36.4644 44.5515 36.4644 44.5515 35.621 45.0287 34.9243 45.763 34.5576 48.6265 33.0909 50.5355 30.0473 50.3152 26.5637 50.0215 22.3834 46.6073 19.0465 42.3855 18.8265 37.6129 18.6065 33.6848 22.4201 33.6848 27.1504 33.6848 30.3773 35.5571 33.1642 38.237 34.5576 38.9713 34.9243 39.4485 35.621 39.4852 36.4644 39.4852 36.4644 39.4852 36.4644 39.4852 36.4644 39.4852 36.4644 39.4852 36.5011 39.4852 36.5011 39.4852 36.5011 39.4852 36.5011 39.4852 36.5011 39.4485 37.4912 38.751 38.3346 37.7598 38.5179 27.0766 40.4981 19 49.8488 19 61.1063Z" fill="#009DD9" fill-rule="evenodd"/>
            </g>
        </g>
        <path d="M368 515.912C368 554.098 398.838 585 436.945 585 475.052 585 506 553.988 506 515.912 506 482.03 481.77 453.887 449.721 447.928 446.857 447.376 444.654 444.838 444.654 441.858 444.654 441.858 444.654 441.858 444.654 441.858 444.654 441.858 444.654 441.747 444.654 441.747 444.654 441.747 444.654 441.747 444.654 441.747 444.654 439.209 446.086 437.112 448.289 436.008 456.879 431.594 462.607 422.434 461.946 411.949 461.065 399.367 450.822 389.324 438.156 388.662 423.839 388 412.054 399.478 412.054 413.715 412.054 423.427 417.671 431.815 425.711 436.008 427.914 437.112 429.346 439.209 429.456 441.747 429.456 441.747 429.456 441.747 429.456 441.747 429.456 441.747 429.456 441.858 429.456 441.858 429.456 441.858 429.456 441.858 429.456 441.858 429.346 444.838 427.253 447.376 424.279 447.928 392.23 453.887 368 482.03 368 515.912Z" fill="#009DD9" fill-rule="evenodd"/>
        <text fill="#FFFFFF" font-family="Open Sans Light,Open Sans Light_MSFontService,sans-serif" font-weight="300" font-size="25" transform="translate(246.457 443)">01</text>
        <text fill="#FFFFFF" font-family="Open Sans Light,Open Sans Light_MSFontService,sans-serif" font-weight="300" font-size="25" transform="translate(420.798 421)">02</text>
        <text fill="#FFFFFF" font-family="Open Sans Light,Open Sans Light_MSFontService,sans-serif" font-weight="300" font-size="25" transform="translate(598.172 443)">03</text>
        <text fill="#FFFFFF" font-family="Open Sans Light,Open Sans Light_MSFontService,sans-serif" font-weight="300" font-size="25" transform="translate(948.812 443)">05</text>
        <text fill="#FFFFFF" font-family="Open Sans Light,Open Sans Light_MSFontService,sans-serif" font-weight="300" font-size="25" transform="translate(771.862 421)">04</text>
        <path d="M275.851 475.849 275.964 476.083 275.954 476.061 276.293 476.737 276.28 476.712 276.847 477.789 276.832 477.762 277.627 479.199 277.6 479.153 279.879 482.948 279.836 482.882 283.038 487.632 282.984 487.557 287.116 492.938 287.046 492.854 292.115 498.542 292.024 498.448 298.038 504.118 297.92 504.018 304.885 509.346 304.788 509.277 309.648 512.419 309.59 512.383 314.239 515.093 314.178 515.059 318.603 517.369 318.54 517.338 322.726 519.279 322.63 519.238 330.226 522.141 330.042 522.084 335.477 523.392 334.775 526.309 329.246 524.978 321.51 522.022 317.246 520.044 312.759 517.702 308.049 514.957 303.109 511.765 296.036 506.354 289.919 500.586 284.77 494.809 280.576 489.347 277.327 484.526 275.015 480.674 274.199 479.2 273.618 478.096 273.267 477.397 273.149 477.151ZM334.663 517.216 348.5 526.692 332.617 532.076Z" fill="#999999"/>
        <path d="M626.848 475.842 626.962 476.076 626.951 476.054 627.295 476.73 627.282 476.705 627.857 477.782 627.842 477.754 628.647 479.192 628.62 479.146 630.929 482.94 630.886 482.874 634.131 487.624 634.076 487.549 638.264 492.93 638.194 492.846 643.331 498.534 643.24 498.441 649.335 504.111 649.216 504.012 656.275 509.34 656.178 509.272 661.105 512.414 661.046 512.378 665.759 515.088 665.698 515.055 670.182 517.365 670.12 517.334 674.362 519.275 674.267 519.236 681.966 522.139 681.785 522.083 687.468 523.44 686.771 526.358 680.996 524.979 673.16 522.025 668.84 520.048 664.293 517.706 659.521 514.962 654.515 511.77 647.348 506.36 641.149 500.593 635.93 494.816 631.68 489.355 628.387 484.533 626.043 480.682 625.217 479.207 624.628 478.104 624.272 477.404 624.152 477.158ZM686.629 517.266 700.5 526.692 684.637 532.133Z" fill="#999999"/>
        <path d="M1.35124-0.651271 1.46419-0.416918 1.45346-0.438737 1.7929 0.237284 1.77983 0.211861 2.34663 1.28899 2.33186 1.26161 3.12688 2.69929 3.10026 2.6531 5.37848 6.44788 5.33631 6.38163 8.53789 11.1319 8.48378 11.0567 12.6157 16.4381 12.5458 16.3536 17.6149 22.0415 17.5242 21.9481 23.5376 27.6181 23.4199 27.5181 30.3846 32.8457 30.2874 32.7773 35.1484 35.9189 35.0894 35.8827 39.7394 38.5926 39.6782 38.5588 44.103 40.8685 44.04 40.8374 48.2255 42.7786 48.1299 42.7382 55.7263 45.6412 55.5419 45.584 60.9772 46.8924 60.2751 49.809 54.7457 48.4781 47.0104 45.522 42.746 43.5442 38.2591 41.2021 33.549 38.4573 28.6091 35.2646 21.5358 29.8539 15.4187 24.0861 10.2696 18.3086 6.07607 12.847 2.82663 8.02572 0.514463 4.17441-0.300996 2.69978-0.881695 1.59624-1.23301 0.896581-1.35124 0.651271ZM60.1629 40.7162 74 50.1917 58.1174 55.5761Z" fill="#999999" transform="matrix(1 0 0 -1 801.5 373.5)"/>
        <path d="M1.35124-0.651271 1.46419-0.416918 1.45346-0.438737 1.7929 0.237284 1.77983 0.211861 2.34663 1.28899 2.33186 1.26161 3.12688 2.69929 3.10026 2.6531 5.37848 6.44788 5.33631 6.38163 8.53789 11.1319 8.48378 11.0567 12.6157 16.4381 12.5458 16.3536 17.6149 22.0415 17.5242 21.9481 23.5376 27.6181 23.4199 27.5181 30.3846 32.8457 30.2874 32.7773 35.1484 35.9189 35.0894 35.8827 39.7394 38.5926 39.6782 38.5588 44.103 40.8685 44.04 40.8374 48.2255 42.7786 48.1299 42.7382 55.7263 45.6412 55.5419 45.584 60.9772 46.8924 60.2751 49.809 54.7457 48.4781 47.0104 45.522 42.746 43.5442 38.2591 41.2021 33.549 38.4573 28.6091 35.2646 21.5358 29.8539 15.4187 24.0861 10.2696 18.3086 6.07607 12.847 2.82663 8.02572 0.514463 4.17441-0.300996 2.69978-0.881695 1.59624-1.23301 0.896581-1.35124 0.651271ZM60.1629 40.7162 74 50.1917 58.1174 55.5761Z" fill="#999999" transform="matrix(1 0 0 -1 450.5 373.5)"/>
        <text font-family="Open Sans Light,Open Sans Light_MSFontService,sans-serif" font-weight="300" font-size="16" transform="translate(260 222)" text-anchor="middle">{{desc_1_line_1}}</text>
        <text font-family="Open Sans Light,Open Sans Light_MSFontService,sans-serif" font-weight="300" font-size="16" transform="translate(260 245)" text-anchor="middle">{{desc_1_line_2}}</text>
        <text font-family="Open Sans Light,Open Sans Light_MSFontService,sans-serif" font-weight="300" font-size="16" transform="translate(615 222)" text-anchor="middle">{{desc_3_line_1}}</text>
        <text font-family="Open Sans Light,Open Sans Light_MSFontService,sans-serif" font-weight="300" font-size="16" transform="translate(615 245)" text-anchor="middle">{{desc_3_line_2}}</text>
        <text font-family="Open Sans Light,Open Sans Light_MSFontService,sans-serif" font-weight="300" font-size="16" transform="translate(965 222)" text-anchor="middle">{{desc_5_line_1}}</text>
        <text font-family="Open Sans Light,Open Sans Light_MSFontService,sans-serif" font-weight="300" font-size="16" transform="translate(965 245)" text-anchor="middle">{{desc_5_line_2}}</text>
        <text font-family="Open Sans Light,Open Sans Light_MSFontService,sans-serif" font-weight="300" font-size="16" transform="translate(440 616)" text-anchor="middle">{{desc_2_line_1}}</text>
        <text font-family="Open Sans Light,Open Sans Light_MSFontService,sans-serif" font-weight="300" font-size="16" transform="translate(440 639)" text-anchor="middle">{{desc_2_line_2}}</text>
        <text font-family="Open Sans Light,Open Sans Light_MSFontService,sans-serif" font-weight="300" font-size="16" transform="translate(790 616)" text-anchor="middle">{{desc_4_line_1}}</text>
        <text font-family="Open Sans Light,Open Sans Light_MSFontService,sans-serif" font-weight="300" font-size="16" transform="translate(790 639)" text-anchor="middle">{{desc_4_line_2}}</text>
        {{fallback_icon_1}}
        {{fallback_icon_2}}
        {{fallback_icon_3}}
        {{fallback_icon_4}}
        {{fallback_icon_5}}
        <g id="img1" transform="translate(230 300) scale(2.4)" stroke="white" stroke-width="0.8" fill="none">
            {{icon_1}}
        </g>
        <g id="img4" transform="translate(760 490) scale(2.4)" stroke="black" stroke-width="0.8" fill="none">
            {{icon_4}}
        </g>
        <g id="img3" transform="translate(585 300) scale(2.4)" stroke="white" stroke-width="0.8" fill="none">
            {{icon_3}}
        </g>
        <g id="img2" transform="translate(405 490) scale(2.4)" stroke="white" stroke-width="0.8" fill="none">
            {{icon_2}}
        </g>
        <g id="img5" transform="translate(935 300) scale(2.4)" stroke="black" stroke-width="0.8" fill="none">
            {{icon_5}}
        </g>
        <g clip-path="url(#clip9)" transform="matrix(0.000104987 0 0 0.000104987 235 303)">
            <g clip-path="url(#clip11)">
                <use width="100%" height="100%" xlink:href="#img1" transform="matrix(7887.89 0 0 7887.89 -0.25 0)"></use>
            </g>
        </g>
        <g transform="matrix(0.000104987 0 0 0.000104987 587 303)">
            <g clip-path="url(#clip13)">
                <use width="100%" height="100%" xlink:href="#img3" transform="scale(7887.89 7887.89)"></use>
            </g>
        </g>
        <g clip-path="url(#clip14)" transform="matrix(0.000104987 0 0 0.000104987 939 304)">
            <g clip-path="url(#clip16)" transform="matrix(1.01887 0 0 1 -1 -0.25)">
                <use width="100%" height="100%" xlink:href="#img5" transform="scale(7887.89 7887.89)"></use>
            </g>
        </g>
        <g clip-path="url(#clip17)" transform="matrix(0.000104987 0 0 0.000104987 761 488)">
            <g clip-path="url(#clip19)">
                <use width="100%" height="100%" xlink:href="#img4" transform="matrix(8036.72 0 0 8036.72 -0.5 0)"></use>
            </g>
        </g>
        <g clip-path="url(#clip20)" transform="matrix(0.000104987 0 0 0.000104987 410 488)">
            <g clip-path="url(#clip22)" transform="matrix(1 0 0 1.01887 -0.25 0)">
                <use width="100%" height="100%" xlink:href="#img2" transform="scale(7887.89 7887.89)"></use>
            </g>
        </g>
    </g>
</svg>