<svg width="1280" height="720" xmlns="http://www.w3.org/2000/svg" xmlns:xlink="http://www.w3.org/1999/xlink" overflow="hidden">
    <defs>
        <filter id="fx0" x="-10%" y="-10%" width="120%" height="120%" filterUnits="userSpaceOnUse" primitiveUnits="userSpaceOnUse">
            <feComponentTransfer color-interpolation-filters="sRGB">
                <feFuncR type="discrete" tableValues="0 0"/>
                <feFuncG type="discrete" tableValues="0 0"/>
                <feFuncB type="discrete" tableValues="0 0"/>
                <feFuncA type="linear" slope="0.2" intercept="0"/>
            </feComponentTransfer>
            <feGaussianBlur stdDeviation="6.2446 6.22222"/>
        </filter>
        <filter id="fx1" x="-10%" y="-10%" width="120%" height="120%" filterUnits="userSpaceOnUse" primitiveUnits="userSpaceOnUse">
            <feComponentTransfer color-interpolation-filters="sRGB">
                <feFuncR type="discrete" tableValues="0 0"/>
                <feFuncG type="discrete" tableValues="0 0"/>
                <feFuncB type="discrete" tableValues="0 0"/>
                <feFuncA type="linear" slope="0.2" intercept="0"/>
            </feComponentTransfer>
            <feGaussianBlur stdDeviation="6.22222 6.20567"/>
        </filter>
        <filter id="fx2" x="-10%" y="-10%" width="120%" height="120%" filterUnits="userSpaceOnUse" primitiveUnits="userSpaceOnUse">
            <feComponentTransfer color-interpolation-filters="sRGB">
                <feFuncR type="discrete" tableValues="0 0"/>
                <feFuncG type="discrete" tableValues="0 0"/>
                <feFuncB type="discrete" tableValues="0 0"/>
                <feFuncA type="linear" slope="0.2" intercept="0"/>
            </feComponentTransfer>
            <feGaussianBlur stdDeviation="6.24413 6.21236"/>
        </filter>
        <filter id="fx3" x="-10%" y="-10%" width="120%" height="120%" filterUnits="userSpaceOnUse" primitiveUnits="userSpaceOnUse">
            <feComponentTransfer color-interpolation-filters="sRGB">
                <feFuncR type="discrete" tableValues="0 0"/>
                <feFuncG type="discrete" tableValues="0 0"/>
                <feFuncB type="discrete" tableValues="0 0"/>
                <feFuncA type="linear" slope="0.2" intercept="0"/>
            </feComponentTransfer>
            <feGaussianBlur stdDeviation="6.24535 6.20912"/>
        </filter>
        <filter id="fx4" x="-10%" y="-10%" width="120%" height="120%" filterUnits="userSpaceOnUse" primitiveUnits="userSpaceOnUse">
            <feComponentTransfer color-interpolation-filters="sRGB">
                <feFuncR type="discrete" tableValues="0 0"/>
                <feFuncG type="discrete" tableValues="0 0"/>
                <feFuncB type="discrete" tableValues="0 0"/>
                <feFuncA type="linear" slope="0.2" intercept="0"/>
            </feComponentTransfer>
            <feGaussianBlur stdDeviation="6.19608 6.19608"/>
        </filter>
        <filter id="fx5" x="-10%" y="-10%" width="120%" height="120%" filterUnits="userSpaceOnUse" primitiveUnits="userSpaceOnUse">
            <feComponentTransfer color-interpolation-filters="sRGB">
                <feFuncR type="discrete" tableValues="0 0"/>
                <feFuncG type="discrete" tableValues="0 0"/>
                <feFuncB type="discrete" tableValues="0 0"/>
                <feFuncA type="linear" slope="0.2" intercept="0"/>
            </feComponentTransfer>
            <feGaussianBlur stdDeviation="6.24826 6.24826"/>
        </filter>
        <filter id="fx6" x="-10%" y="-10%" width="120%" height="120%" filterUnits="userSpaceOnUse" primitiveUnits="userSpaceOnUse">
            <feComponentTransfer color-interpolation-filters="sRGB">
                <feFuncR type="discrete" tableValues="0 0"/>
                <feFuncG type="discrete" tableValues="0 0"/>
                <feFuncB type="discrete" tableValues="0 0"/>
                <feFuncA type="linear" slope="0.2" intercept="0"/>
            </feComponentTransfer>
            <feGaussianBlur stdDeviation="6.24826 6.24826"/>
        </filter>
        <filter id="fx7" x="-10%" y="-10%" width="120%" height="120%" filterUnits="userSpaceOnUse" primitiveUnits="userSpaceOnUse">
            <feComponentTransfer color-interpolation-filters="sRGB">
                <feFuncR type="discrete" tableValues="0 0"/>
                <feFuncG type="discrete" tableValues="0 0"/>
                <feFuncB type="discrete" tableValues="0 0"/>
                <feFuncA type="linear" slope="0.2" intercept="0"/>
            </feComponentTransfer>
            <feGaussianBlur stdDeviation="6.19608 6.19608"/>
        </filter>
        <clipPath id="clip8">
            <rect x="0" y="0" width="1280" height="720"/>
        </clipPath>
        <clipPath id="clip9">
            <rect x="0" y="0" width="85" height="125"/>
        </clipPath>
        <clipPath id="clip10">
            <rect x="0" y="0" width="95" height="210"/>
        </clipPath>
        <clipPath id="clip11">
            <rect x="0" y="0" width="90" height="158"/>
        </clipPath>
        <clipPath id="clip12">
            <rect x="0" y="0" width="79" height="79"/>
        </clipPath>
        <clipPath id="clip13">
            <rect x="0" y="0" width="80" height="80"/>
        </clipPath>
        <clipPath id="clip14">
            <rect x="0" y="0" width="79" height="79"/>
        </clipPath>
        <clipPath id="clip16">
            <rect x="0" y="0" width="571500" height="571500"/>
        </clipPath>
        <clipPath id="clip17">
            <rect x="-4.65661e-10" y="0" width="571500" height="561975"/>
        </clipPath>
        <clipPath id="clip19">
            <rect x="0" y="0" width="561975" height="561975"/>
        </clipPath>
        <clipPath id="clip20">
            <rect x="0" y="0" width="571500" height="561975"/>
        </clipPath>
        <clipPath id="clip22">
            <rect x="0" y="0" width="561975" height="561975"/>
        </clipPath>
        <clipPath id="clip23">
            <rect x="0" y="0" width="571500" height="561975"/>
        </clipPath>
        <clipPath id="clip25">
            <rect x="0" y="0" width="561975" height="561975"/>
        </clipPath>
    </defs>
    <g clip-path="url(#clip8)">
        <rect x="0" y="0" width="1280" height="720" fill="#FFFFFF"/>
        <text fill="#0F6FC6" font-family="Open Sans,Open Sans_MSFontService,sans-serif" font-weight="700" font-size="48" transform="translate(85.6 111)">{{header}}</text>
        <text font-family="Open Sans Light,Open Sans Light_MSFontService,sans-serif" font-weight="300" font-size="16" transform="translate(88 146)">{{sub_header}}</text>
        <g filter="url(#fx0)" transform="matrix(2.98925 0 0 3 415 251)">
            <g transform="matrix(1 0 0 1 0 -1.42109e-14)">
                <path d="M57.8741 27 57.8741 156.333 73.9317 156.333 73.9317 43.1736 57.8741 27Z" fill="#009DD9" fill-rule="evenodd"/>
                <path d="M57.6829 27 36.1295 27 36.1295 34.9175 36.1295 43 73.9317 43 57.6829 27Z" fill="#0076A3" fill-rule="evenodd"/>
                <path d="M36.1295 19 19.0684 34.861 36.1295 50.6667 36.1295 42.9849 36.1295 34.861 36.1295 26.9029 36.1295 19Z" fill="#0076A3" fill-rule="evenodd"/>
            </g>
        </g>
        <path d="M588 332 588 720 636 720 636 380.521 588 332Z" fill="#009DD9" fill-rule="evenodd"/>
        <path d="M587.428 332 523 332 523 355.753 523 380 636 380 587.428 332Z" fill="#0076A3" fill-rule="evenodd"/>
        <path d="M523 308 472 355.583 523 403 523 379.955 523 355.583 523 331.709 523 308Z" fill="#0076A3" fill-rule="evenodd"/>
        <g filter="url(#fx1)" transform="matrix(3 0 0 3.008 379 400)">
            <g clip-path="url(#clip9)">
                <path d="M50 26.9282 50 106.383 66 106.383 66 43.0294 50 26.9282Z" fill="#0F6FC6" fill-rule="evenodd"/>
                <path d="M49.8943 26.5958 36.6667 26.5958 36.6667 34.8247 36.6667 42.8857 66 42.8857 49.8943 26.5958Z" fill="#0B5395" fill-rule="evenodd"/>
                <path d="M36.6667 18.9495 19 34.8791 36.6667 50.8644 36.6667 42.8996 36.6667 34.8791 36.6667 26.6915 36.6667 26.6915 36.6667 18.9495Z" fill="#0B5395" fill-rule="evenodd"/>
            </g>
        </g>
        <path d="M529 481 529 720 577 720 577 529.432 529 481Z" fill="#0F6FC6" fill-rule="evenodd"/>
        <path d="M528.683 480 489 480 489 504.753 489 529 577 529 528.683 480Z" fill="#0B5395" fill-rule="evenodd"/>
        <path d="M489 457 436 504.916 489 553 489 529.042 489 504.916 489 480.288 489 480.288 489 457Z" fill="#0B5395" fill-rule="evenodd"/>
        <g filter="url(#fx2)" transform="matrix(2.98947 0 0 3.00476 590 145)">
            <g clip-path="url(#clip10)">
                <path d="M35.1232 27.9556 35.1232 191.363 19.0669 191.363 19.0669 44.0357 35.1232 27.9556Z" fill="#0BD0D9" fill-rule="evenodd"/>
                <path d="M58.5387 26.6244 35.2347 26.6244 19.0669 43.9303 58.5387 43.9303 58.5387 35.3967 58.5387 26.6244Z" fill="#089CA3" fill-rule="evenodd"/>
                <path d="M58.5387 18.9699 58.5387 27.2854 58.5387 36.0794 58.5387 44.6342 58.5387 53.2488 75.9331 36.0794 58.5387 18.9699Z" fill="#089CA3" fill-rule="evenodd"/>
            </g>
        </g>
        <path d="M695 229 695 720 647 720 647 277.317 695 229Z" fill="#0BD0D9" fill-rule="evenodd"/>
        <path d="M765 225 695.333 225 647 277 765 277 765 251.359 765 225Z" fill="#089CA3" fill-rule="evenodd"/>
        <path d="M765 202 765 226.986 765 253.41 765 279.115 765 305 817 253.41 765 202Z" fill="#089CA3" fill-rule="evenodd"/>
        <g filter="url(#fx3)" transform="matrix(2.98889 0 0 3.00633 649 301)">
            <g clip-path="url(#clip11)" transform="translate(2.84217e-14 0)">
                <path d="M35.1301 27.941 35.1301 139.373 19.0706 139.373 19.0706 44.0343 35.1301 27.941Z" fill="#10CF9B" fill-rule="evenodd"/>
                <path d="M53.5316 26.6105 35.1635 26.6105 19.0706 43.9074 53.5316 43.9074 53.5316 35.3782 53.5316 26.6105Z" fill="#0C9B74" fill-rule="evenodd"/>
                <path d="M53.5316 18.96 53.5316 27.3309 53.5316 36.1204 53.5316 44.6707 53.5316 53.221 70.9294 36.1204 53.5316 18.96Z" fill="#0C9B74" fill-rule="evenodd"/>
            </g>
        </g>
        <path d="M754 385 754 720 706 720 706 433.381 754 385Z" fill="#10CF9B" fill-rule="evenodd"/>
        <path d="M809 381 754.1 381 706 433 809 433 809 407.359 809 381Z" fill="#0C9B74" fill-rule="evenodd"/>
        <path d="M809 358 809 383.166 809 409.59 809 435.295 809 461 861 409.59 809 358Z" fill="#0C9B74" fill-rule="evenodd"/>
        <g filter="url(#fx4)" transform="matrix(3.01266 0 0 3.01266 276 233)">
            <g clip-path="url(#clip12)">
                <path d="M56.4252 39.334 56.4252 39.334C56.4252 48.7646 48.8487 56.4252 39.5051 56.4252 30.1446 56.4252 22.5714 48.7646 22.5714 39.334 22.5714 29.9001 30.1446 22.2395 39.5051 22.2395 48.8487 22.2395 56.4252 29.9001 56.4252 39.334" fill="#009DD9" fill-rule="evenodd"/>
                <path d="M57.0924 28.6155C55.4328 25.873 53.1461 23.5753 50.4169 21.9076 49.458 23.5382 49.458 23.5382 49.458 23.5382 51.8922 25.0577 53.9575 27.096 55.4697 29.542L57.0924 28.6155Z" fill="#009DD9" fill-rule="evenodd"/>
                <path d="M40.1639 18.9202C40.1639 20.7503 40.1639 20.7503 40.1639 20.7503 43.162 20.8221 46.0102 21.6115 48.4836 22.9034 49.458 21.3244 49.458 21.3244 49.458 21.3244 46.6847 19.8532 43.5367 18.9919 40.1639 18.9202Z" fill="#009DD9" fill-rule="evenodd"/>
                <path d="M57.7114 29.542C56.0966 30.5553 56.0966 30.5553 56.0966 30.5553 57.4244 33.1274 58.1779 36.0503 58.2497 39.1681 60.0798 39.1681 60.0798 39.1681 60.0798 39.1681 60.0081 35.6996 59.1468 32.4259 57.7114 29.542Z" fill="#009DD9" fill-rule="evenodd"/>
                <path d="M58.2497 39.8319C58.1779 42.9371 57.4244 45.887 56.0966 48.4488 57.7114 49.458 57.7114 49.458 57.7114 49.458 59.1468 46.5857 60.0081 43.3253 60.0798 39.8319L58.2497 39.8319Z" fill="#009DD9" fill-rule="evenodd"/>
                <path d="M57.0924 50.1267C55.4697 49.126 55.4697 49.126 55.4697 49.126 53.9575 51.6661 51.8922 53.8212 49.458 55.3991 50.4169 57.0924 50.4169 57.0924 50.4169 57.0924 53.1461 55.3606 55.4328 52.9745 57.0924 50.1267Z" fill="#009DD9" fill-rule="evenodd"/>
                <path d="M49.458 57.6899C48.4836 56.0966 48.4836 56.0966 48.4836 56.0966 46.0102 57.4002 43.162 58.1607 40.1639 58.2331 40.1639 60.0798 40.1639 60.0798 40.1639 60.0798 43.5367 60.0074 46.6847 59.1383 49.458 57.6899Z" fill="#009DD9" fill-rule="evenodd"/>
                <path d="M29.542 57.6899C32.4259 59.1383 35.6996 60.0074 39.1681 60.0798 39.1681 58.2331 39.1681 58.2331 39.1681 58.2331 36.0503 58.1607 33.1274 57.4002 30.5553 56.0966L29.542 57.6899Z" fill="#009DD9" fill-rule="evenodd"/>
                <path d="M23.6091 49.126C21.9076 50.1267 21.9076 50.1267 21.9076 50.1267 23.6478 52.9745 26.0454 55.3606 28.9072 57.0924 29.8739 55.3991 29.8739 55.3991 29.8739 55.3991 27.3216 53.8212 25.1947 51.6661 23.6091 49.126Z" fill="#009DD9" fill-rule="evenodd"/>
                <path d="M18.9202 39.8319C18.9979 43.3253 19.9309 46.5857 21.5248 49.458 23.2353 48.4488 23.2353 48.4488 23.2353 48.4488 21.8358 45.887 20.9805 42.9371 20.9028 39.8319L18.9202 39.8319Z" fill="#009DD9" fill-rule="evenodd"/>
                <path d="M20.9028 39.1681C20.9805 36.0503 21.8358 33.1274 23.2353 30.5553 21.5248 29.542 21.5248 29.542 21.5248 29.542 19.9309 32.4259 18.9979 35.6996 18.9202 39.1681L20.9028 39.1681Z" fill="#009DD9" fill-rule="evenodd"/>
                <path d="M21.9076 28.6155C23.6091 29.542 23.6091 29.542 23.6091 29.542 25.1947 27.096 27.3216 25.0577 29.8739 23.5382 28.9072 21.9076 28.9072 21.9076 28.9072 21.9076 26.0454 23.5753 23.6478 25.873 21.9076 28.6155Z" fill="#009DD9" fill-rule="evenodd"/>
                <path d="M29.542 21.3244C30.5163 22.9034 30.5163 22.9034 30.5163 22.9034 33.1274 21.6115 36.0503 20.8221 39.1681 20.7503 39.1681 18.9202 39.1681 18.9202 39.1681 18.9202 35.6996 18.9919 32.4259 19.8532 29.542 21.3244Z" fill="#009DD9" fill-rule="evenodd"/>
            </g>
        </g>
        <path d="M445.99 351.5 445.99 351.5C445.99 379.911 423.164 402.99 395.015 402.99 366.815 402.99 344 379.911 344 351.5 344 323.079 366.815 300 395.015 300 423.164 300 445.99 323.079 445.99 351.5" fill="#009DD9" fill-rule="evenodd"/>
        <path d="M448 319.209C443 310.947 436.111 304.024 427.889 299 425 303.913 425 303.913 425 303.913 432.333 308.49 438.556 314.631 443.111 322L448 319.209Z" fill="#009DD9" fill-rule="evenodd"/>
        <path d="M397 290C397 295.514 397 295.514 397 295.514 406.032 295.73 414.613 298.108 422.065 302 425 297.243 425 297.243 425 297.243 416.645 292.811 407.161 290.216 397 290Z" fill="#009DD9" fill-rule="evenodd"/>
        <path d="M449.865 322C445 325.053 445 325.053 445 325.053 449 332.802 451.27 341.607 451.486 351 457 351 457 351 457 351 456.784 340.551 454.189 330.688 449.865 322Z" fill="#009DD9" fill-rule="evenodd"/>
        <path d="M451.486 353C451.27 362.355 449 371.242 445 378.96 449.865 382 449.865 382 449.865 382 454.189 373.347 456.784 363.524 457 353L451.486 353Z" fill="#009DD9" fill-rule="evenodd"/>
        <path d="M448 384.014C443.111 381 443.111 381 443.111 381 438.556 388.652 432.333 395.145 425 399.899 427.889 405 427.889 405 427.889 405 436.111 399.783 443 392.594 448 384.014Z" fill="#009DD9" fill-rule="evenodd"/>
        <path d="M425 406.8C422.065 402 422.065 402 422.065 402 414.613 405.927 406.032 408.218 397 408.436 397 414 397 414 397 414 407.161 413.782 416.645 411.164 425 406.8Z" fill="#009DD9" fill-rule="evenodd"/>
        <path d="M365 406.8C373.688 411.164 383.551 413.782 394 414 394 408.436 394 408.436 394 408.436 384.607 408.218 375.802 405.927 368.053 402L365 406.8Z" fill="#009DD9" fill-rule="evenodd"/>
        <path d="M347.126 381C342 384.014 342 384.014 342 384.014 347.243 392.594 354.466 399.783 363.087 405 366 399.899 366 399.899 366 399.899 358.311 395.145 351.903 388.652 347.126 381Z" fill="#009DD9" fill-rule="evenodd"/>
        <path d="M333 353C333.234 363.524 336.045 373.347 340.847 382 346 378.96 346 378.96 346 378.96 341.784 371.242 339.207 362.355 338.973 353L333 353Z" fill="#009DD9" fill-rule="evenodd"/>
        <path d="M338.973 351C339.207 341.607 341.784 332.802 346 325.053 340.847 322 340.847 322 340.847 322 336.045 330.688 333.234 340.551 333 351L338.973 351Z" fill="#009DD9" fill-rule="evenodd"/>
        <path d="M342 319.209C347.126 322 347.126 322 347.126 322 351.903 314.631 358.311 308.49 366 303.913 363.087 299 363.087 299 363.087 299 354.466 304.024 347.243 310.947 342 319.209Z" fill="#009DD9" fill-rule="evenodd"/>
        <path d="M365 297.243C367.935 302 367.935 302 367.935 302 375.802 298.108 384.607 295.73 394 295.514 394 290 394 290 394 290 383.551 290.216 373.688 292.811 365 297.243Z" fill="#009DD9" fill-rule="evenodd"/>
        <g filter="url(#fx5)" transform="matrix(2.9875 0 0 2.9875 234 391)">
            <g clip-path="url(#clip13)" transform="translate(1.42109e-14 0)">
                <path d="M56.9004 39.8326 56.9004 39.8326C56.9004 49.2503 49.26 56.9004 39.8377 56.9004 30.3985 56.9004 22.7615 49.2503 22.7615 39.8326 22.7615 30.4116 30.3985 22.7615 39.8377 22.7615 49.26 22.7615 56.9004 30.4116 56.9004 39.8326" fill="#0F6FC6" fill-rule="evenodd"/>
                <path d="M57.908 29.1506C56.1615 26.2648 53.7554 23.8469 50.8835 22.0921 49.8745 23.8079 49.8745 23.8079 49.8745 23.8079 52.4359 25.4068 54.6092 27.5517 56.2004 30.1255L57.908 29.1506Z" fill="#0F6FC6" fill-rule="evenodd"/>
                <path d="M40.5021 19.0795C40.5021 21.0788 40.5021 21.0788 40.5021 21.0788 43.5254 21.1572 46.3976 22.0197 48.8919 23.431 49.8745 21.7061 49.8745 21.7061 49.8745 21.7061 47.0779 20.0988 43.9034 19.1579 40.5021 19.0795Z" fill="#0F6FC6" fill-rule="evenodd"/>
                <path d="M58.3331 30.1255C56.569 31.1121 56.569 31.1121 56.569 31.1121 58.0195 33.6165 58.8428 36.4623 58.9212 39.4979 60.9205 39.4979 60.9205 39.4979 60.9205 39.4979 60.8421 36.1208 59.9012 32.9335 58.3331 30.1255Z" fill="#0F6FC6" fill-rule="evenodd"/>
                <path d="M58.9212 40.5021C58.8428 43.5255 58.0195 46.3976 56.569 48.8919 58.3331 49.8745 58.3331 49.8745 58.3331 49.8745 59.9012 47.0779 60.8421 43.9034 60.9205 40.5021L58.9212 40.5021Z" fill="#0F6FC6" fill-rule="evenodd"/>
                <path d="M57.908 50.8835C56.2004 49.8745 56.2004 49.8745 56.2004 49.8745 54.6092 52.4359 52.4359 54.6092 49.8745 56.2004 50.8835 57.908 50.8835 57.908 50.8835 57.908 53.7554 56.1616 56.1615 53.7554 57.908 50.8835Z" fill="#0F6FC6" fill-rule="evenodd"/>
                <path d="M49.8745 58.3096C48.8919 56.5691 48.8919 56.5691 48.8919 56.5691 46.3976 57.9932 43.5254 58.8239 40.5021 58.903 40.5021 60.9205 40.5021 60.9205 40.5021 60.9205 43.9034 60.8414 47.0779 59.892 49.8745 58.3096Z" fill="#0F6FC6" fill-rule="evenodd"/>
                <path d="M29.7908 58.3096C32.699 59.892 36.0002 60.8414 39.4979 60.9205 39.4979 58.903 39.4979 58.903 39.4979 58.903 36.3539 58.8239 33.4064 57.9932 30.8126 56.5691L29.7908 58.3096Z" fill="#0F6FC6" fill-rule="evenodd"/>
                <path d="M23.8079 49.8745C22.092 50.8835 22.092 50.8835 22.092 50.8835 23.8469 53.7554 26.2648 56.1616 29.1506 57.908 30.1255 56.2004 30.1255 56.2004 30.1255 56.2004 27.5517 54.6092 25.4068 52.4359 23.8079 49.8745Z" fill="#0F6FC6" fill-rule="evenodd"/>
                <path d="M19.0795 40.5021C19.1579 43.9034 20.0988 47.0779 21.7061 49.8745 23.431 48.8919 23.431 48.8919 23.431 48.8919 22.0197 46.3976 21.1572 43.5255 21.0788 40.5021L19.0795 40.5021Z" fill="#0F6FC6" fill-rule="evenodd"/>
                <path d="M21.0788 39.4979C21.1572 36.4623 22.0197 33.6165 23.431 31.1121 21.7061 30.1255 21.7061 30.1255 21.7061 30.1255 20.0988 32.9335 19.1579 36.1208 19.0795 39.4979L21.0788 39.4979Z" fill="#0F6FC6" fill-rule="evenodd"/>
                <path d="M22.092 29.1506C23.8079 30.1255 23.8079 30.1255 23.8079 30.1255 25.4068 27.5517 27.5517 25.4068 30.1255 23.8079 29.1506 22.0921 29.1506 22.0921 29.1506 22.0921 26.2648 23.8469 23.8469 26.2648 22.092 29.1506Z" fill="#0F6FC6" fill-rule="evenodd"/>
                <path d="M29.7908 21.7061C30.7733 23.431 30.7733 23.431 30.7733 23.431 33.4064 22.0197 36.3539 21.1572 39.4979 21.0788 39.4979 19.0795 39.4979 19.0795 39.4979 19.0795 36.0002 19.1579 32.699 20.0988 29.7908 21.7061Z" fill="#0F6FC6" fill-rule="evenodd"/>
            </g>
        </g>
        <path d="M403.99 510 403.99 510C403.99 538.135 381.164 560.99 353.015 560.99 324.815 560.99 302 538.135 302 510 302 481.855 324.815 459 353.015 459 381.164 459 403.99 481.855 403.99 510" fill="#0F6FC6" fill-rule="evenodd"/>
        <path d="M407 478.087C401.783 469.466 394.594 462.243 386.014 457 383 462.126 383 462.126 383 462.126 390.652 466.903 397.145 473.311 401.899 481L407 478.087Z" fill="#0F6FC6" fill-rule="evenodd"/>
        <path d="M355 448C355 453.973 355 453.973 355 453.973 364.032 454.207 372.613 456.784 380.065 461 383 455.847 383 455.847 383 455.847 374.645 451.045 365.161 448.234 355 448Z" fill="#0F6FC6" fill-rule="evenodd"/>
        <path d="M408.27 481C403 483.947 403 483.947 403 483.947 407.333 491.429 409.793 499.931 410.027 509 416 509 416 509 416 509 415.766 498.911 412.955 489.389 408.27 481Z" fill="#0F6FC6" fill-rule="evenodd"/>
        <path d="M410.027 512C409.793 521.032 407.333 529.613 403 537.065 408.27 540 408.27 540 408.27 540 412.955 531.645 415.766 522.161 416 512L410.027 512Z" fill="#0F6FC6" fill-rule="evenodd"/>
        <path d="M407 543.014C401.899 540 401.899 540 401.899 540 397.145 547.652 390.652 554.145 383 558.899 386.014 564 386.014 564 386.014 564 394.594 558.783 401.783 551.594 407 543.014Z" fill="#0F6FC6" fill-rule="evenodd"/>
        <path d="M383 565.2C380.065 560 380.065 560 380.065 560 372.613 564.255 364.032 566.736 355 566.973 355 573 355 573 355 573 365.161 572.764 374.645 569.927 383 565.2Z" fill="#0F6FC6" fill-rule="evenodd"/>
        <path d="M323 565.2C331.688 569.927 341.551 572.764 352 573 352 566.973 352 566.973 352 566.973 342.607 566.736 333.802 564.255 326.053 560L323 565.2Z" fill="#0F6FC6" fill-rule="evenodd"/>
        <path d="M305.126 540C300 543.014 300 543.014 300 543.014 305.243 551.594 312.466 558.783 321.087 564 324 558.899 324 558.899 324 558.899 316.311 554.145 309.903 547.652 305.126 540Z" fill="#0F6FC6" fill-rule="evenodd"/>
        <path d="M291 512C291.234 522.161 294.045 531.645 298.847 540 304 537.065 304 537.065 304 537.065 299.784 529.613 297.207 521.032 296.973 512L291 512Z" fill="#0F6FC6" fill-rule="evenodd"/>
        <path d="M296.973 509C297.207 499.931 299.784 491.429 304 483.947 298.847 481 298.847 481 298.847 481 294.045 489.389 291.234 498.911 291 509L296.973 509Z" fill="#0F6FC6" fill-rule="evenodd"/>
        <path d="M300 478.087C305.126 481 305.126 481 305.126 481 309.903 473.311 316.311 466.903 324 462.126 321.087 457 321.087 457 321.087 457 312.466 462.243 305.243 469.466 300 478.087Z" fill="#0F6FC6" fill-rule="evenodd"/>
        <path d="M323 455.847C325.935 461 325.935 461 325.935 461 333.802 456.784 342.607 454.207 352 453.973 352 448 352 448 352 448 341.551 448.234 331.688 451.045 323 455.847Z" fill="#0F6FC6" fill-rule="evenodd"/>
        <text fill="#17406D" font-family="Open Sans,Open Sans_MSFontService,sans-serif" font-weight="700" font-size="19" transform="translate(270 484)" text-anchor="end">{{title_2}}</text>
        <text font-family="Open Sans Light,Open Sans Light_MSFontService,sans-serif" font-weight="300" font-size="16" transform="translate(270 514)" text-anchor="end">{{title_2_desc_line_1}}</text>
        <text font-family="Open Sans Light,Open Sans Light_MSFontService,sans-serif" font-weight="300" font-size="16" transform="translate(270 537)" text-anchor="end">{{title_2_desc_line_2}}</text>
        <text font-family="Open Sans Light,Open Sans Light_MSFontService,sans-serif" font-weight="300" font-size="16" transform="translate(270 560)" text-anchor="end">{{title_2_desc_line_3}}</text>
        <text fill="#17406D" font-family="Open Sans,Open Sans_MSFontService,sans-serif" font-weight="700" font-size="19" transform="translate(313 322)" text-anchor="end">{{title_1}}</text>
        <text font-family="Open Sans Light,Open Sans Light_MSFontService,sans-serif" font-weight="300" font-size="16" transform="translate(313 352)" text-anchor="end">{{title_1_desc_line_1}}</text>
        <text font-family="Open Sans Light,Open Sans Light_MSFontService,sans-serif" font-weight="300" font-size="16" transform="translate(313 375)" text-anchor="end">{{title_1_desc_line_2}}</text>
        <text font-family="Open Sans Light,Open Sans Light_MSFontService,sans-serif" font-weight="300" font-size="16" transform="translate(313 398)" text-anchor="end">{{title_1_desc_line_3}}</text>
        <g filter="url(#fx6)" transform="matrix(2.9875 0 0 2.9875 782 135)">
            <g transform="matrix(1 0 0 1 0 7.10543e-15)">
                <path d="M57.2351 39.8326 57.2351 39.8326C57.2351 49.2503 49.5198 56.9004 40.0052 56.9004 30.4734 56.9004 22.7615 49.2503 22.7615 39.8326 22.7615 30.4116 30.4734 22.7615 40.0052 22.7615 49.5198 22.7615 57.2351 30.4116 57.2351 39.8326" fill="#0BD0D9" fill-rule="evenodd"/>
                <path d="M57.908 29.1912C56.1616 26.4256 53.7554 24.1085 50.8835 22.4268 49.8745 24.0712 49.8745 24.0712 49.8745 24.0712 52.4359 25.6034 54.6092 27.6589 56.2004 30.1255L57.908 29.1912Z" fill="#0BD0D9" fill-rule="evenodd"/>
                <path d="M40.5021 19.0795C40.5021 21.0788 40.5021 21.0788 40.5021 21.0788 43.6334 21.1572 46.6082 22.0197 49.1916 23.431 50.2092 21.7061 50.2092 21.7061 50.2092 21.7061 47.3128 20.0988 44.0249 19.1579 40.5021 19.0795Z" fill="#0BD0D9" fill-rule="evenodd"/>
                <path d="M58.3332 30.1255C56.5691 31.1121 56.5691 31.1121 56.5691 31.1121 58.0196 33.6165 58.8428 36.4623 58.9212 39.4979 60.9205 39.4979 60.9205 39.4979 60.9205 39.4979 60.8421 36.1208 59.9013 32.9334 58.3332 30.1255Z" fill="#0BD0D9" fill-rule="evenodd"/>
                <path d="M58.9212 40.5021C58.8428 43.6334 58.0196 46.6082 56.5691 49.1915 58.3332 50.2092 58.3332 50.2092 58.3332 50.2092 59.9013 47.3127 60.8421 44.0248 60.9205 40.5021L58.9212 40.5021Z" fill="#0BD0D9" fill-rule="evenodd"/>
                <path d="M57.908 50.8835C56.2004 49.8745 56.2004 49.8745 56.2004 49.8745 54.6092 52.4359 52.4359 54.6092 49.8745 56.2004 50.8835 57.908 50.8835 57.908 50.8835 57.908 53.7554 56.1616 56.1616 53.7554 57.908 50.8835Z" fill="#0BD0D9" fill-rule="evenodd"/>
                <path d="M50.2092 58.5105C49.1916 56.9038 49.1916 56.9038 49.1916 56.9038 46.6082 58.2183 43.6334 58.9852 40.5021 59.0582 40.5021 60.9205 40.5021 60.9205 40.5021 60.9205 44.0249 60.8475 47.3128 59.9711 50.2092 58.5105Z" fill="#0BD0D9" fill-rule="evenodd"/>
                <path d="M30.1255 58.5105C32.9335 59.9711 36.1208 60.8475 39.4979 60.9205 39.4979 59.0582 39.4979 59.0582 39.4979 59.0582 36.4623 58.9852 33.6165 58.2183 31.1121 56.9038L30.1255 58.5105Z" fill="#0BD0D9" fill-rule="evenodd"/>
                <path d="M24.0712 49.8745C22.4268 50.8835 22.4268 50.8835 22.4268 50.8835 24.1086 53.7554 26.4257 56.1616 29.1912 57.908 30.1255 56.2004 30.1255 56.2004 30.1255 56.2004 27.659 54.6092 25.6035 52.4359 24.0712 49.8745Z" fill="#0BD0D9" fill-rule="evenodd"/>
                <path d="M19.0795 40.5021C19.1579 44.0248 20.0988 47.3127 21.7061 50.2092 23.431 49.1915 23.431 49.1915 23.431 49.1915 22.0197 46.6082 21.1572 43.6334 21.0788 40.5021L19.0795 40.5021Z" fill="#0BD0D9" fill-rule="evenodd"/>
                <path d="M21.0788 39.4979C21.1572 36.4623 22.0197 33.6165 23.431 31.1121 21.7061 30.1255 21.7061 30.1255 21.7061 30.1255 20.0988 32.9334 19.1579 36.1208 19.0795 39.4979L21.0788 39.4979Z" fill="#0BD0D9" fill-rule="evenodd"/>
                <path d="M22.4268 29.1912C24.0712 30.1255 24.0712 30.1255 24.0712 30.1255 25.6035 27.6589 27.659 25.6034 30.1255 24.0712 29.1912 22.4268 29.1912 22.4268 29.1912 22.4268 26.4257 24.1085 24.1086 26.4256 22.4268 29.1912Z" fill="#0BD0D9" fill-rule="evenodd"/>
                <path d="M30.1255 21.7061C31.0742 23.431 31.0742 23.431 31.0742 23.431 33.6165 22.0197 36.4623 21.1572 39.4979 21.0788 39.4979 19.0795 39.4979 19.0795 39.4979 19.0795 36.1208 19.1579 32.9335 20.0988 30.1255 21.7061Z" fill="#0BD0D9" fill-rule="evenodd"/>
            </g>
        </g>
        <path d="M952.99 254 952.99 254C952.99 282.135 929.94 304.99 901.515 304.99 873.039 304.99 850 282.135 850 254 850 225.855 873.039 203 901.515 203 929.94 203 952.99 225.855 952.99 254" fill="#0BD0D9" fill-rule="evenodd"/>
        <path d="M955 222.209C949.783 213.947 942.594 207.024 934.014 202 931 206.913 931 206.913 931 206.913 938.652 211.49 945.145 217.631 949.899 225L955 222.209Z" fill="#0BD0D9" fill-rule="evenodd"/>
        <path d="M903 192C903 197.973 903 197.973 903 197.973 912.355 198.207 921.242 200.784 928.96 205 932 199.847 932 199.847 932 199.847 923.347 195.045 913.524 192.234 903 192Z" fill="#0BD0D9" fill-rule="evenodd"/>
        <path d="M956.27 225C951 227.947 951 227.947 951 227.947 955.333 235.429 957.793 243.931 958.027 253 964 253 964 253 964 253 963.766 242.911 960.955 233.389 956.27 225Z" fill="#0BD0D9" fill-rule="evenodd"/>
        <path d="M958.027 256C957.793 265.355 955.333 274.242 951 281.96 956.27 285 956.27 285 956.27 285 960.955 276.347 963.766 266.524 964 256L958.027 256Z" fill="#0BD0D9" fill-rule="evenodd"/>
        <path d="M955 287.014C949.899 284 949.899 284 949.899 284 945.145 291.652 938.652 298.145 931 302.899 934.014 308 934.014 308 934.014 308 942.594 302.783 949.783 295.594 955 287.014Z" fill="#0BD0D9" fill-rule="evenodd"/>
        <path d="M932 309.8C928.96 305 928.96 305 928.96 305 921.242 308.927 912.355 311.218 903 311.436 903 317 903 317 903 317 913.524 316.782 923.347 314.164 932 309.8Z" fill="#0BD0D9" fill-rule="evenodd"/>
        <path d="M872 309.8C880.389 314.164 889.911 316.782 900 317 900 311.436 900 311.436 900 311.436 890.931 311.218 882.429 308.927 874.947 305L872 309.8Z" fill="#0BD0D9" fill-rule="evenodd"/>
        <path d="M853.913 284C849 287.014 849 287.014 849 287.014 854.024 295.594 860.947 302.783 869.209 308 872 302.899 872 302.899 872 302.899 864.631 298.145 858.49 291.652 853.913 284Z" fill="#0BD0D9" fill-rule="evenodd"/>
        <path d="M839 256C839.234 266.524 842.045 276.347 846.847 285 852 281.96 852 281.96 852 281.96 847.784 274.242 845.207 265.355 844.973 256L839 256Z" fill="#0BD0D9" fill-rule="evenodd"/>
        <path d="M844.973 253C845.207 243.931 847.784 235.429 852 227.947 846.847 225 846.847 225 846.847 225 842.045 233.389 839.234 242.911 839 253L844.973 253Z" fill="#0BD0D9" fill-rule="evenodd"/>
        <path d="M849 222.209C853.913 225 853.913 225 853.913 225 858.49 217.631 864.631 211.49 872 206.913 869.209 202 869.209 202 869.209 202 860.947 207.024 854.024 213.947 849 222.209Z" fill="#0BD0D9" fill-rule="evenodd"/>
        <path d="M872 199.847C874.834 205 874.834 205 874.834 205 882.429 200.784 890.931 198.207 900 197.973 900 192 900 192 900 192 889.911 192.234 880.389 195.045 872 199.847Z" fill="#0BD0D9" fill-rule="evenodd"/>
        <g filter="url(#fx7)" transform="matrix(3.01266 0 0 3.01266 824 294)">
            <g clip-path="url(#clip14)" transform="translate(-5.68434e-14 -1.42109e-14)">
                <path d="M56.4252 39.334 56.4252 39.334C56.4252 48.7646 48.8487 56.4252 39.5051 56.4252 30.1446 56.4252 22.5714 48.7646 22.5714 39.334 22.5714 29.9001 30.1446 22.2395 39.5051 22.2395 48.8487 22.2395 56.4252 29.9001 56.4252 39.334" fill="#10CF9B" fill-rule="evenodd"/>
                <path d="M57.0924 28.6155C55.4328 25.873 53.1461 23.5753 50.4169 21.9076 49.458 23.5382 49.458 23.5382 49.458 23.5382 51.8922 25.0577 53.9575 27.096 55.4697 29.542L57.0924 28.6155Z" fill="#10CF9B" fill-rule="evenodd"/>
                <path d="M40.1639 18.9202C40.1639 20.7503 40.1639 20.7503 40.1639 20.7503 43.162 20.8221 46.0102 21.6115 48.4836 22.9034 49.458 21.3244 49.458 21.3244 49.458 21.3244 46.6847 19.8532 43.5367 18.9919 40.1639 18.9202Z" fill="#10CF9B" fill-rule="evenodd"/>
                <path d="M57.7115 29.542C56.0966 30.5203 56.0966 30.5203 56.0966 30.5203 57.4244 33.0038 58.178 35.8259 58.2497 38.8361 60.0798 38.8361 60.0798 38.8361 60.0798 38.8361 60.0081 35.4872 59.1468 32.3265 57.7115 29.542Z" fill="#10CF9B" fill-rule="evenodd"/>
                <path d="M58.2497 39.8319C58.178 42.9371 57.4244 45.887 56.0966 48.4488 57.7115 49.458 57.7115 49.458 57.7115 49.458 59.1468 46.5857 60.0081 43.3253 60.0798 39.8319L58.2497 39.8319Z" fill="#10CF9B" fill-rule="evenodd"/>
                <path d="M57.0924 50.1267C55.4697 49.126 55.4697 49.126 55.4697 49.126 53.9575 51.6661 51.8922 53.8212 49.458 55.3991 50.4169 57.0924 50.4169 57.0924 50.4169 57.0924 53.1461 55.3606 55.4328 52.9745 57.0924 50.1267Z" fill="#10CF9B" fill-rule="evenodd"/>
                <path d="M49.458 57.6899C48.4836 56.0966 48.4836 56.0966 48.4836 56.0966 46.0102 57.4002 43.162 58.1607 40.1639 58.2331 40.1639 60.0798 40.1639 60.0798 40.1639 60.0798 43.5367 60.0074 46.6847 59.1383 49.458 57.6899Z" fill="#10CF9B" fill-rule="evenodd"/>
                <path d="M29.542 57.6899C32.4259 59.1383 35.6996 60.0074 39.1681 60.0798 39.1681 58.2331 39.1681 58.2331 39.1681 58.2331 36.0503 58.1607 33.1274 57.4002 30.5553 56.0966L29.542 57.6899Z" fill="#10CF9B" fill-rule="evenodd"/>
                <path d="M23.6091 49.126C21.9076 50.1267 21.9076 50.1267 21.9076 50.1267 23.6478 52.9745 26.0455 55.3606 28.9072 57.0924 29.874 55.3991 29.874 55.3991 29.874 55.3991 27.3216 53.8212 25.1947 51.6661 23.6091 49.126Z" fill="#10CF9B" fill-rule="evenodd"/>
                <path d="M18.9202 39.8319C18.9979 43.3253 19.9309 46.5857 21.5248 49.458 23.2353 48.4488 23.2353 48.4488 23.2353 48.4488 21.8358 45.887 20.9806 42.9371 20.9028 39.8319L18.9202 39.8319Z" fill="#10CF9B" fill-rule="evenodd"/>
                <path d="M20.9028 38.8361C20.9806 35.8259 21.8358 33.0038 23.2353 30.5203 21.5248 29.542 21.5248 29.542 21.5248 29.542 19.9309 32.3265 18.9979 35.4872 18.9202 38.8361L20.9028 38.8361Z" fill="#10CF9B" fill-rule="evenodd"/>
                <path d="M21.9076 28.6155C23.6091 29.542 23.6091 29.542 23.6091 29.542 25.1947 27.096 27.3216 25.0577 29.874 23.5382 28.9072 21.9076 28.9072 21.9076 28.9072 21.9076 26.0455 23.5753 23.6478 25.873 21.9076 28.6155Z" fill="#10CF9B" fill-rule="evenodd"/>
                <path d="M29.542 21.3244C30.5163 22.9034 30.5163 22.9034 30.5163 22.9034 33.1274 21.6115 36.0503 20.8221 39.1681 20.7503 39.1681 18.9202 39.1681 18.9202 39.1681 18.9202 35.6996 18.9919 32.4259 19.8532 29.542 21.3244Z" fill="#10CF9B" fill-rule="evenodd"/>
            </g>
        </g>
        <path d="M993.99 412.5 993.99 412.5C993.99 440.911 971.164 463.99 943.015 463.99 914.815 463.99 892 440.911 892 412.5 892 384.079 914.815 361 943.015 361 971.164 361 993.99 384.079 993.99 412.5" fill="#10CF9B" fill-rule="evenodd"/>
        <path d="M996 380.209C991 371.947 984.111 365.024 975.889 360 973 364.913 973 364.913 973 364.913 980.333 369.49 986.556 375.631 991.111 383L996 380.209Z" fill="#10CF9B" fill-rule="evenodd"/>
        <path d="M945 351C945 356.514 945 356.514 945 356.514 954.032 356.73 962.613 359.108 970.065 363 973 358.243 973 358.243 973 358.243 964.645 353.811 955.161 351.216 945 351Z" fill="#10CF9B" fill-rule="evenodd"/>
        <path d="M997.865 383C993 385.947 993 385.947 993 385.947 997 393.429 999.27 401.931 999.487 411 1005 411 1005 411 1005 411 1004.78 400.911 1002.19 391.389 997.865 383Z" fill="#10CF9B" fill-rule="evenodd"/>
        <path d="M999.487 414C999.27 423.355 997 432.242 993 439.96 997.865 443 997.865 443 997.865 443 1002.19 434.347 1004.78 424.524 1005 414L999.487 414Z" fill="#10CF9B" fill-rule="evenodd"/>
        <path d="M996 445.014C991.111 442 991.111 442 991.111 442 986.556 449.652 980.333 456.145 973 460.899 975.889 466 975.889 466 975.889 466 984.111 460.783 991 453.594 996 445.014Z" fill="#10CF9B" fill-rule="evenodd"/>
        <path d="M973 467.8C970.065 463 970.065 463 970.065 463 962.613 466.927 954.032 469.218 945 469.436 945 475 945 475 945 475 955.161 474.782 964.645 472.164 973 467.8Z" fill="#10CF9B" fill-rule="evenodd"/>
        <path d="M913 467.8C921.688 472.164 931.551 474.782 942 475 942 469.436 942 469.436 942 469.436 932.607 469.218 923.802 466.927 916.053 463L913 467.8Z" fill="#10CF9B" fill-rule="evenodd"/>
        <path d="M895.126 442C890 445.014 890 445.014 890 445.014 895.243 453.594 902.466 460.783 911.087 466 914 460.899 914 460.899 914 460.899 906.311 456.145 899.903 449.652 895.126 442Z" fill="#10CF9B" fill-rule="evenodd"/>
        <path d="M881 414C881.234 424.524 884.045 434.347 888.847 443 894 439.96 894 439.96 894 439.96 889.784 432.242 887.207 423.355 886.973 414L881 414Z" fill="#10CF9B" fill-rule="evenodd"/>
        <path d="M886.973 411C887.207 401.931 889.784 393.429 894 385.947 888.847 383 888.847 383 888.847 383 884.045 391.389 881.234 400.911 881 411L886.973 411Z" fill="#10CF9B" fill-rule="evenodd"/>
        <path d="M890 380.209C895.126 383 895.126 383 895.126 383 899.903 375.631 906.311 369.49 914 364.913 911.087 360 911.087 360 911.087 360 902.466 365.024 895.243 371.947 890 380.209Z" fill="#10CF9B" fill-rule="evenodd"/>
        <path d="M913 358.243C915.935 363 915.935 363 915.935 363 923.802 359.108 932.607 356.73 942 356.514 942 351 942 351 942 351 931.551 351.216 921.688 353.811 913 358.243Z" fill="#10CF9B" fill-rule="evenodd"/>
        {{fallback_icon_1}}
        {{fallback_icon_2}}
        {{fallback_icon_3}}
        {{fallback_icon_4}}
        <g id="img1" transform="translate(363 320) scale(2.6)" stroke="white" stroke-width="0.7" fill="none">
            {{icon_1}}
        </g>
        <g id="img2" transform="translate(320 478) scale(2.6)" stroke="white" stroke-width="0.7" fill="none">
            {{icon_2}}
        </g>
        <g id="img3" transform="translate(869 223) scale(2.6)" stroke="white" stroke-width="0.7" fill="none">
            {{icon_3}}
        </g>
        <g id="img4" transform="translate(913 380) scale(2.6)" stroke="white" stroke-width="0.7" fill="none">
            {{icon_4}}
        </g>
        <g transform="matrix(0.000104987 0 0 0.000104987 363 322)">
            <g clip-path="url(#clip16)">
                <use width="100%" height="100%" xlink:href="#img1" transform="scale(8929.69 8929.69)"></use>
            </g>
        </g>
        <g clip-path="url(#clip17)" transform="matrix(0.000104987 0 0 0.000104987 323 480)">
            <g clip-path="url(#clip19)" transform="matrix(1.01695 0 0 1 0 -0.5)">
                <use width="100%" height="100%" xlink:href="#img2" transform="scale(8780.86 8780.86)"></use>
            </g>
        </g>
        <g clip-path="url(#clip20)" transform="matrix(0.000104987 0 0 0.000104987 870 224)">
            <g clip-path="url(#clip22)" transform="matrix(1.01695 0 0 1 -0.5 0)">
                <use width="100%" height="100%" xlink:href="#img3" transform="scale(8780.86 8780.86)"></use>
            </g>
        </g>
        <g clip-path="url(#clip23)" transform="matrix(0.000104987 0 0 0.000104987 914 385)">
            <g clip-path="url(#clip25)" transform="matrix(1.01695 0 0 1 0 -0.25)">
                <use width="100%" height="100%" xlink:href="#img4" transform="scale(8780.86 8780.86)"></use>
            </g>
        </g>
        <text fill="#17406D" font-family="Open Sans,Open Sans_MSFontService,sans-serif" font-weight="700" font-size="19" transform="translate(1021.75 381)">{{title_4}}</text>
        <text font-family="Open Sans Light,Open Sans Light_MSFontService,sans-serif" font-weight="300" font-size="16" transform="translate(1021.75 412)">{{title_4_desc_line_1}}</text>
        <text font-family="Open Sans Light,Open Sans Light_MSFontService,sans-serif" font-weight="300" font-size="16" transform="translate(1021.75 435)">{{title_4_desc_line_2}}</text>
        <text font-family="Open Sans Light,Open Sans Light_MSFontService,sans-serif" font-weight="300" font-size="16" transform="translate(1021.75 458)">{{title_4_desc_line_3}}</text>
        <text fill="#17406D" font-family="Open Sans,Open Sans_MSFontService,sans-serif" font-weight="700" font-size="19" transform="translate(981.088 224)">{{title_3}}</text>
        <text font-family="Open Sans Light,Open Sans Light_MSFontService,sans-serif" font-weight="300" font-size="16" transform="translate(981.088 254)">{{title_3_desc_line_1}}</text>
        <text font-family="Open Sans Light,Open Sans Light_MSFontService,sans-serif" font-weight="300" font-size="16" transform="translate(981.088 277)">{{title_3_desc_line_2}}</text>
        <text font-family="Open Sans Light,Open Sans Light_MSFontService,sans-serif" font-weight="300" font-size="16" transform="translate(981.088 300)">{{title_3_desc_line_3}}</text>
    </g>
</svg>