<svg width="1280" height="720" xmlns="http://www.w3.org/2000/svg" xmlns:xlink="http://www.w3.org/1999/xlink" overflow="hidden">
    <defs>
        <filter id="fx0" x="-10%" y="-10%" width="120%" height="120%" filterUnits="userSpaceOnUse" primitiveUnits="userSpaceOnUse">
            <feComponentTransfer color-interpolation-filters="sRGB">
                <feFuncR type="discrete" tableValues="0 0"/>
                <feFuncG type="discrete" tableValues="0 0"/>
                <feFuncB type="discrete" tableValues="0 0"/>
                <feFuncA type="linear" slope="0.2" intercept="0"/>
            </feComponentTransfer>
            <feGaussianBlur stdDeviation="6.24893 6.24893"/>
        </filter>
        <filter id="fx1" x="-10%" y="-10%" width="120%" height="120%" filterUnits="userSpaceOnUse" primitiveUnits="userSpaceOnUse">
            <feComponentTransfer color-interpolation-filters="sRGB">
                <feFuncR type="discrete" tableValues="0 0"/>
                <feFuncG type="discrete" tableValues="0 0"/>
                <feFuncB type="discrete" tableValues="0 0"/>
                <feFuncA type="linear" slope="0.2" intercept="0"/>
            </feComponentTransfer>
            <feGaussianBlur stdDeviation="6.24893 6.24893"/>
        </filter>
        <filter id="fx2" x="-10%" y="-10%" width="120%" height="120%" filterUnits="userSpaceOnUse" primitiveUnits="userSpaceOnUse">
            <feComponentTransfer color-interpolation-filters="sRGB">
                <feFuncR type="discrete" tableValues="0 0"/>
                <feFuncG type="discrete" tableValues="0 0"/>
                <feFuncB type="discrete" tableValues="0 0"/>
                <feFuncA type="linear" slope="0.2" intercept="0"/>
            </feComponentTransfer>
            <feGaussianBlur stdDeviation="6.24893 6.24893"/>
        </filter>
        <filter id="fx3" x="-10%" y="-10%" width="120%" height="120%" filterUnits="userSpaceOnUse" primitiveUnits="userSpaceOnUse">
            <feComponentTransfer color-interpolation-filters="sRGB">
                <feFuncR type="discrete" tableValues="0 0"/>
                <feFuncG type="discrete" tableValues="0 0"/>
                <feFuncB type="discrete" tableValues="0 0"/>
                <feFuncA type="linear" slope="0.2" intercept="0"/>
            </feComponentTransfer>
            <feGaussianBlur stdDeviation="6.24893 6.24893"/>
        </filter>
        <filter id="fx4" x="-10%" y="-10%" width="120%" height="120%" filterUnits="userSpaceOnUse" primitiveUnits="userSpaceOnUse">
            <feComponentTransfer color-interpolation-filters="sRGB">
                <feFuncR type="discrete" tableValues="0 0"/>
                <feFuncG type="discrete" tableValues="0 0"/>
                <feFuncB type="discrete" tableValues="0 0"/>
                <feFuncA type="linear" slope="0.2" intercept="0"/>
            </feComponentTransfer>
            <feGaussianBlur stdDeviation="6.24893 6.24893"/>
        </filter>
        <filter id="fx5" x="-10%" y="-10%" width="120%" height="120%" filterUnits="userSpaceOnUse" primitiveUnits="userSpaceOnUse">
            <feComponentTransfer color-interpolation-filters="sRGB">
                <feFuncR type="discrete" tableValues="0 0"/>
                <feFuncG type="discrete" tableValues="0 0"/>
                <feFuncB type="discrete" tableValues="0 0"/>
                <feFuncA type="linear" slope="0.2" intercept="0"/>
            </feComponentTransfer>
            <feGaussianBlur stdDeviation="6.24893 6.24893"/>
        </filter>
        <clipPath id="clip6">
            <rect x="0" y="0" width="78" height="78"/>
        </clipPath>
        <clipPath id="clip7">
            <rect x="0" y="0" width="78" height="78"/>
        </clipPath>
    </defs>
    <g>
        <rect x="0" y="0" width="1280" height="720" fill="#FFFFFF"/>
        <rect x="29" y="95" width="28" height="4" fill="#10CF9B"/>
        <rect x="0" y="95" width="29" height="4" fill="#009DD9"/>
        <text fill="#0F6FC6" font-family="Open Sans,Open Sans_MSFontService,sans-serif" font-weight="700" font-size="48" transform="translate(85.6 111)">{{header}}</text>
        <text font-family="Open Sans Light,Open Sans Light_MSFontService,sans-serif" font-weight="300" font-size="16" transform="translate(88 146)">{{sub_header}}</text>
        <path d="M192 424.5C192 391.639 218.639 365 251.5 365 284.361 365 311 391.639 311 424.5 311 457.361 284.361 484 251.5 484 218.639 484 192 457.361 192 424.5Z" fill="#0F6FC6" fill-rule="evenodd" fill-opacity="0.101961"/>
        <path d="M386 424.5C386 391.639 412.639 365 445.5 365 478.361 365 505 391.639 505 424.5 505 457.361 478.361 484 445.5 484 412.639 484 386 457.361 386 424.5Z" fill="#009DD9" fill-rule="evenodd" fill-opacity="0.101961"/>
        <path d="M581 424.5C581 391.639 607.639 365 640.5 365 673.361 365 700 391.639 700 424.5 700 457.361 673.361 484 640.5 484 607.639 484 581 457.361 581 424.5Z" fill="#0BD0D9" fill-rule="evenodd" fill-opacity="0.101961"/>
        <path d="M775 424.5C775 391.639 801.639 365 834.5 365 867.361 365 894 391.639 894 424.5 894 457.361 867.361 484 834.5 484 801.639 484 775 457.361 775 424.5Z" fill="#10CF9B" fill-rule="evenodd" fill-opacity="0.101961"/>
        <path d="M969 424.5C969 391.639 995.639 365 1028.5 365 1061.36 365 1088 391.639 1088 424.5 1088 457.361 1061.36 484 1028.5 484 995.639 484 969 457.361 969 424.5Z" fill="#7CCA62" fill-rule="evenodd" fill-opacity="0.101961"/>
        <g filter="url(#fx0)" transform="matrix(2.98718 0 0 2.98718 38 308)">
            <g clip-path="url(#clip6)">
                <path d="M19.0815 39C19.0815 27.9993 27.9993 19.0815 39 19.0815 50.0007 19.0815 58.9185 27.9993 58.9185 39 58.9185 50.0007 50.0007 58.9185 39 58.9185 27.9993 58.9185 19.0815 50.0007 19.0815 39Z" fill="#0F6FC6" fill-rule="evenodd"/>
            </g>
        </g>
        <path d="M95 424.5C95 391.639 121.639 365 154.5 365 187.361 365 214 391.639 214 424.5 214 457.361 187.361 484 154.5 484 121.639 484 95 457.361 95 424.5Z" fill="#0F6FC6" fill-rule="evenodd"/>
        <g filter="url(#fx1)" transform="matrix(2.98718 0 0 2.98718 1009 308)">
            <g clip-path="url(#clip7)">
                <path d="M19.0815 39C19.0815 27.9993 27.9993 19.0815 39 19.0815 50.0007 19.0815 58.9184 27.9993 58.9184 39 58.9184 50.0007 50.0007 58.9185 39 58.9185 27.9993 58.9185 19.0815 50.0007 19.0815 39Z" fill="#A5C249" fill-rule="evenodd"/>
            </g>
        </g>
        <path d="M1066 424.5C1066 391.639 1092.64 365 1125.5 365 1158.36 365 1185 391.639 1185 424.5 1185 457.361 1158.36 484 1125.5 484 1092.64 484 1066 457.361 1066 424.5Z" fill="#A5C249" fill-rule="evenodd"/>
        <g filter="url(#fx2)" transform="matrix(2.98718 0 0 2.98718 815 308)">
            <g>
                <path d="M19.0815 39C19.0815 27.9993 27.9993 19.0815 39 19.0815 50.0007 19.0815 58.9185 27.9993 58.9185 39 58.9185 50.0007 50.0007 58.9185 39 58.9185 27.9993 58.9185 19.0815 50.0007 19.0815 39Z" fill="#7CCA62" fill-rule="evenodd"/>
            </g>
        </g>
        <path d="M872 424.5C872 391.639 898.639 365 931.5 365 964.361 365 991 391.639 991 424.5 991 457.361 964.361 484 931.5 484 898.639 484 872 457.361 872 424.5Z" fill="#7CCA62" fill-rule="evenodd"/>
        <g filter="url(#fx3)" transform="matrix(2.98718 0 0 2.98718 621 308)">
            <g transform="translate(-2.84217e-14 0)">
                <path d="M19.0816 39C19.0816 27.9993 27.9994 19.0815 39 19.0815 50.0007 19.0815 58.9185 27.9993 58.9185 39 58.9185 50.0007 50.0007 58.9185 39 58.9185 27.9994 58.9185 19.0816 50.0007 19.0816 39Z" fill="#10CF9B" fill-rule="evenodd"/>
            </g>
        </g>
        <path d="M678 424.5C678 391.639 704.639 365 737.5 365 770.361 365 797 391.639 797 424.5 797 457.361 770.361 484 737.5 484 704.639 484 678 457.361 678 424.5Z" fill="#10CF9B" fill-rule="evenodd"/>
        <g filter="url(#fx4)" transform="matrix(2.98718 0 0 2.98718 426 308)">
            <g>
                <path d="M19.0815 39C19.0815 27.9993 27.9993 19.0815 39 19.0815 50.0007 19.0815 58.9185 27.9993 58.9185 39 58.9185 50.0007 50.0007 58.9185 39 58.9185 27.9993 58.9185 19.0815 50.0007 19.0815 39Z" fill="#0BD0D9" fill-rule="evenodd"/>
            </g>
        </g>
        <path d="M483 424.5C483 391.639 509.639 365 542.5 365 575.361 365 602 391.639 602 424.5 602 457.361 575.361 484 542.5 484 509.639 484 483 457.361 483 424.5Z" fill="#0BD0D9" fill-rule="evenodd"/>
        <g filter="url(#fx5)" transform="matrix(2.98718 0 0 2.98718 232 308)">
            <g>
                <path d="M19.0816 39C19.0816 27.9993 27.9993 19.0815 39 19.0815 50.0007 19.0815 58.9185 27.9993 58.9185 39 58.9185 50.0007 50.0007 58.9185 39 58.9185 27.9993 58.9185 19.0816 50.0007 19.0816 39Z" fill="#009DD9" fill-rule="evenodd"/>
            </g>
        </g>
        <path d="M289 424.5C289 391.639 315.639 365 348.5 365 381.361 365 408 391.639 408 424.5 408 457.361 381.361 484 348.5 484 315.639 484 289 457.361 289 424.5Z" fill="#009DD9" fill-rule="evenodd"/>
        <text fill="#FFFFFF" font-family="Open Sans Light,Open Sans Light_MSFontService,sans-serif" font-weight="300" font-size="19" transform="translate(155 431)" text-anchor="middle">{{label_1}}</text>
        <text fill="#FFFFFF" font-family="Open Sans Light,Open Sans Light_MSFontService,sans-serif" font-weight="300" font-size="19" transform="translate(350 431)" text-anchor="middle">{{label_2}}</text>
        <text fill="#FFFFFF" font-family="Open Sans Light,Open Sans Light_MSFontService,sans-serif" font-weight="300" font-size="19" transform="translate(545 431)" text-anchor="middle">{{label_3}}</text>
        <text fill="#FFFFFF" font-family="Open Sans Light,Open Sans Light_MSFontService,sans-serif" font-weight="300" font-size="19" transform="translate(740 431)" text-anchor="middle">{{label_4}}</text>
        <text fill="#FFFFFF" font-family="Open Sans Light,Open Sans Light_MSFontService,sans-serif" font-weight="300" font-size="19" transform="translate(930 431)" text-anchor="middle">{{label_5}}</text>
        <text fill="#FFFFFF" font-family="Open Sans Light,Open Sans Light_MSFontService,sans-serif" font-weight="300" font-size="19" transform="translate(1125 431)" text-anchor="middle">{{label_6}}</text>
        <text font-family="Open Sans Light,Open Sans Light_MSFontService,sans-serif" font-weight="300" font-size="15" transform="translate(106.526 299)">{{title_1_desc_line_1}}</text>
        <text font-family="Open Sans Light,Open Sans Light_MSFontService,sans-serif" font-weight="300" font-size="15" transform="translate(106.526 320)">{{title_1_desc_line_2}}</text>
        <text fill="#17406D" font-family="Calibri,Calibri_MSFontService,sans-serif" font-weight="400" font-size="16" transform="translate(110 265)">{{title_1}}</text>
        <text font-family="Open Sans Light,Open Sans Light_MSFontService,sans-serif" font-weight="300" font-size="15" transform="translate(300.782 562)">{{title_2_desc_line_1}}</text>
        <text font-family="Open Sans Light,Open Sans Light_MSFontService,sans-serif" font-weight="300" font-size="15" transform="translate(300.782 583)">{{title_2_desc_line_2}}</text>
        <text fill="#17406D" font-family="Calibri,Calibri_MSFontService,sans-serif" font-weight="400" font-size="16" transform="translate(300.782 528)">{{title_2}}</text>
        <path d="M0.666673 6.66659 0.666772 106.375-0.666562 106.375-0.66666 6.6666ZM-3.99999 8 0 0 4.00001 8ZM4.0001 106.375C4.00011 108.584 2.20925 110.375 0.000108935 110.375-2.20903 110.375-3.99989 108.584-3.99989 106.375-3.9999 104.166-2.20904 102.375 0.000101039 102.375 2.20924 102.375 4.0001 104.166 4.0001 106.375Z" fill="#BFBFBF" transform="matrix(1 0 0 -1 95.5001 357.875)"/>
        <path d="M0.666673 6.66659 0.666772 106.375-0.666562 106.375-0.66666 6.6666ZM-3.99999 8 0 0 4.00001 8ZM4.0001 106.375C4.00011 108.584 2.20925 110.375 0.000108935 110.375-2.20903 110.375-3.99989 108.584-3.99989 106.375-3.9999 104.166-2.20904 102.375 0.000101039 102.375 2.20924 102.375 4.0001 104.166 4.0001 106.375Z" fill="#BFBFBF" transform="matrix(1 0 0 -1 483.5 357.875)"/>
        <path d="M0.666673 6.66659 0.666772 106.375-0.666562 106.375-0.66666 6.6666ZM-3.99999 8 0 0 4.00001 8ZM4.0001 106.375C4.00011 108.584 2.20925 110.375 0.000108935 110.375-2.20903 110.375-3.99989 108.584-3.99989 106.375-3.9999 104.166-2.20904 102.375 0.000101039 102.375 2.20924 102.375 4.0001 104.166 4.0001 106.375Z" fill="#BFBFBF" transform="matrix(1 0 0 -1 991.5 357.875)"/>
        <path d="M0.666667-6.57969e-07 0.666765 99.7081-0.666568 99.7081-0.666667 6.57969e-07ZM-4 3.94781e-06C-4-2.20914-2.20914-4-3.94781e-06-4 2.20914-4 4-2.20914 4-3.94781e-06 4 2.20914 2.20914 4 3.94781e-06 4-2.20914 4-4 2.20914-4 3.94781e-06ZM4.0001 98.3747 0.000104987 106.375-3.9999 98.3747Z" fill="#BFBFBF" transform="matrix(1 0 0 -1 289.5 598.875)"/>
        <path d="M0.666667-6.57969e-07 0.666765 99.7081-0.666568 99.7081-0.666667 6.57969e-07ZM-4 3.94781e-06C-4-2.20914-2.20914-4-3.94781e-06-4 2.20914-4 4-2.20914 4-3.94781e-06 4 2.20914 2.20914 4 3.94781e-06 4-2.20914 4-4 2.20914-4 3.94781e-06ZM4.0001 98.3747 0.000104987 106.375-3.9999 98.3747Z" fill="#BFBFBF" transform="matrix(1 0 0 -1 797.5 598.875)"/>
        <path d="M0.666667-6.57969e-07 0.666765 99.7081-0.666568 99.7081-0.666667 6.57969e-07ZM-4 3.94781e-06C-4-2.20914-2.20914-4-3.94781e-06-4 2.20914-4 4-2.20914 4-3.94781e-06 4 2.20914 2.20914 4 3.94781e-06 4-2.20914 4-4 2.20914-4 3.94781e-06ZM4.0001 98.3747 0.000104987 106.375-3.9999 98.3747Z" fill="#BFBFBF" transform="matrix(1 0 0 -1 1185.5 598.875)"/>
        <text font-family="Open Sans Light,Open Sans Light_MSFontService,sans-serif" font-weight="300" font-size="15" transform="translate(493.991 299)">{{title_3_desc_line_1}}</text>
        <text font-family="Open Sans Light,Open Sans Light_MSFontService,sans-serif" font-weight="300" font-size="15" transform="translate(493.991 320)">{{title_3_desc_line_2}}</text>
        <text fill="#17406D" font-family="Calibri,Calibri_MSFontService,sans-serif" font-weight="400" font-size="16" transform="translate(493.991 265)">{{title_3}}</text>
        <text font-family="Open Sans Light,Open Sans Light_MSFontService,sans-serif" font-weight="300" font-size="15" transform="translate(980 299)" text-anchor="end">{{title_5_desc_line_1}}</text>
        <text font-family="Open Sans Light,Open Sans Light_MSFontService,sans-serif" font-weight="300" font-size="15" transform="translate(980 320)" text-anchor="end">{{title_5_desc_line_2}}</text>
        <text fill="#17406D" font-family="Calibri,Calibri_MSFontService,sans-serif" font-weight="400" font-size="16" transform="translate(980 265)" text-anchor="end">{{title_5}}</text>
        <text font-family="Open Sans Light,Open Sans Light_MSFontService,sans-serif" font-weight="300" font-size="15" transform="translate(785 562)" text-anchor="end">{{title_4_desc_line_1}}</text>
        <text font-family="Open Sans Light,Open Sans Light_MSFontService,sans-serif" font-weight="300" font-size="15" transform="translate(785 583)" text-anchor="end">{{title_4_desc_line_2}}</text>
        <text fill="#17406D" font-family="Calibri,Calibri_MSFontService,sans-serif" font-weight="400" font-size="16" transform="translate(785 528)" text-anchor="end">{{title_4}}</text>
        <text font-family="Open Sans Light,Open Sans Light_MSFontService,sans-serif" font-weight="300" font-size="15" transform="translate(1170 562)" text-anchor="end">{{title_6_desc_line_1}}</text>
        <text font-family="Open Sans Light,Open Sans Light_MSFontService,sans-serif" font-weight="300" font-size="15" transform="translate(1170 583)" text-anchor="end">{{title_6_desc_line_2}}</text>
        <text fill="#17406D" font-family="Calibri,Calibri_MSFontService,sans-serif" font-weight="400" font-size="16" transform="translate(1170 528)" text-anchor="end">{{title_6}}</text>
    </g>
</svg>