<svg width="1280" height="720" xmlns="http://www.w3.org/2000/svg" xmlns:xlink="http://www.w3.org/1999/xlink" overflow="hidden">
    <g>
        <rect x="0" y="0" width="1280" height="720" fill="#FFFFFF"/>
        <rect x="29" y="95" width="28" height="4" fill="#10CF9B"/>
        <rect x="0" y="95" width="29" height="4" fill="#009DD9"/>
        <text fill="#0F6FC6" font-family="Open Sans,Open Sans_MSFontService,sans-serif" font-weight="700" font-size="48" transform="translate(85.6 111)">{{header}}</text>
        <text font-family="Open Sans Light,Open Sans Light_MSFontService,sans-serif" font-weight="300" font-size="16" transform="translate(88 146)">{{sub_header}}</text>
        <path d="M658 261.998C658 238.305 638.429 219 614.589 219 590.571 219 571 238.305 571 261.998 571 283.935 587.724 302.012 609.252 304.469 609.252 368 609.252 368 609.252 368 620.638 368 620.638 368 620.638 368 620.638 304.293 620.638 304.293 620.638 304.293 641.81 301.31 658 283.584 658 261.998Z" fill="#0F6FC6" fill-rule="evenodd"/>
        <path d="M614.588 218.474C638.174 218.474 657.536 237.916 657.536 261.775 657.536 283.514 641.518 301.365 620.573 304.369 620.573 368.526 620.573 368.526 620.573 368.526 609.308 368.526 609.308 368.526 609.308 368.526 609.308 304.546 609.308 304.546 609.308 304.546 588.01 302.072 571.464 283.868 571.464 261.775 571.464 237.916 590.826 218.474 614.588 218.474M614.588 216C589.418 216 569 236.502 569 261.775 569 284.044 585.193 302.956 607.019 306.667 607.019 368.526 607.019 368.526 607.019 368.526 607.019 371 607.019 371 607.019 371 609.308 371 609.308 371 609.308 371 620.573 371 620.573 371 620.573 371 623.037 371 623.037 371 623.037 371 623.037 368.526 623.037 368.526 623.037 368.526 623.037 306.49 623.037 306.49 623.037 306.49 633.07 304.546 642.046 299.421 648.735 291.644 655.952 283.338 660 272.733 660 261.775 660 236.502 639.582 216 614.588 216Z" fill="#C1D8F2" fill-rule="evenodd"/>
        <path d="M806.741 297.474C788.659 273.746 754.445 269 730.514 287.104 708.532 303.626 702.859 333.506 716.155 356.531 669 392.036 669 392.036 669 392.036 675.914 401 675.914 401 675.914 401 722.714 365.671 722.714 365.671 722.714 365.671 741.327 386.763 773.591 390.103 796.282 373.053 820.214 354.949 825 321.027 806.741 297.474Z" fill="#10CF9B" fill-rule="evenodd"/>
        <path d="M763.584 276.007C779.867 276.007 796.15 283.435 806.77 297.584 825 321.283 820.221 355.418 796.327 373.634 786.593 381.062 775.089 384.6 763.584 384.6 748.54 384.6 733.496 378.233 722.876 366.206 676.15 401.755 676.15 401.755 676.15 401.755 669.248 392.735 669.248 392.735 669.248 392.735 716.327 357.009 716.327 357.009 716.327 357.009 703.053 333.84 708.717 303.774 730.664 287.149 740.575 279.721 752.08 276.007 763.584 276.007M763.584 273C750.841 273 738.982 277.068 728.894 284.673 717.743 293.162 710.133 305.366 707.301 318.984 704.823 331.718 706.593 344.806 712.257 356.125 667.478 390.259 667.478 390.259 667.478 390.259 665 392.028 665 392.028 665 392.028 666.947 394.504 666.947 394.504 666.947 394.504 673.673 403.524 673.673 403.524 673.673 403.524 675.619 406 675.619 406 675.619 406 678.097 404.055 678.097 404.055 678.097 404.055 722.522 370.451 722.522 370.451 722.522 370.451 733.319 381.416 748.009 387.606 763.584 387.606 776.15 387.606 788.186 383.715 798.274 375.934 810.487 366.737 818.274 353.295 820.398 338.085 822.522 322.875 818.451 307.842 809.248 295.638 803.761 288.387 796.858 282.727 788.717 278.66 780.929 274.945 772.257 273 763.584 273Z" fill="#C1D8F2" fill-rule="evenodd"/>
        <path d="M584 473.993C577.312 465 577.312 465 577.312 465 497.936 525.307 497.936 525.307 497.936 525.307 480.336 509.79 453.76 508.203 434.4 523.015 412.4 539.767 408 571.331 424.72 593.549 441.616 615.592 473.12 620 495.12 603.072 516.944 586.496 521.52 555.813 505.504 533.595L584 473.993Z" fill="#0BD0D9" fill-rule="evenodd"/>
        <path d="M577.745 464.543C584.464 473.577 584.464 473.577 584.464 473.577 505.606 533.451 505.606 533.451 505.606 533.451 521.696 555.771 517.099 586.594 495.174 603.246 486.157 610.331 475.371 613.52 464.762 613.52 449.557 613.52 434.528 606.789 424.449 593.68 407.652 571.36 412.072 539.651 434.174 522.823 443.368 515.914 453.977 512.549 464.586 512.549 476.785 512.549 488.632 516.8 498.003 525.126 577.745 464.543 577.745 464.543 577.745 464.543M578.099 461C576.154 462.594 576.154 462.594 576.154 462.594 498.18 521.937 498.18 521.937 498.18 521.937 488.809 514.32 476.962 510.069 464.586 510.069 453.093 510.069 441.954 513.789 432.759 520.874 409.42 538.589 405 571.891 422.504 595.097 427.632 601.829 433.997 607.143 441.6 610.686 448.672 614.229 456.806 616 464.762 616 476.432 616 487.394 612.28 496.765 605.194 507.728 596.869 514.977 584.646 517.099 570.829 519.043 557.897 516.038 544.966 508.965 533.983 586.055 475.526 586.055 475.526 586.055 475.526 588 473.931 588 473.931 588 473.931 586.409 471.983 586.409 471.983 586.409 471.983 579.69 462.949 579.69 462.949 579.69 462.949L578.099 461Z" fill="#C1D8F2" fill-rule="evenodd"/>
        <path d="M793.381 493.908C774.26 482.839 750.005 487.934 737.081 505.153 681.665 473 681.665 473 681.665 473 676 482.839 676 482.839 676 482.839 731.592 514.816 731.592 514.816 731.592 514.816 723.625 534.319 731.061 557.159 749.828 568.053 770.542 580 796.922 572.972 808.961 552.591 821 532.034 813.918 505.855 793.381 493.908Z" fill="#7CCA62" fill-rule="evenodd"/>
        <path d="M682.018 472.381C737.361 504.941 737.361 504.941 737.361 504.941 745.671 493.731 758.578 487.504 771.84 487.504 779.266 487.504 786.692 489.461 793.588 493.554 814.098 505.652 821.171 532.163 809.148 552.98 801.191 566.858 786.692 574.509 771.84 574.509 764.413 574.509 756.987 572.552 750.091 568.638 731.349 557.606 723.923 534.476 731.879 514.727 676.359 482.344 676.359 482.344 676.359 482.344 682.018 472.381 682.018 472.381 682.018 472.381M681.133 469C679.896 471.135 679.896 471.135 679.896 471.135 674.238 481.099 674.238 481.099 674.238 481.099 673 483.234 673 483.234 673 483.234 675.122 484.479 675.122 484.479 675.122 484.479 728.697 515.794 728.697 515.794 728.697 515.794 725.337 525.402 725.337 536.077 728.52 545.685 732.056 556.183 739.306 565.079 748.854 570.773 755.926 574.865 763.706 577 771.84 577 779.619 577 787.399 574.865 794.295 571.128 801.368 567.036 807.203 561.165 811.269 554.226 824 532.341 816.574 504.051 794.826 491.418 787.753 487.326 779.973 485.191 771.84 485.191 758.402 485.191 745.317 491.241 736.83 501.738 683.255 470.245 683.255 470.245 683.255 470.245L681.133 469Z" fill="#C1D8F2" fill-rule="evenodd"/>
        <path d="M571 404.324C518.821 374.065 518.821 374.065 518.821 374.065 528.195 351.898 519.705 325.861 498.303 313.37 474.955 300 445.062 307.741 431.443 330.963 418 354.185 425.783 383.917 449.131 397.463 471.064 410.13 498.834 403.972 513.338 383.917 565.34 414 565.34 414 565.34 414L571 404.324Z" fill="#009DD9" fill-rule="evenodd"/>
        <path d="M474.122 306.486C482.469 306.486 490.994 308.617 498.631 313.056 520.121 325.664 528.646 351.944 519.233 374.318 571.626 404.86 571.626 404.86 571.626 404.86 565.942 414.626 565.942 414.626 565.942 414.626 513.727 384.262 513.727 384.262 513.727 384.262 504.314 397.402 489.396 404.682 473.945 404.682 465.597 404.682 457.072 402.551 449.258 397.935 425.814 384.262 418 354.252 431.498 330.813 440.733 315.187 457.072 306.486 474.122 306.486M474.122 304C465.242 304 456.362 306.308 448.725 310.57 440.733 315.187 434.162 321.757 429.544 329.57 422.618 341.467 420.664 355.318 424.216 368.635 427.768 381.953 436.115 393.14 448.015 400.065 456.007 404.682 464.887 407.168 473.945 407.168 489.751 407.168 504.67 399.888 514.438 387.458 564.699 416.757 564.699 416.757 564.699 416.757 566.83 418 566.83 418 566.83 418 568.074 415.869 568.074 415.869 568.074 415.869 573.757 406.103 573.757 406.103 573.757 406.103 575 403.972 575 403.972 575 403.972 572.869 402.729 572.869 402.729 572.869 402.729 522.43 373.252 522.43 373.252 522.43 373.252 526.337 362.421 526.515 350.346 522.963 339.336 518.878 327.439 510.708 317.318 499.874 311.103 492.06 306.486 483.18 304 474.122 304Z" fill="#C1D8F2" fill-rule="evenodd"/>
        <path d="M644.846 598.884 644.846 598.884 643.115 599.269 641.962 600.233 641 601.196 640.615 603.123 640.615 603.123 641 604.472 641.962 605.821 643.115 606.591 644.846 606.784 644.846 606.784 646.192 606.591 647.538 605.821 648.308 604.472 648.692 603.123 648.692 603.123 648.308 601.196 647.538 600.233 646.192 599.269 644.846 598.884 644.846 598.884ZM587.731 598.884 587.731 598.884 585.808 599.269 584.846 600.233 583.885 601.196 583.5 603.123 583.5 603.123 583.885 604.472 584.846 605.821 585.808 606.591 587.731 606.784 587.731 606.784 589.077 606.591 590.423 605.821 591.192 604.472 591.385 603.123 591.385 603.123 591.192 601.196 590.423 600.233 589.077 599.269 587.731 598.884 587.731 598.884ZM632.923 591.561 632.923 591.561 631.577 591.947 630.615 592.14 629.462 592.525 628.692 593.296 628.115 594.259 627.346 595.415 626.962 596.379 626.962 597.535 626.962 597.535 626.962 598.884 627.346 599.847 628.115 601.003 628.692 601.581 629.462 602.352 630.615 603.123 631.577 603.316 632.923 603.316 632.923 603.316 634.077 603.316 635.038 603.123 636.192 602.352 637.154 601.581 637.923 601.003 638.115 599.847 638.5 598.884 638.885 597.535 638.885 597.535 638.5 596.379 638.115 595.415 637.923 594.259 637.154 593.296 636.192 592.525 635.038 592.14 634.077 591.947 632.923 591.561 632.923 591.561ZM651 627.787 644.462 627.787 644.462 615.262 644.462 615.262 644.462 613.914 644.077 612.179 642.731 609.289 642.731 609.289 644.846 608.904 644.846 608.904 645.808 609.289 647.346 609.674 648.308 610.445 649.269 611.023 650.038 612.179 650.808 613.143 651 614.299 651 615.648 651 627.787ZM599.462 591.561 599.462 591.561 598.115 591.947 596.962 592.14 596 592.525 595.231 593.296 594.654 594.259 593.885 595.415 593.5 596.379 593.5 597.535 593.5 597.535 593.5 598.884 593.885 599.847 594.654 601.003 595.231 601.581 596 602.352 596.962 603.123 598.115 603.316 599.462 603.316 599.462 603.316 600.615 603.316 601.577 603.123 602.538 602.352 603.692 601.581 604.462 601.003 604.654 599.847 605.038 598.884 605.423 597.535 605.423 597.535 605.038 596.379 604.654 595.415 604.462 594.259 603.692 593.296 602.538 592.525 601.577 592.14 600.615 591.947 599.462 591.561 599.462 591.561ZM587.731 608.904 587.731 608.904 589.462 609.289 589.462 609.289 588.308 612.179 587.923 613.914 587.731 615.262 587.731 627.787 581 627.787 581 615.648 581 615.648 581 614.299 581.385 613.143 582.154 612.179 582.731 611.023 583.885 610.445 584.846 609.674 586.192 609.289 587.731 608.904 587.731 608.904ZM616.192 580 616.192 580 614.462 580 612.731 580.771 611.385 581.349 610.038 582.505 608.885 583.854 608.115 585.203 607.538 586.937 607.538 588.671 607.538 588.671 607.538 590.405 608.115 591.947 608.885 593.681 610.038 594.645 611.385 595.608 612.731 596.764 614.462 597.149 616.192 597.535 616.192 597.535 617.923 597.149 619.462 596.764 621.192 595.608 622.154 594.645 623.115 593.681 624.269 591.947 624.654 590.405 625.038 588.671 625.038 588.671 624.654 586.937 624.269 585.203 623.115 583.854 622.154 582.505 621.192 581.349 619.462 580.771 617.923 580 616.192 580 616.192 580ZM642.346 632.412 631.962 632.412 631.962 613.528 631.962 613.528 631.962 611.409 631.577 609.674 630.808 607.94 630.231 606.206 630.231 606.206 631.577 605.821 632.923 605.821 632.923 605.821 634.654 606.206 636.385 606.591 638.115 607.555 639.654 608.711 640.615 610.06 641.769 611.794 641.962 613.528 642.346 615.262 642.346 632.412ZM600.231 613.528 600.231 632.412 589.654 632.412 589.654 615.262 589.654 615.262 590.038 613.528 590.808 611.794 591.385 610.06 592.538 608.711 593.885 607.555 595.615 606.591 597.346 606.206 599.462 605.821 599.462 605.821 600.808 605.821 601.962 606.206 601.962 606.206 601.192 607.94 600.615 609.674 600.231 611.409 600.231 613.528 600.231 613.528ZM602.346 638 629.846 638 629.846 613.528 629.846 613.528 629.462 610.638 628.692 607.94 627.346 605.821 625.615 603.701 623.885 601.967 621.385 601.003 619.077 599.847 616.192 599.462 616.192 599.462 613.5 599.847 610.615 601.003 608.5 601.967 606.385 603.701 604.654 605.821 603.308 607.94 602.538 610.638 602.346 613.528 602.346 638Z" fill="#FFFFFF" fill-rule="evenodd"/>
        <path d="M747.753 422.399C738.208 409.685 722.831 407.743 714.347 407.743 712.579 407.743 710.812 407.919 709.574 407.919 710.281 402.445 710.105 389.555 695.787 376.488 689.248 370.66 681.294 367.835 671.926 367.835 663.265 367.835 655.841 370.307 652.66 371.543 649.831 366.069 639.226 350 611.299 350 610.592 350 609.708 350 608.825 350 575.241 351.06 567.818 377.9 566.227 385.67 563.576 385.14 561.101 384.964 558.627 384.964 541.481 384.964 535.825 398.207 534.234 402.975 533.351 402.975 532.29 402.798 531.23 402.798 521.331 402.798 511.433 409.155 505.424 419.397 498.354 431.405 498 445.708 504.54 457.716 513.554 473.962 528.932 477.317 540.421 477.317 546.431 477.317 551.38 476.434 554.031 475.727 554.915 481.378 559.334 495.328 578.069 498.507 580.19 498.86 582.312 499.036 584.433 499.036 598.396 499.036 607.764 490.737 611.829 485.969 613.774 491.09 619.783 499.566 637.812 504.157 635.514 513.87 629.858 527.113 616.955 534 616.955 534 668.744 534 692.252 484.38 692.429 484.203 692.606 483.85 692.783 483.674 696.495 484.733 700.03 485.263 703.388 485.263 716.821 485.263 723.184 476.61 725.129 473.608 734.673 473.432 743.688 466.722 748.99 456.127 755 444.296 754.47 431.405 747.753 422.399" fill="#D9D9D9" fill-rule="evenodd"/>
        <path d="M734.482 420.161C726.027 409.711 712.287 408.294 704.888 408.294 703.127 408.294 701.718 408.294 700.485 408.471 701.189 403.865 701.013 393.415 688.154 382.787 682.517 378.004 675.295 375.525 667.015 375.525 659.265 375.525 652.747 377.65 649.752 378.713 647.286 374.285 637.774 361 612.936 361 612.232 361 611.527 361 610.822 361.177 580.876 362.063 574.182 383.85 572.949 390.226 570.483 389.695 568.193 389.518 566.079 389.518 550.754 389.518 545.645 400.323 544.236 404.397 543.355 404.22 542.475 404.22 541.594 404.22 532.786 404.22 523.978 409.357 518.694 417.682 512.352 427.601 512 439.291 517.813 448.857 525.74 462.141 539.656 464.975 549.697 464.975 555.158 464.975 559.562 464.09 561.852 463.735 562.732 468.164 566.608 479.5 583.342 482.334 585.28 482.511 587.042 482.688 588.979 482.688 601.486 482.688 609.765 475.957 613.465 472.061 615.226 476.135 627.205 491.545 651.514 494.202 649.4 502.35 646.405 511.383 635.66 519 635.66 519 664.197 511.029 685.159 470.643 685.335 470.466 685.335 470.289 685.512 470.112 688.858 470.998 692.029 471.352 695.024 471.352 707.002 471.352 712.639 464.444 714.401 461.964 722.856 461.787 730.959 456.296 735.715 447.617 741 438.052 740.472 427.424 734.482 420.161" fill="#FFFFFF" fill-rule="evenodd"/>
        <g transform="translate(587 233) scale(2.3)" stroke="white" stroke-width="1" fill="none">
            {{icon_1}}
        </g>
        <g transform="translate(445 325) scale(2.3)" stroke="white" stroke-width="1" fill="none">
            {{icon_2}}
        </g>
        <g transform="translate(435 535) scale(2.3)" stroke="white" stroke-width="1" fill="none">
            {{icon_3}}
        </g>
        <g transform="translate(735 300) scale(2.3)" stroke="white" stroke-width="1" fill="none">
            {{icon_4}}
        </g>
        <g transform="translate(745 505) scale(2.3)" stroke="white" stroke-width="1" fill="none">
            {{icon_5}}
        </g>
        {{fallback_icon_1}}
        {{fallback_icon_2}}
        {{fallback_icon_3}}
        {{fallback_icon_4}}
        {{fallback_icon_5}}
        <path d="M309 326.667C309 321.328 313.328 317 318.667 317L358.333 317C363.672 317 368 321.328 368 326.667L368 365.333C368 370.672 363.672 375 358.333 375L318.667 375C313.328 375 309 370.672 309 365.333Z" fill="#0F6FC6" fill-rule="evenodd"/>
        <path d="M309 411.667C309 406.328 313.328 402 318.667 402L358.333 402C363.672 402 368 406.328 368 411.667L368 450.333C368 455.672 363.672 460 358.333 460L318.667 460C313.328 460 309 455.672 309 450.333Z" fill="#009DD9" fill-rule="evenodd"/>
        <path d="M309 496.667C309 491.328 313.328 487 318.667 487L358.333 487C363.672 487 368 491.328 368 496.667L368 535.333C368 540.672 363.672 545 358.333 545L318.667 545C313.328 545 309 540.672 309 535.333Z" fill="#0BD0D9" fill-rule="evenodd"/>
        <text font-family="Open Sans Light,Open Sans Light_MSFontService,sans-serif" font-weight="300" font-size="16" transform="translate(285 358)" text-anchor="end">{{title_1_desc_line_1}}</text>
        <text font-family="Open Sans Light,Open Sans Light_MSFontService,sans-serif" font-weight="300" font-size="16" transform="translate(285 381)" text-anchor="end">{{title_1_desc_line_2}}</text>
        <text fill="#17406D" font-family="Open Sans,Open Sans_MSFontService,sans-serif" font-weight="700" font-size="19" transform="translate(285 331)" text-anchor="end">{{title_1}}</text>
        <text font-family="Open Sans Light,Open Sans Light_MSFontService,sans-serif" font-weight="300" font-size="16" transform="translate(285 444)" text-anchor="end">{{title_2_desc_line_1}}</text>
        <text font-family="Open Sans Light,Open Sans Light_MSFontService,sans-serif" font-weight="300" font-size="16" transform="translate(285 467)" text-anchor="end">{{title_2_desc_line_2}}</text>
        <text fill="#17406D" font-family="Open Sans,Open Sans_MSFontService,sans-serif" font-weight="700" font-size="19" transform="translate(285 418)" text-anchor="end">{{title_2}}</text>
        <text font-family="Open Sans Light,Open Sans Light_MSFontService,sans-serif" font-weight="300" font-size="16" transform="translate(285 529)" text-anchor="end">{{title_3_desc_line_1}}</text>
        <text font-family="Open Sans Light,Open Sans Light_MSFontService,sans-serif" font-weight="300" font-size="16" transform="translate(285 552)" text-anchor="end">{{title_3_desc_line_2}}</text>
        <text fill="#17406D" font-family="Open Sans,Open Sans_MSFontService,sans-serif" font-weight="700" font-size="19" transform="translate(285 499)" text-anchor="end">{{title_3}}</text>
        <text fill="#FFFFFF" font-family="Aptos,Aptos_MSFontService,sans-serif" font-weight="400" font-size="27" transform="translate(326.419 353)">01</text>
        <text fill="#FFFFFF" font-family="Aptos,Aptos_MSFontService,sans-serif" font-weight="400" font-size="27" transform="translate(325.504 441)">02</text>
        <text fill="#FFFFFF" font-family="Aptos,Aptos_MSFontService,sans-serif" font-weight="400" font-size="27" transform="translate(327.119 526)">03</text>
        <path d="M878 366.667C878 361.328 882.328 357 887.667 357L927.333 357C932.672 357 937 361.328 937 366.667L937 405.333C937 410.672 932.672 415 927.333 415L887.667 415C882.328 415 878 410.672 878 405.333Z" fill="#10CF9B" fill-rule="evenodd"/>
        <path d="M878 451.667C878 446.328 882.328 442 887.667 442L927.333 442C932.672 442 937 446.328 937 451.667L937 490.333C937 495.672 932.672 500 927.333 500L887.667 500C882.328 500 878 495.672 878 490.333Z" fill="#7CCA62" fill-rule="evenodd"/>
        <text font-family="Open Sans Light,Open Sans Light_MSFontService,sans-serif" font-weight="300" font-size="16" transform="translate(966.025 396)">{{title_4_desc_line_1}}</text>
        <text font-family="Open Sans Light,Open Sans Light_MSFontService,sans-serif" font-weight="300" font-size="16" transform="translate(966.025 419)">{{title_4_desc_line_2}}</text>
        <text fill="#17406D" font-family="Open Sans,Open Sans_MSFontService,sans-serif" font-weight="700" font-size="19" transform="translate(964.613 369)">{{title_4}}</text>
        <text font-family="Open Sans Light,Open Sans Light_MSFontService,sans-serif" font-weight="300" font-size="16" transform="translate(966.025 482)">{{title_5_desc_line_1}}</text>
        <text font-family="Open Sans Light,Open Sans Light_MSFontService,sans-serif" font-weight="300" font-size="16" transform="translate(966.025 505)">{{title_5_desc_line_2}}</text>
        <text fill="#17406D" font-family="Open Sans,Open Sans_MSFontService,sans-serif" font-weight="700" font-size="19" transform="translate(964.613 455)">{{title_5}}</text>
        <text fill="#FFFFFF" font-family="Aptos,Aptos_MSFontService,sans-serif" font-weight="400" font-size="27" transform="translate(894.954 395)">04</text>
        <text fill="#FFFFFF" font-family="Aptos,Aptos_MSFontService,sans-serif" font-weight="400" font-size="27" transform="translate(894.206 478)">05</text>
    </g>
</svg>