<svg width="1280" height="720" xmlns="http://www.w3.org/2000/svg" xmlns:xlink="http://www.w3.org/1999/xlink" overflow="hidden">
    <g>
        <rect x="0" y="0" width="1280" height="720" fill="#FFFFFF"/>
        <rect x="29" y="95" width="28" height="4" fill="#10CF9B"/>
        <rect x="0" y="95" width="29" height="4" fill="#009DD9"/>
        <text fill="#0F6FC6" font-family="Open Sans,Open Sans_MSFontService,sans-serif" font-weight="700" font-size="48" transform="translate(85.6 111)">{{header}}</text>
        <text font-family="Open Sans Light,Open Sans Light_MSFontService,sans-serif" font-weight="300" font-size="16" transform="translate(88 146)">{{sub_header}}</text>
        <path d="M692.79 477.359C787.927 512 787.927 512 787.927 512 794.247 480.652 794.247 480.652 794.247 480.652 795.301 475.515 799.119 471.366 804.123 469.917 807.152 468.995 811.102 467.612 815.908 465.505 820.648 463.463 825.455 461.026 827.825 458.787 831.117 455.758 832.565 451.214 831.775 446.867 830.393 439.623 830.393 439.623 830.393 439.623 829.076 436.725 829.932 433.235 832.565 431.325 835.989 427.966 835.989 427.966 835.989 427.966 837.437 426.583 837.898 424.739 836.384 423.356 836.318 423.29 836.318 423.224 836.252 423.158 836.186 423.027 835.989 422.566 835.923 422.434 835.725 421.71 836.12 420.985 836.779 420.722 836.845 420.722 836.845 420.722 836.845 420.722 837.569 419.931 837.832 418.812 837.569 417.824 834.211 408.933 834.211 408.933 834.211 408.933 833.948 407.88 834.079 406.892 834.54 405.97 835.067 404.982 835.989 404.323 837.108 404.126 843.034 403.401 843.034 403.401 843.034 403.401 847.642 402.809 851 398.528 850.21 393.984 849.947 392.535 849.354 391.152 848.301 389.966 831.051 371.197 831.051 371.197 831.051 371.197 828.549 368.299 826.574 365.006 825.191 361.45 813.077 333.329 813.077 333.329 813.077 333.329 812.484 331.88 813.472 330.365 814.986 330.3 816.369 330.3 817.949 330.036 819.661 329.18 821.965 328.06 822.689 326.941 823.15 325.36 823.414 324.372 822.558 323.187 821.834 322.199 818.081 317.062 805.835 307.118 791.021 300.334 779.368 295.066 762.316 295 752.703 295.527 741.116 296.251 722.747 299.347 709.645 312.452 695.884 326.216 692 340.442 692.461 360.067 693.119 390.427 704.312 429.481 706.814 440.018 707.077 441.269 708.262 449.238 706.682 456.219 705.76 460.5 692.79 477.359 692.79 477.359Z" fill="#10CF9B" fill-rule="evenodd"/>
        <path d="M689.4 484C665.787 529.509 665.787 529.509 665.787 529.509 665 531.09 666.115 533 667.886 533 788.18 533 788.18 533 788.18 533 789.885 533 791 531.288 790.41 529.707 787.524 522.462 787.524 522.462 787.524 522.462L689.4 484Z" fill-rule="evenodd"/>
        <path d="M693.895 474.329C789.615 508.527 789.615 508.527 789.615 508.527 790.472 508.857 791 509.779 790.802 510.636 787.965 523.287 787.965 523.287 787.965 523.287 787.768 524.341 786.646 525 785.657 524.605 685.583 490.275 685.583 490.275 685.583 490.275 684.462 489.88 684 488.694 684.594 487.705 691.718 475.12 691.718 475.12 691.718 475.12 692.18 474.395 693.104 474 693.895 474.329Z" fill="#999999" fill-rule="evenodd"/>
        <path d="M0.790062 182.359C95.9267 217 95.9267 217 95.9267 217 102.247 185.652 102.247 185.652 102.247 185.652 103.301 180.515 107.119 176.366 112.123 174.917 115.152 173.995 119.102 172.612 123.908 170.505 128.648 168.463 133.455 166.026 135.825 163.787 139.117 160.758 140.565 156.214 139.775 151.867 138.393 144.623 138.393 144.623 138.393 144.623 137.076 141.725 137.932 138.235 140.565 136.325 143.989 132.966 143.989 132.966 143.989 132.966 145.437 131.583 145.898 129.739 144.384 128.356 144.318 128.29 144.318 128.224 144.252 128.158 144.186 128.027 143.989 127.566 143.923 127.434 143.725 126.71 144.12 125.985 144.779 125.722 144.845 125.722 144.845 125.722 144.845 125.722 145.569 124.931 145.832 123.812 145.569 122.824 142.211 113.933 142.211 113.933 142.211 113.933 141.948 112.88 142.079 111.892 142.54 110.97 143.067 109.982 143.989 109.323 145.108 109.126 151.034 108.401 151.034 108.401 151.034 108.401 155.642 107.808 159 103.528 158.21 98.9836 157.947 97.5347 157.354 96.1517 156.301 94.9663 139.051 76.197 139.051 76.197 139.051 76.197 136.549 73.2992 134.574 70.0064 133.191 66.4501 121.077 38.329 121.077 38.329 121.077 38.329 120.484 36.8801 121.472 35.3654 122.986 35.2995 124.369 35.2995 125.949 35.0361 127.661 34.18 129.965 33.0604 130.689 31.9408 131.15 30.3602 131.414 29.3724 130.558 28.1869 129.834 27.1991 126.081 22.0622 113.835 12.1178 99.0211 5.33445 87.3677 0.0658574 70.3155 0 60.7031 0.526859 49.1155 1.25129 30.7466 4.34659 17.6447 17.4522 3.88447 31.2164 0 45.4416 0.46087 65.0671 1.11925 95.4273 12.3118 134.481 14.8137 145.018 15.077 146.269 16.2621 154.238 14.682 161.219 13.7602 165.5 0.790062 182.359 0.790062 182.359Z" fill="#009DD9" fill-rule="evenodd" transform="matrix(-1 0 0 1 588 295)"/>
        <path d="M24.3998 0C0.78709 45.5094 0.78709 45.5094 0.78709 45.5094 0 47.09 1.11504 49 2.886 49 123.18 49 123.18 49 123.18 49 124.885 49 126 47.2876 125.41 45.707 122.524 38.4624 122.524 38.4624 122.524 38.4624L24.3998 0Z" fill-rule="evenodd" transform="matrix(-1 0 0 1 615 484)"/>
        <path d="M9.89519 0.329457C105.615 34.5271 105.615 34.5271 105.615 34.5271 106.472 34.8566 107 35.7791 106.802 36.6357 103.965 49.2868 103.965 49.2868 103.965 49.2868 103.768 50.3411 102.646 51 101.657 50.6047 1.58323 16.2752 1.58323 16.2752 1.58323 16.2752 0.461776 15.8798 0 14.6938 0.593711 13.7054 7.71825 1.12015 7.71825 1.12015 7.71825 1.12015 8.18002 0.395349 9.10358 0 9.89519 0.329457Z" fill="#999999" fill-rule="evenodd" transform="matrix(-1 0 0 1 596 474)"/>
        <path d="M550.462 361.493C545.096 361.493 545.096 361.493 545.096 361.493 545.096 340.363 545.096 340.363 545.096 340.363 545.096 332.45 538.616 326 530.666 326 513.334 326 513.334 326 513.334 326 505.384 326 498.904 332.45 498.904 340.363 498.904 361.493 498.904 361.493 498.904 361.493 493.538 361.493 493.538 361.493 493.538 361.493 491.59 361.493 490 363.036 490 365.014 490 399.478 490 399.478 490 399.478 490 401.457 491.59 403 493.538 403 550.462 403 550.462 403 550.462 403 552.41 403 554 401.457 554 399.478 554 365.014 554 365.014 554 365.014 554 363.036 552.41 361.493 550.462 361.493ZM500.534 340.363C500.534 333.32 506.258 327.622 513.334 327.622 530.666 327.622 530.666 327.622 530.666 327.622 537.702 327.622 543.466 333.32 543.466 340.363 543.466 361.493 543.466 361.493 543.466 361.493 536.867 361.493 536.867 361.493 536.867 361.493 536.867 341.115 536.867 341.115 536.867 341.115 536.867 336.921 533.448 333.518 529.235 333.518 514.765 333.518 514.765 333.518 514.765 333.518 510.552 333.518 507.133 336.921 507.133 341.115 507.133 361.493 507.133 361.493 507.133 361.493 500.534 361.493 500.534 361.493 500.534 361.493L500.534 340.363ZM535.237 361.493C508.763 361.493 508.763 361.493 508.763 361.493 508.763 341.115 508.763 341.115 508.763 341.115 508.763 337.791 511.466 335.14 514.765 335.14 529.235 335.14 529.235 335.14 529.235 335.14 532.534 335.14 535.237 337.791 535.237 341.115L535.237 361.493ZM552.37 399.478C552.37 400.547 551.496 401.378 550.462 401.378 493.538 401.378 493.538 401.378 493.538 401.378 492.465 401.378 491.63 400.547 491.63 399.478 491.63 365.014 491.63 365.014 491.63 365.014 491.63 363.946 492.465 363.115 493.538 363.115 499.699 363.115 499.699 363.115 499.699 363.115 507.928 363.115 507.928 363.115 507.928 363.115 536.032 363.115 536.032 363.115 536.032 363.115 544.261 363.115 544.261 363.115 544.261 363.115 550.462 363.115 550.462 363.115 550.462 363.115 551.496 363.115 552.37 363.946 552.37 365.014L552.37 399.478ZM522 371.029C518.621 371.029 515.878 373.759 515.878 377.122 515.878 378.942 516.673 380.683 518.104 381.831 516.435 392.514 516.435 392.514 516.435 392.514 516.435 392.752 516.475 392.989 516.634 393.187 516.793 393.345 517.031 393.464 517.27 393.464 526.73 393.464 526.73 393.464 526.73 393.464 526.969 393.464 527.207 393.345 527.327 393.187 527.486 392.989 527.565 392.752 527.525 392.514 525.896 381.831 525.896 381.831 525.896 381.831 527.287 380.683 528.122 378.942 528.122 377.122 528.122 373.759 525.379 371.029 522 371.029ZM525.776 391.842C518.224 391.842 518.224 391.842 518.224 391.842 519.774 381.594 519.774 381.594 519.774 381.594 519.814 381.277 519.694 381 519.456 380.802 518.224 379.971 517.508 378.586 517.508 377.122 517.508 374.669 519.535 372.651 522 372.651 524.465 372.651 526.492 374.669 526.492 377.122 526.492 378.586 525.776 379.971 524.544 380.802 524.306 381 524.147 381.277 524.186 381.594L525.776 391.842Z" fill="#FFFFFF" fill-rule="evenodd"/>
        <path d="M759.93 371.029C756.544 371.029 753.795 373.759 753.795 377.122 753.795 378.942 754.632 380.683 756.026 381.831 754.353 392.514 754.353 392.514 754.353 392.514 754.353 392.752 754.393 392.989 754.552 393.187 754.711 393.345 754.95 393.464 755.189 393.464 764.671 393.464 764.671 393.464 764.671 393.464 764.91 393.464 765.149 393.345 765.308 393.187 765.428 392.989 765.508 392.752 765.468 392.514 763.834 381.831 763.834 381.831 763.834 381.831 765.229 380.683 766.065 378.942 766.065 377.122 766.065 373.759 763.316 371.029 759.93 371.029ZM763.715 391.842C756.146 391.842 756.146 391.842 756.146 391.842 757.699 381.594 757.699 381.594 757.699 381.594 757.739 381.277 757.62 381 757.38 380.802 756.146 379.971 755.428 378.586 755.428 377.122 755.428 374.669 757.46 372.651 759.93 372.651 762.4 372.651 764.432 374.669 764.432 377.122 764.432 378.586 763.715 379.971 762.48 380.802 762.241 381 762.081 381.277 762.161 381.594L763.715 391.842ZM788.454 361.493C783.076 361.493 783.076 361.493 783.076 361.493 783.076 340.363 783.076 340.363 783.076 340.363 783.076 332.45 776.583 326 768.615 326 751.245 326 751.245 326 751.245 326 743.278 326 736.784 332.45 736.784 340.363 736.784 352.076 736.784 352.076 736.784 352.076 736.784 352.511 737.143 352.867 737.581 352.867 745.827 352.867 745.827 352.867 745.827 352.867 746.305 352.867 746.664 352.511 746.664 352.076 746.664 341.076 746.664 341.076 746.664 341.076 746.664 337.791 749.373 335.14 752.68 335.14 767.181 335.14 767.181 335.14 767.181 335.14 770.487 335.14 773.196 337.791 773.196 341.076 773.196 361.493 773.196 361.493 773.196 361.493 731.406 361.493 731.406 361.493 731.406 361.493 729.454 361.493 727.86 363.036 727.86 365.014 727.86 399.478 727.86 399.478 727.86 399.478 727.86 401.457 729.454 403 731.406 403 788.454 403 788.454 403 788.454 403 790.406 403 792 401.457 792 399.478 792 365.014 792 365.014 792 365.014 792 363.036 790.406 361.493 788.454 361.493ZM767.181 333.518C752.68 333.518 752.68 333.518 752.68 333.518 748.457 333.518 745.031 336.921 745.031 341.076 745.031 351.245 745.031 351.245 745.031 351.245 738.417 351.245 738.417 351.245 738.417 351.245 738.417 340.363 738.417 340.363 738.417 340.363 738.417 333.32 744.154 327.622 751.245 327.622 768.615 327.622 768.615 327.622 768.615 327.622 775.666 327.622 781.443 333.32 781.443 340.363 781.443 361.493 781.443 361.493 781.443 361.493 774.83 361.493 774.83 361.493 774.83 361.493 774.83 341.076 774.83 341.076 774.83 341.076 774.83 336.921 771.404 333.518 767.181 333.518ZM790.367 399.478C790.367 400.547 789.49 401.378 788.454 401.378 731.406 401.378 731.406 401.378 731.406 401.378 730.33 401.378 729.494 400.547 729.494 399.478 729.494 365.014 729.494 365.014 729.494 365.014 729.494 363.946 730.33 363.115 731.406 363.115 773.993 363.115 773.993 363.115 773.993 363.115 773.993 363.115 773.993 363.115 773.993 363.115 782.24 363.115 782.24 363.115 782.24 363.115 782.24 363.115 782.279 363.115 782.279 363.115 788.454 363.115 788.454 363.115 788.454 363.115 789.49 363.115 790.367 363.946 790.367 365.014L790.367 399.478ZM730.888 352.867C723.837 352.867 723.837 352.867 723.837 352.867 723.359 352.867 723 352.511 723 352.076 723 351.601 723.359 351.245 723.837 351.245 730.888 351.245 730.888 351.245 730.888 351.245 731.366 351.245 731.725 351.601 731.725 352.076 731.725 352.511 731.366 352.867 730.888 352.867ZM727.701 345.112C727.382 344.795 727.382 344.281 727.701 343.964 728.02 343.647 728.538 343.647 728.856 343.964 733.318 348.396 733.318 348.396 733.318 348.396 733.637 348.712 733.637 349.227 733.318 349.543 733.159 349.701 732.96 349.781 732.76 349.781 732.561 349.781 732.322 349.701 732.163 349.543L727.701 345.112ZM728.299 360.504C728.099 360.504 727.86 360.424 727.701 360.266 727.382 359.95 727.382 359.435 727.701 359.119 732.163 354.687 732.163 354.687 732.163 354.687 732.482 354.371 732.999 354.371 733.318 354.687 733.637 355.004 733.637 355.518 733.318 355.835 728.856 360.266 728.856 360.266 728.856 360.266 728.697 360.424 728.498 360.504 728.299 360.504Z" fill="#FFFFFF" fill-rule="evenodd"/>
        <path d="M604 439.5C604 419.342 620.118 403 640 403 659.882 403 676 419.342 676 439.5 676 459.658 659.882 476 640 476 620.118 476 604 459.658 604 439.5Z" fill="#CCCCCC" fill-rule="evenodd"/>
        <text fill="#17406D" font-family="Open Sans Light,Open Sans Light_MSFontService,sans-serif" font-weight="300" font-size="35" transform="translate(620.583 451)">VS</text>
        <path d="M350.278 271.676 429.734 349.393 428.335 350.823 348.879 273.106ZM345.87 278.089 341 264 355.193 268.557Z" fill="#999999"/>
        <path d="M9.33201 7.6102 89.4113 84.8358 88.023 86.2754 7.94369 9.04984ZM4.96979 14.0543 0 0 14.2253 4.45675Z" fill="#999999" transform="matrix(1 0 0 -1 341 516.556)"/>
        <path d="M1.45337e-06-1 60.237-0.999912 60.237 1.00009-1.45337e-06 1ZM58.9036-6.66658 72.237 0.000104987 58.9036 6.66675Z" fill="#999999" transform="matrix(-1 0 0 1 413.237 395)"/>
        <path d="M929.757 508.432 850.301 430.715 851.699 429.285 931.155 507.003ZM934.164 502.019 939.035 516.108 924.841 511.551Z" fill="#999999"/>
        <path d="M9.33201 7.6102 89.4113 84.8358 88.023 86.2754 7.94369 9.04984ZM4.96979 14.0543 0 0 14.2253 4.45675Z" fill="#999999" transform="matrix(-1 1.22465e-16 1.22465e-16 1 938.717 264)"/>
        <path d="M1.45337e-06-1 60.237-0.999912 60.237 1.00009-1.45337e-06 1ZM58.9036-6.66658 72.237 0.000104987 58.9036 6.66675Z" fill="#999999" transform="matrix(1 -1.22465e-16 -1.22465e-16 -1 867 385)"/>
        <text fill="#17406D" font-family="Open Sans,Open Sans_MSFontService,sans-serif" font-weight="400" font-size="16" transform="translate(974.609 254)" text-anchor="start">{{solution_1}}</text>
        <text font-family="Open Sans Light,Open Sans Light_MSFontService,sans-serif" font-weight="300" font-size="15" transform="translate(974.609 295)" text-anchor="start">{{solution_1_desc_line_1}}</text>
        <text font-family="Open Sans Light,Open Sans Light_MSFontService,sans-serif" font-weight="300" font-size="15" transform="translate(974.609 316)" text-anchor="start">{{solution_1_desc_line_2}}</text>
        <text font-family="Open Sans Light,Open Sans Light_MSFontService,sans-serif" font-weight="300" font-size="15" transform="translate(974.609 337)" text-anchor="start">{{solution_1_desc_line_3}}</text>
        <text fill="#17406D" font-family="Open Sans,Open Sans_MSFontService,sans-serif" font-weight="400" font-size="16" transform="translate(974.609 385)" text-anchor="start">{{solution_2}}</text>
        <text font-family="Open Sans Light,Open Sans Light_MSFontService,sans-serif" font-weight="300" font-size="15" transform="translate(974.609 425)" text-anchor="start">{{solution_2_desc_line_1}}</text>
        <text font-family="Open Sans Light,Open Sans Light_MSFontService,sans-serif" font-weight="300" font-size="15" transform="translate(974.609 446)" text-anchor="start">{{solution_2_desc_line_2}}</text>
        <text font-family="Open Sans Light,Open Sans Light_MSFontService,sans-serif" font-weight="300" font-size="15" transform="translate(974.609 467)" text-anchor="start">{{solution_2_desc_line_3}}</text>
        <text fill="#17406D" font-family="Open Sans,Open Sans_MSFontService,sans-serif" font-weight="400" font-size="16" transform="translate(974.609 518)" text-anchor="start">{{solution_3}}</text>
        <text font-family="Open Sans Light,Open Sans Light_MSFontService,sans-serif" font-weight="300" font-size="15" transform="translate(974.609 558)" text-anchor="start">{{solution_3_desc_line_1}}</text>
        <text font-family="Open Sans Light,Open Sans Light_MSFontService,sans-serif" font-weight="300" font-size="15" transform="translate(974.609 579)" text-anchor="start">{{solution_3_desc_line_2}}</text>
        <text font-family="Open Sans Light,Open Sans Light_MSFontService,sans-serif" font-weight="300" font-size="15" transform="translate(974.609 600)" text-anchor="start">{{solution_3_desc_line_3}}</text>
        <text fill="#17406D" font-family="Open Sans,Open Sans_MSFontService,sans-serif" font-weight="400" font-size="16" transform="translate(305 254)" text-anchor="end">{{problem_1}}</text>
        <text font-family="Open Sans Light,Open Sans Light_MSFontService,sans-serif" font-weight="300" font-size="15" transform="translate(305 295)" text-anchor="end">{{problem_1_desc_line_1}}</text>
        <text font-family="Open Sans Light,Open Sans Light_MSFontService,sans-serif" font-weight="300" font-size="15" transform="translate(305 316)" text-anchor="end">{{problem_1_desc_line_2}}</text>
        <text font-family="Open Sans Light,Open Sans Light_MSFontService,sans-serif" font-weight="300" font-size="15" transform="translate(305 337)" text-anchor="end">{{problem_1_desc_line_3}}</text>
        <text fill="#17406D" font-family="Open Sans,Open Sans_MSFontService,sans-serif" font-weight="400" font-size="16" transform="translate(305 385)" text-anchor="end">{{problem_2}}</text>
        <text font-family="Open Sans Light,Open Sans Light_MSFontService,sans-serif" font-weight="300" font-size="15" transform="translate(305 425)" text-anchor="end">{{problem_2_desc_line_1}}</text>
        <text font-family="Open Sans Light,Open Sans Light_MSFontService,sans-serif" font-weight="300" font-size="15" transform="translate(305 446)" text-anchor="end">{{problem_2_desc_line_2}}</text>
        <text font-family="Open Sans Light,Open Sans Light_MSFontService,sans-serif" font-weight="300" font-size="15" transform="translate(305 467)" text-anchor="end">{{problem_2_desc_line_3}}</text>
        <text fill="#17406D" font-family="Open Sans,Open Sans_MSFontService,sans-serif" font-weight="400" font-size="16" transform="translate(305 518)" text-anchor="end">{{problem_3}}</text>
        <text font-family="Open Sans Light,Open Sans Light_MSFontService,sans-serif" font-weight="300" font-size="15" transform="translate(305 558)" text-anchor="end">{{problem_3_desc_line_1}}</text>
        <text font-family="Open Sans Light,Open Sans Light_MSFontService,sans-serif" font-weight="300" font-size="15" transform="translate(305 579)" text-anchor="end">{{problem_3_desc_line_2}}</text>
        <text font-family="Open Sans Light,Open Sans Light_MSFontService,sans-serif" font-weight="300" font-size="15" transform="translate(305 600)" text-anchor="end">{{problem_3_desc_line_3}}</text>
    </g>
</svg>
