<svg width="1280" height="720" xmlns="http://www.w3.org/2000/svg" xmlns:xlink="http://www.w3.org/1999/xlink" overflow="hidden"><g><rect x="0" y="0" width="1280" height="720" fill="#FFFFFF"/><path d="M230.45 1.07686 317.958 0.260984 318.87 0 318.87 0.492393 319 0.525321 318.87 0.562365 318.87 71.8439 0 151 0 129.418 8.66628 96.0367 89.3275 93.4439 105.921 75.1341 105.921 80.345 117.757 48.7476 170.626 46.442 190.063 40.7705 212.403 30.9418 230.45 1.07686Z" stroke="#009DD9" stroke-width="2" fill="#06686D" fill-rule="evenodd" transform="matrix(-1 0 0 1 751 430)"/><path d="M673 563 673 587.846" stroke="#009DD9" stroke-width="2" stroke-miterlimit="8" fill="none" fill-rule="evenodd"/><path d="M592 594 592 618.846" stroke="#009DD9" stroke-width="2" stroke-miterlimit="8" fill="none" fill-rule="evenodd"/><path d="M593 315 593 399.039" stroke="#10CF9B" stroke-width="2" stroke-miterlimit="8" fill="none" fill-rule="evenodd"/><path d="M674 230 674 314.039" stroke="#10CF9B" stroke-width="2" stroke-miterlimit="8" fill="none" fill-rule="evenodd"/><path d="M704.584 150.877C702.244 150.877 700.169 151.134 698.358 151.649 696.547 152.164 694.777 153.027 693.048 154.239L696.715 160.236C698.95 158.812 701.111 158.1 703.198 158.1 704.316 158.1 705.206 158.312 705.869 158.737 706.533 159.161 706.864 159.812 706.864 160.69 706.864 163.022 704.621 164.188 700.135 164.188L698.078 164.188 698.078 170.935 700.09 170.935C701.745 170.935 703.086 171.06 704.114 171.31 705.143 171.56 705.888 171.931 706.35 172.423 706.812 172.915 707.043 173.616 707.043 174.524 707.043 175.706 706.6 176.573 705.713 177.125 704.826 177.678 703.414 177.955 701.477 177.955 700.225 177.955 698.857 177.777 697.374 177.421 695.891 177.065 694.434 176.516 693.004 175.774L693.004 183.225C694.747 183.906 696.368 184.376 697.866 184.633 699.364 184.891 700.992 185.019 702.751 185.019 707.028 185.019 710.37 184.133 712.777 182.362 715.184 180.59 716.388 178.159 716.388 175.07 716.388 170.526 713.66 167.906 708.206 167.21L708.206 167.073C710.545 166.407 712.334 165.336 713.571 163.859 714.808 162.383 715.426 160.614 715.426 158.555 715.426 156.162 714.465 154.284 712.543 152.921 710.62 151.558 707.967 150.877 704.584 150.877ZM705 137C722.121 137 736 151.103 736 168.5 736 185.897 722.121 200 705 200 687.879 200 674 185.897 674 168.5 674 151.103 687.879 137 705 137Z" fill="#262626" fill-rule="evenodd"/><path d="M765.741 225 836.4 229.805 836.715 229.735 836.715 229.89 837 229.968 836.715 230.031 836.715 431.426 592 487 592 481.104 592 454.163 592 436.047 592 393.706 607.032 369.297 673.035 375.895 673.288 375.84 673.288 332.891 673.435 332.86 687.213 308.375 755.007 315.1 755.007 248.011 765.741 225Z" fill="#08684E" fill-rule="evenodd"/><path d="M674 230.159 758.02 209 837 230.159 755.5 248Z" stroke="#10CF9B" stroke-width="2" fill="#FFFFFF" fill-rule="evenodd"/><path d="M593 315.387 676.817 294 756 315.387 674.289 333Z" stroke="#10CF9B" stroke-width="2" fill="#FFFFFF" fill-rule="evenodd"/><path d="M512 376.387 595.302 355 674 376.387 593.21 394Z" stroke="#10CF9B" stroke-width="2" fill="#FFFFFF" fill-rule="evenodd"/><path d="M759.836 126 792 144.791 759 164Z" fill="#10CF9B" fill-rule="evenodd"/><path d="M757 124 757 124C755.286 124 754 125.265 754 126.955L754 229.045C754 230.735 755.286 232 757 232L757 232C758.714 232 760 230.735 760 229.045L760 126.955C760 125.265 758.714 124 757 124Z" fill="#08684E" fill-rule="evenodd"/><text fill="#17406D" font-family="Open Sans,Open Sans_MSFontService,sans-serif" font-weight="700" font-size="19" transform="translate(911.741 491)">Text Here</text><text font-family="Open Sans Light,Open Sans Light_MSFontService,sans-serif" font-weight="300" font-size="16" transform="translate(911.74 521)">Lorem Ipsum comes from section</text><text font-family="Open Sans Light,Open Sans Light_MSFontService,sans-serif" font-weight="300" font-size="16" transform="translate(911.74 544)">Contrary to popular belief, Lorem.</text><text fill="#17406D" font-family="Open Sans,Open Sans_MSFontService,sans-serif" font-weight="700" font-size="19" transform="translate(826.407 137)">Text Here</text><text font-family="Open Sans Light,Open Sans Light_MSFontService,sans-serif" font-weight="300" font-size="16" transform="translate(826.407 167)">Lorem Ipsum comes from section</text><text font-family="Open Sans Light,Open Sans Light_MSFontService,sans-serif" font-weight="300" font-size="16" transform="translate(826.407 190)">Contrary to popular belief, Lorem.</text><text fill="#17406D" font-family="Open Sans,Open Sans_MSFontService,sans-serif" font-weight="700" font-size="19" transform="translate(278.087 349)">Text Here</text><text font-family="Open Sans Light,Open Sans Light_MSFontService,sans-serif" font-weight="300" font-size="16" transform="translate(125.34 379)">Lorem Ipsum comes from section</text><text font-family="Open Sans Light,Open Sans Light_MSFontService,sans-serif" font-weight="300" font-size="16" transform="translate(124.007 402)">Contrary to popular belief, Lorem.</text><path d="M441.486 347.877C439.775 347.877 438.234 348.051 436.863 348.399 435.493 348.747 434.224 349.251 433.058 349.91 431.892 350.569 430.454 351.663 428.742 353.192L433.672 358.962C435.02 357.796 436.227 356.914 437.295 356.316 438.363 355.718 439.419 355.419 440.464 355.419 441.479 355.419 442.266 355.668 442.826 356.168 443.387 356.668 443.667 357.349 443.667 358.213 443.667 358.909 443.527 359.576 443.247 360.212 442.966 360.848 442.47 361.609 441.759 362.495 441.047 363.381 439.533 365.035 437.215 367.458L429.106 375.659 429.106 381.565 453.208 381.565 453.208 374.159 440.646 374.159 440.646 373.932C444.326 370.631 446.73 368.39 447.858 367.208 448.986 366.027 449.891 364.903 450.573 363.835 451.254 362.767 451.758 361.681 452.083 360.575 452.409 359.47 452.572 358.266 452.572 356.963 452.572 355.222 452.106 353.65 451.175 352.25 450.243 350.849 448.933 349.77 447.245 349.012 445.556 348.255 443.637 347.877 441.486 347.877ZM441.5 334C458.897 334 473 348.103 473 365.5 473 382.897 458.897 397 441.5 397 424.103 397 410 382.897 410 365.5 410 348.103 424.103 334 441.5 334Z" fill="#262626" fill-rule="evenodd"/><path d="M514.928 407 592.294 428.37 592.294 450.016 672.876 472.614 673.074 472.571 673.074 472.67 673.135 472.687 673.074 472.7 673.074 496.966 756.58 517.576C756.581 517.618 756.582 517.66 756.582 517.702L756.915 517.785 756.585 517.856C756.724 525.333 756.862 532.811 757 540.288L673.074 563 673.074 535.798 592.414 518.206 592.702 518.131 592.08 517.995 592.08 490.338 511.04 472.754 510.796 472.821 510.796 472.701 510.732 472.687 510.796 472.669 510.796 445.902 511.122 445.83 431 428.03 514.928 407Z" stroke="#0BD0D9" stroke-width="2" fill="#FFFFFF" fill-rule="evenodd"/><path d="M756.585 518.07C756.723 525.512 756.862 532.954 757 540.396L673.033 563 673.033 535.927 673.368 536 756.585 518.07ZM756.582 517.917C756.581 517.875 756.581 517.834 756.58 517.792 756.581 517.834 756.581 517.875 756.582 517.917ZM673.033 473 673.033 497.279 673.368 497.488 592.623 518.344 592 518.208 592 490.579 673.033 473Z" stroke="#0BD0D9" stroke-width="2" fill="#FFFFFF" fill-rule="evenodd"/><path d="M511 446.083 511 473 592 450.29 592 428Z" stroke="#0BD0D9" stroke-width="2" fill="#FFFFFF" fill-rule="evenodd"/><path d="M512.747 321 481 340.076 514 360Z" fill="#0BD0D9" fill-rule="evenodd"/><path d="M514 321 514 321C515.714 321 517 322.265 517 323.955L517 426.045C517 427.735 515.714 429 514 429L514 429C512.286 429 511 427.735 511 426.045L511 323.955C511 322.265 512.286 321 514 321Z" fill="#06686D" fill-rule="evenodd"/><path d="M833.032 480.354 821.628 489.645 826.285 495.369 830.056 492.257C830.889 491.515 831.586 490.803 832.146 490.122 832.055 491.894 832.01 493.847 832.01 495.983L832.01 513.565 841.119 513.565 841.119 480.354ZM833.5 466C850.897 466 865 480.103 865 497.5 865 514.897 850.897 529 833.5 529 816.103 529 802 514.897 802 497.5 802 480.103 816.103 466 833.5 466Z" stroke="#000000" stroke-width="2" stroke-miterlimit="8" fill="#262626" fill-rule="evenodd"/><path d="M767.269 559.742 834.203 559.18 834.901 559 834.901 559.339 835 559.362 834.901 559.387 834.901 608.482 591 663 591 648.136 597.629 625.144 671.531 629.978 672.018 629.869 672.018 614.337 681.071 592.574 752.431 596.135 753.465 595.906 753.465 580.311 767.269 559.742Z" stroke="#009DD9" stroke-width="2" fill="#004E6D" fill-rule="evenodd"/><path d="M509 630.418 590.711 612 672 630 590.711 648Z" stroke="#009DD9" stroke-width="2" fill="#FFFFFF" fill-rule="evenodd"/><path d="M591 595.868 672.289 579 754 595.868 672.289 614Z" stroke="#009DD9" stroke-width="2" fill="#FFFFFF" fill-rule="evenodd"/><path d="M672 563.645 756.02 541 835 559.032 753.5 580Z" stroke="#009DD9" stroke-width="2" fill="#FFFFFF" fill-rule="evenodd"/><path d="M757.836 457 790 476.5 757 496Z" fill="#009DD9" fill-rule="evenodd"/><path d="M756 456 756 456C754.286 456 753 457.265 753 458.955L753 561.045C753 562.735 754.286 564 756 564L756 564C757.714 564 759 562.735 759 561.045L759 458.955C759 457.265 757.714 456 756 456Z" fill="#004E6D" fill-rule="evenodd"/><path d="M1173 661.5C1173 657.358 1176.36 654 1180.5 654L1245.5 654C1249.64 654 1253 657.358 1253 661.5L1253 691.5C1253 695.642 1249.64 699 1245.5 699L1180.5 699C1176.36 699 1173 695.642 1173 691.5Z" fill="#C8E3FB" fill-rule="evenodd"/><text fill="#17406D" font-family="Open Sans,Open Sans_MSFontService,sans-serif" font-weight="700" font-size="13" transform="translate(1194.08 673)">LOGO</text><text fill="#17406D" font-family="Open Sans,Open Sans_MSFontService,sans-serif" font-weight="700" font-size="13" transform="translate(1196.34 689)">HERE</text></g></svg>