<svg width="1280" height="720" xmlns="http://www.w3.org/2000/svg" xmlns:xlink="http://www.w3.org/1999/xlink" overflow="hidden"><defs><filter id="fx0" x="-10%" y="-10%" width="120%" height="120%" filterUnits="userSpaceOnUse" primitiveUnits="userSpaceOnUse"><feComponentTransfer color-interpolation-filters="sRGB"><feFuncR type="discrete" tableValues="0 0"/><feFuncG type="discrete" tableValues="0 0"/><feFuncB type="discrete" tableValues="0 0"/><feFuncA type="linear" slope="0.2" intercept="0"/></feComponentTransfer><feGaussianBlur stdDeviation="6.23459 6.20195"/></filter><filter id="fx1" x="-10%" y="-10%" width="120%" height="120%" filterUnits="userSpaceOnUse" primitiveUnits="userSpaceOnUse"><feComponentTransfer color-interpolation-filters="sRGB"><feFuncR type="discrete" tableValues="0 0"/><feFuncG type="discrete" tableValues="0 0"/><feFuncB type="discrete" tableValues="0 0"/><feFuncA type="linear" slope="0.2" intercept="0"/></feComponentTransfer><feGaussianBlur stdDeviation="6.23459 6.20195"/></filter><filter id="fx2" x="-10%" y="-10%" width="120%" height="120%" filterUnits="userSpaceOnUse" primitiveUnits="userSpaceOnUse"><feComponentTransfer color-interpolation-filters="sRGB"><feFuncR type="discrete" tableValues="0 0"/><feFuncG type="discrete" tableValues="0 0"/><feFuncB type="discrete" tableValues="0 0"/><feFuncA type="linear" slope="0.2" intercept="0"/></feComponentTransfer><feGaussianBlur stdDeviation="6.23459 6.20195"/></filter><filter id="fx3" x="-10%" y="-10%" width="120%" height="120%" filterUnits="userSpaceOnUse" primitiveUnits="userSpaceOnUse"><feComponentTransfer color-interpolation-filters="sRGB"><feFuncR type="discrete" tableValues="0 0"/><feFuncG type="discrete" tableValues="0 0"/><feFuncB type="discrete" tableValues="0 0"/><feFuncA type="linear" slope="0.2" intercept="0"/></feComponentTransfer><feGaussianBlur stdDeviation="6.23459 6.20195"/></filter><clipPath id="clip4"><rect x="0" y="0" width="168" height="102"/></clipPath><clipPath id="clip5"><rect x="0" y="0" width="168" height="102"/></clipPath></defs><g><rect x="0" y="0" width="1280" height="720" fill="#FFFFFF"/><g filter="url(#fx0)" transform="matrix(2.99405 0 0 3.0098 184 111)"><g><path d="M19.0378 23.5205C19.0378 20.9897 21.1002 18.9381 23.6442 18.9381L144.356 18.9381C146.9 18.9381 148.962 20.9897 148.962 23.5205L148.962 78.4795C148.962 81.0103 146.9 83.0619 144.356 83.0619L23.6442 83.0619C21.1002 83.0619 19.0378 81.0103 19.0378 78.4795Z" fill="#FFFFFF" fill-rule="evenodd"/></g></g><path d="M241 181.792C241 174.175 247.175 168 254.792 168L616.208 168C623.825 168 630 174.175 630 181.792L630 347.208C630 354.825 623.825 361 616.208 361L254.792 361C247.175 361 241 354.825 241 347.208Z" fill="#FFFFFF" fill-rule="evenodd"/><g filter="url(#fx1)" transform="matrix(2.99405 0 0 3.0098 184 327)"><g clip-path="url(#clip4)"><path d="M19.0378 23.5205C19.0378 20.9897 21.1002 18.9381 23.6442 18.9381L144.356 18.9381C146.9 18.9381 148.962 20.9897 148.962 23.5205L148.962 78.4795C148.962 81.0103 146.9 83.0619 144.356 83.0619L23.6442 83.0619C21.1002 83.0619 19.0378 81.0103 19.0378 78.4795Z" fill="#FFFFFF" fill-rule="evenodd"/></g></g><path d="M241 397.792C241 390.175 247.175 384 254.792 384L616.208 384C623.825 384 630 390.175 630 397.792L630 563.208C630 570.825 623.825 577 616.208 577L254.792 577C247.175 577 241 570.825 241 563.208Z" fill="#FFFFFF" fill-rule="evenodd"/><path d="M297.448 244.841C294.104 224.202 277.624 207.856 256.816 204.54 250.517 203.533 244.068 203 237.5 203 230.932 203 224.484 203.533 218.184 204.54 197.376 207.856 180.896 224.202 177.552 244.841 176.537 251.089 176 257.485 176 264 176 270.515 176.537 276.911 177.552 283.159 180.896 303.798 197.376 320.144 218.184 323.46 224.484 324.467 230.932 325 237.5 325 244.068 325 250.517 324.467 256.816 323.46 277.624 320.144 294.104 303.798 297.448 283.159 298.463 276.911 299 270.515 299 264 299 257.485 298.463 251.089 297.448 244.841Z" stroke="#009DD9" stroke-width="2" stroke-linejoin="round" stroke-miterlimit="10" fill="#C4EFFF" fill-rule="evenodd"/><path d="M297.448 461.841C294.104 441.202 277.624 424.856 256.816 421.54 250.517 420.533 244.068 420 237.5 420 230.932 420 224.484 420.533 218.184 421.54 197.376 424.856 180.896 441.202 177.552 461.841 176.537 468.089 176 474.485 176 481 176 487.515 176.537 493.911 177.552 500.159 180.896 520.798 197.376 537.144 218.184 540.46 224.484 541.467 230.932 542 237.5 542 244.068 542 250.517 541.467 256.816 540.46 277.624 537.144 294.104 520.798 297.448 500.159 298.463 493.911 299 487.515 299 481 299 474.485 298.463 468.089 297.448 461.841Z" stroke="#0BD0D9" stroke-width="2" stroke-linejoin="round" stroke-miterlimit="10" fill="#C9FAFC" fill-rule="evenodd"/><g filter="url(#fx2)" transform="matrix(2.99405 0 0 3.0098 596 111)"><g><path d="M19.0378 23.5205C19.0378 20.9897 21.1002 18.9381 23.6442 18.9381L144.356 18.9381C146.9 18.9381 148.962 20.9897 148.962 23.5205L148.962 78.4795C148.962 81.0103 146.9 83.0619 144.356 83.0619L23.6442 83.0619C21.1002 83.0619 19.0378 81.0103 19.0378 78.4795Z" fill="#FFFFFF" fill-rule="evenodd"/></g></g><path d="M653 181.792C653 174.175 659.175 168 666.792 168L1028.21 168C1035.83 168 1042 174.175 1042 181.792L1042 347.208C1042 354.825 1035.83 361 1028.21 361L666.792 361C659.175 361 653 354.825 653 347.208Z" fill="#FFFFFF" fill-rule="evenodd"/><g filter="url(#fx3)" transform="matrix(2.99405 0 0 3.0098 596 327)"><g clip-path="url(#clip5)"><path d="M19.0378 23.5205C19.0378 20.9897 21.1002 18.9381 23.6442 18.9381L144.356 18.9381C146.9 18.9381 148.962 20.9897 148.962 23.5205L148.962 78.4795C148.962 81.0103 146.9 83.0619 144.356 83.0619L23.6442 83.0619C21.1002 83.0619 19.0378 81.0103 19.0378 78.4795Z" fill="#FFFFFF" fill-rule="evenodd"/></g></g><path d="M653 397.792C653 390.175 659.175 384 666.792 384L1028.21 384C1035.83 384 1042 390.175 1042 397.792L1042 563.208C1042 570.825 1035.83 577 1028.21 577L666.792 577C659.175 577 653 570.825 653 563.208Z" fill="#FFFFFF" fill-rule="evenodd"/><text fill="#17406D" font-family="Open Sans,Open Sans_MSFontService,sans-serif" font-weight="700" font-size="19" transform="translate(356.47 230)">Text Here</text><text font-family="Open Sans Light,Open Sans Light_MSFontService,sans-serif" font-weight="300" font-size="16" transform="translate(356.47 260)">Lorem Ipsum comes from</text><text font-family="Open Sans Light,Open Sans Light_MSFontService,sans-serif" font-weight="300" font-size="16" transform="translate(356.47 283)">section Contrary to</text><text font-family="Open Sans Light,Open Sans Light_MSFontService,sans-serif" font-weight="300" font-size="16" transform="translate(356.47 306)">popular belief, Lorem.</text><path d="M1104.46 244.184C1101.14 223.376 1084.8 206.896 1064.16 203.552 1057.91 202.537 1051.51 202 1045 202 1038.49 202 1032.09 202.537 1025.84 203.552 1005.2 206.896 988.856 223.376 985.54 244.184 984.533 250.484 984 256.932 984 263.5 984 270.068 984.533 276.517 985.54 282.816 988.856 303.624 1005.2 320.104 1025.84 323.448 1032.09 324.463 1038.49 325 1045 325 1051.51 325 1057.91 324.463 1064.16 323.448 1084.8 320.104 1101.14 303.624 1104.46 282.816 1105.47 276.517 1106 270.068 1106 263.5 1106 256.932 1105.47 250.484 1104.46 244.184Z" stroke="#10CF9B" stroke-width="2" stroke-linejoin="round" stroke-miterlimit="10" fill="#CAFBED" fill-rule="evenodd"/><text fill="#17406D" font-family="Open Sans,Open Sans_MSFontService,sans-serif" font-weight="700" font-size="19" transform="translate(356.47 449)">Text Here</text><text font-family="Open Sans Light,Open Sans Light_MSFontService,sans-serif" font-weight="300" font-size="16" transform="translate(356.47 479)">Lorem Ipsum comes from</text><text font-family="Open Sans Light,Open Sans Light_MSFontService,sans-serif" font-weight="300" font-size="16" transform="translate(356.47 502)">section Contrary to</text><text font-family="Open Sans Light,Open Sans Light_MSFontService,sans-serif" font-weight="300" font-size="16" transform="translate(356.47 525)">popular belief, Lorem.</text><path d="M1104.46 461.184C1101.14 440.376 1084.8 423.896 1064.16 420.552 1057.91 419.537 1051.51 419 1045 419 1038.49 419 1032.09 419.537 1025.84 420.552 1005.2 423.896 988.856 440.376 985.54 461.184 984.533 467.484 984 473.932 984 480.5 984 487.068 984.533 493.517 985.54 499.816 988.856 520.624 1005.2 537.104 1025.84 540.448 1032.09 541.463 1038.49 542 1045 542 1051.51 542 1057.91 541.463 1064.16 540.448 1084.8 537.104 1101.14 520.624 1104.46 499.816 1105.47 493.517 1106 487.068 1106 480.5 1106 473.932 1105.47 467.484 1104.46 461.184Z" stroke="#7CCA62" stroke-width="2" stroke-linejoin="round" stroke-miterlimit="10" fill="#E5F4E0" fill-rule="evenodd"/><path d="M1173 661.5C1173 657.358 1176.36 654 1180.5 654L1245.5 654C1249.64 654 1253 657.358 1253 661.5L1253 691.5C1253 695.642 1249.64 699 1245.5 699L1180.5 699C1176.36 699 1173 695.642 1173 691.5Z" fill="#C8E3FB" fill-rule="evenodd"/><text fill="#17406D" font-family="Open Sans,Open Sans_MSFontService,sans-serif" font-weight="700" font-size="13" transform="translate(1194.08 673)">LOGO</text><text fill="#17406D" font-family="Open Sans,Open Sans_MSFontService,sans-serif" font-weight="700" font-size="13" transform="translate(1196.34 689)">HERE</text><g><g><g><path d="M223.081 484.423 216.206 484.423 216.206 477.6C216.738 477.936 217.355 478.114 217.985 478.114L224.34 478.114C226.073 478.134 227.548 476.855 227.771 475.136 227.959 473.314 226.634 471.685 224.812 471.497 224.699 471.486 224.585 471.48 224.471 471.48L219.071 471.48 216.261 469.418C215.733 469.016 215.225 468.587 214.741 468.133L214.351 467.782C213.169 466.729 211.596 466.226 210.023 466.4 207.121 466.753 204.955 469.242 205.005 472.165L205.005 485.45C205.008 488.561 207.528 491.082 210.639 491.085L219.766 491.085 219.766 501.742C219.744 503.476 221.024 504.951 222.743 505.174 222.854 505.185 222.965 505.19 223.075 505.19 224.905 505.196 226.394 503.717 226.4 501.887 226.4 501.883 226.4 501.878 226.4 501.874L226.4 487.74C226.398 485.908 224.913 484.424 223.081 484.423ZM213.9 473.408C213.455 473.08 212.829 473.175 212.501 473.62 212.174 474.064 212.268 474.69 212.713 475.018L214.213 476.118 214.213 486.418 223.088 486.418C223.815 486.421 224.402 487.013 224.4 487.74L224.4 501.874C224.401 502.601 223.812 503.191 223.085 503.191 223.038 503.191 222.991 503.189 222.944 503.184 222.243 503.071 221.738 502.451 221.768 501.742L221.768 489.085 210.639 489.085C208.633 489.082 207.007 487.456 207.005 485.45L207.005 472.143C206.966 470.242 208.369 468.619 210.255 468.381 211.261 468.271 212.265 468.594 213.019 469.269L213.4 469.611C213.935 470.111 214.495 470.583 215.078 471.026L218.418 473.475 224.472 473.475C225.199 473.475 225.789 474.065 225.788 474.793 225.788 474.839 225.786 474.886 225.781 474.932 225.669 475.633 225.049 476.139 224.34 476.109L217.987 476.109C217.706 476.108 217.432 476.02 217.204 475.856Z" fill="#0BD0D9"/><path d="M210.005 465.2C212.766 465.2 215.005 462.961 215.005 460.2 215.005 457.439 212.766 455.2 210.005 455.2 207.244 455.2 205.005 457.439 205.005 460.2 205.005 462.961 207.244 465.2 210.005 465.2ZM210.005 457.2C211.662 457.2 213.005 458.543 213.005 460.2 213.005 461.857 211.662 463.2 210.005 463.2 208.348 463.2 207.005 461.857 207.005 460.2 207.005 458.543 208.348 457.2 210.005 457.2Z" fill="#0BD0D9"/><path d="M217 494 210 494C205.584 493.995 202.005 490.416 202 486L202 473C202 472.448 201.552 472 201 472 200.448 472 200 472.448 200 473L200 486C200.005 490.75 203.347 494.844 208 495.8L208 504 203 504 203 506 215 506 215 504 210 504 210 496 217 496C217.552 496 218 495.552 218 495 218 494.448 217.552 494 217 494Z" fill="#0BD0D9"/><path d="M238 482 254 482C254.552 482 255 481.552 255 481 255 480.448 254.552 480 254 480L220 480C219.448 480 219 480.448 219 481 219 481.552 219.448 482 220 482L236 482 236 504 229 504 229 506 245 506 245 504 238 504Z" fill="#0BD0D9"/><path d="M269 485.45 269 472.178C269.055 469.244 266.88 466.745 263.967 466.393 262.398 466.225 260.832 466.727 259.653 467.776L259.263 468.128C258.779 468.582 258.271 469.011 257.743 469.413L254.932 471.475 249.532 471.475C247.699 471.475 246.214 472.961 246.215 474.794 246.215 474.906 246.221 475.019 246.232 475.131 246.456 476.85 247.931 478.13 249.664 478.109L256.02 478.109C256.65 478.111 257.267 477.934 257.8 477.6L257.8 484.428 250.927 484.428C249.096 484.43 247.612 485.914 247.609 487.745L247.609 501.874C247.608 503.705 249.092 505.19 250.923 505.19 250.926 505.19 250.93 505.19 250.933 505.19 251.043 505.19 251.153 505.19 251.265 505.174 252.984 504.951 254.264 503.475 254.242 501.742L254.242 491.085 263.369 491.085C266.478 491.08 268.997 488.559 269 485.45ZM256.8 475.856C256.572 476.02 256.299 476.108 256.018 476.109L249.668 476.109C248.959 476.137 248.341 475.632 248.226 474.932 248.149 474.209 248.672 473.56 249.396 473.482 249.442 473.478 249.489 473.475 249.536 473.475L255.59 473.475 258.93 471.026C259.513 470.584 260.073 470.111 260.607 469.611L260.989 469.268C261.739 468.597 262.737 468.274 263.738 468.379 265.635 468.615 267.044 470.249 267 472.16L267 485.45C266.998 487.456 265.372 489.082 263.366 489.085L252.242 489.085 252.242 501.742C252.272 502.452 251.766 503.072 251.065 503.184 250.692 503.227 250.319 503.105 250.043 502.851 249.766 502.602 249.607 502.247 249.609 501.874L249.609 487.74C249.61 487.013 250.2 486.424 250.927 486.423L259.8 486.423 259.8 476.123 261.3 475.023C261.745 474.695 261.839 474.069 261.511 473.624 261.183 473.179 260.557 473.085 260.112 473.413Z" fill="#0BD0D9"/><path d="M264 465.2C266.761 465.2 269 462.961 269 460.2 269 457.439 266.761 455.2 264 455.2 261.239 455.2 259 457.439 259 460.2 259 462.961 261.239 465.2 264 465.2ZM264 457.2C265.657 457.2 267 458.543 267 460.2 267 461.857 265.657 463.2 264 463.2 262.343 463.2 261 461.857 261 460.2 261 458.543 262.343 457.2 264 457.2Z" fill="#0BD0D9"/><path d="M273 472C272.448 472 272 472.448 272 473L272 486C271.995 490.416 268.416 493.995 264 494L257 494C256.448 494 256 494.448 256 495 256 495.552 256.448 496 257 496L264 496 264 504 259 504 259 506 271 506 271 504 266 504 266 495.8C270.653 494.844 273.994 490.75 274 486L274 473C274 472.448 273.552 472 273 472Z" fill="#0BD0D9"/></g></g></g><g><g><g><path d="M1085.02 233 1004.89 233 1004.89 295.025 1085.02 295.025ZM1083.02 293.025 1006.89 293.025 1006.89 249 1083.02 249ZM1083.02 247 1006.89 247 1006.89 235 1083.02 235Z" fill="#10CF9B"/><path d="M1062 241C1062 242.105 1061.1 243 1060 243 1058.9 243 1058 242.105 1058 241 1058 239.895 1058.9 239 1060 239 1061.1 239 1062 239.895 1062 241Z" fill="#10CF9B"/><path d="M1069 241C1069 242.105 1068.1 243 1067 243 1065.9 243 1065 242.105 1065 241 1065 239.895 1065.9 239 1067 239 1068.1 239 1069 239.895 1069 241Z" fill="#10CF9B"/><path d="M1076 241C1076 242.105 1075.1 243 1074 243 1072.9 243 1072 242.105 1072 241 1072 239.895 1072.9 239 1074 239 1075.1 239 1076 239.895 1076 241Z" fill="#10CF9B"/><path d="M1019.79 276.793 1021.21 278.207 1031.41 268 1020.71 257.293 1019.29 258.707 1028.59 268 1019.79 276.793Z" fill="#10CF9B"/><path d="M1035 276 1051 276 1051 278 1035 278Z" fill="#10CF9B"/></g></g></g><g><g><g><path d="M1059.36 469.071C1058.78 468.481 1057.99 468.148 1057.16 468.148L1050.44 468.148C1050.42 468.146 1050.4 468.135 1050.4 468.119 1050.42 468.035 1050.46 467.938 1050.5 467.819 1051.21 465.796 1051.52 463.659 1051.44 461.519 1051.47 459.876 1050.26 458.475 1048.62 458.27 1046.91 458.101 1045.38 459.354 1045.21 461.069 1045.2 461.169 1045.2 461.27 1045.2 461.37 1045.2 465.037 1041.68 467.589 1040.17 468.516 1039.81 468.738 1039.39 468.855 1038.97 468.855L1038.62 468.855C1038.33 467.818 1037.39 467.1 1036.31 467.097L1030 467.097 1030 483.931 1036.3 483.931C1037.38 483.927 1038.32 483.208 1038.61 482.171L1039.84 482.171C1040.54 482.222 1041.19 482.534 1041.67 483.043 1043.22 484.384 1045.22 485.084 1047.26 485L1053.55 485C1055.19 485.015 1056.57 483.775 1056.73 482.143 1056.76 481.812 1056.73 481.479 1056.66 481.155 1057.02 480.983 1057.35 480.746 1057.63 480.455 1058.21 479.861 1058.53 479.053 1058.5 478.221 1058.48 477.904 1058.42 477.591 1058.32 477.292 1059.1 476.708 1059.55 475.796 1059.56 474.825 1059.56 474.389 1059.47 473.958 1059.3 473.559 1060.55 472.359 1060.6 470.367 1059.4 469.11 1059.39 469.097 1059.38 469.084 1059.36 469.071ZM1036.71 481.521C1036.71 481.746 1036.52 481.928 1036.3 481.931L1032 481.931 1032 469.1 1036.31 469.1C1036.5 469.102 1036.67 469.234 1036.71 469.42ZM1057.56 472.321C1057.04 472.501 1056.76 473.07 1056.94 473.592 1057 473.748 1057.09 473.888 1057.21 474 1057.43 474.216 1057.56 474.514 1057.56 474.826 1057.55 475.344 1057.19 475.788 1056.68 475.898 1056.14 476.017 1055.8 476.55 1055.92 477.089 1055.96 477.281 1056.06 477.456 1056.2 477.592 1056.39 477.782 1056.5 478.036 1056.5 478.303 1056.51 478.59 1056.4 478.867 1056.19 479.07 1055.92 479.341 1055.55 479.486 1055.17 479.47 1054.62 479.469 1054.17 479.916 1054.17 480.468 1054.17 480.738 1054.28 480.997 1054.47 481.186 1054.68 481.399 1054.77 481.693 1054.73 481.986 1054.66 482.576 1054.15 483.013 1053.55 483L1047.26 483C1045.66 483.085 1044.09 482.534 1042.9 481.467 1042.07 480.672 1040.98 480.209 1039.84 480.167L1038.72 480.167 1038.72 470.857 1038.97 470.857C1039.76 470.857 1040.54 470.638 1041.22 470.223 1043.45 468.853 1047.2 465.881 1047.2 461.372 1047.2 461.057 1047.33 460.756 1047.57 460.545 1047.8 460.332 1048.12 460.229 1048.43 460.259 1049.03 460.366 1049.46 460.9 1049.44 461.51 1049.52 463.423 1049.24 465.335 1048.62 467.146 1048.5 467.437 1048.42 467.744 1048.38 468.057 1048.38 468.095 1048.38 468.134 1048.38 468.172 1048.43 469.273 1049.34 470.142 1050.44 470.148L1057.16 470.148C1057.45 470.149 1057.74 470.268 1057.94 470.479 1058.16 470.693 1058.27 470.985 1058.27 471.287 1058.28 471.747 1058 472.162 1057.56 472.32Z" fill="#7CCA62"/><path d="M1075.6 450.005 1014.4 450.005C1012.53 450.025 1011.02 451.535 1011 453.405L1011 494.717C1010.98 496.579 1012.48 498.102 1014.34 498.117 1014.36 498.117 1014.38 498.117 1014.4 498.117L1051.8 498.117 1065.4 512.017 1065.4 498.217 1075.6 498.217C1077.47 498.198 1078.98 496.687 1079 494.817L1079 453.506C1079.02 451.602 1077.5 450.037 1075.6 450.005ZM1077 494.817C1076.98 495.582 1076.36 496.197 1075.6 496.217L1063.4 496.217 1063.4 507.117 1053.23 496.72 1052.64 496.12 1014.4 496.12C1013.64 496.137 1013.02 495.537 1013 494.781 1013 494.76 1013 494.74 1013 494.72L1013 453.406C1013.02 452.641 1013.64 452.026 1014.4 452.006L1075.6 452.006C1076.4 452.036 1077.03 452.706 1077 453.506Z" fill="#7CCA62"/></g></g></g><g><g><g><path d="M91.3417 55.2052C91.3417 50.7323 90.5177 46.3771 88.7521 42.2573 88.5167 41.6688 87.8104 41.3156 87.2219 41.6688 86.6333 41.9042 86.2802 42.6104 86.6333 43.199 93.3427 59.4427 85.574 78.0406 69.3302 84.75 67.5646 85.4563 65.799 86.0448 63.9156 86.3979 63.9156 86.3979 63.9156 86.3979 63.9156 86.3979L68.624 78.0406C68.9771 77.4521 68.7417 76.7458 68.1531 76.3927 67.5646 76.0396 66.8583 76.275 66.5052 76.8635L66.5052 76.8635 60.5021 87.4573C60.149 88.0458 60.3844 88.7521 60.9729 89.1052 60.9729 89.1052 60.9729 89.1052 60.9729 89.1052L71.449 95.1083C72.0375 95.4615 72.7438 95.226 73.0969 94.6375 73.45 94.049 73.2146 93.3427 72.626 92.9896L64.8573 88.6344C64.8573 88.6344 64.8573 88.6344 64.8573 88.6344 80.2771 84.8677 91.224 71.0958 91.3417 55.2052Z" fill="#009DD9" transform="matrix(1 0 0 1.00885 181 208)"/><path d="M52.9688 86.751C35.5479 84.3969 23.3062 68.3885 25.6604 50.9677 25.8958 49.0844 26.3667 47.3188 26.9552 45.4354 26.9552 45.4354 26.9552 45.4354 26.9552 45.4354L31.7813 53.675C32.1344 54.2635 32.8406 54.3813 33.4292 54.1458 34.0177 53.7927 34.1354 53.0865 33.9 52.4979L33.9 52.4979 27.7792 42.0219C27.426 41.4333 26.7198 41.3156 26.1313 41.551L15.6552 47.6719C15.0667 48.025 14.949 48.7313 15.1844 49.3198 15.4198 49.9083 16.2438 50.026 16.8323 49.7906L24.4833 45.3177C24.4833 45.3177 24.4833 45.3177 24.4833 45.3177 20.0104 60.5021 26.3667 76.8635 40.1385 84.8677 44.0229 87.1042 48.2604 88.5167 52.6156 89.1052 52.6156 89.1052 52.7333 89.1052 52.7333 89.1052 53.4396 89.1052 53.9104 88.6344 53.9104 87.9281 54.0281 87.3396 53.5573 86.8688 52.9688 86.751Z" fill="#009DD9" transform="matrix(1 0 0 1.00885 181 208)"/><path d="M31.075 36.2542C31.4281 36.2542 31.7813 36.1365 32.0167 35.7833 42.7281 21.8938 62.7385 19.3042 76.6281 30.0156 78.1583 31.1927 79.4531 32.4875 80.7479 33.7823 80.7479 33.7823 80.7479 33.7823 80.7479 33.7823L71.3313 33.7823C70.625 33.7823 70.1542 34.3708 70.1542 34.9594 70.1542 35.6656 70.7427 36.1365 71.3313 36.1365L71.3313 36.1365 83.4552 36.0188C84.1615 36.0188 84.6323 35.5479 84.6323 34.8417L84.5146 22.7177C84.5146 22.0115 84.0438 21.5406 83.3375 21.5406L83.3375 21.5406C82.6312 21.5406 82.1604 22.0115 82.1604 22.7177L82.1604 31.6635C82.1604 31.6635 82.1604 31.6635 82.1604 31.6635 69.3302 17.8917 47.6719 17.0677 33.9 30.0156 32.6052 31.3104 31.3104 32.6052 30.1333 34.1354 29.7802 34.6063 29.7802 35.4302 30.3687 35.7833 30.4865 35.901 30.7219 36.0188 30.8396 36.0188 30.9573 36.2542 31.075 36.2542 31.075 36.2542Z" fill="#009DD9" transform="matrix(1 0 0 1.00885 181 208)"/><path d="M61.5615 61.9146 65.2104 59.9135 65.2104 56.2646 61.5615 58.3833Z" fill="#009DD9" transform="matrix(1 0 0 1.00885 181 208)"/><path d="M75.2156 44.9646 57.2062 34.0177 39.1969 44.9646 39.1969 65.4458 57.2062 76.5104 75.2156 65.5635 75.2156 44.9646ZM71.8021 45.6708 66.3875 48.9667 51.674 40.1385 57.2062 36.725 71.8021 45.6708ZM57.2062 54.499 42.6104 45.6708 49.4375 41.551 64.151 50.3792 57.2062 54.499ZM41.551 47.7896 56.0292 56.6177 56.0292 73.0969 41.551 64.2688 41.551 47.7896ZM58.3833 72.9792 58.3833 56.5 72.8615 47.6719 72.8615 64.151 58.3833 72.9792Z" fill="#009DD9" transform="matrix(1 0 0 1.00885 181 208)"/></g></g></g><text fill="#17406D" font-family="Open Sans,Open Sans_MSFontService,sans-serif" font-weight="700" font-size="19" transform="translate(720 226)">Text Here</text><text font-family="Open Sans Light,Open Sans Light_MSFontService,sans-serif" font-weight="300" font-size="16" transform="translate(720 256)">Lorem Ipsum comes from</text><text font-family="Open Sans Light,Open Sans Light_MSFontService,sans-serif" font-weight="300" font-size="16" transform="translate(720 279)">section Contrary to</text><text font-family="Open Sans Light,Open Sans Light_MSFontService,sans-serif" font-weight="300" font-size="16" transform="translate(720 302)">popular belief, Lorem.</text><text fill="#17406D" font-family="Open Sans,Open Sans_MSFontService,sans-serif" font-weight="700" font-size="19" transform="translate(720 445)">Text Here</text><text font-family="Open Sans Light,Open Sans Light_MSFontService,sans-serif" font-weight="300" font-size="16" transform="translate(720 475)">Lorem Ipsum comes from</text><text font-family="Open Sans Light,Open Sans Light_MSFontService,sans-serif" font-weight="300" font-size="16" transform="translate(720 498)">section Contrary to</text><text font-family="Open Sans Light,Open Sans Light_MSFontService,sans-serif" font-weight="300" font-size="16" transform="translate(720 521)">popular belief, Lorem.</text></g></svg>