<svg width="1280" height="720" xmlns="http://www.w3.org/2000/svg" xmlns:xlink="http://www.w3.org/1999/xlink" overflow="hidden"><defs><filter id="fx0" x="-10%" y="-10%" width="120%" height="120%" filterUnits="userSpaceOnUse" primitiveUnits="userSpaceOnUse"><feComponentTransfer color-interpolation-filters="sRGB"><feFuncR type="discrete" tableValues="0 0"/><feFuncG type="discrete" tableValues="0 0"/><feFuncB type="discrete" tableValues="0 0"/><feFuncA type="linear" slope="0.4" intercept="0"/></feComponentTransfer><feGaussianBlur stdDeviation="1.77778 1.77778"/></filter><filter id="fx1" x="-10%" y="-10%" width="120%" height="120%" filterUnits="userSpaceOnUse" primitiveUnits="userSpaceOnUse"><feComponentTransfer color-interpolation-filters="sRGB"><feFuncR type="discrete" tableValues="0 0"/><feFuncG type="discrete" tableValues="0 0"/><feFuncB type="discrete" tableValues="0 0"/><feFuncA type="linear" slope="0.4" intercept="0"/></feComponentTransfer><feGaussianBlur stdDeviation="1.77778 1.77778"/></filter><clipPath id="clip2"><rect x="21" y="17" width="122" height="76"/></clipPath><linearGradient x1="319" y1="232" x2="319" y2="488" gradientUnits="userSpaceOnUse" spreadMethod="reflect" id="fill3"><stop offset="0" stop-color="#009DD9"/><stop offset="0.02" stop-color="#009ED9"/><stop offset="0.04" stop-color="#00A0D9"/><stop offset="0.06" stop-color="#01A2D9"/><stop offset="0.08" stop-color="#01A4D9"/><stop offset="0.1" stop-color="#01A6D9"/><stop offset="0.12" stop-color="#02A7D9"/><stop offset="0.14" stop-color="#02A9D9"/><stop offset="0.16" stop-color="#03ABD8"/><stop offset="0.18" stop-color="#03ACD9"/><stop offset="0.2" stop-color="#03AED9"/><stop offset="0.22" stop-color="#04AFD9"/><stop offset="0.24" stop-color="#04B1D9"/><stop offset="0.26" stop-color="#04B3D9"/><stop offset="0.28" stop-color="#05B4D9"/><stop offset="0.3" stop-color="#05B5D9"/><stop offset="0.32" stop-color="#05B7D9"/><stop offset="0.34" stop-color="#05B8D9"/><stop offset="0.36" stop-color="#06B9D9"/><stop offset="0.38" stop-color="#06BBD9"/><stop offset="0.4" stop-color="#06BCD9"/><stop offset="0.42" stop-color="#07BDD9"/><stop offset="0.44" stop-color="#07BED9"/><stop offset="0.46" stop-color="#07BFD9"/><stop offset="0.48" stop-color="#07C1D9"/><stop offset="0.5" stop-color="#08C2D9"/><stop offset="0.52" stop-color="#08C3D9"/><stop offset="0.54" stop-color="#08C4D9"/><stop offset="0.56" stop-color="#08C5D9"/><stop offset="0.58" stop-color="#08C5D9"/><stop offset="0.6" stop-color="#09C6D9"/><stop offset="0.62" stop-color="#09C7D9"/><stop offset="0.64" stop-color="#09C8D9"/><stop offset="0.66" stop-color="#09C9D9"/><stop offset="0.68" stop-color="#09C9D9"/><stop offset="0.7" stop-color="#09CAD9"/><stop offset="0.72" stop-color="#09CBD9"/><stop offset="0.74" stop-color="#0ACBD9"/><stop offset="0.76" stop-color="#0ACCD9"/><stop offset="0.78" stop-color="#0ACDD9"/><stop offset="0.8" stop-color="#0ACDD9"/><stop offset="0.82" stop-color="#0ACDD9"/><stop offset="0.84" stop-color="#0ACED9"/><stop offset="0.86" stop-color="#0ACED9"/><stop offset="0.88" stop-color="#0ACFD9"/><stop offset="0.9" stop-color="#0ACFD9"/><stop offset="0.92" stop-color="#0ACFD9"/><stop offset="0.94" stop-color="#0ACFD9"/><stop offset="0.96" stop-color="#0ACFD9"/><stop offset="0.98" stop-color="#0ACFD9"/><stop offset="1" stop-color="#0BD0D9"/></linearGradient></defs><g><rect x="0" y="0" width="1280" height="720" fill="#FFFFFF"/><path d="M126 360C126 253.409 212.409 167 319 167 425.591 167 512 253.409 512 360 512 466.591 425.591 553 319 553 212.409 553 126 466.591 126 360Z" fill="#F2F2F2" fill-rule="evenodd"/><path d="M0 0 74.1416 0.000104987" stroke="#0F6FC6" stroke-width="1.33333" stroke-miterlimit="8" fill="none" fill-rule="evenodd" transform="matrix(-1 0 0 1 552.642 311.5)"/><path d="M0 0 74.1416 0.000104987" stroke="#0F6FC6" stroke-width="1.33333" stroke-miterlimit="8" fill="none" fill-rule="evenodd" transform="matrix(-1 0 0 1 552.642 405.5)"/><path d="M552.5 502.5 471.5 502.5" stroke="#0F6FC6" stroke-width="1.33333" stroke-miterlimit="8" fill="none" fill-rule="evenodd"/><path d="M471.258 502.39 436.5 476.5" stroke="#0F6FC6" stroke-width="1.33333" stroke-miterlimit="8" fill="none" fill-rule="evenodd"/><path d="M542 503C542 493.611 549.387 486 558.5 486 567.613 486 575 493.611 575 503 575 512.389 567.613 520 558.5 520 549.387 520 542 512.389 542 503Z" stroke="#2F1C58" stroke-width="2" stroke-miterlimit="8" fill="#FFFFFF" fill-rule="evenodd"/><path d="M542 407.5C542 398.387 549.387 391 558.5 391 567.613 391 575 398.387 575 407.5 575 416.613 567.613 424 558.5 424 549.387 424 542 416.613 542 407.5Z" stroke="#2F1C58" stroke-width="2" stroke-miterlimit="8" fill="#FFFFFF" fill-rule="evenodd"/><path d="M542 312.5C542 303.387 549.387 296 558.5 296 567.613 296 575 303.387 575 312.5 575 321.613 567.613 329 558.5 329 549.387 329 542 321.613 542 312.5Z" stroke="#2F1C58" stroke-width="2" stroke-miterlimit="8" fill="#FFFFFF" fill-rule="evenodd"/><path d="M0 0 81 0.000104987" stroke="#0F6FC6" stroke-width="1.33333" stroke-miterlimit="8" fill="none" fill-rule="evenodd" transform="matrix(-1 0 0 1 552.5 217.5)"/><path d="M0 0 34.7582 25.8904" stroke="#0F6FC6" stroke-width="1.33333" stroke-miterlimit="8" fill="none" fill-rule="evenodd" transform="matrix(-1 0 0 1 471.258 217.5)"/><path d="M542 217C542 207.611 549.387 200 558.5 200 567.613 200 575 207.611 575 217 575 226.389 567.613 234 558.5 234 549.387 234 542 226.389 542 217Z" stroke="#2F1C58" stroke-width="2" stroke-miterlimit="8" fill="#FFFFFF" fill-rule="evenodd"/><path d="M153.5 360.5C153.5 268.821 227.821 194.5 319.5 194.5 411.179 194.5 485.5 268.821 485.5 360.5 485.5 452.179 411.179 526.5 319.5 526.5 227.821 526.5 153.5 452.179 153.5 360.5Z" stroke="#0F6FC6" stroke-width="0.666667" stroke-linecap="round" stroke-miterlimit="8" fill="none" fill-rule="evenodd"/><path d="M358.197 199.073C447.351 220.445 502.298 310.044 480.926 399.197 466.21 460.589 417.944 508.318 356.392 522.349" stroke="#0F6FC6" stroke-width="13.3333" stroke-linecap="round" stroke-miterlimit="8" fill="none" fill-rule="evenodd"/><path d="M550 217C550 212.582 553.806 209 558.5 209 563.194 209 567 212.582 567 217 567 221.418 563.194 225 558.5 225 553.806 225 550 221.418 550 217Z" fill="#009DD9" fill-rule="evenodd"/><path d="M550 312.5C550 307.806 553.806 304 558.5 304 563.194 304 567 307.806 567 312.5 567 317.194 563.194 321 558.5 321 553.806 321 550 317.194 550 312.5Z" fill="#0BD0D9" fill-rule="evenodd"/><path d="M550 407.5C550 402.806 553.806 399 558.5 399 563.194 399 567 402.806 567 407.5 567 412.194 563.194 416 558.5 416 553.806 416 550 412.194 550 407.5Z" fill="#10CF9B" fill-rule="evenodd"/><path d="M550 503C550 498.582 553.806 495 558.5 495 563.194 495 567 498.582 567 503 567 507.418 563.194 511 558.5 511 553.806 511 550 507.418 550 503Z" fill="#7CCA62" fill-rule="evenodd"/><g filter="url(#fx0)" transform="translate(184 229)"><g><path d="M7 135C7 64.3075 64.3075 7 135 7 205.692 7 263 64.3075 263 135 263 205.692 205.692 263 135 263 64.3075 263 7 205.692 7 135Z" fill="#FF0000" fill-rule="evenodd"/></g></g><g clip-path="url(#clip2)" filter="url(#fx1)" transform="translate(237 309)"><g><path d="M2.875 0 2.875-22.8438 7.71875-22.8438 7.71875-4 16.9844-4 16.9844 0ZM40.9694-11.4531C40.9694-7.67188 40.0319-4.76562 38.1569-2.73438 36.2819-0.703125 33.5944 0.3125 30.0944 0.3125 26.5944 0.3125 23.9069-0.703125 22.0319-2.73438 20.1569-4.76562 19.2194-7.68229 19.2194-11.4844 19.2194-15.2865 20.1595-18.1901 22.0397-20.1953 23.9199-22.2005 26.6152-23.2031 30.1256-23.2031 33.636-23.2031 36.3209-22.1927 38.1803-20.1719 40.0397-18.151 40.9694-15.2448 40.9694-11.4531ZM24.2975-11.4531C24.2975-8.90104 24.7819-6.97917 25.7506-5.6875 26.7194-4.39583 28.1673-3.75 30.0944-3.75 33.959-3.75 35.8913-6.31771 35.8913-11.4531 35.8913-16.599 33.9694-19.1719 30.1256-19.1719 28.1985-19.1719 26.7454-18.5234 25.7663-17.2266 24.7871-15.9297 24.2975-14.0052 24.2975-11.4531ZM50.5788-12.7031 52.1413-12.7031C53.6725-12.7031 54.8027-12.9583 55.5319-13.4688 56.261-13.9792 56.6256-14.7812 56.6256-15.875 56.6256-16.9583 56.2532-17.7292 55.5084-18.1875 54.7636-18.6458 53.61-18.875 52.0475-18.875L50.5788-18.875ZM50.5788-8.76562 50.5788 0 45.735 0 45.735-22.8438 52.3913-22.8438C55.4954-22.8438 57.7923-22.2786 59.2819-21.1484 60.7715-20.0182 61.5162-18.3021 61.5163-16 61.5162-14.6562 61.1465-13.4609 60.4069-12.4141 59.6673-11.3672 58.6204-10.5469 57.2663-9.95312 60.7038-4.81771 62.9433-1.5 63.985 0L58.61 0 53.1569-8.76562ZM80.0579 0 66.9017 0 66.9017-22.8438 80.0579-22.8438 80.0579-18.875 71.7454-18.875 71.7454-13.8594 79.4798-13.8594 79.4798-9.89062 71.7454-9.89062 71.7454-4 80.0579-4ZM94.5735 0 89.0735-17.9219 88.9329-17.9219C89.1308-14.276 89.2298-11.8438 89.2298-10.625L89.2298 0 84.9017 0 84.9017-22.8438 91.4954-22.8438 96.9017-5.375 96.9954-5.375 102.73-22.8438 109.324-22.8438 109.324 0 104.808 0 104.808-10.8125C104.808-11.3229 104.816-11.9115 104.831-12.5781 104.847-13.2448 104.917-15.0156 105.042-17.8906L104.902-17.8906 99.011 0Z" fill="#FFFFFF" transform="translate(25.809 47)"/><path d="M2.875 0 2.875-22.8438 7.71875-22.8438 7.71875 0ZM18.3854-12.0938 19.9792-12.0938C21.4688-12.0937 22.5833-12.388 23.3229-12.9766 24.0625-13.5651 24.4323-14.4219 24.4323-15.5469 24.4323-16.6823 24.1224-17.5208 23.5026-18.0625 22.8828-18.6042 21.9115-18.875 20.5885-18.875L18.3854-18.875ZM29.3229-15.7188C29.3229-13.2604 28.5547-11.3802 27.0182-10.0781 25.4818-8.77604 23.2969-8.125 20.4635-8.125L18.3854-8.125 18.3854 0 13.5417 0 13.5417-22.8438 20.8385-22.8438C23.6094-22.8438 25.7161-22.2474 27.1589-21.0547 28.6016-19.862 29.3229-18.0833 29.3229-15.7188ZM47.1927-6.34375C47.1927-4.28125 46.4505-2.65625 44.9661-1.46875 43.4818-0.28125 41.4167 0.3125 38.7708 0.3125 36.3333 0.3125 34.1771-0.145833 32.3021-1.0625L32.3021-5.5625C33.8438-4.875 35.1484-4.39062 36.2161-4.10938 37.2839-3.82812 38.2604-3.6875 39.1458-3.6875 40.2083-3.6875 41.0234-3.89062 41.5911-4.29688 42.1589-4.70312 42.4427-5.30729 42.4427-6.10938 42.4427-6.55729 42.3177-6.95573 42.0677-7.30469 41.8177-7.65365 41.4505-7.98958 40.9661-8.3125 40.4818-8.63542 39.4948-9.15104 38.0052-9.85938 36.6094-10.5156 35.5625-11.1458 34.8646-11.75 34.1667-12.3542 33.6094-13.0573 33.1927-13.8594 32.776-14.6615 32.5677-15.599 32.5677-16.6719 32.5677-18.6927 33.2526-20.2812 34.6224-21.4375 35.9922-22.5938 37.8854-23.1719 40.3021-23.1719 41.4896-23.1719 42.6224-23.0312 43.7005-22.75 44.7786-22.4688 45.9062-22.0729 47.0833-21.5625L45.5208-17.7969C44.3021-18.2969 43.2943-18.6458 42.4974-18.8438 41.7005-19.0417 40.9167-19.1406 40.1458-19.1406 39.2292-19.1406 38.526-18.9271 38.0365-18.5 37.5469-18.0729 37.3021-17.5156 37.3021-16.8281 37.3021-16.401 37.401-16.0286 37.599-15.7109 37.7969-15.3932 38.112-15.0859 38.5443-14.7891 38.9766-14.4922 40-13.9583 41.6146-13.1875 43.75-12.1667 45.2135-11.1432 46.0052-10.1172 46.7969-9.09115 47.1927-7.83333 47.1927-6.34375ZM69.9688-22.8438 69.9688-8.0625C69.9688-6.375 69.5911-4.89583 68.8359-3.625 68.0807-2.35417 66.9896-1.38021 65.5625-0.703125 64.1354-0.0260417 62.4479 0.3125 60.5 0.3125 57.5625 0.3125 55.2812-0.440104 53.6563-1.94531 52.0312-3.45052 51.2188-5.51042 51.2188-8.125L51.2188-22.8438 56.0469-22.8438 56.0469-8.85938C56.0469-7.09896 56.401-5.80729 57.1094-4.98438 57.8177-4.16146 58.9896-3.75 60.625-3.75 62.2083-3.75 63.3568-4.16406 64.0703-4.99219 64.7839-5.82031 65.1406-7.11979 65.1406-8.89062L65.1406-22.8438ZM85.2135 0 79.7135-17.9219 79.5729-17.9219C79.7708-14.276 79.8698-11.8438 79.8698-10.625L79.8698 0 75.5417 0 75.5417-22.8438 82.1354-22.8438 87.5417-5.375 87.6354-5.375 93.3698-22.8438 99.9635-22.8438 99.9635 0 95.4479 0 95.4479-10.8125C95.4479-11.3229 95.4557-11.9115 95.4714-12.5781 95.487-13.2448 95.5573-15.0156 95.6823-17.8906L95.5417-17.8906 89.651 0Z" fill="#FFFFFF" transform="translate(30.489 86)"/></g></g><path d="M191 360C191 289.308 248.308 232 319 232 389.692 232 447 289.308 447 360 447 430.692 389.692 488 319 488 248.308 488 191 430.692 191 360Z" fill="url(#fill3)" fill-rule="evenodd"/><text fill="#FFFFFF" font-family="Open Sans,Open Sans_MSFontService,sans-serif" font-weight="700" font-size="32" transform="translate(262.809 352)">LOREM</text><text fill="#FFFFFF" font-family="Open Sans,Open Sans_MSFontService,sans-serif" font-weight="700" font-size="32" transform="translate(267.489 391)">IPSUM</text><path d="M1173 661.5C1173 657.358 1176.36 654 1180.5 654L1245.5 654C1249.64 654 1253 657.358 1253 661.5L1253 691.5C1253 695.642 1249.64 699 1245.5 699L1180.5 699C1176.36 699 1173 695.642 1173 691.5Z" fill="#C8E3FB" fill-rule="evenodd"/><text fill="#17406D" font-family="Open Sans,Open Sans_MSFontService,sans-serif" font-weight="700" font-size="13" transform="translate(1194.08 673)">LOGO</text><text fill="#17406D" font-family="Open Sans,Open Sans_MSFontService,sans-serif" font-weight="700" font-size="13" transform="translate(1196.34 689)">HERE</text><text fill="#17406D" font-family="Open Sans,Open Sans_MSFontService,sans-serif" font-weight="700" font-size="19" transform="translate(629.111 210)">Text Here</text><text font-family="Open Sans Light,Open Sans Light_MSFontService,sans-serif" font-weight="300" font-size="16" transform="translate(629.111 240)">Lorem Ipsum comes from section Contrary to popular belief, Lorem.</text><text fill="#17406D" font-family="Open Sans,Open Sans_MSFontService,sans-serif" font-weight="700" font-size="19" transform="translate(629.111 304)">Text Here</text><text font-family="Open Sans Light,Open Sans Light_MSFontService,sans-serif" font-weight="300" font-size="16" transform="translate(629.111 334)">Lorem Ipsum comes from section Contrary to popular belief, Lorem.</text><text fill="#17406D" font-family="Open Sans,Open Sans_MSFontService,sans-serif" font-weight="700" font-size="19" transform="translate(629.111 399)">Text Here</text><text font-family="Open Sans Light,Open Sans Light_MSFontService,sans-serif" font-weight="300" font-size="16" transform="translate(629.111 429)">Lorem Ipsum comes from section Contrary to popular belief, Lorem.</text><text fill="#17406D" font-family="Open Sans,Open Sans_MSFontService,sans-serif" font-weight="700" font-size="19" transform="translate(629.111 496)">Text Here</text><text font-family="Open Sans Light,Open Sans Light_MSFontService,sans-serif" font-weight="300" font-size="16" transform="translate(629.111 526)">Lorem Ipsum comes from section Contrary to popular belief, Lorem.</text></g></svg>