<svg width="1280" height="720" xmlns="http://www.w3.org/2000/svg" xmlns:xlink="http://www.w3.org/1999/xlink" overflow="hidden"><defs><linearGradient x1="640" y1="304" x2="640" y2="434" gradientUnits="userSpaceOnUse" spreadMethod="reflect" id="fill0"><stop offset="0" stop-color="#009DD9"/><stop offset="0.02" stop-color="#009ED9"/><stop offset="0.04" stop-color="#00A0D9"/><stop offset="0.06" stop-color="#01A2D9"/><stop offset="0.08" stop-color="#01A4D9"/><stop offset="0.1" stop-color="#01A6D9"/><stop offset="0.12" stop-color="#02A7D9"/><stop offset="0.14" stop-color="#02A9D9"/><stop offset="0.16" stop-color="#03ABD8"/><stop offset="0.18" stop-color="#03ACD9"/><stop offset="0.2" stop-color="#03AED9"/><stop offset="0.22" stop-color="#04AFD9"/><stop offset="0.24" stop-color="#04B1D9"/><stop offset="0.26" stop-color="#04B3D9"/><stop offset="0.28" stop-color="#05B4D9"/><stop offset="0.3" stop-color="#05B5D9"/><stop offset="0.32" stop-color="#05B7D9"/><stop offset="0.34" stop-color="#05B8D9"/><stop offset="0.36" stop-color="#06B9D9"/><stop offset="0.38" stop-color="#06BBD9"/><stop offset="0.4" stop-color="#06BCD9"/><stop offset="0.42" stop-color="#07BDD9"/><stop offset="0.44" stop-color="#07BED9"/><stop offset="0.46" stop-color="#07BFD9"/><stop offset="0.48" stop-color="#07C1D9"/><stop offset="0.5" stop-color="#08C2D9"/><stop offset="0.52" stop-color="#08C3D9"/><stop offset="0.54" stop-color="#08C4D9"/><stop offset="0.56" stop-color="#08C5D9"/><stop offset="0.58" stop-color="#08C5D9"/><stop offset="0.6" stop-color="#09C6D9"/><stop offset="0.62" stop-color="#09C7D9"/><stop offset="0.64" stop-color="#09C8D9"/><stop offset="0.66" stop-color="#09C9D9"/><stop offset="0.68" stop-color="#09C9D9"/><stop offset="0.7" stop-color="#09CAD9"/><stop offset="0.72" stop-color="#09CBD9"/><stop offset="0.74" stop-color="#0ACBD9"/><stop offset="0.76" stop-color="#0ACCD9"/><stop offset="0.78" stop-color="#0ACDD9"/><stop offset="0.8" stop-color="#0ACDD9"/><stop offset="0.82" stop-color="#0ACDD9"/><stop offset="0.84" stop-color="#0ACED9"/><stop offset="0.86" stop-color="#0ACED9"/><stop offset="0.88" stop-color="#0ACFD9"/><stop offset="0.9" stop-color="#0ACFD9"/><stop offset="0.92" stop-color="#0ACFD9"/><stop offset="0.94" stop-color="#0ACFD9"/><stop offset="0.96" stop-color="#0ACFD9"/><stop offset="0.98" stop-color="#0ACFD9"/><stop offset="1" stop-color="#0BD0D9"/></linearGradient></defs><g><rect x="0" y="0" width="1280" height="720" fill="#FFFFFF"/><path d="M511 369C511 297.755 568.755 240 640 240 711.245 240 769 297.755 769 369 769 440.245 711.245 498 640 498 568.755 498 511 440.245 511 369Z" fill="#F2F2F2" fill-rule="evenodd" fill-opacity="0.690196"/><path d="M640 390.715 637.719 390.425 635.581 390.136 633.586 389.702 631.59 388.978 629.88 387.964 628.027 386.951 626.459 385.648 624.891 384.345 623.608 382.898 622.325 381.16 621.327 379.278 620.33 377.541 619.617 375.514 619.189 373.488 618.619 371.316 618.619 369 618.619 366.829 619.189 364.657 619.617 362.63 620.33 360.604 621.327 358.722 622.325 356.84 623.608 355.247 624.891 353.8 626.459 352.207 628.027 351.049 629.88 349.891 631.59 349.022 633.586 348.298 635.581 347.719 637.719 347.43 640 347.285 642.138 347.43 644.276 347.719 646.272 348.298 648.267 349.022 650.12 349.891 651.973 351.049 653.399 352.207 654.967 353.8 656.392 355.247 657.532 356.84 658.673 358.722 659.528 360.604 660.383 362.63 660.811 364.657 661.238 366.829 661.238 369 661.238 371.316 660.811 373.488 660.383 375.514 659.528 377.541 658.673 379.278 657.532 381.16 656.392 382.898 654.967 384.345 653.399 385.648 651.973 386.951 650.12 387.964 648.267 388.978 646.272 389.702 644.276 390.136 642.138 390.425 640 390.715ZM701.862 355.971 685.898 355.971 685.042 353.365 684.187 350.47 682.904 347.719 681.479 345.114 692.882 333.967 693.167 333.677 693.31 333.243 693.452 332.808 693.452 332.374 693.452 331.94 693.31 331.65 693.167 331.216 692.882 330.927 677.63 315.581 677.203 315.147 676.775 315.002 676.49 314.857 676.062 314.857 675.777 314.857 675.207 315.002 674.922 315.147 674.494 315.581 663.376 326.873 660.668 325.425 657.817 324.267 655.109 323.109 652.686 322.53 652.686 306.171 652.686 305.737 652.543 305.448 652.401 305.013 652.116 304.724 651.831 304.434 651.546 304.29 650.975 304 650.548 304 629.31 304 628.882 304 628.454 304.29 628.169 304.434 627.884 304.724 627.599 305.013 627.314 305.448 627.172 305.737 627.172 306.171 627.172 322.53 624.748 323.254 622.04 324.267 619.332 325.425 616.624 326.873 605.363 315.581 604.935 315.147 604.65 315.002 604.223 314.857 603.938 314.857 603.367 314.857 603.082 315.002 602.655 315.147 602.37 315.581 587.118 330.927 586.833 331.216 586.69 331.65 586.548 331.94 586.548 332.374 586.548 332.808 586.69 333.243 586.833 333.677 587.118 333.967 598.379 345.403 597.096 348.009 595.813 350.904 594.673 353.655 593.96 355.971 578.138 355.971 577.71 356.116 577.425 356.261 576.855 356.405 576.57 356.695 576.428 356.984 576.143 357.274 576.143 357.853 576 358.143 576 375.514 576.143 375.949 576.143 376.383 576.428 376.673 576.57 376.962 576.855 377.252 577.425 377.541 577.71 377.686 578.138 377.686 593.817 377.686 594.53 381.884 595.67 385.793 596.241 387.82 596.811 389.557 597.666 391.294 598.379 392.742 587.118 404.323 586.833 404.612 586.69 404.902 586.548 405.336 586.548 405.771 586.69 406.639 587.118 407.363 602.37 422.708 602.655 422.998 602.94 423.143 603.367 423.287 603.938 423.287 604.223 423.287 604.65 423.143 605.078 422.998 605.363 422.708 616.624 411.416 618.477 412.14 620.472 413.009 622.468 413.733 624.463 414.457 625.889 415.18 627.172 415.615 627.172 431.828 627.172 432.263 627.314 432.552 627.599 433.131 627.884 433.421 628.169 433.566 628.454 433.855 628.882 433.855 629.31 434 650.548 434 650.975 433.855 651.546 433.855 651.831 433.566 652.116 433.421 652.401 433.131 652.543 432.552 652.686 432.263 652.686 431.828 652.686 415.615 654.111 415.18 655.394 414.457 657.39 413.733 659.385 413.009 661.381 412.14 663.376 411.416 674.494 422.708 674.922 422.998 675.207 423.143 675.777 423.287 676.062 423.287 676.49 423.287 676.918 423.143 677.203 422.998 677.63 422.708 692.882 407.363 693.167 406.929 693.31 406.639 693.452 406.06 693.452 405.771 693.452 405.336 693.31 405.047 693.167 404.612 692.882 404.323 681.621 392.742 682.334 391.583 683.047 390.136 683.617 388.833 684.33 387.241 684.9 385.359 685.327 383.042 685.755 380.581 686.183 377.686 701.862 377.686 702.29 377.686 702.575 377.541 703.002 377.252 703.287 376.962 703.43 376.673 703.857 376.383 704 375.949 704 375.514 704 358.143 704 357.853 703.857 357.274 703.43 356.984 703.287 356.695 703.002 356.405 702.575 356.261 702.29 356.116 701.862 355.971Z" fill="url(#fill0)" fill-rule="evenodd"/><path d="M481.342 334.32C500.771 246.42 587.779 190.912 675.68 210.342 750.344 226.845 803.5 293.033 803.5 369.5" stroke="#009DD9" stroke-width="13.3333" stroke-linecap="round" stroke-miterlimit="8" fill="none" fill-rule="evenodd"/><path d="M803.5 371.5 922.513 371.5" stroke="#009DD9" stroke-width="13.3333" stroke-linecap="round" stroke-miterlimit="8" fill="none" fill-rule="evenodd"/><path d="M921 370.5C921 329.907 953.907 297 994.5 297 1035.09 297 1068 329.907 1068 370.5 1068 411.093 1035.09 444 994.5 444 953.907 444 921 411.093 921 370.5Z" fill="#C4EFFF" fill-rule="evenodd"/><path d="M1003.83 364.046 998.854 369.134 999.375 369.962 999.78 370.85 1000.13 371.678 1000.42 372.566 1000.71 373.512 1000.88 374.518 1001 375.465 1001.05 376.47 1001 377.831 1000.76 379.192 1000.42 380.434 1000.01 381.677 999.433 382.801 998.796 383.984 998.043 384.99 997.175 385.937 996.249 386.765 995.265 387.593 994.223 388.244 993.065 388.836 991.907 389.25 990.634 389.545 989.36 389.782 987.971 389.841 986.64 389.782 985.366 389.545 984.093 389.25 982.877 388.836 981.777 388.244 980.735 387.593 979.635 386.765 978.709 385.937 977.899 384.99 977.204 383.984 976.452 382.801 975.988 381.677 975.467 380.434 975.178 379.192 975.004 377.831 974.889 376.47 975.004 375.169 975.178 373.808 975.467 372.566 975.988 371.323 976.452 370.081 977.204 369.016 977.899 368.01 978.709 367.063 979.635 366.176 980.735 365.407 981.777 364.756 982.877 364.164 984.093 363.75 985.366 363.395 986.64 363.218 987.971 363.159 988.955 363.159 989.881 363.336 990.865 363.455 991.792 363.75 992.66 364.046 993.586 364.401 994.339 364.815 995.207 365.348 1000.13 360.26 998.854 359.313 997.465 358.485 996.075 357.775 994.512 357.183 992.949 356.651 991.328 356.296 990.518 356.177 989.708 356.059 988.839 356 987.971 356 986.929 356.059 985.945 356.177 984.961 356.237 983.977 356.473 982.993 356.651 982.067 356.947 981.14 357.242 980.214 357.597 979.288 358.012 978.42 358.485 977.609 358.958 976.799 359.55 975.988 360.082 975.294 360.733 974.483 361.384 973.847 362.035 973.152 362.745 972.515 363.455 971.936 364.224 971.357 365.052 970.894 365.939 970.373 366.768 969.968 367.655 969.563 368.543 969.158 369.43 968.81 370.377 968.521 371.382 968.347 372.329 968.174 373.335 968.058 374.341 968 375.465 968 376.47 968 377.476 968.058 378.482 968.116 379.429 968.347 380.375 968.521 381.322 968.753 382.268 969.042 383.156 969.331 384.043 969.737 384.931 970.084 385.7 970.547 386.587 971.01 387.356 971.531 388.185 972.11 388.895 972.631 389.605 973.21 390.315 968.174 395.462 968 395.758 968 396.053 968 396.408 968.174 396.704 968.463 396.882 968.81 397 969.158 396.882 969.447 396.704 974.483 391.557 975.12 392.149 975.815 392.799 976.625 393.273 977.32 393.805 978.072 394.279 978.941 394.752 979.693 395.166 980.562 395.521 981.488 395.817 982.356 396.113 983.282 396.408 984.151 396.645 985.077 396.763 986.003 396.823 986.987 396.882 987.971 397 988.955 396.882 989.881 396.823 990.807 396.763 991.792 396.645 992.718 396.408 993.586 396.113 994.512 395.817 995.323 395.521 996.191 395.166 997.059 394.752 997.812 394.279 998.622 393.805 999.375 393.273 1000.07 392.799 1000.76 392.208 1001.52 391.557 1006.49 396.704 1006.78 396.882 1007.13 397 1007.42 396.882 1007.71 396.704 1007.94 396.408 1008 396.053 1007.94 395.758 1007.71 395.462 1002.79 390.315 1003.31 389.605 1003.89 388.895 1004.47 388.185 1004.99 387.356 1005.4 386.587 1005.8 385.7 1006.26 384.931 1006.61 384.043 1006.96 383.156 1007.25 382.268 1007.42 381.322 1007.65 380.375 1007.77 379.429 1007.94 378.482 1008 377.476 1008 376.47 1008 375.583 1007.94 374.755 1007.88 373.926 1007.71 373.039 1007.36 371.382 1006.9 369.785 1006.32 368.247 1005.63 366.768 1004.76 365.348 1003.83 364.046 1003.83 364.046Z" fill="#009DD9" fill-rule="evenodd"/><path d="M993.529 366.837 992.824 366.469 992.176 366.102 991.471 365.796 990.647 365.551 989.882 365.306 989.059 365.184 988.294 365.122 987.471 365 986.294 365.122 985.176 365.306 984.059 365.612 983.059 365.98 982.059 366.531 981 367.143 980.176 367.816 979.353 368.551 978.588 369.408 977.941 370.327 977.353 371.306 976.882 372.347 976.529 373.449 976.235 374.612 976.059 375.776 976 377 976.059 378.286 976.235 379.449 976.529 380.551 976.882 381.714 977.353 382.755 977.941 383.735 978.588 384.592 979.353 385.51 980.176 386.245 981 386.918 982.059 387.531 983.059 388.082 984.059 388.449 985.176 388.755 986.294 388.939 987.471 389 988.647 388.939 989.765 388.755 990.882 388.449 991.941 388.082 992.941 387.531 993.882 386.918 994.824 386.245 995.588 385.51 996.353 384.592 997.059 383.735 997.647 382.755 998.059 381.714 998.471 380.551 998.765 379.449 998.941 378.286 999 377 998.941 376.143 998.824 375.347 998.706 374.551 998.529 373.694 998.294 372.959 998 372.224 997.647 371.429 997.235 370.755 993.294 374.796 993.471 375.347 993.588 375.959 993.647 376.449 993.647 377 993.647 377.673 993.529 378.347 993.412 378.959 993.176 379.51 992.941 380.061 992.588 380.673 992.235 381.102 991.882 381.531 991.471 382.02 990.941 382.388 990.412 382.694 989.882 383 989.294 383.184 988.706 383.367 988.118 383.429 987.471 383.49 986.824 383.429 986.176 383.367 985.647 383.184 985.059 383 984.529 382.694 984.059 382.388 983.529 382.02 983.118 381.531 982.706 381.102 982.294 380.673 982.059 380.061 981.765 379.51 981.529 378.959 981.412 378.347 981.294 377.673 981.294 377 981.294 376.388 981.412 375.714 981.529 375.102 981.765 374.551 982.059 373.939 982.294 373.388 982.706 372.959 983.118 372.408 983.529 372.041 984.059 371.673 984.529 371.367 985.059 371.061 985.647 370.878 986.176 370.694 986.824 370.633 987.471 370.571 988 370.633 988.588 370.694 989.059 370.755 989.588 370.939 993.529 366.837Z" fill="#009DD9" fill-rule="evenodd"/><path d="M988.533 372.132 988.267 372 988 372 987.627 372 987.2 372.132 986.773 372.265 986.453 372.397 986.08 372.596 985.76 372.861 985.493 373.126 985.173 373.457 984.907 373.788 984.693 374.185 984.48 374.583 984.32 375.046 984.16 375.51 984.053 375.974 984.053 376.503 984 376.967 984.053 377.497 984.053 378.026 984.16 378.49 984.32 378.887 984.48 379.351 984.693 379.815 984.907 380.212 985.173 380.543 985.493 380.808 985.76 381.073 986.08 381.404 986.453 381.536 986.773 381.735 987.2 381.868 987.627 382 988 382 988.427 382 988.8 381.868 989.173 381.735 989.6 381.536 989.92 381.404 990.24 381.073 990.56 380.808 990.827 380.543 991.093 380.212 991.36 379.815 991.52 379.351 991.733 378.887 991.84 378.49 991.947 378.026 992 377.497 992 376.967 992 376.636 992 376.305 989.707 379.152 989.333 379.483 988.907 379.815 988.48 379.947 988 379.947 987.573 379.947 987.093 379.815 986.667 379.483 986.347 379.152 986.027 378.623 985.813 378.159 985.653 377.629 985.6 376.967 985.653 376.371 985.813 375.841 986.027 375.311 986.347 374.848 988.533 372.132Z" fill="#009DD9" fill-rule="evenodd"/><path d="M1020.88 349.766 1020.7 349.587 1020.58 349.469 1020.35 349.409 1020.11 349.409 1017.31 349.409 1015.7 349.409 1015.7 347.685 1015.7 344.892 1015.64 344.654 1015.58 344.476 1015.46 344.297 1015.34 344.178 1015.11 344.059 1014.93 344 1014.69 344 1014.45 344 1014.09 344.178 1013.14 344.535 1011.83 345.01 1010.34 345.724 1010.34 345.724 1010.34 353.808 1010.22 354.164 1010.04 354.462 1009.75 354.699 1009.39 354.759 1009.09 354.699 1008.79 354.462 1008.56 354.164 1008.5 353.808 1008.5 346.675 1007.42 347.329 1006.29 348.161 1005.22 348.934 1004.27 349.766 1003.43 350.717 1002.66 351.727 1002.36 352.203 1002.12 352.738 1001.89 353.273 1001.71 353.808 1001.65 354.462 1001.59 355.056 1001.59 355.65 1001.65 356.185 1001.83 356.839 1002.01 357.434 1002.3 358.028 1002.6 358.622 1003.14 359.336 1003.67 360.049 1003.67 360.049 1001.83 361.951 996.706 366.944 995.455 368.252 991.644 372.056 990.394 373.364 988.37 375.385 987.238 376.455 987.119 376.633 987.06 376.752 987.06 376.871 987 377.049 987.06 377.287 987.06 377.406 987.119 377.524 987.238 377.703 987.238 377.703 987.238 377.703 987.536 377.941 987.893 378 988.191 377.941 988.489 377.703 988.489 377.703 988.548 377.703 989.56 376.633 991.644 374.552 992.954 373.364 996.706 369.5 998.016 368.252 1003.14 363.199 1004.92 361.297 1005.64 361.951 1006.41 362.367 1007.25 362.783 1008.08 363.199 1008.91 363.318 1009.81 363.378 1010.46 363.378 1011.06 363.259 1011.71 363.08 1012.31 362.902 1012.84 362.605 1013.38 362.308 1013.85 361.892 1014.45 361.476 1015.4 360.584 1016.36 359.455 1017.13 358.325 1017.9 357.136 1018.62 356.007 1019.21 354.818 1019.69 353.748 1020.11 352.797 1020.7 351.192 1021 350.538 1021 350.301 1021 350.122 1021 349.885 1020.88 349.766Z" fill="#009DD9" fill-rule="evenodd"/><path d="M799.659 406.68C780.229 494.581 693.221 550.088 605.32 530.658 530.656 514.155 477.5 447.967 477.5 371.5" stroke="#0BD0D9" stroke-width="13.3333" stroke-linecap="round" stroke-miterlimit="8" fill="none" fill-rule="evenodd"/><path d="M358.5 371.5 477.513 371.5" stroke="#0BD0D9" stroke-width="13.3333" stroke-linecap="round" stroke-miterlimit="8" fill="none" fill-rule="evenodd"/><path d="M212 370.5C212 329.907 244.907 297 285.5 297 326.093 297 359 329.907 359 370.5 359 411.093 326.093 444 285.5 444 244.907 444 212 411.093 212 370.5Z" fill="#C9FAFC" fill-rule="evenodd"/><path d="M289.125 390 283.817 390 283.467 390.034 283.175 390.138 283.058 390.31 283 390.517 283.058 390.724 283.175 390.897 283.467 390.966 283.817 391 289.125 391 289.475 390.966 289.767 390.897 289.883 390.724 290 390.517 289.883 390.31 289.767 390.138 289.475 390.034 289.125 390Z" fill="#0BD0D9" fill-rule="evenodd"/><path d="M286.951 393 285.049 393 284.656 393.067 284.328 393.333 284.066 393.533 284 393.933 284.066 394.4 284.328 394.667 284.656 394.933 285.049 395 286.951 395 287.344 394.933 287.672 394.667 287.934 394.4 288 393.933 287.934 393.533 287.672 393.333 287.344 393.067 286.951 393Z" fill="#0BD0D9" fill-rule="evenodd"/><path d="M286.029 355 285.207 355.059 284.503 355.059 283.74 355.178 282.977 355.356 282.272 355.475 281.568 355.712 280.863 355.89 280.217 356.187 278.867 356.84 277.634 357.612 276.46 358.442 275.403 359.451 274.464 360.579 273.524 361.707 272.82 362.953 272.174 364.259 271.881 364.971 271.646 365.624 271.47 366.336 271.294 367.167 271.176 367.879 271.117 368.592 271 369.423 271 370.194 271 371.441 271.176 372.687 271.47 373.815 271.763 375.002 272.174 376.07 272.644 377.138 273.29 378.266 273.935 379.156 274.699 380.106 275.462 380.996 276.342 381.768 277.282 382.54 278.28 383.192 279.337 383.727 280.393 384.261 281.568 384.676 281.568 387.169 281.626 387.466 281.861 387.763 282.155 387.941 282.507 388 289.552 388 289.904 387.941 290.198 387.763 290.374 387.466 290.432 387.169 290.432 384.676 291.607 384.261 292.663 383.727 293.779 383.192 294.777 382.54 295.716 381.768 296.538 380.996 297.36 380.106 298.065 379.156 298.769 378.266 299.356 377.138 299.826 376.07 300.296 375.002 300.589 373.815 300.824 372.687 301 371.441 301 370.194 301 369.423 300.941 368.592 300.824 367.879 300.706 367.167 300.589 366.336 300.354 365.624 300.119 364.971 299.826 364.259 299.18 362.953 298.476 361.707 297.536 360.579 296.597 359.451 295.54 358.442 294.425 357.612 293.192 356.84 291.841 356.187 291.196 355.89 290.432 355.712 289.728 355.475 289.023 355.356 288.319 355.178 287.497 355.059 286.793 355.059 286.029 355Z" fill="#0BD0D9" fill-rule="evenodd"/><path d="M266.222 368 262.889 368 262.556 368.129 262.278 368.323 262.056 368.645 262 368.968 262.056 369.355 262.278 369.677 262.556 369.935 262.889 370 266.222 370 266.556 369.935 266.833 369.677 266.944 369.355 267 368.968 266.944 368.645 266.833 368.323 266.556 368.129 266.222 368Z" fill="#0BD0D9" fill-rule="evenodd"/><path d="M272.953 359 273.346 358.869 273.673 358.673 273.869 358.346 274 357.953 273.869 357.626 273.673 357.299 268.701 352.327 268.374 352.131 268.047 352 267.654 352.131 267.327 352.327 267.131 352.654 267 353.047 267.131 353.374 267.327 353.701 272.299 358.673 272.626 358.869 272.953 359Z" fill="#0BD0D9" fill-rule="evenodd"/><path d="M286.034 352 286.448 351.944 286.793 351.833 286.931 351.556 287 351.222 287 347.889 286.931 347.556 286.793 347.278 286.448 347.056 286.034 347 285.621 347.056 285.276 347.278 285.069 347.556 285 347.889 285 351.222 285.069 351.556 285.276 351.833 285.621 351.944 286.034 352Z" fill="#0BD0D9" fill-rule="evenodd"/><path d="M304.67 352.327 304.34 352.131 303.943 352 303.613 352.131 303.283 352.327 298.33 357.234 298.066 357.626 298 357.953 298.066 358.346 298.33 358.673 298.66 358.869 299.057 359 299.387 358.869 299.651 358.673 304.67 353.701 304.934 353.374 305 353.047 304.934 352.654 304.67 352.327Z" fill="#0BD0D9" fill-rule="evenodd"/><path d="M309.167 368 305.833 368 305.5 368.129 305.222 368.323 305.056 368.645 305 368.968 305.056 369.355 305.222 369.677 305.5 369.935 305.833 370 309.167 370 309.5 369.935 309.778 369.677 309.944 369.355 310 368.968 309.944 368.645 309.778 368.323 309.5 368.129 309.167 368Z" fill="#0BD0D9" fill-rule="evenodd"/><path d="M1064 401.967C1047 440.6 1002.12 458.055 963.736 440.952 936.355 428.752 918.644 401.505 918.501 371.365" stroke="#009DD9" stroke-width="13.3333" stroke-linecap="round" stroke-miterlimit="8" fill="none" fill-rule="evenodd"/><path d="M6.62331 45.3634C23.8196 6.77154 69.0448-10.573 107.637 6.62331 135.105 18.8631 152.855 46.0607 152.999 76.1324" stroke="#0BD0D9" stroke-width="13.3333" stroke-linecap="round" stroke-miterlimit="8" fill="none" fill-rule="evenodd" transform="matrix(1 0 0 -1 210.5 447.5)"/><text font-family="Open Sans Light,Open Sans Light_MSFontService,sans-serif" font-weight="300" font-size="16" transform="translate(164.726 506)">Lorem Ipsum comes from section</text><text font-family="Open Sans Light,Open Sans Light_MSFontService,sans-serif" font-weight="300" font-size="16" transform="translate(164.06 529)">Contrary to popular belief, Lorem.</text><text fill="#17406D" font-family="Open Sans,Open Sans_MSFontService,sans-serif" font-weight="700" font-size="19" transform="translate(241.1 262)">Text Here</text><text font-family="Open Sans Light,Open Sans Light_MSFontService,sans-serif" font-weight="300" font-size="16" transform="translate(875.792 506)">Lorem Ipsum comes from section</text><text font-family="Open Sans Light,Open Sans Light_MSFontService,sans-serif" font-weight="300" font-size="16" transform="translate(875.125 529)">Contrary to popular belief, Lorem.</text><text fill="#17406D" font-family="Open Sans,Open Sans_MSFontService,sans-serif" font-weight="700" font-size="19" transform="translate(952.166 262)">Text Here</text><path d="M1173 661.5C1173 657.358 1176.36 654 1180.5 654L1245.5 654C1249.64 654 1253 657.358 1253 661.5L1253 691.5C1253 695.642 1249.64 699 1245.5 699L1180.5 699C1176.36 699 1173 695.642 1173 691.5Z" fill="#C8E3FB" fill-rule="evenodd"/><text fill="#17406D" font-family="Open Sans,Open Sans_MSFontService,sans-serif" font-weight="700" font-size="13" transform="translate(1194.08 673)">LOGO</text><text fill="#17406D" font-family="Open Sans,Open Sans_MSFontService,sans-serif" font-weight="700" font-size="13" transform="translate(1196.34 689)">HERE</text></g></svg>