<svg width="1280" height="720" xmlns="http://www.w3.org/2000/svg" xmlns:xlink="http://www.w3.org/1999/xlink" overflow="hidden">
    <g>
        <rect x="0" y="0" width="1280" height="720" fill="#FFFFFF"/>
        <rect x="29" y="95" width="28" height="4" fill="#10CF9B"/>
        <rect x="0" y="95" width="29" height="4" fill="#009DD9"/>
        <text fill="#0F6FC6" font-family="Open Sans,Open Sans_MSFontService,sans-serif" font-weight="700" font-size="48" transform="translate(85.6 111)">{{header}}</text>
        <text fill="#17406D" font-family="Open Sans,Open Sans_MSFontService,sans-serif" font-weight="400" font-size="15" transform="translate(88 58)">{{section_title}}</text>
        <text font-family="Open Sans Light,Open Sans Light_MSFontService,sans-serif" font-weight="300" font-size="16" transform="translate(88 146)">{{sub_header}}</text>
        <path d="M725.828 321.037C725.828 321.037 725.828 321.037 739.172 321.037 743.498 321.037 747 324.588 747 328.964 747 328.964 747 328.964 747 330.061 747 330.061 747 330.061 747 330.845 747 330.845 747 330.845 747 348.148 747 349.587 745.849 350.754 744.43 350.754 743.012 350.754 741.871 349.587 741.871 348.148 741.871 348.148 741.871 348.148 741.871 330.845 741.871 330.845 741.871 330.845 739.966 330.845 739.966 330.845 739.966 330.845 739.966 347.947 739.966 347.947 739.966 347.947 739.966 352.142 739.966 352.142 739.966 352.142 739.966 378.801 739.966 380.571 738.547 382 736.811 382 735.065 382 733.656 380.571 733.656 378.801 733.656 378.801 733.656 378.801 733.656 352.142 733.656 352.142 733.656 352.142 731.344 352.142 731.344 352.142 731.344 352.142 731.344 378.801 731.344 380.571 729.935 382 728.189 382 726.453 382 725.034 380.571 725.034 378.801 725.034 378.801 725.034 378.801 725.034 352.142 725.034 352.142 725.034 352.142 725.034 347.947 725.034 347.947 725.034 347.947 725.034 330.845 725.034 330.845 725.034 330.845 723.139 330.845 723.139 330.845 723.139 330.845 723.139 348.148 723.139 349.587 721.988 350.754 720.57 350.754 719.151 350.754 718 349.587 718 348.148 718 348.148 718 348.148 718 330.845 718 330.845 718 330.845 718 330.061 718 330.061 718 330.061 718 328.964 718 324.588 721.502 321.037 725.828 321.037ZM732.5 307C735.866 307 738.595 309.767 738.595 313.181 738.595 316.595 735.866 319.363 732.5 319.363 729.134 319.363 726.405 316.595 726.405 313.181 726.405 309.767 729.134 307 732.5 307Z" fill="#10CF9B" fill-rule="evenodd"/>
        <path d="M688.828 321.037C688.828 321.037 688.828 321.037 702.172 321.037 706.498 321.037 710 324.588 710 328.964 710 328.964 710 328.964 710 330.061 710 330.061 710 330.061 710 330.845 710 330.845 710 330.845 710 348.148 710 349.587 708.849 350.754 707.43 350.754 706.012 350.754 704.871 349.587 704.871 348.148 704.871 348.148 704.871 348.148 704.871 330.845 704.871 330.845 704.871 330.845 702.966 330.845 702.966 330.845 702.966 330.845 702.966 347.947 702.966 347.947 702.966 347.947 702.966 352.142 702.966 352.142 702.966 352.142 702.966 378.801 702.966 380.571 701.547 382 699.811 382 698.065 382 696.656 380.571 696.656 378.801 696.656 378.801 696.656 378.801 696.656 352.142 696.656 352.142 696.656 352.142 694.344 352.142 694.344 352.142 694.344 352.142 694.344 378.801 694.344 380.571 692.935 382 691.189 382 689.453 382 688.034 380.571 688.034 378.801 688.034 378.801 688.034 378.801 688.034 352.142 688.034 352.142 688.034 352.142 688.034 347.947 688.034 347.947 688.034 347.947 688.034 330.845 688.034 330.845 688.034 330.845 686.139 330.845 686.139 330.845 686.139 330.845 686.139 348.148 686.139 349.587 684.988 350.754 683.57 350.754 682.151 350.754 681 349.587 681 348.148 681 348.148 681 348.148 681 330.845 681 330.845 681 330.845 681 330.061 681 330.061 681 330.061 681 328.964 681 324.588 684.502 321.037 688.828 321.037ZM695.5 307C698.866 307 701.595 309.767 701.595 313.181 701.595 316.595 698.866 319.363 695.5 319.363 692.134 319.363 689.405 316.595 689.405 313.181 689.405 309.767 692.134 307 695.5 307Z" fill="#009DD9" fill-rule="evenodd"/>
        <path d="M651.828 321.037C651.828 321.037 651.828 321.037 665.172 321.037 669.498 321.037 673 324.588 673 328.964 673 328.964 673 328.964 673 330.061 673 330.061 673 330.061 673 330.845 673 330.845 673 330.845 673 348.148 673 349.587 671.849 350.754 670.43 350.754 669.012 350.754 667.871 349.587 667.871 348.148 667.871 348.148 667.871 348.148 667.871 330.845 667.871 330.845 667.871 330.845 665.966 330.845 665.966 330.845 665.966 330.845 665.966 347.947 665.966 347.947 665.966 347.947 665.966 352.142 665.966 352.142 665.966 352.142 665.966 378.801 665.966 380.571 664.547 382 662.811 382 661.065 382 659.656 380.571 659.656 378.801 659.656 378.801 659.656 378.801 659.656 352.142 659.656 352.142 659.656 352.142 657.344 352.142 657.344 352.142 657.344 352.142 657.344 378.801 657.344 380.571 655.935 382 654.189 382 652.453 382 651.034 380.571 651.034 378.801 651.034 378.801 651.034 378.801 651.034 352.142 651.034 352.142 651.034 352.142 651.034 347.947 651.034 347.947 651.034 347.947 651.034 330.845 651.034 330.845 651.034 330.845 649.139 330.845 649.139 330.845 649.139 330.845 649.139 348.148 649.139 349.587 647.988 350.754 646.57 350.754 645.151 350.754 644 349.587 644 348.148 644 348.148 644 348.148 644 330.845 644 330.845 644 330.845 644 330.061 644 330.061 644 330.061 644 328.964 644 324.588 647.502 321.037 651.828 321.037ZM658.5 307C661.866 307 664.595 309.767 664.595 313.181 664.595 316.595 661.866 319.363 658.5 319.363 655.134 319.363 652.405 316.595 652.405 313.181 652.405 309.767 655.134 307 658.5 307Z" fill="#009DD9" fill-rule="evenodd"/>
        <path d="M614.828 321.037C614.828 321.037 614.828 321.037 628.172 321.037 632.498 321.037 636 324.588 636 328.964 636 328.964 636 328.964 636 330.061 636 330.061 636 330.061 636 330.845 636 330.845 636 330.845 636 348.148 636 349.587 634.849 350.754 633.43 350.754 632.012 350.754 630.871 349.587 630.871 348.148 630.871 348.148 630.871 348.148 630.871 330.845 630.871 330.845 630.871 330.845 628.966 330.845 628.966 330.845 628.966 330.845 628.966 347.947 628.966 347.947 628.966 347.947 628.966 352.142 628.966 352.142 628.966 352.142 628.966 378.801 628.966 380.571 627.547 382 625.811 382 624.065 382 622.656 380.571 622.656 378.801 622.656 378.801 622.656 378.801 622.656 352.142 622.656 352.142 622.656 352.142 620.344 352.142 620.344 352.142 620.344 352.142 620.344 378.801 620.344 380.571 618.935 382 617.189 382 615.453 382 614.034 380.571 614.034 378.801 614.034 378.801 614.034 378.801 614.034 352.142 614.034 352.142 614.034 352.142 614.034 347.947 614.034 347.947 614.034 347.947 614.034 330.845 614.034 330.845 614.034 330.845 612.139 330.845 612.139 330.845 612.139 330.845 612.139 348.148 612.139 349.587 610.988 350.754 609.57 350.754 608.151 350.754 607 349.587 607 348.148 607 348.148 607 348.148 607 330.845 607 330.845 607 330.845 607 330.061 607 330.061 607 330.061 607 328.964 607 324.588 610.502 321.037 614.828 321.037ZM621.5 307C624.866 307 627.595 309.767 627.595 313.181 627.595 316.595 624.866 319.363 621.5 319.363 618.134 319.363 615.405 316.595 615.405 313.181 615.405 309.767 618.134 307 621.5 307Z" fill="#009DD9" fill-rule="evenodd"/>
        <path d="M577.828 321.037C577.828 321.037 577.828 321.037 591.172 321.037 595.498 321.037 599 324.588 599 328.964 599 328.964 599 328.964 599 330.061 599 330.061 599 330.061 599 330.845 599 330.845 599 330.845 599 348.148 599 349.587 597.849 350.754 596.43 350.754 595.012 350.754 593.871 349.587 593.871 348.148 593.871 348.148 593.871 348.148 593.871 330.845 593.871 330.845 593.871 330.845 591.966 330.845 591.966 330.845 591.966 330.845 591.966 347.947 591.966 347.947 591.966 347.947 591.966 352.142 591.966 352.142 591.966 352.142 591.966 378.801 591.966 380.571 590.547 382 588.811 382 587.065 382 585.656 380.571 585.656 378.801 585.656 378.801 585.656 378.801 585.656 352.142 585.656 352.142 585.656 352.142 583.344 352.142 583.344 352.142 583.344 352.142 583.344 378.801 583.344 380.571 581.935 382 580.189 382 578.453 382 577.034 380.571 577.034 378.801 577.034 378.801 577.034 378.801 577.034 352.142 577.034 352.142 577.034 352.142 577.034 347.947 577.034 347.947 577.034 347.947 577.034 330.845 577.034 330.845 577.034 330.845 575.139 330.845 575.139 330.845 575.139 330.845 575.139 348.148 575.139 349.587 573.988 350.754 572.57 350.754 571.151 350.754 570 349.587 570 348.148 570 348.148 570 348.148 570 330.845 570 330.845 570 330.845 570 330.061 570 330.061 570 330.061 570 328.964 570 324.588 573.502 321.037 577.828 321.037ZM584.5 307C587.866 307 590.595 309.767 590.595 313.181 590.595 316.595 587.866 319.363 584.5 319.363 581.134 319.363 578.405 316.595 578.405 313.181 578.405 309.767 581.134 307 584.5 307Z" fill="#009DD9" fill-rule="evenodd"/>
        <path d="M540.828 321.037C540.828 321.037 540.828 321.037 554.172 321.037 558.498 321.037 562 324.588 562 328.964 562 328.964 562 328.964 562 330.061 562 330.061 562 330.061 562 330.845 562 330.845 562 330.845 562 348.148 562 349.587 560.849 350.754 559.43 350.754 558.012 350.754 556.871 349.587 556.871 348.148 556.871 348.148 556.871 348.148 556.871 330.845 556.871 330.845 556.871 330.845 554.966 330.845 554.966 330.845 554.966 330.845 554.966 347.947 554.966 347.947 554.966 347.947 554.966 352.142 554.966 352.142 554.966 352.142 554.966 378.801 554.966 380.571 553.547 382 551.811 382 550.065 382 548.656 380.571 548.656 378.801 548.656 378.801 548.656 378.801 548.656 352.142 548.656 352.142 548.656 352.142 546.344 352.142 546.344 352.142 546.344 352.142 546.344 378.801 546.344 380.571 544.935 382 543.189 382 541.453 382 540.034 380.571 540.034 378.801 540.034 378.801 540.034 378.801 540.034 352.142 540.034 352.142 540.034 352.142 540.034 347.947 540.034 347.947 540.034 347.947 540.034 330.845 540.034 330.845 540.034 330.845 538.139 330.845 538.139 330.845 538.139 330.845 538.139 348.148 538.139 349.587 536.988 350.754 535.57 350.754 534.151 350.754 533 349.587 533 348.148 533 348.148 533 348.148 533 330.845 533 330.845 533 330.845 533 330.061 533 330.061 533 330.061 533 328.964 533 324.588 536.502 321.037 540.828 321.037ZM547.5 307C550.866 307 553.595 309.767 553.595 313.181 553.595 316.595 550.866 319.363 547.5 319.363 544.134 319.363 541.405 316.595 541.405 313.181 541.405 309.767 544.134 307 547.5 307Z" fill="#009DD9" fill-rule="evenodd"/>
        <path d="M503.828 321.037C503.828 321.037 503.828 321.037 517.172 321.037 521.498 321.037 525 324.588 525 328.964 525 328.964 525 328.964 525 330.061 525 330.061 525 330.061 525 330.845 525 330.845 525 330.845 525 348.148 525 349.587 523.849 350.754 522.43 350.754 521.012 350.754 519.871 349.587 519.871 348.148 519.871 348.148 519.871 348.148 519.871 330.845 519.871 330.845 519.871 330.845 517.966 330.845 517.966 330.845 517.966 330.845 517.966 347.947 517.966 347.947 517.966 347.947 517.966 352.142 517.966 352.142 517.966 352.142 517.966 378.801 517.966 380.571 516.547 382 514.811 382 513.065 382 511.656 380.571 511.656 378.801 511.656 378.801 511.656 378.801 511.656 352.142 511.656 352.142 511.656 352.142 509.344 352.142 509.344 352.142 509.344 352.142 509.344 378.801 509.344 380.571 507.935 382 506.189 382 504.453 382 503.034 380.571 503.034 378.801 503.034 378.801 503.034 378.801 503.034 352.142 503.034 352.142 503.034 352.142 503.034 347.947 503.034 347.947 503.034 347.947 503.034 330.845 503.034 330.845 503.034 330.845 501.139 330.845 501.139 330.845 501.139 330.845 501.139 348.148 501.139 349.587 499.988 350.754 498.57 350.754 497.151 350.754 496 349.587 496 348.148 496 348.148 496 348.148 496 330.845 496 330.845 496 330.845 496 330.061 496 330.061 496 330.061 496 328.964 496 324.588 499.502 321.037 503.828 321.037ZM510.5 307C513.866 307 516.595 309.767 516.595 313.181 516.595 316.595 513.866 319.363 510.5 319.363 507.134 319.363 504.405 316.595 504.405 313.181 504.405 309.767 507.134 307 510.5 307Z" fill="#009DD9" fill-rule="evenodd"/>
        <path d="M429.828 321.037C429.828 321.037 429.828 321.037 443.172 321.037 447.498 321.037 451 324.588 451 328.964 451 328.964 451 328.964 451 330.061 451 330.061 451 330.061 451 330.845 451 330.845 451 330.845 451 348.148 451 349.587 449.849 350.754 448.43 350.754 447.012 350.754 445.871 349.587 445.871 348.148 445.871 348.148 445.871 348.148 445.871 330.845 445.871 330.845 445.871 330.845 443.966 330.845 443.966 330.845 443.966 330.845 443.966 347.947 443.966 347.947 443.966 347.947 443.966 352.142 443.966 352.142 443.966 352.142 443.966 378.801 443.966 380.571 442.547 382 440.811 382 439.065 382 437.656 380.571 437.656 378.801 437.656 378.801 437.656 378.801 437.656 352.142 437.656 352.142 437.656 352.142 435.344 352.142 435.344 352.142 435.344 352.142 435.344 378.801 435.344 380.571 433.935 382 432.189 382 430.453 382 429.034 380.571 429.034 378.801 429.034 378.801 429.034 378.801 429.034 352.142 429.034 352.142 429.034 352.142 429.034 347.947 429.034 347.947 429.034 347.947 429.034 330.845 429.034 330.845 429.034 330.845 427.139 330.845 427.139 330.845 427.139 330.845 427.139 348.148 427.139 349.587 425.988 350.754 424.57 350.754 423.151 350.754 422 349.587 422 348.148 422 348.148 422 348.148 422 330.845 422 330.845 422 330.845 422 330.061 422 330.061 422 330.061 422 328.964 422 324.588 425.502 321.037 429.828 321.037ZM436.5 307C439.866 307 442.595 309.767 442.595 313.181 442.595 316.595 439.866 319.363 436.5 319.363 433.134 319.363 430.405 316.595 430.405 313.181 430.405 309.767 433.134 307 436.5 307Z" fill="#009DD9" fill-rule="evenodd"/>
        <path d="M392.828 321.037C392.828 321.037 392.828 321.037 406.172 321.037 410.498 321.037 414 324.588 414 328.964 414 328.964 414 328.964 414 330.061 414 330.061 414 330.061 414 330.845 414 330.845 414 330.845 414 348.148 414 349.587 412.849 350.754 411.43 350.754 410.012 350.754 408.871 349.587 408.871 348.148 408.871 348.148 408.871 348.148 408.871 330.845 408.871 330.845 408.871 330.845 406.966 330.845 406.966 330.845 406.966 330.845 406.966 347.947 406.966 347.947 406.966 347.947 406.966 352.142 406.966 352.142 406.966 352.142 406.966 378.801 406.966 380.571 405.547 382 403.811 382 402.065 382 400.656 380.571 400.656 378.801 400.656 378.801 400.656 378.801 400.656 352.142 400.656 352.142 400.656 352.142 398.344 352.142 398.344 352.142 398.344 352.142 398.344 378.801 398.344 380.571 396.935 382 395.189 382 393.453 382 392.034 380.571 392.034 378.801 392.034 378.801 392.034 378.801 392.034 352.142 392.034 352.142 392.034 352.142 392.034 347.947 392.034 347.947 392.034 347.947 392.034 330.845 392.034 330.845 392.034 330.845 390.139 330.845 390.139 330.845 390.139 330.845 390.139 348.148 390.139 349.587 388.988 350.754 387.57 350.754 386.151 350.754 385 349.587 385 348.148 385 348.148 385 348.148 385 330.845 385 330.845 385 330.845 385 330.061 385 330.061 385 330.061 385 328.964 385 324.588 388.502 321.037 392.828 321.037ZM399.5 307C402.866 307 405.595 309.767 405.595 313.181 405.595 316.595 402.866 319.363 399.5 319.363 396.134 319.363 393.405 316.595 393.405 313.181 393.405 309.767 396.134 307 399.5 307Z" fill="#009DD9" fill-rule="evenodd"/>
        <path d="M466.828 321.037C466.828 321.037 466.828 321.037 480.172 321.037 484.498 321.037 488 324.588 488 328.964 488 328.964 488 328.964 488 330.061 488 330.061 488 330.061 488 330.845 488 330.845 488 330.845 488 348.148 488 349.587 486.849 350.754 485.43 350.754 484.012 350.754 482.871 349.587 482.871 348.148 482.871 348.148 482.871 348.148 482.871 330.845 482.871 330.845 482.871 330.845 480.966 330.845 480.966 330.845 480.966 330.845 480.966 347.947 480.966 347.947 480.966 347.947 480.966 352.142 480.966 352.142 480.966 352.142 480.966 378.801 480.966 380.571 479.547 382 477.811 382 476.065 382 474.656 380.571 474.656 378.801 474.656 378.801 474.656 378.801 474.656 352.142 474.656 352.142 474.656 352.142 472.344 352.142 472.344 352.142 472.344 352.142 472.344 378.801 472.344 380.571 470.935 382 469.189 382 467.453 382 466.034 380.571 466.034 378.801 466.034 378.801 466.034 378.801 466.034 352.142 466.034 352.142 466.034 352.142 466.034 347.947 466.034 347.947 466.034 347.947 466.034 330.845 466.034 330.845 466.034 330.845 464.139 330.845 464.139 330.845 464.139 330.845 464.139 348.148 464.139 349.587 462.988 350.754 461.57 350.754 460.151 350.754 459 349.587 459 348.148 459 348.148 459 348.148 459 330.845 459 330.845 459 330.845 459 330.061 459 330.061 459 330.061 459 328.964 459 324.588 462.502 321.037 466.828 321.037ZM473.5 307C476.866 307 479.595 309.767 479.595 313.181 479.595 316.595 476.866 319.363 473.5 319.363 470.134 319.363 467.405 316.595 467.405 313.181 467.405 309.767 470.134 307 473.5 307Z" fill="#009DD9" fill-rule="evenodd"/>
        <path d="M355.098 321.037C355.098 321.037 355.098 321.037 368.902 321.037 373.377 321.037 377 324.588 377 328.964 377 328.964 377 328.964 377 330.061 377 330.061 377 330.061 377 330.845 377 330.845 377 330.845 377 348.148 377 349.587 375.809 350.754 374.342 350.754 372.874 350.754 371.694 349.587 371.694 348.148 371.694 348.148 371.694 348.148 371.694 330.845 371.694 330.845 371.694 330.845 369.723 330.845 369.723 330.845 369.723 330.845 369.723 347.947 369.723 347.947 369.723 347.947 369.723 352.142 369.723 352.142 369.723 352.142 369.723 378.801 369.723 380.571 368.256 382 366.459 382 364.653 382 363.196 380.571 363.196 378.801 363.196 378.801 363.196 378.801 363.196 352.142 363.196 352.142 363.196 352.142 360.804 352.142 360.804 352.142 360.804 352.142 360.804 378.801 360.804 380.571 359.347 382 357.541 382 355.744 382 354.277 380.571 354.277 378.801 354.277 378.801 354.277 378.801 354.277 352.142 354.277 352.142 354.277 352.142 354.277 347.947 354.277 347.947 354.277 347.947 354.277 330.845 354.277 330.845 354.277 330.845 352.316 330.845 352.316 330.845 352.316 330.845 352.316 348.148 352.316 349.587 351.126 350.754 349.658 350.754 348.191 350.754 347 349.587 347 348.148 347 348.148 347 348.148 347 330.845 347 330.845 347 330.845 347 330.061 347 330.061 347 330.061 347 328.964 347 324.588 350.623 321.037 355.098 321.037ZM362 307C365.482 307 368.305 309.767 368.305 313.181 368.305 316.595 365.482 319.363 362 319.363 358.518 319.363 355.695 316.595 355.695 313.181 355.695 309.767 358.518 307 362 307Z" fill="#009DD9" fill-rule="evenodd"/>
        <path d="M318.098 321.037C318.098 321.037 318.098 321.037 331.902 321.037 336.377 321.037 340 324.588 340 328.964 340 328.964 340 328.964 340 330.061 340 330.061 340 330.061 340 330.845 340 330.845 340 330.845 340 348.148 340 349.587 338.809 350.754 337.342 350.754 335.874 350.754 334.694 349.587 334.694 348.148 334.694 348.148 334.694 348.148 334.694 330.845 334.694 330.845 334.694 330.845 332.723 330.845 332.723 330.845 332.723 330.845 332.723 347.947 332.723 347.947 332.723 347.947 332.723 352.142 332.723 352.142 332.723 352.142 332.723 378.801 332.723 380.571 331.256 382 329.459 382 327.653 382 326.196 380.571 326.196 378.801 326.196 378.801 326.196 378.801 326.196 352.142 326.196 352.142 326.196 352.142 323.804 352.142 323.804 352.142 323.804 352.142 323.804 378.801 323.804 380.571 322.347 382 320.541 382 318.744 382 317.277 380.571 317.277 378.801 317.277 378.801 317.277 378.801 317.277 352.142 317.277 352.142 317.277 352.142 317.277 347.947 317.277 347.947 317.277 347.947 317.277 330.845 317.277 330.845 317.277 330.845 315.316 330.845 315.316 330.845 315.316 330.845 315.316 348.148 315.316 349.587 314.126 350.754 312.658 350.754 311.191 350.754 310 349.587 310 348.148 310 348.148 310 348.148 310 330.845 310 330.845 310 330.845 310 330.061 310 330.061 310 330.061 310 328.964 310 324.588 313.623 321.037 318.098 321.037ZM325 307C328.482 307 331.305 309.767 331.305 313.181 331.305 316.595 328.482 319.363 325 319.363 321.518 319.363 318.695 316.595 318.695 313.181 318.695 309.767 321.518 307 325 307Z" fill="#009DD9" fill-rule="evenodd"/>
        <path d="M280.828 321.037C280.828 321.037 280.828 321.037 294.172 321.037 298.498 321.037 302 324.588 302 328.964 302 328.964 302 328.964 302 330.061 302 330.061 302 330.061 302 330.845 302 330.845 302 330.845 302 348.148 302 349.587 300.849 350.754 299.43 350.754 298.012 350.754 296.871 349.587 296.871 348.148 296.871 348.148 296.871 348.148 296.871 330.845 296.871 330.845 296.871 330.845 294.966 330.845 294.966 330.845 294.966 330.845 294.966 347.947 294.966 347.947 294.966 347.947 294.966 352.142 294.966 352.142 294.966 352.142 294.966 378.801 294.966 380.571 293.547 382 291.811 382 290.065 382 288.656 380.571 288.656 378.801 288.656 378.801 288.656 378.801 288.656 352.142 288.656 352.142 288.656 352.142 286.344 352.142 286.344 352.142 286.344 352.142 286.344 378.801 286.344 380.571 284.935 382 283.189 382 281.453 382 280.034 380.571 280.034 378.801 280.034 378.801 280.034 378.801 280.034 352.142 280.034 352.142 280.034 352.142 280.034 347.947 280.034 347.947 280.034 347.947 280.034 330.845 280.034 330.845 280.034 330.845 278.139 330.845 278.139 330.845 278.139 330.845 278.139 348.148 278.139 349.587 276.988 350.754 275.57 350.754 274.151 350.754 273 349.587 273 348.148 273 348.148 273 348.148 273 330.845 273 330.845 273 330.845 273 330.061 273 330.061 273 330.061 273 328.964 273 324.588 276.502 321.037 280.828 321.037ZM287.5 307C290.866 307 293.595 309.767 293.595 313.181 293.595 316.595 290.866 319.363 287.5 319.363 284.134 319.363 281.405 316.595 281.405 313.181 281.405 309.767 284.134 307 287.5 307Z" fill="#009DD9" fill-rule="evenodd"/>
        <path d="M243.828 321.037C243.828 321.037 243.828 321.037 257.172 321.037 261.498 321.037 265 324.588 265 328.964 265 328.964 265 328.964 265 330.061 265 330.061 265 330.061 265 330.845 265 330.845 265 330.845 265 348.148 265 349.587 263.849 350.754 262.43 350.754 261.012 350.754 259.871 349.587 259.871 348.148 259.871 348.148 259.871 348.148 259.871 330.845 259.871 330.845 259.871 330.845 257.966 330.845 257.966 330.845 257.966 330.845 257.966 347.947 257.966 347.947 257.966 347.947 257.966 352.142 257.966 352.142 257.966 352.142 257.966 378.801 257.966 380.571 256.547 382 254.811 382 253.065 382 251.656 380.571 251.656 378.801 251.656 378.801 251.656 378.801 251.656 352.142 251.656 352.142 251.656 352.142 249.344 352.142 249.344 352.142 249.344 352.142 249.344 378.801 249.344 380.571 247.935 382 246.189 382 244.453 382 243.034 380.571 243.034 378.801 243.034 378.801 243.034 378.801 243.034 352.142 243.034 352.142 243.034 352.142 243.034 347.947 243.034 347.947 243.034 347.947 243.034 330.845 243.034 330.845 243.034 330.845 241.139 330.845 241.139 330.845 241.139 330.845 241.139 348.148 241.139 349.587 239.988 350.754 238.57 350.754 237.151 350.754 236 349.587 236 348.148 236 348.148 236 348.148 236 330.845 236 330.845 236 330.845 236 330.061 236 330.061 236 330.061 236 328.964 236 324.588 239.502 321.037 243.828 321.037ZM250.5 307C253.866 307 256.595 309.767 256.595 313.181 256.595 316.595 253.866 319.363 250.5 319.363 247.134 319.363 244.405 316.595 244.405 313.181 244.405 309.767 247.134 307 250.5 307Z" fill="#009DD9" fill-rule="evenodd"/>
        <path d="M206.828 321.037C206.828 321.037 206.828 321.037 220.172 321.037 224.498 321.037 228 324.588 228 328.964 228 328.964 228 328.964 228 330.061 228 330.061 228 330.061 228 330.845 228 330.845 228 330.845 228 348.148 228 349.587 226.849 350.754 225.43 350.754 224.012 350.754 222.871 349.587 222.871 348.148 222.871 348.148 222.871 348.148 222.871 330.845 222.871 330.845 222.871 330.845 220.966 330.845 220.966 330.845 220.966 330.845 220.966 347.947 220.966 347.947 220.966 347.947 220.966 352.142 220.966 352.142 220.966 352.142 220.966 378.801 220.966 380.571 219.547 382 217.811 382 216.065 382 214.656 380.571 214.656 378.801 214.656 378.801 214.656 378.801 214.656 352.142 214.656 352.142 214.656 352.142 212.344 352.142 212.344 352.142 212.344 352.142 212.344 378.801 212.344 380.571 210.935 382 209.189 382 207.453 382 206.034 380.571 206.034 378.801 206.034 378.801 206.034 378.801 206.034 352.142 206.034 352.142 206.034 352.142 206.034 347.947 206.034 347.947 206.034 347.947 206.034 330.845 206.034 330.845 206.034 330.845 204.139 330.845 204.139 330.845 204.139 330.845 204.139 348.148 204.139 349.587 202.988 350.754 201.57 350.754 200.151 350.754 199 349.587 199 348.148 199 348.148 199 348.148 199 330.845 199 330.845 199 330.845 199 330.061 199 330.061 199 330.061 199 328.964 199 324.588 202.502 321.037 206.828 321.037ZM213.5 307C216.866 307 219.595 309.767 219.595 313.181 219.595 316.595 216.866 319.363 213.5 319.363 210.134 319.363 207.405 316.595 207.405 313.181 207.405 309.767 210.134 307 213.5 307Z" fill="#009DD9" fill-rule="evenodd"/>
        <path d="M169.828 321.037C169.828 321.037 169.828 321.037 183.172 321.037 187.498 321.037 191 324.588 191 328.964 191 328.964 191 328.964 191 330.061 191 330.061 191 330.061 191 330.845 191 330.845 191 330.845 191 348.148 191 349.587 189.849 350.754 188.43 350.754 187.012 350.754 185.871 349.587 185.871 348.148 185.871 348.148 185.871 348.148 185.871 330.845 185.871 330.845 185.871 330.845 183.966 330.845 183.966 330.845 183.966 330.845 183.966 347.947 183.966 347.947 183.966 347.947 183.966 352.142 183.966 352.142 183.966 352.142 183.966 378.801 183.966 380.571 182.547 382 180.811 382 179.065 382 177.656 380.571 177.656 378.801 177.656 378.801 177.656 378.801 177.656 352.142 177.656 352.142 177.656 352.142 175.344 352.142 175.344 352.142 175.344 352.142 175.344 378.801 175.344 380.571 173.935 382 172.189 382 170.453 382 169.034 380.571 169.034 378.801 169.034 378.801 169.034 378.801 169.034 352.142 169.034 352.142 169.034 352.142 169.034 347.947 169.034 347.947 169.034 347.947 169.034 330.845 169.034 330.845 169.034 330.845 167.139 330.845 167.139 330.845 167.139 330.845 167.139 348.148 167.139 349.587 165.988 350.754 164.57 350.754 163.151 350.754 162 349.587 162 348.148 162 348.148 162 348.148 162 330.845 162 330.845 162 330.845 162 330.061 162 330.061 162 330.061 162 328.964 162 324.588 165.502 321.037 169.828 321.037ZM176.5 307C179.866 307 182.595 309.767 182.595 313.181 182.595 316.595 179.866 319.363 176.5 319.363 173.134 319.363 170.405 316.595 170.405 313.181 170.405 309.767 173.134 307 176.5 307Z" fill="#009DD9" fill-rule="evenodd"/>
        <path d="M132.828 321.037C132.828 321.037 132.828 321.037 146.172 321.037 150.498 321.037 154 324.588 154 328.964 154 328.964 154 328.964 154 330.061 154 330.061 154 330.061 154 330.845 154 330.845 154 330.845 154 348.148 154 349.587 152.849 350.754 151.43 350.754 150.012 350.754 148.871 349.587 148.871 348.148 148.871 348.148 148.871 348.148 148.871 330.845 148.871 330.845 148.871 330.845 146.966 330.845 146.966 330.845 146.966 330.845 146.966 347.947 146.966 347.947 146.966 347.947 146.966 352.142 146.966 352.142 146.966 352.142 146.966 378.801 146.966 380.571 145.547 382 143.811 382 142.065 382 140.656 380.571 140.656 378.801 140.656 378.801 140.656 378.801 140.656 352.142 140.656 352.142 140.656 352.142 138.344 352.142 138.344 352.142 138.344 352.142 138.344 378.801 138.344 380.571 136.935 382 135.189 382 133.453 382 132.034 380.571 132.034 378.801 132.034 378.801 132.034 378.801 132.034 352.142 132.034 352.142 132.034 352.142 132.034 347.947 132.034 347.947 132.034 347.947 132.034 330.845 132.034 330.845 132.034 330.845 130.139 330.845 130.139 330.845 130.139 330.845 130.139 348.148 130.139 349.587 128.988 350.754 127.57 350.754 126.151 350.754 125 349.587 125 348.148 125 348.148 125 348.148 125 330.845 125 330.845 125 330.845 125 330.061 125 330.061 125 330.061 125 328.964 125 324.588 128.502 321.037 132.828 321.037ZM139.5 307C142.866 307 145.595 309.767 145.595 313.181 145.595 316.595 142.866 319.363 139.5 319.363 136.134 319.363 133.405 316.595 133.405 313.181 133.405 309.767 136.134 307 139.5 307Z" fill="#009DD9" fill-rule="evenodd"/>
        <path d="M762.828 321.037C762.828 321.037 762.828 321.037 776.172 321.037 780.498 321.037 784 324.588 784 328.964 784 328.964 784 328.964 784 330.061 784 330.061 784 330.061 784 330.845 784 330.845 784 330.845 784 348.148 784 349.587 782.849 350.754 781.43 350.754 780.012 350.754 778.871 349.587 778.871 348.148 778.871 348.148 778.871 348.148 778.871 330.845 778.871 330.845 778.871 330.845 776.966 330.845 776.966 330.845 776.966 330.845 776.966 347.947 776.966 347.947 776.966 347.947 776.966 352.142 776.966 352.142 776.966 352.142 776.966 378.801 776.966 380.571 775.547 382 773.811 382 772.065 382 770.656 380.571 770.656 378.801 770.656 378.801 770.656 378.801 770.656 352.142 770.656 352.142 770.656 352.142 768.344 352.142 768.344 352.142 768.344 352.142 768.344 378.801 768.344 380.571 766.935 382 765.189 382 763.453 382 762.034 380.571 762.034 378.801 762.034 378.801 762.034 378.801 762.034 352.142 762.034 352.142 762.034 352.142 762.034 347.947 762.034 347.947 762.034 347.947 762.034 330.845 762.034 330.845 762.034 330.845 760.139 330.845 760.139 330.845 760.139 330.845 760.139 348.148 760.139 349.587 758.988 350.754 757.57 350.754 756.151 350.754 755 349.587 755 348.148 755 348.148 755 348.148 755 330.845 755 330.845 755 330.845 755 330.061 755 330.061 755 330.061 755 328.964 755 324.588 758.502 321.037 762.828 321.037ZM769.5 307C772.866 307 775.595 309.767 775.595 313.181 775.595 316.595 772.866 319.363 769.5 319.363 766.134 319.363 763.405 316.595 763.405 313.181 763.405 309.767 766.134 307 769.5 307Z" fill="#10CF9B" fill-rule="evenodd"/>
        <path d="M836.828 321.037C836.828 321.037 836.828 321.037 850.172 321.037 854.498 321.037 858 324.588 858 328.964 858 328.964 858 328.964 858 330.061 858 330.061 858 330.061 858 330.845 858 330.845 858 330.845 858 348.148 858 349.587 856.849 350.754 855.43 350.754 854.012 350.754 852.871 349.587 852.871 348.148 852.871 348.148 852.871 348.148 852.871 330.845 852.871 330.845 852.871 330.845 850.966 330.845 850.966 330.845 850.966 330.845 850.966 347.947 850.966 347.947 850.966 347.947 850.966 352.142 850.966 352.142 850.966 352.142 850.966 378.801 850.966 380.571 849.547 382 847.811 382 846.065 382 844.656 380.571 844.656 378.801 844.656 378.801 844.656 378.801 844.656 352.142 844.656 352.142 844.656 352.142 842.344 352.142 842.344 352.142 842.344 352.142 842.344 378.801 842.344 380.571 840.935 382 839.189 382 837.453 382 836.034 380.571 836.034 378.801 836.034 378.801 836.034 378.801 836.034 352.142 836.034 352.142 836.034 352.142 836.034 347.947 836.034 347.947 836.034 347.947 836.034 330.845 836.034 330.845 836.034 330.845 834.139 330.845 834.139 330.845 834.139 330.845 834.139 348.148 834.139 349.587 832.988 350.754 831.57 350.754 830.151 350.754 829 349.587 829 348.148 829 348.148 829 348.148 829 330.845 829 330.845 829 330.845 829 330.061 829 330.061 829 330.061 829 328.964 829 324.588 832.502 321.037 836.828 321.037ZM843.5 307C846.866 307 849.595 309.767 849.595 313.181 849.595 316.595 846.866 319.363 843.5 319.363 840.134 319.363 837.405 316.595 837.405 313.181 837.405 309.767 840.134 307 843.5 307Z" fill="#10CF9B" fill-rule="evenodd"/>
        <path d="M873.828 321.037C873.828 321.037 873.828 321.037 887.172 321.037 891.498 321.037 895 324.588 895 328.964 895 328.964 895 328.964 895 330.061 895 330.061 895 330.061 895 330.845 895 330.845 895 330.845 895 348.148 895 349.587 893.849 350.754 892.43 350.754 891.012 350.754 889.871 349.587 889.871 348.148 889.871 348.148 889.871 348.148 889.871 330.845 889.871 330.845 889.871 330.845 887.966 330.845 887.966 330.845 887.966 330.845 887.966 347.947 887.966 347.947 887.966 347.947 887.966 352.142 887.966 352.142 887.966 352.142 887.966 378.801 887.966 380.571 886.547 382 884.811 382 883.065 382 881.656 380.571 881.656 378.801 881.656 378.801 881.656 378.801 881.656 352.142 881.656 352.142 881.656 352.142 879.344 352.142 879.344 352.142 879.344 352.142 879.344 378.801 879.344 380.571 877.935 382 876.189 382 874.453 382 873.034 380.571 873.034 378.801 873.034 378.801 873.034 378.801 873.034 352.142 873.034 352.142 873.034 352.142 873.034 347.947 873.034 347.947 873.034 347.947 873.034 330.845 873.034 330.845 873.034 330.845 871.139 330.845 871.139 330.845 871.139 330.845 871.139 348.148 871.139 349.587 869.988 350.754 868.57 350.754 867.151 350.754 866 349.587 866 348.148 866 348.148 866 348.148 866 330.845 866 330.845 866 330.845 866 330.061 866 330.061 866 330.061 866 328.964 866 324.588 869.502 321.037 873.828 321.037ZM880.5 307C883.866 307 886.595 309.767 886.595 313.181 886.595 316.595 883.866 319.363 880.5 319.363 877.134 319.363 874.405 316.595 874.405 313.181 874.405 309.767 877.134 307 880.5 307Z" fill="#10CF9B" fill-rule="evenodd"/>
        <path d="M911.098 321.037C911.098 321.037 911.098 321.037 924.902 321.037 929.377 321.037 933 324.588 933 328.964 933 328.964 933 328.964 933 330.061 933 330.061 933 330.061 933 330.845 933 330.845 933 330.845 933 348.148 933 349.587 931.809 350.754 930.342 350.754 928.874 350.754 927.694 349.587 927.694 348.148 927.694 348.148 927.694 348.148 927.694 330.845 927.694 330.845 927.694 330.845 925.723 330.845 925.723 330.845 925.723 330.845 925.723 347.947 925.723 347.947 925.723 347.947 925.723 352.142 925.723 352.142 925.723 352.142 925.723 378.801 925.723 380.571 924.256 382 922.459 382 920.653 382 919.196 380.571 919.196 378.801 919.196 378.801 919.196 378.801 919.196 352.142 919.196 352.142 919.196 352.142 916.804 352.142 916.804 352.142 916.804 352.142 916.804 378.801 916.804 380.571 915.347 382 913.541 382 911.744 382 910.277 380.571 910.277 378.801 910.277 378.801 910.277 378.801 910.277 352.142 910.277 352.142 910.277 352.142 910.277 347.947 910.277 347.947 910.277 347.947 910.277 330.845 910.277 330.845 910.277 330.845 908.316 330.845 908.316 330.845 908.316 330.845 908.316 348.148 908.316 349.587 907.126 350.754 905.658 350.754 904.191 350.754 903 349.587 903 348.148 903 348.148 903 348.148 903 330.845 903 330.845 903 330.845 903 330.061 903 330.061 903 330.061 903 328.964 903 324.588 906.623 321.037 911.098 321.037ZM918 307C921.482 307 924.305 309.767 924.305 313.181 924.305 316.595 921.482 319.363 918 319.363 914.518 319.363 911.695 316.595 911.695 313.181 911.695 309.767 914.518 307 918 307Z" fill="#10CF9B" fill-rule="evenodd"/>
        <path d="M948.098 321.037C948.098 321.037 948.098 321.037 961.902 321.037 966.377 321.037 970 324.588 970 328.964 970 328.964 970 328.964 970 330.061 970 330.061 970 330.061 970 330.845 970 330.845 970 330.845 970 348.148 970 349.587 968.809 350.754 967.342 350.754 965.874 350.754 964.694 349.587 964.694 348.148 964.694 348.148 964.694 348.148 964.694 330.845 964.694 330.845 964.694 330.845 962.723 330.845 962.723 330.845 962.723 330.845 962.723 347.947 962.723 347.947 962.723 347.947 962.723 352.142 962.723 352.142 962.723 352.142 962.723 378.801 962.723 380.571 961.256 382 959.459 382 957.653 382 956.196 380.571 956.196 378.801 956.196 378.801 956.196 378.801 956.196 352.142 956.196 352.142 956.196 352.142 953.804 352.142 953.804 352.142 953.804 352.142 953.804 378.801 953.804 380.571 952.347 382 950.541 382 948.744 382 947.277 380.571 947.277 378.801 947.277 378.801 947.277 378.801 947.277 352.142 947.277 352.142 947.277 352.142 947.277 347.947 947.277 347.947 947.277 347.947 947.277 330.845 947.277 330.845 947.277 330.845 945.316 330.845 945.316 330.845 945.316 330.845 945.316 348.148 945.316 349.587 944.126 350.754 942.658 350.754 941.191 350.754 940 349.587 940 348.148 940 348.148 940 348.148 940 330.845 940 330.845 940 330.845 940 330.061 940 330.061 940 330.061 940 328.964 940 324.588 943.623 321.037 948.098 321.037ZM955 307C958.482 307 961.305 309.767 961.305 313.181 961.305 316.595 958.482 319.363 955 319.363 951.518 319.363 948.695 316.595 948.695 313.181 948.695 309.767 951.518 307 955 307Z" fill="#10CF9B" fill-rule="evenodd"/>
        <path d="M985.828 321.037C985.828 321.037 985.828 321.037 999.172 321.037 1003.5 321.037 1007 324.588 1007 328.964 1007 328.964 1007 328.964 1007 330.061 1007 330.061 1007 330.061 1007 330.845 1007 330.845 1007 330.845 1007 348.148 1007 349.587 1005.85 350.754 1004.43 350.754 1003.01 350.754 1001.87 349.587 1001.87 348.148 1001.87 348.148 1001.87 348.148 1001.87 330.845 1001.87 330.845 1001.87 330.845 999.966 330.845 999.966 330.845 999.966 330.845 999.966 347.947 999.966 347.947 999.966 347.947 999.966 352.142 999.966 352.142 999.966 352.142 999.966 378.801 999.966 380.571 998.547 382 996.811 382 995.065 382 993.656 380.571 993.656 378.801 993.656 378.801 993.656 378.801 993.656 352.142 993.656 352.142 993.656 352.142 991.344 352.142 991.344 352.142 991.344 352.142 991.344 378.801 991.344 380.571 989.935 382 988.189 382 986.453 382 985.034 380.571 985.034 378.801 985.034 378.801 985.034 378.801 985.034 352.142 985.034 352.142 985.034 352.142 985.034 347.947 985.034 347.947 985.034 347.947 985.034 330.845 985.034 330.845 985.034 330.845 983.139 330.845 983.139 330.845 983.139 330.845 983.139 348.148 983.139 349.587 981.988 350.754 980.57 350.754 979.151 350.754 978 349.587 978 348.148 978 348.148 978 348.148 978 330.845 978 330.845 978 330.845 978 330.061 978 330.061 978 330.061 978 328.964 978 324.588 981.502 321.037 985.828 321.037ZM992.5 307C995.866 307 998.595 309.767 998.595 313.181 998.595 316.595 995.866 319.363 992.5 319.363 989.134 319.363 986.405 316.595 986.405 313.181 986.405 309.767 989.134 307 992.5 307Z" fill="#10CF9B" fill-rule="evenodd"/>
        <path d="M1022.83 321.037C1022.83 321.037 1022.83 321.037 1036.17 321.037 1040.5 321.037 1044 324.588 1044 328.964 1044 328.964 1044 328.964 1044 330.061 1044 330.061 1044 330.061 1044 330.845 1044 330.845 1044 330.845 1044 348.148 1044 349.587 1042.85 350.754 1041.43 350.754 1040.01 350.754 1038.87 349.587 1038.87 348.148 1038.87 348.148 1038.87 348.148 1038.87 330.845 1038.87 330.845 1038.87 330.845 1036.97 330.845 1036.97 330.845 1036.97 330.845 1036.97 347.947 1036.97 347.947 1036.97 347.947 1036.97 352.142 1036.97 352.142 1036.97 352.142 1036.97 378.801 1036.97 380.571 1035.55 382 1033.81 382 1032.06 382 1030.66 380.571 1030.66 378.801 1030.66 378.801 1030.66 378.801 1030.66 352.142 1030.66 352.142 1030.66 352.142 1028.34 352.142 1028.34 352.142 1028.34 352.142 1028.34 378.801 1028.34 380.571 1026.94 382 1025.19 382 1023.45 382 1022.03 380.571 1022.03 378.801 1022.03 378.801 1022.03 378.801 1022.03 352.142 1022.03 352.142 1022.03 352.142 1022.03 347.947 1022.03 347.947 1022.03 347.947 1022.03 330.845 1022.03 330.845 1022.03 330.845 1020.14 330.845 1020.14 330.845 1020.14 330.845 1020.14 348.148 1020.14 349.587 1018.99 350.754 1017.57 350.754 1016.15 350.754 1015 349.587 1015 348.148 1015 348.148 1015 348.148 1015 330.845 1015 330.845 1015 330.845 1015 330.061 1015 330.061 1015 330.061 1015 328.964 1015 324.588 1018.5 321.037 1022.83 321.037ZM1029.5 307C1032.87 307 1035.59 309.767 1035.59 313.181 1035.59 316.595 1032.87 319.363 1029.5 319.363 1026.13 319.363 1023.41 316.595 1023.41 313.181 1023.41 309.767 1026.13 307 1029.5 307Z" fill="#10CF9B" fill-rule="evenodd"/>
        <path d="M1059.83 321.037C1059.83 321.037 1059.83 321.037 1073.17 321.037 1077.5 321.037 1081 324.588 1081 328.964 1081 328.964 1081 328.964 1081 330.061 1081 330.061 1081 330.061 1081 330.845 1081 330.845 1081 330.845 1081 348.148 1081 349.587 1079.85 350.754 1078.43 350.754 1077.01 350.754 1075.87 349.587 1075.87 348.148 1075.87 348.148 1075.87 348.148 1075.87 330.845 1075.87 330.845 1075.87 330.845 1073.97 330.845 1073.97 330.845 1073.97 330.845 1073.97 347.947 1073.97 347.947 1073.97 347.947 1073.97 352.142 1073.97 352.142 1073.97 352.142 1073.97 378.801 1073.97 380.571 1072.55 382 1070.81 382 1069.06 382 1067.66 380.571 1067.66 378.801 1067.66 378.801 1067.66 378.801 1067.66 352.142 1067.66 352.142 1067.66 352.142 1065.34 352.142 1065.34 352.142 1065.34 352.142 1065.34 378.801 1065.34 380.571 1063.94 382 1062.19 382 1060.45 382 1059.03 380.571 1059.03 378.801 1059.03 378.801 1059.03 378.801 1059.03 352.142 1059.03 352.142 1059.03 352.142 1059.03 347.947 1059.03 347.947 1059.03 347.947 1059.03 330.845 1059.03 330.845 1059.03 330.845 1057.14 330.845 1057.14 330.845 1057.14 330.845 1057.14 348.148 1057.14 349.587 1055.99 350.754 1054.57 350.754 1053.15 350.754 1052 349.587 1052 348.148 1052 348.148 1052 348.148 1052 330.845 1052 330.845 1052 330.845 1052 330.061 1052 330.061 1052 330.061 1052 328.964 1052 324.588 1055.5 321.037 1059.83 321.037ZM1066.5 307C1069.87 307 1072.59 309.767 1072.59 313.181 1072.59 316.595 1069.87 319.363 1066.5 319.363 1063.13 319.363 1060.41 316.595 1060.41 313.181 1060.41 309.767 1063.13 307 1066.5 307Z" fill="#10CF9B" fill-rule="evenodd"/>
        <path d="M1096.83 321.037C1096.83 321.037 1096.83 321.037 1110.17 321.037 1114.5 321.037 1118 324.588 1118 328.964 1118 328.964 1118 328.964 1118 330.061 1118 330.061 1118 330.061 1118 330.845 1118 330.845 1118 330.845 1118 348.148 1118 349.587 1116.85 350.754 1115.43 350.754 1114.01 350.754 1112.87 349.587 1112.87 348.148 1112.87 348.148 1112.87 348.148 1112.87 330.845 1112.87 330.845 1112.87 330.845 1110.97 330.845 1110.97 330.845 1110.97 330.845 1110.97 347.947 1110.97 347.947 1110.97 347.947 1110.97 352.142 1110.97 352.142 1110.97 352.142 1110.97 378.801 1110.97 380.571 1109.55 382 1107.81 382 1106.06 382 1104.66 380.571 1104.66 378.801 1104.66 378.801 1104.66 378.801 1104.66 352.142 1104.66 352.142 1104.66 352.142 1102.34 352.142 1102.34 352.142 1102.34 352.142 1102.34 378.801 1102.34 380.571 1100.94 382 1099.19 382 1097.45 382 1096.03 380.571 1096.03 378.801 1096.03 378.801 1096.03 378.801 1096.03 352.142 1096.03 352.142 1096.03 352.142 1096.03 347.947 1096.03 347.947 1096.03 347.947 1096.03 330.845 1096.03 330.845 1096.03 330.845 1094.14 330.845 1094.14 330.845 1094.14 330.845 1094.14 348.148 1094.14 349.587 1092.99 350.754 1091.57 350.754 1090.15 350.754 1089 349.587 1089 348.148 1089 348.148 1089 348.148 1089 330.845 1089 330.845 1089 330.845 1089 330.061 1089 330.061 1089 330.061 1089 328.964 1089 324.588 1092.5 321.037 1096.83 321.037ZM1103.5 307C1106.87 307 1109.59 309.767 1109.59 313.181 1109.59 316.595 1106.87 319.363 1103.5 319.363 1100.13 319.363 1097.41 316.595 1097.41 313.181 1097.41 309.767 1100.13 307 1103.5 307Z" fill="#10CF9B" fill-rule="evenodd"/>
        <path d="M95.8279 321.037C95.8279 321.037 95.8279 321.037 109.172 321.037 113.498 321.037 117 324.588 117 328.964 117 328.964 117 328.964 117 330.061 117 330.061 117 330.061 117 330.845 117 330.845 117 330.845 117 348.148 117 349.587 115.849 350.754 114.43 350.754 113.012 350.754 111.871 349.587 111.871 348.148 111.871 348.148 111.871 348.148 111.871 330.845 111.871 330.845 111.871 330.845 109.966 330.845 109.966 330.845 109.966 330.845 109.966 347.947 109.966 347.947 109.966 347.947 109.966 352.142 109.966 352.142 109.966 352.142 109.966 378.801 109.966 380.571 108.547 382 106.811 382 105.065 382 103.656 380.571 103.656 378.801 103.656 378.801 103.656 378.801 103.656 352.142 103.656 352.142 103.656 352.142 101.344 352.142 101.344 352.142 101.344 352.142 101.344 378.801 101.344 380.571 99.9353 382 98.1892 382 96.453 382 95.0342 380.571 95.0342 378.801 95.0342 378.801 95.0342 378.801 95.0342 352.142 95.0342 352.142 95.0342 352.142 95.0342 347.947 95.0342 347.947 95.0342 347.947 95.0342 330.845 95.0342 330.845 95.0342 330.845 93.1392 330.845 93.1392 330.845 93.1392 330.845 93.1392 348.148 93.1392 349.587 91.9884 350.754 90.5696 350.754 89.1509 350.754 88 349.587 88 348.148 88 348.148 88 348.148 88 330.845 88 330.845 88 330.845 88 330.061 88 330.061 88 330.061 88 328.964 88 324.588 91.5022 321.037 95.8279 321.037ZM102.5 307C105.866 307 108.595 309.767 108.595 313.181 108.595 316.595 105.866 319.363 102.5 319.363 99.1341 319.363 96.4054 316.595 96.4054 313.181 96.4054 309.767 99.1341 307 102.5 307Z" fill="#009DD9" fill-rule="evenodd"/>
        <path d="M799.828 321.037C799.828 321.037 799.828 321.037 813.172 321.037 817.498 321.037 821 324.588 821 328.964 821 328.964 821 328.964 821 330.061 821 330.061 821 330.061 821 330.845 821 330.845 821 330.845 821 348.148 821 349.587 819.849 350.754 818.43 350.754 817.012 350.754 815.871 349.587 815.871 348.148 815.871 348.148 815.871 348.148 815.871 330.845 815.871 330.845 815.871 330.845 813.966 330.845 813.966 330.845 813.966 330.845 813.966 347.947 813.966 347.947 813.966 347.947 813.966 352.142 813.966 352.142 813.966 352.142 813.966 378.801 813.966 380.571 812.547 382 810.811 382 809.065 382 807.656 380.571 807.656 378.801 807.656 378.801 807.656 378.801 807.656 352.142 807.656 352.142 807.656 352.142 805.344 352.142 805.344 352.142 805.344 352.142 805.344 378.801 805.344 380.571 803.935 382 802.189 382 800.453 382 799.034 380.571 799.034 378.801 799.034 378.801 799.034 378.801 799.034 352.142 799.034 352.142 799.034 352.142 799.034 347.947 799.034 347.947 799.034 347.947 799.034 330.845 799.034 330.845 799.034 330.845 797.139 330.845 797.139 330.845 797.139 330.845 797.139 348.148 797.139 349.587 795.988 350.754 794.57 350.754 793.151 350.754 792 349.587 792 348.148 792 348.148 792 348.148 792 330.845 792 330.845 792 330.845 792 330.061 792 330.061 792 330.061 792 328.964 792 324.588 795.502 321.037 799.828 321.037ZM806.5 307C809.866 307 812.595 309.767 812.595 313.181 812.595 316.595 809.866 319.363 806.5 319.363 803.134 319.363 800.405 316.595 800.405 313.181 800.405 309.767 803.134 307 806.5 307Z" fill="#10CF9B" fill-rule="evenodd"/>
        <text fill="#17406D" font-family="Open Sans Light,Open Sans Light_MSFontService,sans-serif" font-weight="300" font-size="67" transform="translate(87.5849 254)">{{title_1}}</text>
        <text font-family="Open Sans Light,Open Sans Light_MSFontService,sans-serif" font-weight="300" font-size="15" transform="translate(87.5849 290)">{{title_1_desc_line_1}}</text>
        <path d="M1170.83 321.037C1170.83 321.037 1170.83 321.037 1184.17 321.037 1188.5 321.037 1192 324.588 1192 328.964 1192 328.964 1192 328.964 1192 330.061 1192 330.061 1192 330.061 1192 330.845 1192 330.845 1192 330.845 1192 348.148 1192 349.587 1190.85 350.754 1189.43 350.754 1188.01 350.754 1186.87 349.587 1186.87 348.148 1186.87 348.148 1186.87 348.148 1186.87 330.845 1186.87 330.845 1186.87 330.845 1184.97 330.845 1184.97 330.845 1184.97 330.845 1184.97 347.947 1184.97 347.947 1184.97 347.947 1184.97 352.142 1184.97 352.142 1184.97 352.142 1184.97 378.801 1184.97 380.571 1183.55 382 1181.81 382 1180.06 382 1178.66 380.571 1178.66 378.801 1178.66 378.801 1178.66 378.801 1178.66 352.142 1178.66 352.142 1178.66 352.142 1176.34 352.142 1176.34 352.142 1176.34 352.142 1176.34 378.801 1176.34 380.571 1174.94 382 1173.19 382 1171.45 382 1170.03 380.571 1170.03 378.801 1170.03 378.801 1170.03 378.801 1170.03 352.142 1170.03 352.142 1170.03 352.142 1170.03 347.947 1170.03 347.947 1170.03 347.947 1170.03 330.845 1170.03 330.845 1170.03 330.845 1168.14 330.845 1168.14 330.845 1168.14 330.845 1168.14 348.148 1168.14 349.587 1166.99 350.754 1165.57 350.754 1164.15 350.754 1163 349.587 1163 348.148 1163 348.148 1163 348.148 1163 330.845 1163 330.845 1163 330.845 1163 330.061 1163 330.061 1163 330.061 1163 328.964 1163 324.588 1166.5 321.037 1170.83 321.037ZM1177.5 307C1180.87 307 1183.59 309.767 1183.59 313.181 1183.59 316.595 1180.87 319.363 1177.5 319.363 1174.13 319.363 1171.41 316.595 1171.41 313.181 1171.41 309.767 1174.13 307 1177.5 307Z" fill="#10CF9B" fill-rule="evenodd"/>
        <path d="M1133.83 321.037C1133.83 321.037 1133.83 321.037 1147.17 321.037 1151.5 321.037 1155 324.588 1155 328.964 1155 328.964 1155 328.964 1155 330.061 1155 330.061 1155 330.061 1155 330.845 1155 330.845 1155 330.845 1155 348.148 1155 349.587 1153.85 350.754 1152.43 350.754 1151.01 350.754 1149.87 349.587 1149.87 348.148 1149.87 348.148 1149.87 348.148 1149.87 330.845 1149.87 330.845 1149.87 330.845 1147.97 330.845 1147.97 330.845 1147.97 330.845 1147.97 347.947 1147.97 347.947 1147.97 347.947 1147.97 352.142 1147.97 352.142 1147.97 352.142 1147.97 378.801 1147.97 380.571 1146.55 382 1144.81 382 1143.06 382 1141.66 380.571 1141.66 378.801 1141.66 378.801 1141.66 378.801 1141.66 352.142 1141.66 352.142 1141.66 352.142 1139.34 352.142 1139.34 352.142 1139.34 352.142 1139.34 378.801 1139.34 380.571 1137.94 382 1136.19 382 1134.45 382 1133.03 380.571 1133.03 378.801 1133.03 378.801 1133.03 378.801 1133.03 352.142 1133.03 352.142 1133.03 352.142 1133.03 347.947 1133.03 347.947 1133.03 347.947 1133.03 330.845 1133.03 330.845 1133.03 330.845 1131.14 330.845 1131.14 330.845 1131.14 330.845 1131.14 348.148 1131.14 349.587 1129.99 350.754 1128.57 350.754 1127.15 350.754 1126 349.587 1126 348.148 1126 348.148 1126 348.148 1126 330.845 1126 330.845 1126 330.845 1126 330.061 1126 330.061 1126 330.061 1126 328.964 1126 324.588 1129.5 321.037 1133.83 321.037ZM1140.5 307C1143.87 307 1146.59 309.767 1146.59 313.181 1146.59 316.595 1143.87 319.363 1140.5 319.363 1137.13 319.363 1134.41 316.595 1134.41 313.181 1134.41 309.767 1137.13 307 1140.5 307Z" fill="#10CF9B" fill-rule="evenodd"/>
        <text fill="#17406D" font-family="Open Sans Light,Open Sans Light_MSFontService,sans-serif" font-weight="300" font-size="67" transform="translate(718.088 254)">{{title_2}}</text>
        <text font-family="Open Sans Light,Open Sans Light_MSFontService,sans-serif" font-weight="300" font-size="15" transform="translate(718.088 290)">{{title_2_desc_line_1}}</text>
        <path d="M88 608 1192 608" stroke="#17406D" stroke-width="2" stroke-miterlimit="8" fill="none" fill-rule="evenodd"/>
        <path d="M88.5001 608.5 542.359 608.5" stroke="#009DD9" stroke-width="26.6667" stroke-miterlimit="8" fill="none" fill-rule="evenodd"/>
        <path d="M905.5 608.5 1029.92 608.5" stroke="#A5C249" stroke-width="26.6667" stroke-miterlimit="8" fill="none" fill-rule="evenodd"/>
        <path d="M537.5 608.5 904.911 608.5" stroke="#10CF9B" stroke-width="26.6667" stroke-miterlimit="8" fill="none" fill-rule="evenodd"/>
        <text fill="#17406D" font-family="Open Sans,Open Sans_MSFontService,sans-serif" font-weight="400" font-size="12" transform="translate(87.5849 527)">{{title_3_desc_line_1}}</text>
        <text font-family="Open Sans Light,Open Sans Light_MSFontService,sans-serif" font-weight="300" font-size="15" transform="translate(87.5849 578)">{{label_1}}</text>
        <text fill="#17406D" font-family="Open Sans Light,Open Sans Light_MSFontService,sans-serif" font-weight="300" font-size="36" transform="translate(87.5849 502)">{{title_3}}</text>
        <text fill="#17406D" font-family="Open Sans,Open Sans_MSFontService,sans-serif" font-weight="400" font-size="12" transform="translate(537.169 527)">{{title_4_desc_line_1}}</text>
        <text font-family="Open Sans Light,Open Sans Light_MSFontService,sans-serif" font-weight="300" font-size="15" transform="translate(537.169 578)">{{label_2}}</text>
        <text fill="#17406D" font-family="Open Sans Light,Open Sans Light_MSFontService,sans-serif" font-weight="300" font-size="36" transform="translate(537.169 502)">{{title_4}}</text>
        <text fill="#17406D" font-family="Open Sans,Open Sans_MSFontService,sans-serif" font-weight="400" font-size="12" transform="translate(904.579 527)">{{title_5_desc_line_1}}</text>
        <text font-family="Open Sans Light,Open Sans Light_MSFontService,sans-serif" font-weight="300" font-size="15" transform="translate(904.579 578)">{{label_3}}</text>
        <text fill="#17406D" font-family="Open Sans Light,Open Sans Light_MSFontService,sans-serif" font-weight="300" font-size="36" transform="translate(904.579 502)">{{title_5}}</text>
    </g>
</svg>