<svg width="1280" height="720" xmlns="http://www.w3.org/2000/svg" xmlns:xlink="http://www.w3.org/1999/xlink" overflow="hidden"><g><rect x="0" y="0" width="1280" height="720" fill="#FFFFFF"/><path d="M438 469 562.5 257 687 469Z" stroke="#022B52" stroke-width="2" stroke-miterlimit="8" fill="#F2F2F2" fill-rule="evenodd"/><path d="M437.726 469 400 434.808 526.049 219 562 257.632" stroke="#022B52" stroke-width="2" stroke-miterlimit="8" fill="#E2E2E2" fill-rule="evenodd"/><path d="M501.986 360.218 641.55 389.949 833.708 574.732 830.473 578.095 638.795 393.774 639.926 394.374 501.014 364.782ZM835.261 569.75 840.5 584.5 825.557 579.842Z" fill="#A5C249"/><path d="M502.755 362.181 634.551 376.644 834.781 472.814 832.76 477.021 632.89 381.023 633.646 381.239 502.246 366.819ZM834.375 467.564 844.5 479.5 828.876 480.439Z" fill="#7CCA62"/><path d="M507.493 361.167 825.827 360.202 825.841 364.869 507.507 365.833ZM823.479 355.543 837.5 362.5 823.521 369.542Z" fill="#10CF9B"/><path d="M507.095 360.202 615.768 341.053 615.254 341.207 832.857 247.951 834.696 252.24 616.844 345.602 507.905 364.798ZM828.875 244.581 844.5 245.5 834.389 257.449Z" fill="#0BD0D9"/><path d="M504.695 361.31 605.191 324.379 604.52 324.762 832.989 138.075 835.942 141.689 607.169 328.624 506.305 365.69ZM828.23 135.938 843.5 132.5 837.088 146.779Z" fill="#009DD9"/><path d="M348.5 361.167 506.278 361.167C507.567 361.167 508.611 362.212 508.611 363.5 508.611 364.789 507.567 365.833 506.278 365.833L348.5 365.833C347.211 365.833 346.167 364.789 346.167 363.5 346.167 362.211 347.211 361.167 348.5 361.167ZM506.278 356.5C510.144 356.5 513.278 359.634 513.278 363.5 513.278 367.366 510.144 370.5 506.278 370.5 502.412 370.5 499.278 367.366 499.278 363.5 499.278 359.634 502.412 356.5 506.278 356.5Z" fill="#0F6FC6"/><path d="M267.2 381.63C274.588 381.641 281.704 378.877 287.103 373.899L291.289 378.03C290.392 379.143 289.841 380.488 289.703 381.903 289.516 383.569 290.095 385.231 291.282 386.43L305.424 400.411C306.499 401.452 307.952 402.024 309.458 401.999 313.342 401.876 316.543 398.951 316.965 395.138 317.153 393.472 316.574 391.81 315.387 390.611L301.244 376.617C299.08 374.477 295.423 374.539 292.713 376.617L288.525 372.485C299.534 360.859 298.909 342.626 287.129 331.762 275.348 320.897 256.874 321.514 245.865 333.14 234.855 344.766 235.481 362.998 247.261 373.863 252.669 378.851 259.794 381.625 267.196 381.625ZM299.82 378.02 313.962 392.001C314.726 392.788 315.093 393.872 314.961 394.955 314.825 396.245 314.232 397.446 313.286 398.347 311.324 400.278 308.438 400.568 306.847 398.999L292.706 385.02C291.942 384.232 291.576 383.149 291.707 382.067 292.043 379.281 294.369 377.142 297.209 377.01 298.181 376.987 299.122 377.351 299.82 378.02ZM247.993 333.893C258.601 323.423 275.801 323.423 286.409 333.893 297.017 344.362 297.017 361.336 286.409 371.806 275.801 382.275 258.601 382.275 247.993 371.806 237.384 361.406 237.327 344.487 247.866 334.018 247.908 333.976 247.95 333.934 247.993 333.893Z" fill="#0F6FC6" fill-rule="evenodd"/><path d="M266.5 367 268.5 367 268.5 354.5 281 354.5 281 352.5 268.5 352.5 268.5 340 266.5 340 266.5 352.5 254 352.5 254 354.5 266.5 354.5 266.5 367Z" fill="#0F6FC6" fill-rule="evenodd"/><text fill="#17406D" font-family="Open Sans,Open Sans_MSFontService,sans-serif" font-weight="700" font-size="19" transform="translate(82.342 323)">Text Here</text><text font-family="Open Sans Light,Open Sans Light_MSFontService,sans-serif" font-weight="300" font-size="16" transform="translate(53.142 353)">Lorem Ipsum comes</text><text font-family="Open Sans Light,Open Sans Light_MSFontService,sans-serif" font-weight="300" font-size="16" transform="translate(38.9687 376)">from section Contrary to</text><text font-family="Open Sans Light,Open Sans Light_MSFontService,sans-serif" font-weight="300" font-size="16" transform="translate(47.8087 399)">popular belief, Lorem.</text><text fill="#17406D" font-family="Open Sans,Open Sans_MSFontService,sans-serif" font-weight="700" font-size="19" transform="translate(967.418 124)">Text Here</text><text font-family="Open Sans Light,Open Sans Light_MSFontService,sans-serif" font-weight="300" font-size="16" transform="translate(967.418 155)">Lorem Ipsum comes from section</text><text font-family="Open Sans Light,Open Sans Light_MSFontService,sans-serif" font-weight="300" font-size="16" transform="translate(967.418 178)">Contrary to popular belief, Lorem.</text><text fill="#17406D" font-family="Open Sans,Open Sans_MSFontService,sans-serif" font-weight="700" font-size="19" transform="translate(967.418 227)">Text Here</text><text font-family="Open Sans Light,Open Sans Light_MSFontService,sans-serif" font-weight="300" font-size="16" transform="translate(967.418 258)">Lorem Ipsum comes from section</text><text font-family="Open Sans Light,Open Sans Light_MSFontService,sans-serif" font-weight="300" font-size="16" transform="translate(967.418 281)">Contrary to popular belief, Lorem.</text><text fill="#17406D" font-family="Open Sans,Open Sans_MSFontService,sans-serif" font-weight="700" font-size="19" transform="translate(968.678 330)">Text Here</text><text font-family="Open Sans Light,Open Sans Light_MSFontService,sans-serif" font-weight="300" font-size="16" transform="translate(968.678 361)">Lorem Ipsum comes from section</text><text font-family="Open Sans Light,Open Sans Light_MSFontService,sans-serif" font-weight="300" font-size="16" transform="translate(968.678 384)">Contrary to popular belief, Lorem.</text><text fill="#17406D" font-family="Open Sans,Open Sans_MSFontService,sans-serif" font-weight="700" font-size="19" transform="translate(968.175 438)">Text Here</text><text font-family="Open Sans Light,Open Sans Light_MSFontService,sans-serif" font-weight="300" font-size="16" transform="translate(968.175 468)">Lorem Ipsum comes from section</text><text font-family="Open Sans Light,Open Sans Light_MSFontService,sans-serif" font-weight="300" font-size="16" transform="translate(968.175 491)">Contrary to popular belief, Lorem.</text><text fill="#17406D" font-family="Open Sans,Open Sans_MSFontService,sans-serif" font-weight="700" font-size="19" transform="translate(966.158 541)">Text Here</text><text font-family="Open Sans Light,Open Sans Light_MSFontService,sans-serif" font-weight="300" font-size="16" transform="translate(966.158 571)">Lorem Ipsum comes from section</text><text font-family="Open Sans Light,Open Sans Light_MSFontService,sans-serif" font-weight="300" font-size="16" transform="translate(966.158 594)">Contrary to popular belief, Lorem.</text><g><g><g><path d="M884.286 471.268C883.588 471.572 883.269 472.386 883.574 473.085 883.878 473.783 884.692 474.102 885.391 473.798 886.089 473.493 886.408 472.679 886.104 471.98 885.964 471.661 885.71 471.407 885.391 471.268L885.391 467.567 883.182 467.567 883.182 465.513C883.881 465.208 884.2 464.395 883.895 463.696 883.59 462.997 882.777 462.678 882.078 462.983 881.38 463.288 881.06 464.102 881.365 464.8 881.504 465.119 881.759 465.374 882.078 465.513L882.078 467.566 879.217 467.562C879.111 467.858 879.032 468.153 878.949 468.464 878.932 468.531 878.913 468.599 878.894 468.667L884.286 468.672Z" fill="#7CCA62"/><path d="M912.719 479.164 908.909 472.539 908.909 472.263C909.234 463.101 902.07 455.41 892.907 455.086 892.905 455.086 892.902 455.086 892.899 455.085 892.694 455.078 892.489 455.075 892.286 455.074 883.364 455.067 876.042 462.13 875.729 471.046L875.729 472.261C875.708 477.486 878.115 482.424 882.244 485.626L882.244 499.597 899.69 499.597 899.69 492.972 902.395 492.972C905.99 492.965 908.902 490.052 908.909 486.458L908.909 483.035 911.339 483.035C912.774 482.864 914.044 481.207 912.719 479.164ZM912.072 481.317C911.915 481.637 911.615 481.863 911.263 481.924L907.805 481.924 907.805 486.451C907.801 489.438 905.381 491.858 902.395 491.862L898.585 491.862 898.585 498.487 883.348 498.487 883.348 485.083 882.919 484.752C879.054 481.765 876.804 477.146 876.833 472.261L876.833 471.067C877.116 462.744 883.959 456.152 892.287 456.18 892.477 456.18 892.668 456.183 892.86 456.19 901.411 456.499 908.097 463.671 907.808 472.222L907.808 472.832 907.955 473.088 911.764 479.713 911.779 479.738 911.795 479.763C912.154 480.196 912.26 480.786 912.074 481.317Z" fill="#7CCA62"/><path d="M900.297 462.87C900.136 462.871 899.976 462.901 899.826 462.958L898.089 461.395 898.089 458.95C897.724 458.805 897.353 458.659 896.984 458.534L896.984 461.864 899.027 463.705C898.726 464.405 899.049 465.217 899.75 465.518 900.45 465.819 901.262 465.496 901.563 464.795 901.864 464.095 901.541 463.283 900.84 462.982 900.669 462.908 900.484 462.87 900.297 462.87Z" fill="#7CCA62"/><path d="M894.224 473.911C894.044 473.912 893.866 473.947 893.699 474.016L889.807 470.111 889.807 463.701 893.12 463.701 893.12 466.296C892.421 466.601 892.102 467.414 892.407 468.113 892.712 468.812 893.525 469.131 894.224 468.826 894.923 468.521 895.242 467.708 894.937 467.009 894.798 466.69 894.543 466.435 894.224 466.296L894.224 462.596 889.807 462.596 889.807 461.096C890.506 460.791 890.825 459.978 890.52 459.279 890.215 458.58 889.402 458.261 888.703 458.566 888.005 458.871 887.685 459.684 887.99 460.383 888.129 460.702 888.384 460.957 888.703 461.096L888.703 470.548 890.525 472.43 887.599 475.356 887.599 478.058 884.269 478.058 882.141 475.557C882.473 474.848 882.167 474.003 881.458 473.67 880.748 473.338 879.903 473.643 879.571 474.353 879.238 475.063 879.544 475.907 880.254 476.24 880.58 476.393 880.952 476.416 881.295 476.304L883.752 479.162 887.599 479.162 887.599 480.101C886.9 480.406 886.581 481.219 886.886 481.918 887.191 482.617 888.005 482.936 888.703 482.631 889.402 482.326 889.721 481.512 889.416 480.814 889.277 480.495 889.022 480.24 888.703 480.101L888.703 475.791 891.298 473.197 892.926 474.836C892.676 475.554 893.056 476.339 893.774 476.589 894.493 476.839 895.277 476.459 895.527 475.741 895.777 475.022 895.397 474.238 894.679 473.988 894.532 473.937 894.379 473.911 894.224 473.911Z" fill="#7CCA62"/></g></g></g><g><g><g><path d="M17.946 18.4987 19.0502 18.4987 19.0502 17.5369C24.3397 19.1026 26.8346 22.8695 26.6413 28.9805L25.1231 28.9805 25.1231 33.125 29.2676 33.125 29.2676 28.9805 27.7516 28.9805C27.9144 23.3564 25.8933 19.4792 21.7245 17.3984 21.7068 17.3895 21.7079 17.3851 21.7245 17.3884L30.6682 19.0325C30.7953 19.8354 31.4873 20.4268 32.3002 20.4271 32.3123 20.4271 32.3234 20.4238 32.335 20.4238L32.3002 27.8802C32.3008 27.9981 32.3762 28.1025 32.4879 28.1402 32.5166 28.1496 32.5466 28.1545 32.5768 28.1546 32.663 28.1555 32.7447 28.1161 32.7976 28.048L35.3433 24.8504 39.4359 24.7725C39.5883 24.7725 39.7119 24.6489 39.7119 24.4965 39.7119 24.4096 39.671 24.3278 39.6015 24.2757L33.6246 19.7563C33.9269 19.3571 34.0302 18.8416 33.9051 18.3568 33.6789 17.4733 32.7793 16.9404 31.8959 17.1666 31.4631 17.2774 31.0937 17.5588 30.8719 17.9466L19.0502 15.7741 19.0502 14.3542 14.9062 14.3542 14.9062 18.4987 17.946 18.4987ZM28.1634 32.0208 26.2273 32.0208 26.2273 30.0847 28.1634 30.0847ZM35.3195 23.7479 34.8 23.7578 34.4765 24.1641 33.4275 25.4842C33.422 25.4913 33.4176 25.4897 33.4176 25.4809L33.438 21.009C33.438 21.0029 33.4424 21.0007 33.4474 21.0046L37.015 23.7048C37.0216 23.7103 37.0205 23.7147 37.0117 23.7147ZM16.0104 15.4583 17.946 15.4583 17.946 17.3945 16.0104 17.3945Z" fill="#009DD9" transform="matrix(1.01887 0 0 1 867 104)"/><path d="M46.375 8.27076 6.625 8.27076C5.40688 8.2744 4.4203 9.26098 4.41667 10.4791L4.41667 36.9896C4.42061 38.2076 5.407 39.194 6.625 39.1979L22.6354 39.1979 22.6354 44.7188 16.5625 44.7188 16.5625 45.8229 36.4375 45.8229 36.4375 44.7188 30.3646 44.7188 30.3646 39.1979 46.375 39.1979C47.593 39.194 48.5794 38.2076 48.5833 36.9896L48.5833 10.4796C48.58 9.26131 47.5933 8.2744 46.375 8.27076ZM29.2604 44.7188 23.7396 44.7188 23.7396 39.1979 29.2604 39.1979ZM47.4792 36.9896C47.4792 37.5994 46.9848 38.0938 46.375 38.0938L6.625 38.0938C6.01517 38.0938 5.52083 37.5994 5.52083 36.9896L5.52083 10.4796C5.52083 9.86981 6.01517 9.37548 6.625 9.37548L46.375 9.37548C46.9848 9.37548 47.4792 9.86981 47.4792 10.4796Z" fill="#009DD9" transform="matrix(1.01887 0 0 1 867 104)"/><path d="M8.28125 11.0323 7.17708 11.0323 7.17708 36.4375 45.8229 36.4375 45.8229 11.0323 8.28125 11.0323ZM44.7188 35.3333 8.28125 35.3333 8.28125 12.1364 44.7188 12.1364Z" fill="#009DD9" transform="matrix(1.01887 0 0 1 867 104)"/></g></g></g><g><g><g><path d="M35.8854 11.0417C35.8814 7.68931 33.1649 4.9727 29.8125 4.96875L23.1875 4.96875C19.8351 4.9727 17.1186 7.68931 17.1146 11.0417L17.1146 25.9479 35.8854 25.9479ZM34.7812 24.8438 18.2188 24.8438 18.2188 11.0417C18.2221 8.29886 20.4447 6.07628 23.1875 6.07292L29.8125 6.07292C32.5553 6.07628 34.7779 8.29886 34.7812 11.0417Z" fill="#0BD0D9" transform="matrix(1.01887 0 0 1 867 215)"/><path d="M41.4062 19.0568 38.6458 19.0568C37.7311 19.0568 36.9896 19.7983 36.9896 20.7131L36.9896 20.7131C36.9896 21.6278 37.7311 22.3693 38.6458 22.3693L38.6458 27.9144C38.6432 28.7414 38.1728 29.4956 37.4313 29.8616 37.1322 28.8518 36.2054 28.1583 35.1522 28.1562L17.8477 28.1562C16.7944 28.1582 15.8674 28.852 15.5687 29.8622 14.8271 29.496 14.3567 28.7416 14.3542 27.9144L14.3542 22.3693 14.3542 22.3693C15.2689 22.3693 16.0104 21.6278 16.0104 20.7131L16.0104 20.7131C16.0104 19.7983 15.2689 19.0568 14.3542 19.0568L11.5938 19.0568C10.679 19.0568 9.9375 19.7983 9.9375 20.7131L9.9375 20.7131C9.9375 21.6278 10.679 22.3693 11.5938 22.3693L13.25 22.3693 13.25 27.9144C13.253 29.3246 14.1537 30.5762 15.4898 31.0271 15.6436 32.2127 16.6522 33.1007 17.8477 33.1029L25.9479 33.1029 25.9479 40.0365 21.1801 40.0365C19.3541 40.0389 17.7781 41.3171 17.3989 43.1034 16.1914 43.321 15.3889 44.4763 15.6066 45.6837 15.8242 46.8913 16.9795 47.6937 18.187 47.4761 19.3945 47.2584 20.1969 46.1032 19.9793 44.8957 19.8371 44.1066 19.2807 43.4554 18.5235 43.1917 18.843 41.9857 19.9325 41.1446 21.1801 41.1407L25.9479 41.1407 25.9479 43.1403C24.767 43.4453 24.0569 44.6497 24.3618 45.8306 24.6667 47.0116 25.8712 47.7217 27.0521 47.4168 28.233 47.1119 28.9431 45.9074 28.6382 44.7265 28.4374 43.9486 27.83 43.3412 27.0521 43.1403L27.0521 41.1407 32.1605 41.1407C33.4008 41.1453 34.4853 41.9777 34.8105 43.1746 33.6585 43.5483 33.0277 44.7852 33.4014 45.9371 33.7752 47.0891 35.012 47.72 36.164 47.3462 37.316 46.9725 37.9468 45.7356 37.5731 44.5837 37.3312 43.8382 36.71 43.2785 35.9434 43.1155 35.5689 41.3234 33.9902 40.0388 32.1594 40.0365L27.0521 40.0365 27.0521 33.1046 35.1522 33.1046C36.3477 33.1023 37.3564 32.2143 37.5102 31.0287 38.8467 30.5774 39.7473 29.3251 39.75 27.9144L39.75 22.3693 41.4062 22.3693C42.321 22.3693 43.0625 21.6278 43.0625 20.7131L43.0625 20.7131C43.0625 19.7983 42.321 19.0568 41.4062 19.0568ZM11.0417 20.7131C11.0417 20.4081 11.2888 20.161 11.5938 20.161L14.3542 20.161C14.6591 20.161 14.9062 20.4081 14.9062 20.7131 14.9062 21.018 14.6591 21.2651 14.3542 21.2651L11.5938 21.2651C11.2888 21.2651 11.0417 21.018 11.0417 20.7131ZM18.9105 45.2708C18.9105 45.8807 18.4162 46.375 17.8063 46.375 17.1965 46.375 16.7022 45.8807 16.7022 45.2708 16.7022 44.661 17.1965 44.1667 17.8063 44.1667 18.4162 44.1667 18.9105 44.661 18.9105 45.2708ZM27.6042 45.2708C27.6042 45.8807 27.1098 46.375 26.5 46.375 25.8902 46.375 25.3958 45.8807 25.3958 45.2708 25.3958 44.661 25.8902 44.1667 26.5 44.1667 27.1098 44.1667 27.6042 44.661 27.6042 45.2708ZM36.5772 45.2708C36.5772 45.8807 36.0828 46.375 35.473 46.375 34.8632 46.375 34.3688 45.8807 34.3688 45.2708 34.3688 44.661 34.8632 44.1667 35.473 44.1667 36.0828 44.1667 36.5772 44.661 36.5772 45.2708ZM36.4375 30.7152C36.4369 31.4247 35.8618 31.9998 35.1522 32.0004L17.8477 32.0004C17.1382 31.9998 16.5631 31.4247 16.5625 30.7152L16.5625 30.5457C16.5634 29.8362 17.1383 29.2614 17.8477 29.2604L35.1522 29.2604C35.8617 29.2614 36.4366 29.8362 36.4375 30.5457ZM41.4062 21.2651 38.6458 21.2651C38.3409 21.2651 38.0938 21.018 38.0938 20.7131 38.0938 20.4081 38.3409 20.161 38.6458 20.161L41.4062 20.161C41.7112 20.161 41.9583 20.4081 41.9583 20.7131 41.9583 21.018 41.7112 21.2651 41.4062 21.2651Z" fill="#0BD0D9" transform="matrix(1.01887 0 0 1 867 215)"/></g></g></g><g><g><g><path d="M896.794 350.323C896.952 350.323 897.109 350.333 897.264 350.347L897.264 342.042 912.722 342.042 912.722 351.428 899.905 351.428C900.295 351.743 900.635 352.115 900.915 352.532L904.441 352.532 904.441 354.74 901.757 354.74 901.994 355.844 908.304 355.844 908.304 354.74 905.545 354.74 905.545 352.532 913.274 352.532C913.579 352.532 913.826 352.285 913.826 351.98 913.826 351.98 913.826 351.98 913.826 351.98L913.826 341.49C913.826 341.185 913.579 340.938 913.275 340.938 913.274 340.938 913.274 340.938 913.274 340.938L896.712 340.938C896.407 340.938 896.16 341.185 896.16 341.49 896.16 341.49 896.16 341.49 896.16 341.49L896.16 350.323Z" fill="#10CF9B"/><path d="M875.732 352.532 883.462 352.532 883.462 354.74 880.7 354.74 880.7 355.844 887.012 355.844 887.249 354.74 884.566 354.74 884.566 352.532 888.091 352.532C888.371 352.115 888.711 351.743 889.102 351.428L876.284 351.428 876.284 342.042 891.743 342.042 891.743 350.347C891.898 350.332 892.054 350.323 892.212 350.323L892.847 350.323 892.847 341.49C892.847 341.185 892.6 340.938 892.295 340.938 892.295 340.938 892.295 340.938 892.295 340.938L875.732 340.938C875.427 340.938 875.18 341.185 875.18 341.49 875.18 341.49 875.18 341.49 875.18 341.49L875.18 351.98C875.18 352.285 875.427 352.532 875.732 352.532 875.732 352.532 875.732 352.532 875.732 352.532Z" fill="#10CF9B"/><path d="M886.776 356.948 873.524 356.948C873.219 356.948 872.972 357.196 872.972 357.501 872.972 357.805 873.219 358.053 873.524 358.053L877.848 358.053 875.211 374.931 876.328 374.931 878.965 358.053 886.539 358.053Z" fill="#10CF9B"/><path d="M915.482 356.948 902.231 356.948 902.467 358.053 910.041 358.053 912.678 374.931 913.796 374.931 911.159 358.053 915.482 358.053C915.787 358.053 916.034 357.805 916.034 357.501 916.034 357.196 915.787 356.948 915.482 356.948Z" fill="#10CF9B"/><path d="M890.252 367.986 889.349 374.931 890.462 374.931 891.365 367.99 897.642 367.99 898.544 374.931 899.658 374.931 898.755 367.986C900.886 367.952 902.586 366.195 902.551 364.064 902.547 363.812 902.519 363.562 902.466 363.316L900.573 354.482C900.184 352.705 898.614 351.435 896.794 351.428L892.212 351.428C890.393 351.435 888.822 352.705 888.433 354.482L886.541 363.316C886.093 365.4 887.419 367.453 889.504 367.901 889.75 367.954 890 367.982 890.252 367.986ZM887.62 363.548 889.513 354.714C889.791 353.444 890.912 352.537 892.212 352.532L896.794 352.532C898.094 352.537 899.216 353.444 899.493 354.714L901.386 363.548C901.705 365.038 900.756 366.505 899.265 366.825 899.075 366.865 898.881 366.886 898.687 366.886L890.319 366.886C888.795 366.886 887.559 365.65 887.559 364.126 887.559 363.932 887.58 363.738 887.62 363.548Z" fill="#10CF9B"/></g></g></g><g><g><g><path d="M913.927 558.688 908.406 564.938 908.13 570.671 904.266 575.857 903.478 576.199 903.465 576.081C903.416 575.54 903.086 575.065 902.596 574.83L900.02 573.59 898.199 570.988 903.143 570.682C903.375 570.658 903.591 570.8 903.662 571.022 903.72 571.263 903.572 571.507 903.33 571.565 903.304 571.571 903.277 571.576 903.249 571.577L900.336 571.77C900.031 571.788 899.799 572.049 899.817 572.353 899.835 572.658 900.097 572.89 900.401 572.872 900.404 572.872 900.406 572.872 900.409 572.871L903.32 572.679C904.177 572.626 904.828 571.889 904.776 571.032 904.77 570.947 904.758 570.862 904.739 570.779 904.551 570.027 903.847 569.52 903.075 569.58L897.362 569.934 896.531 569.27C895.279 568.405 893.571 568.657 892.622 569.847L889.629 573.618C889.3 574.031 889.084 574.521 889 575.041L888.999 575.044 888.164 580.713 885.283 584.186C884.618 584.989 884.729 586.18 885.531 586.845 886.334 587.511 887.525 587.4 888.191 586.597L891.41 582.716C891.632 582.448 891.776 582.124 891.826 581.779L892.055 580.192C892.098 579.89 891.889 579.61 891.587 579.566 891.285 579.523 891.005 579.732 890.961 580.034L890.733 581.622C890.712 581.765 890.652 581.9 890.56 582.011L887.341 585.892C887.064 586.225 886.57 586.271 886.236 585.995 885.903 585.719 885.857 585.224 886.133 584.891L889.211 581.18 889.741 577.58C889.918 577.786 890.122 577.967 890.347 578.119L894.215 580.672 893.946 584.969C893.913 585.502 894.106 586.024 894.478 586.406L894.48 586.408 894.052 586.469 886.875 592.542 885.771 596.958 879.146 598.062 876.938 600.823 872.521 601.927 871.417 604.688 916.135 604.688 916.135 557.76ZM904.706 576.87 904.975 576.753 905.151 576.517 909.016 571.331 909.217 571.061 909.233 570.724 909.49 565.378 914.587 559.608 915.031 559.422 915.031 585.848 912.416 586.894 909.165 584.293 903.89 584.953 900.493 581.556 901.574 578.23ZM890.955 577.198C890.3 576.766 889.961 575.99 890.09 575.216L890.091 575.208C890.147 574.878 890.285 574.567 890.494 574.305L893.487 570.533C893.829 570.105 894.347 569.855 894.896 569.856 895.246 569.855 895.588 569.96 895.876 570.158L896.447 570.615C896.664 570.79 896.856 570.994 897.016 571.223L899.281 574.459 902.117 575.825C902.234 575.881 902.32 575.987 902.353 576.113L902.251 576.53C902.119 576.678 901.905 576.721 901.726 576.636L898.85 575.251 898.717 575.153 896.376 572.642 893.149 576.707 896.608 579.062C896.837 579.218 896.967 579.483 896.95 579.76L896.618 585.06C896.608 585.482 896.285 585.83 895.865 585.871 895.432 585.89 895.065 585.554 895.047 585.121 895.046 585.094 895.046 585.066 895.048 585.039L895.356 580.102ZM897.23 578.15 894.753 576.463 896.443 574.333 897.909 575.906C898.041 576.047 898.198 576.163 898.372 576.246L900.693 577.367 897.917 585.917 897.461 585.982C897.611 585.721 897.699 585.429 897.72 585.129L898.052 579.831C898.094 579.165 897.781 578.526 897.23 578.15ZM873.048 603.583 873.336 602.861 877.205 601.894 877.567 601.804 877.8 601.513 879.744 599.082 885.952 598.047 886.667 597.928 886.842 597.226 887.86 593.154 894.523 587.517 898.073 587.01 898.754 586.912 898.967 586.257 900.111 582.735 903.491 586.115 908.839 585.447 912.229 588.158 915.031 587.037 915.031 603.583Z" fill="#A5C249"/><path d="M897.857 569.005C897.907 569.005 897.958 569.004 898.01 569 899.354 568.917 900.377 567.76 900.294 566.415 900.215 565.129 899.149 564.127 897.861 564.126 897.81 564.126 897.759 564.127 897.708 564.13 896.363 564.212 895.339 565.369 895.421 566.714 895.5 568.001 896.567 569.005 897.857 569.005ZM897.776 565.232C897.805 565.231 897.833 565.23 897.861 565.23 898.599 565.231 899.196 565.83 899.195 566.568 899.193 567.272 898.645 567.855 897.941 567.898 897.913 567.9 897.885 567.901 897.857 567.901 897.119 567.899 896.522 567.3 896.524 566.563 896.525 565.858 897.073 565.276 897.776 565.232Z" fill="#A5C249"/></g></g></g><path d="M1173 661.5C1173 657.358 1176.36 654 1180.5 654L1245.5 654C1249.64 654 1253 657.358 1253 661.5L1253 691.5C1253 695.642 1249.64 699 1245.5 699L1180.5 699C1176.36 699 1173 695.642 1173 691.5Z" fill="#C8E3FB" fill-rule="evenodd"/><text fill="#17406D" font-family="Open Sans,Open Sans_MSFontService,sans-serif" font-weight="700" font-size="13" transform="translate(1194.08 673)">LOGO</text><text fill="#17406D" font-family="Open Sans,Open Sans_MSFontService,sans-serif" font-weight="700" font-size="13" transform="translate(1196.34 689)">HERE</text></g></svg>