<svg width="1280" height="720" xmlns="http://www.w3.org/2000/svg" xmlns:xlink="http://www.w3.org/1999/xlink" overflow="hidden"><g><rect x="0" y="0" width="1280" height="720" fill="#FFFFFF"/><path d="M552.625 437.18 552.834 436.915 553 436.34 552.667 435.456 552.126 435.146 552.293 434.483 552.001 433.112 551.336 432.626 549.38 431.388 545.26 429.619 543.096 429.044 542.597 429 541.723 429.177 541.016 429.752 540.6 430.548 540.558 431.078 540.558 432.67 540.558 434.262 523.872 433.997 490.541 433.82 473.813 433.864 454.672 433.82 425.835 434.041 406.611 434.925 397.124 435.765 396.583 435.898 396 436.605 396 437.534 396.583 438.286 397.124 438.33 406.694 438.684 425.877 438.684 454.672 437.932 473.813 437.711 490.541 437.667 523.872 437.888 540.6 438.109 540.6 439.966 540.6 440.408 541.016 441.248 541.723 441.823 542.597 442 543.013 441.956 545.135 441.204 549.38 439.391 551.336 438.153 551.585 438.02 551.835 437.844 552.209 437.49 552.625 437.18Z" fill="#0C2036" fill-rule="evenodd"/><path d="M623.488 351.021C664.22 351.792 703.34 373.653 723.829 409.567 735.359 429.809 741.022 453.417 739.848 476.667 738.471 503.486 726.176 526.89 715.769 551.109 703.423 579.942 699.227 609.936 700.783 639.897L702.957 662 569.111 662 569.456 654.002C569.596 649.132 569.481 644.289 568.537 639.929 566.139 628.763 549.712 631.159 540.836 631.108 527.316 630.955 513.695 629.528 506.808 616.22 503.441 609.744 503.492 602.3 503.288 595.213 503.033 585.831 502.625 576.45 502.574 567.068 502.574 566.966 502.574 566.915 502.574 566.864 490.075 564.009 482.627 560.694 477.627 552.434 472.78 544.378 479.821 533.722 484.922 522.964 491.452 509.095 496.044 496.246 501.553 481.868 507.012 467.693 506.349 452.244 510.124 437.662 521.603 393.353 560.477 358.019 605.983 352.002 611.818 351.231 617.669 350.911 623.488 351.021Z" fill="#C8E3FB" fill-rule="evenodd"/><g><g><g><path d="M607.688 504 633.312 504C635.491 504 637.156 505.666 637.156 507.844 637.156 510.022 635.491 511.688 633.312 511.688L607.688 511.688C605.509 511.688 603.844 510.022 603.844 507.844 603.844 505.666 605.509 504 607.688 504Z" fill="#083763"/><path d="M607.688 516.812 633.312 516.812C635.491 516.812 637.156 518.478 637.156 520.656 637.156 522.834 635.491 524.5 633.312 524.5L607.688 524.5C605.509 524.5 603.844 522.834 603.844 520.656 603.844 518.478 605.509 516.812 607.688 516.812Z" fill="#083763"/><path d="M612.172 529.625C612.556 533.981 616.144 537.312 620.5 537.312 624.856 537.312 628.444 533.981 628.828 529.625L612.172 529.625Z" fill="#083763"/><path d="M620.5 429.688C620.5 429.688 620.5 429.688 620.5 429.688 620.5 429.688 620.5 429.688 620.5 429.688 602.306 429.816 587.572 444.422 587.188 462.616L587.188 463.769C587.316 467.741 588.084 471.584 589.494 475.3 590.903 478.759 592.825 481.962 595.259 484.781 598.334 488.112 601.666 494.647 603.075 497.466 603.459 498.362 604.356 498.875 605.381 498.875L635.619 498.875C636.644 498.875 637.541 498.362 637.925 497.466 639.334 494.647 642.666 488.112 645.741 484.781 648.175 481.962 650.225 478.759 651.506 475.3 652.916 471.584 653.684 467.741 653.812 463.769L653.812 462.616C653.428 444.422 638.694 429.816 620.5 429.688ZM646.125 463.641C645.997 466.716 645.356 469.791 644.331 472.609 643.306 475.172 641.897 477.606 639.975 479.656 637.028 483.244 634.466 487.087 632.544 491.188L620.5 491.188 608.584 491.188C606.534 487.087 603.972 483.244 601.153 479.656 599.359 477.606 597.822 475.172 596.797 472.609 595.644 469.791 595.131 466.716 595.003 463.641L595.003 462.616C595.259 448.65 606.662 437.375 620.628 437.247L620.628 437.247 620.628 437.247C620.628 437.247 620.628 437.247 620.628 437.247 620.628 437.247 620.628 437.247 620.628 437.247L620.628 437.247 620.628 437.247C634.594 437.375 645.997 448.522 646.253 462.616L646.253 463.641Z" fill="#083763"/></g></g></g><path d="M845.836 496.503 834.177 494.288 816.69 490.966 805.161 488.433 799.385 486.828 791.311 484.439 775.513 478.614 767.633 475.562 768.627 473.667 769.493 471.72 769.751 471.083 769.652 469.856 769.115 468.971 768.101 468.337 767.472 468.229 765.868 467.578 762.26 467.076 760.641 467.012 755.581 466.588 750.494 466.598 749.582 466.82 748.756 468.116 748.754 468.857 748.393 469.378 748.274 470.59 748.607 471.244 754.038 477.38 759.622 483.505 760.071 484.058 761.316 484.489 762.601 484.27 763.656 483.512 764.005 482.838 764.495 481.999 764.973 481.007 769.092 482.828 777.446 485.999 790.217 490.075 798.689 492.404 804.363 493.893 815.995 496.542 827.795 498.592 839.572 499.594 845.506 499.706 846.213 499.622 847.076 498.786 847.207 497.727 846.542 496.789 845.836 496.503Z" fill="#0C2036" fill-rule="evenodd"/><path d="M644.084 390.238 644.245 389.895 644.79 389.343 645.497 389.019 646.284 389 646.668 389.095 647.051 389.248 647.637 389.762 647.96 390.428 648 391.171 647.879 391.551 638.936 414.743 638.775 415.086 638.23 415.638 637.543 415.962 636.736 416 636.332 415.886 635.969 415.733 635.404 415.219 635.061 414.553 635 413.81 635.141 413.429 644.084 390.238Z" fill="#083763" fill-rule="evenodd"/><path d="M666.554 402.694 666.825 402.386 667.502 402.058 668.258 402 668.993 402.212 669.322 402.443 669.593 402.713 669.942 403.388 670 404.14 669.787 404.873 669.535 405.162 653.427 424.306 653.156 424.614 652.478 424.961 651.723 425 651.007 424.788 650.678 424.557 650.387 424.287 650.039 423.612 650 422.879 650.194 422.166 650.445 421.838 666.554 402.694Z" fill="#083763" fill-rule="evenodd"/><path d="M684.035 422.264 684.388 422.094 685.154 422 685.9 422.188 686.509 422.64 686.745 422.96 686.921 423.299 687 424.033 686.823 424.729 686.352 425.313 685.998 425.539 663.985 437.736 663.592 437.906 662.846 438 662.119 437.812 661.511 437.379 661.275 437.059 661.098 436.682 661 435.967 661.216 435.271 661.668 434.687 662.002 434.461 684.035 422.264Z" fill="#083763" fill-rule="evenodd"/><path d="M693.686 446.042 694.078 446 694.843 446.189 695.451 446.652 695.882 447.367 695.961 447.766 696 448.208 695.824 448.986 695.392 449.68 694.765 450.121 694.353 450.227 669.333 454.937 668.941 455 668.176 454.811 667.569 454.348 667.157 453.654 667.059 453.213 667 452.813 667.176 451.993 667.608 451.341 668.275 450.879 668.647 450.794 693.686 446.042Z" fill="#083763" fill-rule="evenodd"/><path d="M618 386.907 618.02 386.514 618.317 385.841 618.871 385.318 619.584 385.037 620 385 620.396 385.037 621.129 385.318 621.663 385.841 621.96 386.514 622 386.907 622 411.131 621.96 411.486 621.663 412.178 621.129 412.682 620.396 412.963 620 413 619.584 412.963 618.871 412.682 618.317 412.178 618.02 411.486 618 411.131 618 386.907Z" fill="#083763" fill-rule="evenodd"/><path d="M593.112 391.551 593 391.171 593.037 390.428 593.335 389.762 593.894 389.248 594.23 389.095 594.584 389 595.311 389.019 595.963 389.343 596.466 389.895 596.615 390.238 604.888 413.429 605 413.81 604.944 414.553 604.646 415.219 604.106 415.733 603.77 415.886 603.398 416 602.652 415.962 602 415.638 601.516 415.086 601.385 414.743 593.112 391.551Z" fill="#083763" fill-rule="evenodd"/><path d="M570.483 405.162 570.232 404.873 570 404.14 570.077 403.388 570.425 402.713 570.696 402.443 571.024 402.212 571.758 402 572.512 402.058 573.188 402.386 573.459 402.694 589.536 421.838 589.768 422.166 590 422.879 589.942 423.612 589.594 424.287 589.285 424.557 588.995 424.788 588.261 425 587.507 424.961 586.831 424.614 586.56 424.306 570.483 405.162Z" fill="#083763" fill-rule="evenodd"/><path d="M554.945 425.539 554.605 425.313 554.17 424.729 554 424.033 554.057 423.299 554.246 422.96 554.453 422.64 555.039 422.188 555.757 422 556.494 422.094 556.834 422.264 578.055 434.461 578.358 434.687 578.811 435.271 579 435.967 578.906 436.682 578.735 437.059 578.509 437.379 577.923 437.812 577.243 438 576.506 437.906 576.128 437.736 554.945 425.539Z" fill="#083763" fill-rule="evenodd"/><path d="M546.59 450.227 546.212 450.121 545.587 449.68 545.17 448.986 545 448.208 545.057 447.766 545.133 447.367 545.549 446.652 546.136 446.189 546.874 446 547.234 446.042 571.41 450.794 571.769 450.879 572.413 451.341 572.83 451.993 573 452.813 572.962 453.213 572.849 453.654 572.47 454.348 571.883 454.811 571.145 455 570.747 454.937 546.59 450.227Z" fill="#083763" fill-rule="evenodd"/><path d="M1081.37 172.21 1080.5 171.884 1078.87 171.884 1078.16 172.156 1077.84 171.884 1077.18 171.666 1074.25 171.122 1068.05 170.469 1058.74 170.143 1052.54 169.925 1039.33 169.326 1026.11 169.109 1013.11 169 987.216 169.326 974.27 169.816 961.487 170.469 935.704 172.102 909.976 174.659 890.883 177.434 878.264 179.829 871.954 181.189 871.465 181.407 870.975 182.332 871.029 183.366 871.845 184.073 872.389 184.073 897.846 181.461 935.976 177.325 961.433 175.149 974.27 174.496 986.944 174.006 1012.29 173.571 1024.97 173.734 1037.58 173.952 1050.26 174.441 1056.62 174.822 1066.36 175.53 1072.78 175.747 1075.99 175.693 1077.35 180.971 1079.03 191.582 1079.69 202.193 1079.58 212.858 1078.65 228.856 1077.78 244.963 1077.67 255.683 1078 261.015 1077.67 260.961 1077.4 260.961 1072.07 260.634 1066.63 260.199 1062.17 259.437 1053.25 258.077 1039.71 256.662 1021.48 255.737 1003.32 255.628 994.233 255.683 982.647 255.084 971.169 254.54 945.169 253.18 906.005 251.656 879.95 251.384 866.95 251.656 866.841 247.412 867.113 238.869 868.147 226.136 868.908 217.592 869.615 208.287 870.268 198.874 870.649 194.738 870.921 188.48 870.703 184.291 870.431 182.332 870.268 181.951 869.778 181.624 868.908 181.733 868.582 182.332 867.875 184.345 866.95 188.807 866.243 195.663 865.916 200.071 864.992 209.974 864.121 219.932 863.36 229.292 862.598 238.596 862.218 242.46 862 248.282 862.653 252.091 863.414 253.833 863.305 254.377 863.577 255.52 864.013 256.009 865.971 258.023 870.649 261.124 875.707 263.246 881.201 264.607 889.85 265.695 901.381 266.022 906.821 266.185 936.411 267.708 966.002 269.286 1024.75 272.225 1083.38 275 1084.31 275 1085.89 274.293 1087.08 273.095 1087.79 271.463 1087.85 270.647 1088.88 240.664 1090.02 210.736 1090.29 206.002 1090.89 197.894 1091 192.29 1090.62 186.739 1089.37 181.679 1087.79 178.251 1086.38 176.183 1084.69 174.441 1082.57 172.863 1081.37 172.21Z" fill="#009DD9" fill-rule="evenodd"/><path d="M986.041 445.784 985.727 445.215 984.995 444.49 983.531 444.023 982.434 444.179 982.068 443.661 981.231 443.143 980.656 443.091 980.813 442.366 980.395 441.382 979.768 440.916 979.297 440.864 975.533 440.243 967.587 439.57 955.669 439.363 947.88 439.259 932.406 439 916.933 439 901.459 439.207 885.986 439.725 878.197 439.932 866.382 440.554 858.593 441.538 854.83 442.366 854.411 442.47 854.15 442.988 854.307 443.609 854.725 444.023 855.039 444.075 858.855 444.49 866.644 444.541 878.301 444.023 885.986 443.765 901.459 443.35 916.933 443.298 932.406 443.35 947.88 443.661 955.512 444.023 967.274 444.8 974.958 444.956 978.774 444.749 978.827 444.749 978.879 444.749 978.304 449.306 977.886 458.731 978.042 472.87 977.938 482.192 977.833 487.267 977.049 497.262 975.795 507.206 973.808 516.994 972.554 521.862 972.449 522.017 972.449 522.224 972.188 521.81 971.299 521.344 970.776 521.292 956.61 520.412 928.067 519.583 913.901 518.754 899.943 517.667 886.09 516.32 879.347 515.492 868.996 514.093 862.148 513.576 858.75 513.576 858.646 513.42 858.437 513.213 858.28 513.006 858.175 512.902 858.018 495.967 857.339 470.384 856.398 453.501 855.718 445.007 855.614 444.645 855.039 444.075 854.255 444.075 853.68 444.541 853.627 445.007 853.261 453.553 853 470.643 853.418 496.434 854.098 513.472 854.15 514.042 854.568 514.767 854.934 515.026 854.986 515.388 855.091 515.751 855.927 517.045 857.757 519.324 859.848 521.344 862.148 522.949 866.017 524.969 871.715 526.833 877.726 527.973 883.999 528.594 893.2 529.06 898.741 529.475 931.413 532.478 964.137 535.379 967.065 535.637 972.397 536 975.899 535.379 978.042 534.446 979.768 532.841 981.231 530.459 981.806 529.009 984.106 521.862 987.923 507.309 989.386 500.059 990.066 496.641 991.111 489.753 991.791 482.865 992 475.977 991.686 469.141 990.902 462.357 989.491 455.624 987.347 449.047 986.041 445.784Z" fill="#7CCA62" fill-rule="evenodd"/><path d="M489.999 152.344 489.999 152.284 489.999 152.223 489.999 151.619 489.635 150.772 488.484 149.925 487.514 149.683 477.573 148.412 457.811 146.235 437.929 144.541 418.047 143.149 398.104 142.423 378.222 142 358.218 142 338.275 142.544 328.334 143.028 327.788 143.028 326.819 143.512 325.97 144.662 325.97 146.537 326.819 147.626 327.788 148.049 328.334 148.049 338.154 147.626 357.794 147.202 377.434 147.081 396.952 147.505 416.592 148.291 436.171 149.501 455.75 151.074 475.33 153.131 485.028 154.401 485.15 162.81 484.968 171.158 484.119 186.463 483.452 201.828 482.786 212.354 482.058 222.82 481.937 222.82 481.816 222.82 481.452 222.759 480.967 222.759 462.055 223.727 424.108 224.937 405.075 225.3 386.769 225.36 359.249 225.058 340.942 225.119 331.85 225.36 331.85 224.816 331.668 224.272 330.88 222.275 330.274 217.92 330.456 210.902 330.577 206.547 330.516 196.989 330.516 187.37 330.516 178.054 330.213 159.483 329.667 150.227 329.546 149.743 328.879 149.138 327.97 149.138 327.303 149.743 327.182 150.227 326.455 161.116 326.03 182.954 326.03 193.722 325.97 204.006 325.97 214.23 325.97 216.649 325.97 220.4 326.334 222.82 326.637 223.909 325.97 224.393 325.061 225.844 325 226.691 325.242 228.385 326.212 231.41 327.849 233.83 329.971 235.826 332.577 237.338 335.365 238.427 340.033 239.516 343.185 239.758 349.004 240 360.764 239.698 378.525 238.427 390.224 237.641 414.713 236.431 463.752 233.83 488.302 233.043 489.393 232.983 491.272 232.075 492.666 230.684 493.515 228.809 493.636 227.72 494.727 210.056 495.758 174.727 496 157.063 495.818 155.732 494.848 153.736 493.151 152.586 491.09 152.223 489.999 152.344Z" fill="#7CCA62" fill-rule="evenodd"/><path d="M315.238 409.453 299.52 409.612 268.139 410.089 252.422 409.93 252.316 410.354 251.623 410.83 251.197 410.777 251.41 410.883 251.676 412.208 251.943 415.492 252.102 423.915 252.102 426.775 252.422 434.721 252.848 442.614 253.434 450.083 254.5 461.631 254.926 469.259 254.873 473.02 255.672 473.126 256.578 473.868 256.844 474.662 256.738 475.139 256.471 476.463 256.365 479.059 256.684 480.383 256.738 480.436 256.791 480.436 271.762 480.701 301.598 480.436 331.541 479.218 361.324 477.152 376.188 475.616 377.094 467.935 378.266 452.414 379.439 429.159 380.131 413.638 379.705 412.155 379.225 410.671 363.189 410.142 331.221 409.506ZM306.948 405 331.252 405.106 363.605 406.058 379.701 406.588 379.967 406.693 380.234 406.746 380.98 406.164 382.792 405.582 384.604 405.688 386.097 406.693 386.63 407.646 387.536 409.762 388.921 414.102 390.36 420.61 391 429.395 390.84 438.337 390.68 442.941 389.561 463.737 388.335 484.533 388.229 485.486 387.482 487.126 386.256 488.343 384.604 489.031 383.592 489.19 365.363 490.407 328.907 492.047 310.679 492.524 301.831 492.735 284.083 493 275.289 492.735 272.198 492.63 266.228 491.624 262.018 490.301 259.406 489.031 256.901 487.444 254.556 485.486 253.543 484.322 253.117 483.74 252.957 483.211 252.903 483.158 252.477 481.517 252.264 478.554 252.477 477.125 252.104 477.019 251.464 476.437 251.305 475.961 250.505 472.098 249.546 464.055 249.066 451.778 248.746 443.841 248.373 435.321 248 422.568 248.053 414.102 248.266 409.815 248.373 409.392 248.853 408.651 249.226 408.545 249.439 408.44 249.652 408.44 249.919 407.963 250.558 407.858 258.553 407.011 274.649 405.9 290.745 405.318Z" fill="#009DD9" fill-rule="evenodd"/><path d="M657.979 151.415 658.335 157.381 657.535 169.4 657.09 175.276 656.379 189.255 655.846 203.233 655.312 217.122 654.779 245.079 653.979 259.057 654.512 259.235 655.312 260.126 655.49 260.927 655.846 262.084 656.201 263.242 671.137 264.666 701.008 266.536 715.943 266.536 732.301 266.18 748.659 265.201 756.038 264.31 767.507 262.975 774.974 262.619 778.53 262.886 778.264 226.115 778.619 189.433 778.441 181.064 778.086 167.62 778.53 158.983 779.153 154.799 778.886 153.908 778.886 153.018 763.773 153.018 733.635 151.861 718.521 151.593 688.206 151.593ZM702.697 145 718.699 145 734.435 145 758.528 145.268 774.441 145.981 782.442 146.784 783.242 146.963 783.865 147.32 785.198 147.141 787.599 147.944 788.665 149.104 790.799 151.959 793.911 157.937 796.133 164.538 797.289 171.319 798 181.757 797.467 195.943 797.111 202.723 796.133 238.678 794.889 274.811 794.711 276.06 793.733 278.379 791.955 280.164 789.554 281.234 788.31 281.324 744.036 282.483 699.763 283.554 693.54 283.822 682.161 284 674.337 283.554 666.869 282.394 660.113 280.074 656.023 277.309 653.801 275.078 652.112 272.313 650.778 269.101 650.422 267.227 649.8 266.87 649.089 265.71 649 264.372 649.622 263.213 650.245 262.945 650.245 262.41 650.333 261.785 650.333 261.428 650.422 261.161 650.422 260.982 649.889 253.845 649.356 239.392 649.445 217.623 649.889 203.348 650.333 189.341 651.045 175.334 651.312 169.178 651.845 159.81 652.645 153.654 653.445 150.799 653.09 150.353 652.912 149.193 653.267 148.033 654.156 147.32 654.868 147.231 670.781 145.981Z" fill="#0F6FC6" fill-rule="evenodd"/><path d="M152.062 526.933 151.709 538.319 150.532 561.209 148.649 584.098 145.648 606.753 143.588 617.962 144 618.021 144.353 618.08 146.531 617.552 151.003 617.2 157.887 617.082 162.124 617.082 173.481 616.789 184.779 616.554 206.198 616.26 227.559 616.202 249.625 616.202 271.633 616.319 282.048 616.26 297.995 616.084 308.469 616.495 313.706 617.023 313.353 594.956 312.235 562.03 311.117 540.021 310.352 528.987 301.408 528.929 292.463 528.342 282.401 528.048 272.28 527.696 251.979 527.344 231.678 527.109 191.899 527.168ZM212.059 522 232.941 522 253.824 522.235 274.765 522.646 285.471 522.998 296.235 523.292 300.824 523.409 307.765 523.586 312.235 524.056 314.529 524.525 315.235 524.701 315.588 525.113 316.118 525.171 317.059 525.641 317.412 526.111 321 530.339 325.588 536.741 327.824 541.557 328.412 544.376 328.882 547.488 329 553.713 328.471 563.169 328.118 569.335 327.294 586.601 326.353 603.985 326.412 604.807 326.529 605.629 326.588 608.859 326.294 613.382 325.647 616.377 325.235 617.845 324.765 621.956 324.235 625.949 324.353 626.654 324.118 628.122 323.824 628.768 323.529 629.708 322.412 630.706 321.529 630.765 320.706 631 319.647 630.824 314.588 629.943 304.412 628.533 289.059 627.241 268.471 626.889 248 627.418 237.706 627.77 217.235 628.651 186.588 629.591 166.177 629.767 155.941 629.532 155.412 629.532 154.647 629.062 154.353 628.768 151.824 627.007 149.412 625.127 145.765 623.072 142.177 621.016 141.529 620.429 141.294 619.724 141.294 619.548 141.294 619.431 141.412 618.961 141.647 618.608 141.294 618.373 141 617.845 141 617.434 142.471 594.765 145.353 560.82 146.941 538.15 147.471 526.757 147.588 526.17 148.118 525.23 148.471 524.936 148.765 524.584 149.412 524.408 159.824 523.586 180.706 522.587Z" fill="#0F6FC6" fill-rule="evenodd"/><path d="M1033.54 555 1012.46 555.208 991.333 555.792 980.833 556.25 970.333 556.792 949.5 558.125 939.125 559 928.5 559.917 917.833 560.917 912.708 561.542 904.958 562.375 899.75 562.708 897.167 562.708 897.958 568.5 898.958 580.25 899.708 598 900.208 609.75 901.375 634.208 902.417 658.667 907.542 657.917 917.833 656.917 933.333 655.917 943.708 655.542 965.167 654.75 986.583 653.875 1030.29 652.167 1074 650.458 1073.54 647.708 1072.96 642.25 1072.46 634 1072.12 628.5 1071.29 616.167 1070.38 603.875 1069.33 591.708 1067.12 567.417 1065.88 555.25 1065.62 555.375 1065.25 555.417 1054.67 555.167ZM1033.18 552 1054.51 552.167 1065.21 552.375 1065.67 552.417 1066 552.625 1066.42 552.375 1067.63 552.375 1068.13 552.667 1068.42 552.542 1069.09 552.625 1069.42 552.959 1071.05 555.002 1072.88 556.92 1073.96 557.838 1075.09 558.922 1075.67 558.838 1076.54 559.339 1076.88 559.923 1076.92 560.256 1078.25 572.557 1080.63 597.158 1082 609.5 1085.13 633.977 1088 658.453 1088 658.786 1087.71 659.245 1087.46 659.37 1087.21 659.662 1086.58 659.954 1086.21 660.037 1041.76 661.538 997.311 662.998 975.316 663.748 953.321 664.457 942.448 664.958 926.118 665.625 915.246 665.708 909.872 665.458 909.539 665.792 908.622 666 908.122 665.875 906.289 664.666 904.498 663.331 902.79 662.247 901.04 661.121 900.79 661.121 900.291 660.704 900.207 660.454 899.916 660.246 899.541 659.662 899.499 659.245 898.458 634.936 897.291 610.626 896.5 598.534 895.333 580.229 895 568.053 895.167 562.049 895.292 561.59 895.917 561.132 896.375 561.132 896.416 561.048 896.458 561.048 901.374 559.881 911.58 558.255 927.118 556.962 937.324 556.211 947.989 555.294 969.234 553.876 979.898 553.293 990.521 552.834 1011.85 552.208Z" fill="#7CCA62" fill-rule="evenodd"/><path d="M1188.1 369.776 1187.44 357.828 1185.63 339.664 1183.89 330.853 1182.14 325.121 1181.12 322.405 1180.58 321.259 1178.9 320.172 1177.93 320.052 1177.39 319.388 1176.25 318.543 1175.05 318.181 1173.66 318.241 1172.94 318.483 1172.88 318.483 1172.88 318.483 1172.22 318.06 1171.32 318 1114.79 318.845 1058.31 320.172 1030.05 320.836 987.587 321.922 959.381 323.491 945.248 324.819 944.646 324.94 943.864 325.845 943.864 326.931 944.526 327.776 945.248 327.957 959.381 328.138 987.647 327.776 1030.05 326.207 1058.31 325.302 1114.55 323.914 1170.9 323.009 1172.22 334.172 1173.9 356.56 1174.93 390.112 1174.99 412.621 1146.66 413.647 1090.01 414.853 1061.62 415.034 1033.17 415.216 1004.73 414.974 991.015 414.672 970.026 414.069 956.193 414.31 949.397 414.733 949.458 414.672 949.518 414.491 949.878 413.888 949.518 412.621 949.157 412.198 949.157 401.759 948.134 380.94 947.653 370.56 947.292 360.241 946.811 349.922 946.751 344.672 946.45 336.586 945.548 331.397 944.766 328.922 944.466 328.5 943.443 328.5 943.143 328.922 942.541 331.276 942 336.164 942.12 343.707 942.361 348.595 942.601 359.517 942.902 370.56 943.083 381.483 943.383 398.017 943.864 409.06 944.346 414.491 944.466 415.397 945.548 416.543 946.27 416.784 946.27 417.026 946.33 417.147 945.969 417.509 945.729 418.353 945.909 418.897 946.33 420.224 947.593 422.578 949.217 424.509 951.081 426.078 954.389 427.948 959.381 429.397 964.914 430 970.567 430 978.686 429.276 983.317 428.853 985.843 428.612 988.429 428.371 989.752 428.612 991.015 428.733 991.977 428.853 993.481 428.431 994.142 427.948 1001.24 427.526 1015.43 426.922 1036.78 426.741 1050.98 426.922 1067.94 427.405 1101.86 428.491 1118.88 428.672 1126.93 428.672 1143.17 428.19 1151.35 427.828 1160.07 427.164 1168.73 426.259 1172.7 425.957 1178.9 425.172 1182.75 424.207 1184.67 423.483 1185.57 423.06 1186.83 421.733 1187.38 420.043 1187.14 418.414 1186.77 417.75 1187.74 411.776 1188.88 399.828 1189 387.819 1188.52 375.81 1188.1 369.776" fill="#10CF9B" fill-rule="evenodd"/><path d="M234.618 312.47 233.997 312.092 233.375 312.05 232.961 311.714 232.298 311.546 227.905 311.168 218.954 311 205.444 311.42 196.535 311.588 178.674 311.756 160.814 311.882 142.953 311.966 107.149 312.47 89.288 312.974 88.915 313.016 88.3763 313.52 88.2934 313.814 88.0448 314.024 87.6718 314.654 87.5475 315.074 85.7656 331.664 84.2738 348.338 83.4864 356.654 81.8702 373.328 81.373 381.644 81.4558 382.148 82.036 382.694 82.9062 382.862 83.5693 382.4 83.6936 381.98 84.8539 373.832 86.5944 357.452 87.4646 349.262 89.3294 332.21 90.9042 315.2 108.392 315.41 143.326 315.41 160.814 315.284 178.218 315.2 195.665 315.074 204.616 315.032 213.525 314.99 217.628 315.032 225.957 315.074 230.101 314.864 229.936 315.2 229.894 315.578 229.77 319.904 230.018 328.724 229.894 333.134 229.563 337.67 228.485 346.616 227.781 351.068 226.455 358.754 223.139 374 221.565 381.644 204.201 382.4 169.516 383.408 152.194 383.492 134.913 383.576 117.674 383.282 108.889 383.072 95.6283 382.694 86.7602 382.736 82.3675 382.946 82.0774 383.03 81.7045 383.408 81.5802 383.66 81.1658 383.996 81 384.752 81.2072 385.298 81.4558 385.508 83.4035 387.314 85.3926 389.078 85.6413 389.372 86.18 389.918 86.553 390.044 86.6358 390.086 86.7187 390.086 86.8016 390.128 86.843 390.254 88.7493 391.766 90.7384 393.152 90.6555 393.53 90.987 394.244 91.4429 394.412 93.2663 394.79 97.0787 395 102.88 394.706 106.61 394.496 114.939 394.118 123.31 393.698 131.723 393.362 148.423 392.858 156.794 392.774 165.165 392.69 181.865 392.942 206.978 393.782 223.678 394.664 224.258 394.664 225.211 394.286 225.874 393.698 226.247 392.858 226.33 392.396 227.118 391.22 228.071 388.616 228.444 387.188 230.018 381.098 231.386 374.966 234.038 362.66 236.566 350.312 237.851 344.516 239.84 335.654 240.751 329.774 240.959 326.834 241 324.65 240.42 320.576 239.342 317.804 238.348 316.04 237.022 314.486 235.488 313.058 234.618 312.47Z" fill="#0BD0D9" fill-rule="evenodd"/><path d="M688.859 389.079 689.086 388.608 689.253 387.592 689.087 386.997 688.107 384.203 686.764 381.621 691.582 376.596 701.03 366.261 710.056 355.594 718.763 344.515 726.943 333.054 734.574 321.391 741.548 309.347 747.894 297.13 750.713 290.883 750.887 290.387 750.537 289.638 749.908 289.334 749.051 289.501 748.771 289.946 739.901 303.911 726.499 324.588 717.049 338.145 711.996 344.733 705.306 353.239 691.263 369.479 683.859 377.319 683.062 376.29 682.137 375.392 681.793 375.033 680.825 374.759 679.914 374.771 679.061 375.198 678.702 375.54 674.606 381.752 670.64 387.962 670.207 388.591 669.802 389.298 669.674 389.43 669.466 389.458 668.773 390.091 668.484 391.628 668.885 392.273 668.887 392.402 668.887 392.402 668.477 392.849 668.355 393.371 668.128 393.841 668.119 394.933 668.551 395.915 669.47 396.423 670.121 396.414 672.67 396.226 677.606 395.512 680.046 395.013 682.303 394.49 685.854 393.431 687.946 392.313 688.82 391.574 689.175 390.971 689.18 389.62 688.859 389.079Z" fill="#0C2036" fill-rule="evenodd"/><path d="M933.228 384.171 933.403 384.058 933.573 383.63 933.394 383.2 932.998 383.047 932.726 383.086 923.327 387.206 904.443 395.001 890.176 400.266 880.553 403.577 870.813 406.553 861.033 409.237 856.115 410.46 851.101 411.61 841.15 413.722 831.173 415.488 821.192 416.938 811.135 418.119 801.073 418.985 791.027 419.568 780.976 419.836 776.025 419.854 771.213 419.782 761.738 419.405 747.503 418.422 738.123 417.347 738.302 416.549 738.405 415.71 738.475 415.665 738.454 415.633 738.77 415.429 739.059 414.879 738.979 414.294 738.647 413.781 738.411 413.57 737.786 413.292 736.19 413.051 733.734 413.32 732.177 413.599 730.523 413.804 727.143 414.488 725.508 414.954 725.117 415.116 724.702 415.702 724.683 416.442 725.091 416.996 725.432 417.14 725.547 417.702 726.148 418.631 727.585 419.703 728.515 420.374 730.986 422.278 733.401 424.172 733.728 424.37 734.417 424.515 735.178 424.387 735.788 423.948 736.02 423.616 736.719 422.164 737.301 420.606 741.97 421.225 751.469 422.178 761.019 422.824 770.676 423.175 780.348 423.242 790.016 422.995 799.769 422.419 809.488 421.638 819.196 420.456 828.927 419.077 838.582 417.428 848.211 415.432 857.751 413.222 867.251 410.719 876.697 407.978 886.012 404.958 890.659 403.318 896.146 401.363 907.017 397.065 917.674 392.359 928.105 387.073 933.228 384.171Z" fill="#0C2036" fill-rule="evenodd"/><path d="M886.223 289.858 880.272 298.325 870.715 310.281 864.077 318.003 857.096 325.383 849.713 332.419 842.045 339.169 834.034 345.576 829.856 348.608 823.161 353.299 809.255 361.651 794.834 368.974 780.013 375.438 772.459 378.241 771.315 376.01 770.228 373.722 769.713 372.921 768.282 372.463 766.909 373.15 766.05 374.465 766.05 375.381 759.24 379.957 752.145 384.133 751.629 384.476 751.057 385.62 751 386.765 751.629 387.851 752.145 388.195 754.949 389.396 760.728 391.284 766.565 392.485 772.574 393 775.721 392.943 776.351 392.886 777.324 392.256 777.953 391.227 777.953 390.025 777.724 389.453 775.95 385.678 774.176 381.902 778.525 380.472 787.224 377.268 795.807 373.722 804.277 369.66 812.574 365.312 820.643 360.45 828.597 355.359 836.323 349.867 843.705 344.032 850.915 337.911 857.839 331.561 864.42 324.811 870.658 317.889 876.609 310.738 882.046 303.359 887.196 295.75 889.657 291.86 890 291.059 889.542 289.744 888.283 289 886.795 289.286 886.223 289.858" fill="#0C2036" fill-rule="evenodd"/><path d="M444.088 509.574 443.627 509.574 443.225 509.631 442.822 509.344 442.189 509.344 434.94 510.319 427.805 511.753 427.288 511.868 426.482 512.728 426.022 513.76 426.079 514.85 426.31 515.366 427.633 517.316 429.014 519.323 421.304 525.173 405.597 536.185 389.488 546.622 372.975 556.544 364.633 561.477 364.115 561.821 364 562.796 364.403 563.599 365.381 564 365.956 563.828 370.386 561.935 379.132 557.691 391.847 550.752 408.244 540.486 424.066 529.188 431.66 523.281 432.005 523.682 432.178 524.083 433.099 525.345 434.825 526.664 436.148 527.123 436.953 527.066 437.874 526.894 439.37 525.919 441.096 523.854 442.074 522.363 443.627 520.011 446.447 514.907 447.712 512.384 448 511.466 447.482 509.975 446.216 509 444.721 509 444.088 509.574Z" fill="#0C2036" fill-rule="evenodd"/><path d="M480.17 360.007 479.769 359.458 478.666 358.631 477.289 358.412 475.975 358.771 475.471 359.223 473.527 361.416 471.532 363.654 458.107 356.165 437.679 345.418 423.784 338.622 409.71 332.438 395.408 326.913 380.777 322.136 365.951 318.259 358.368 316.79 351.302 315.493 336.875 313.89 322.294 313.332 307.637 314.111 293.248 316.102 279.11 319.592 269.034 323.257 262.35 326.244 255.931 329.63 249.727 333.458 246.738 335.499 246.132 336.04 246.102 337.428 246.858 338.475 248.174 338.931 248.858 338.681 255.283 335.2 268.645 329.32 282.168 324.838 296.139 321.769 310.282 319.908 324.636 319.4 339.066 320.094 353.431 321.934 360.542 323.281 367.687 324.869 381.744 328.8 395.515 333.53 408.918 338.862 422.288 344.768 435.34 351.23 454.699 361.392 467.427 368.508 465.416 371.033 463.4 373.653 462.975 374.396 462.94 375.879 463.724 377.264 465.013 378.197 465.721 378.379 465.767 378.429 465.913 378.389 472.225 379.453 485.033 380.873 491.468 381.464 492.423 381.517 493.769 380.584 494.383 379.037 494.233 377.448 493.798 376.657 488.058 368.822 482.313 361.082 481.868 360.483 480.698 359.988 480.17 360.007Z" fill="#0C2036" fill-rule="evenodd"/><path d="M594.085 366.528 592.618 366.397 591.111 366.365 590.5 362.515 588.87 354.947 586.833 347.411 584.47 339.973 581.781 332.6 578.807 325.292 575.547 318.083 572.003 310.905 566.299 300.303 557.906 286.405 548.82 272.769 539.287 259.426 534.357 252.836 531.831 249.476 527.716 244.485 524.742 241.32 521.523 238.319 518.06 235.579 514.23 233.067 510.034 231.011 507.752 230.13 507.263 230 506.489 230.228 506 230.783 506.204 231.435 506.57 231.696 509.178 232.936 513.863 235.84 518.06 239.069 521.89 242.69 527.023 248.497 533.134 256.718 536.068 260.764 542.342 269.474 551.306 282.817 557.01 291.756 559.78 296.323 562.225 300.531 566.91 308.948 571.229 317.528 575.181 326.173 578.725 334.949 581.822 343.822 584.47 352.794 586.589 361.863 587.444 366.43 585.407 366.593 583.492 366.919 583.166 366.985 582.555 367.344 582.188 367.833 582.107 368.387 582.188 368.681 582.718 369.823 584.062 371.976 585.692 373.966 587.607 375.826 588.666 376.674 589.033 376.87 589.685 377 590.378 376.87 590.907 376.543 591.07 376.348 591.966 375.63 593.229 373.836 593.759 372.857 594.941 370.671 595.878 368.387 596 368.061 595.796 367.409 595.267 366.919 594.493 366.593 594.085 366.528Z" fill="#0C2036" fill-rule="evenodd"/><path d="M98.2027 0.510949 97.6384 0.510949 97.1445 0.562044 96.6507 0.306569 95.8747 0.306569 86.9856 1.17518 78.2377 2.45255 77.6027 2.55474 76.6151 3.32117 76.0507 4.24088 76.1212 5.21168 76.4034 5.67153 78.026 7.40876 79.7192 9.19708 70.2658 14.4088 51.0062 24.219 31.2527 33.5182 11.0055 42.3577 0.776027 46.7518 0.141096 47.0584 0 47.927 0.493836 48.6423 1.69315 49 2.39863 48.8467 7.83082 47.1606 18.5541 43.3796 34.1452 37.1971 54.2514 28.0511 73.6521 17.9854 82.9644 12.7226 83.3877 13.0803 83.5993 13.438 84.7281 14.562 86.8445 15.7372 88.4671 16.146 89.4548 16.0949 90.5836 15.9416 92.4178 15.073 94.5342 13.2336 95.7336 11.9051 97.6384 9.81022 101.095 5.26277 102.647 3.0146 103 2.19708 102.365 0.868613 100.813 0 98.9788 0 98.2027 0.510949Z" fill="#0C2036" fill-rule="evenodd" transform="matrix(-1 0 0 1 872 561)"/><text fill="#0C2036" font-family="Open Sans Light,Open Sans Light_MSFontService,sans-serif" font-weight="700" font-size="27" transform="translate(896.823 222)">Lorem Ipsum</text><text fill="#0C2036" font-family="Open Sans Light,Open Sans Light_MSFontService,sans-serif" font-weight="700" font-size="27" transform="translate(979.102 370)">Lorem Ipsum</text><text fill="#0C2036" font-family="Open Sans Light,Open Sans Light_MSFontService,sans-serif" font-weight="700" font-size="27" transform="translate(949.238 589)">Lorem</text><text fill="#0C2036" font-family="Open Sans Light,Open Sans Light_MSFontService,sans-serif" font-weight="700" font-size="27" transform="translate(950.805 621)">Ipsum</text><text fill="#0C2036" font-family="Open Sans Light,Open Sans Light_MSFontService,sans-serif" font-weight="700" font-size="27" transform="translate(190.997 561)">Lorem</text><text fill="#0C2036" font-family="Open Sans Light,Open Sans Light_MSFontService,sans-serif" font-weight="700" font-size="27" transform="translate(192.564 593)">Ipsum</text><text fill="#0C2036" font-family="Open Sans Light,Open Sans Light_MSFontService,sans-serif" font-weight="700" font-size="27" transform="translate(367.637 181)">Lorem</text><text fill="#0C2036" font-family="Open Sans Light,Open Sans Light_MSFontService,sans-serif" font-weight="700" font-size="27" transform="translate(369.204 213)">Ipsum</text><text fill="#0C2036" font-family="Open Sans Light,Open Sans Light_MSFontService,sans-serif" font-weight="700" font-size="21" transform="translate(123.147 344)">Lorem</text><text fill="#0C2036" font-family="Open Sans Light,Open Sans Light_MSFontService,sans-serif" font-weight="700" font-size="21" transform="translate(124.347 370)">Ipsum</text><text fill="#0C2036" font-family="Open Sans Light,Open Sans Light_MSFontService,sans-serif" font-weight="700" font-size="27" transform="translate(679.578 187)">Lorem</text><text fill="#0C2036" font-family="Open Sans Light,Open Sans Light_MSFontService,sans-serif" font-weight="700" font-size="27" transform="translate(681.145 219)">Ipsum</text><text fill="#0C2036" font-family="Open Sans Light,Open Sans Light_MSFontService,sans-serif" font-weight="700" font-size="21" transform="translate(281.521 435)">Lorem</text><text fill="#0C2036" font-family="Open Sans Light,Open Sans Light_MSFontService,sans-serif" font-weight="700" font-size="21" transform="translate(282.721 461)">Ipsum</text><text fill="#0C2036" font-family="Open Sans Light,Open Sans Light_MSFontService,sans-serif" font-weight="700" font-size="21" transform="translate(885.917 472)">Lorem</text><text fill="#0C2036" font-family="Open Sans Light,Open Sans Light_MSFontService,sans-serif" font-weight="700" font-size="21" transform="translate(887.117 498)">Ipsum</text><path d="M1173 661.5C1173 657.358 1176.36 654 1180.5 654L1245.5 654C1249.64 654 1253 657.358 1253 661.5L1253 691.5C1253 695.642 1249.64 699 1245.5 699L1180.5 699C1176.36 699 1173 695.642 1173 691.5Z" fill="#C8E3FB" fill-rule="evenodd"/><text fill="#17406D" font-family="Open Sans,Open Sans_MSFontService,sans-serif" font-weight="700" font-size="13" transform="translate(1194.08 673)">LOGO</text><text fill="#17406D" font-family="Open Sans,Open Sans_MSFontService,sans-serif" font-weight="700" font-size="13" transform="translate(1196.34 689)">HERE</text></g></svg>