<svg width="1280" height="720" xmlns="http://www.w3.org/2000/svg" xmlns:xlink="http://www.w3.org/1999/xlink" overflow="hidden"><defs><clipPath id="clip0"><rect x="0" y="0" width="1280" height="720"/></clipPath></defs><g clip-path="url(#clip0)"><rect x="0" y="0" width="1280" height="720" fill="#FFFFFF"/><path d="M426.026 311.933C424.778 311.4 423.427 311.06 422.281 310.333 418.809 308.131 419.118 304.633 418 300.733 418.535 299.844 418.971 298.888 419.605 298.067 420.761 296.569 422.338 295.398 423.351 293.8 424.502 291.984 425.134 289.889 426.026 287.933 425.491 283.133 425.371 278.269 424.421 273.533 424.108 271.974 422.36 270.855 422.281 269.267 421.994 263.555 423.382 262.145 428.166 261.267 433.475 260.292 438.868 259.844 444.219 259.133 445.467 257.711 446.843 256.391 447.964 254.867 448.814 253.711 449.044 252.102 450.104 251.133 451.28 250.059 452.958 249.711 454.385 249 466.6 251.939 467.411 251.276 476.323 255.4 479.217 256.739 484.884 259.667 484.884 259.667 485.062 260.378 484.978 261.214 485.419 261.8 487.327 264.336 489.924 266.245 492.375 268.2 493.049 269.767 495.205 274.983 496.121 276.2 496.806 277.111 497.904 277.622 498.796 278.333 501.117 287.588 502.067 284.511 499.331 291.133 498.662 292.752 498.641 294.945 497.191 295.933 494.906 297.492 491.84 297.356 489.165 298.067 489.7 298.778 490.183 299.531 490.77 300.2 495.257 305.311 498.097 303.369 491.84 316.733 490.907 318.726 487.503 317.611 485.419 318.333 483.384 319.039 481.356 319.853 479.533 321 477.93 322.009 476.999 323.997 475.253 324.733 472.224 326.011 468.799 326.022 465.622 326.867 463.442 327.446 461.341 328.289 459.201 329 456.347 328.467 453.335 328.475 450.639 327.4 449.579 326.977 449.413 325.416 448.499 324.733 447.223 323.779 445.7 323.191 444.219 322.6 431.711 317.613 444.057 324.21 429.772 315.667 429.237 314.956 428.754 314.202 428.166 313.533L426.026 311.933Z" stroke="#009DD9" stroke-width="2" stroke-miterlimit="8" fill="none" fill-rule="evenodd"/><path d="M760.235 316.582C759.682 315.74 758.671 315.277 758.118 314.435 757.242 313.103 756.706 311.572 756 310.141 756.529 306.026 756.219 301.707 757.588 297.796 758.256 295.889 760.833 295.26 761.824 293.502L766.059 285.988C765.529 280.084 764.134 274.195 764.471 268.276 764.673 264.717 765.557 260.945 767.647 258.078 768.875 256.394 771.46 256.411 773.471 255.931 777.481 254.975 781.588 254.5 785.647 253.784 795.291 248.896 790.324 249.631 800.471 251.101 802.059 251.995 803.741 252.736 805.235 253.784 806.056 254.361 806.522 255.37 807.353 255.931 810.996 258.394 816.151 259.524 820.059 260.762 822.706 262.73 825.679 264.313 828 266.666 828.529 267.203 829.153 267.658 829.588 268.276 833.351 273.617 827.233 266.962 832.765 272.57 833.118 275.611 833.231 278.691 833.824 281.694 833.948 282.327 834.598 282.728 834.882 283.305 835.66 284.881 836.294 286.525 837 288.135 836.471 291.534 837.177 295.393 835.412 298.333 834.338 300.122 830.383 298.547 829.588 300.48 827.399 305.806 828.385 311.961 827.471 317.655 827.147 319.669 827.405 322.226 825.882 323.559 823.129 325.97 819.254 326.626 815.824 327.853 813.24 328.777 810.529 329.284 807.882 330 797.471 329.463 787.009 329.557 776.647 328.39 775.655 328.278 775.328 326.85 774.529 326.243 772.493 324.695 770.359 323.277 768.176 321.949 766.823 321.126 759.309 315.441 759.309 315.441" stroke="#7CCA62" stroke-width="2" stroke-miterlimit="8" fill="none" fill-rule="evenodd"/><path d="M603.715 444.521C602.391 443.986 600.958 443.877 600.007 442.918 598.89 441.791 598.371 440.16 597.887 438.644 596.773 435.149 596.057 431.536 595.238 427.959 592.568 416.292 595.366 420.64 591 415.137 593.068 388.024 588.653 401.468 596.828 387.89 598.51 385.096 598.802 381 601.596 379.342 605.45 377.056 610.415 377.843 614.841 377.205 636.636 374.066 619.167 377.189 636.033 374 639.388 374.534 642.877 374.52 646.099 375.603 646.849 375.855 646.572 377.207 647.159 377.74 648.397 378.864 650.047 379.427 651.397 380.411 661.383 387.683 652.988 382.442 659.344 386.288 659.698 387 659.966 387.762 660.404 388.425 661.384 389.906 662.793 391.106 663.583 392.699 664.582 394.713 664.996 396.973 665.702 399.11 666.055 401.781 666.087 404.516 666.762 407.123 667.16 408.664 668.399 409.88 668.881 411.397 669.821 414.359 670.294 417.452 671 420.479 669.068 428.27 670.259 425.752 666.232 432.767 665.397 434.221 664.916 436.033 663.583 437.041 661.929 438.292 659.698 438.466 657.755 439.178 656.872 440.603 655.79 441.92 655.106 443.452 654.189 445.506 654.613 448.319 652.987 449.863 651.238 451.523 648.395 451.288 646.099 452 643.274 451.288 640.35 450.894 637.622 449.863 634.664 448.744 632.28 445.984 629.146 445.589 622.134 444.705 615.018 445.945 607.954 446.123 606.001 449.405 605.04 445.055 603.715 444.521Z" stroke="#0BD0D9" stroke-width="2" stroke-miterlimit="8" fill="none" fill-rule="evenodd"/><path d="M504 266.5C504 260.701 508.477 256 514 256 519.523 256 524 260.701 524 266.5 524 272.299 519.523 277 514 277 508.477 277 504 272.299 504 266.5Z" stroke="#009DD9" stroke-width="2" stroke-miterlimit="8" fill="none" fill-rule="evenodd"/><path d="M537 260C537 257.239 539.239 255 542 255 544.761 255 547 257.239 547 260 547 262.761 544.761 265 542 265 539.239 265 537 262.761 537 260Z" stroke="#009DD9" stroke-width="2" stroke-miterlimit="8" fill="none" fill-rule="evenodd"/><path d="M615 356C615 350.477 619.701 346 625.5 346 631.299 346 636 350.477 636 356 636 361.523 631.299 366 625.5 366 619.701 366 615 361.523 615 356Z" stroke="#0BD0D9" stroke-width="2" stroke-miterlimit="8" fill="none" fill-rule="evenodd"/><path d="M621 329C621 326.239 623.015 324 625.5 324 627.985 324 630 326.239 630 329 630 331.761 627.985 334 625.5 334 623.015 334 621 331.761 621 329Z" stroke="#0BD0D9" stroke-width="2" stroke-miterlimit="8" fill="none" fill-rule="evenodd"/><path d="M725 267.5C725 261.701 729.477 257 735 257 740.523 257 745 261.701 745 267.5 745 273.299 740.523 278 735 278 729.477 278 725 273.299 725 267.5Z" stroke="#7CCA62" stroke-width="2" stroke-miterlimit="8" fill="none" fill-rule="evenodd"/><path d="M705 260.5C705 258.015 707.015 256 709.5 256 711.985 256 714 258.015 714 260.5 714 262.985 711.985 265 709.5 265 707.015 265 705 262.985 705 260.5Z" stroke="#7CCA62" stroke-width="2" stroke-miterlimit="8" fill="none" fill-rule="evenodd"/><g><g><g><path d="M622.1 232.8C619.3 232.8 617.1 235 617.1 237.8 617.1 240.6 619.3 242.8 622.1 242.8 624.9 242.8 627.1 240.6 627.1 237.8 627.1 237.8 627.1 237.8 627.1 237.8 627.1 235 624.9 232.8 622.1 232.8ZM622.1 240.8C620.4 240.8 619.1 239.5 619.1 237.8 619.1 236.1 620.4 234.8 622.1 234.8 623.8 234.8 625.1 236.1 625.1 237.8 625.1 239.5 623.8 240.8 622.1 240.8 622.1 240.8 622.1 240.8 622.1 240.8L622.1 240.8Z" fill="#0F6FC6"/><path d="M631.4 233.1 632.3 230.4 629.5 227.6 626.8 228.5C626.3 228.3 625.8 228.1 625.3 227.9L624 225.4 620.1 225.4 618.8 227.9C618.3 228.1 617.8 228.3 617.3 228.5L614.6 227.6 611.8 230.4 612.7 233.1C612.4 233.6 612.2 234.1 612.1 234.6L609.6 235.9 609.6 239.8 612.1 241.1C612.3 241.6 612.5 242.1 612.7 242.6L611.8 245.3 614.7 248.1 617.4 247.2C617.9 247.4 618.4 247.6 618.9 247.8L620.2 250.3 624.1 250.3 625.4 247.8C625.9 247.6 626.4 247.4 626.8 247.2L629.5 248.1 632.3 245.3 631.4 242.6C631.6 242.1 631.9 241.6 632 241.1L634.5 239.8 634.5 235.9 632 234.6C631.9 234.1 631.7 233.6 631.4 233.1ZM632.5 238.5 630.3 239.6 630.2 240C630 240.7 629.7 241.3 629.4 241.9L629.2 242.3 630 244.7 629 245.7 626.7 244.9 626.3 245.1C625.7 245.4 625.1 245.7 624.5 245.8L624 246 622.9 248.2 621.4 248.2 620.3 246 619.9 245.9C619.3 245.7 618.6 245.5 618.1 245.1L617.7 244.9 615.3 245.7 614.2 244.6 615 242.3 614.8 241.9C614.5 241.3 614.2 240.7 614 240.1L613.9 239.7 611.7 238.6 611.7 237.2 613.9 236.1 614 235.7C614.2 235.1 614.4 234.4 614.8 233.9L615 233.5 614.2 231 615.2 229.9 617.6 230.7 618 230.5C618.6 230.2 619.2 229.9 619.9 229.7L620.3 229.6 621.4 227.4 622.8 227.4 623.9 229.6 624.3 229.7C624.9 229.9 625.6 230.1 626.1 230.5L626.5 230.7 628.9 229.9 629.9 230.9 629.1 233.3 629.3 233.7C629.6 234.3 629.9 234.9 630.1 235.5L630.2 235.9 632.4 237 632.5 238.5Z" fill="#0F6FC6"/><path d="M647.1 238.5 647.1 237.6C647.1 223.8 635.9 212.6 622.1 212.6 608.3 212.6 597.1 223.8 597.1 237.6L597.1 238.5C597.2 241.5 597.8 244.4 598.8 247.2 599.8 249.8 601.3 252.2 603.1 254.3 605.4 256.8 607.9 261.6 609 263.8 609.3 264.4 610 264.9 610.7 264.9L633.4 264.9C634.1 264.9 634.8 264.5 635.1 263.8 636.2 261.6 638.7 256.8 640.9 254.3 642.8 252.2 644.2 249.8 645.2 247.2 646.4 244.4 647 241.4 647.1 238.5ZM645.1 238.5C645 241.2 644.5 243.9 643.5 246.5 642.6 248.9 641.2 251.1 639.5 253 637.1 255.6 634.6 260.3 633.4 262.9L610.8 262.9C609.5 260.3 607 255.6 604.7 253 603 251.1 601.7 248.9 600.7 246.5 599.7 244 599.2 241.3 599.1 238.5L599.1 237.7C599.1 225 609.4 214.7 622.1 214.7 634.8 214.7 645.1 225 645.1 237.7L645.1 237.7 645.1 238.5Z" fill="#0F6FC6"/><path d="M633.2 270.9 611.2 270.9C610.6 270.9 610.2 271.3 610.2 271.9 610.2 272.5 610.6 272.9 611.2 272.9L633.2 272.9C633.8 272.9 634.2 272.5 634.2 271.9 634.2 271.3 633.8 270.9 633.2 270.9Z" fill="#0F6FC6"/><path d="M622.4 209C623 209 623.4 208.6 623.4 208L623.4 199C623.4 198.4 623 198 622.4 198 621.8 198 621.4 198.4 621.4 199L621.4 208C621.4 208.6 621.8 209 622.4 209Z" fill="#0F6FC6"/><path d="M592.1 237 583.1 237C582.5 237 582.1 237.4 582.1 238 582.1 238.6 582.5 239 583.1 239L592.1 239C592.7 239 593.1 238.6 593.1 238 593.1 237.4 592.6 237 592.1 237Z" fill="#0F6FC6"/><path d="M661.1 237 652.1 237C651.5 237 651.1 237.4 651.1 238 651.1 238.6 651.5 239 652.1 239L661.1 239C661.7 239 662.1 238.6 662.1 238 662.1 237.4 661.6 237 661.1 237Z" fill="#0F6FC6"/><path d="M600.2 217.5C600.6 217.9 601.2 217.9 601.6 217.5 602 217.1 602 216.5 601.6 216.1L595.2 209.7C594.8 209.3 594.2 209.3 593.8 209.6 593.4 210 593.4 210.6 593.7 211 593.7 211 593.7 211 593.8 211.1L600.2 217.5Z" fill="#0F6FC6"/><path d="M644 258.5C643.6 258.1 643 258.1 642.6 258.5 642.2 258.9 642.2 259.5 642.6 259.9 642.6 259.9 642.6 259.9 642.6 259.9L649 266.3C649.4 266.7 650 266.7 650.4 266.3 650.8 265.9 650.8 265.3 650.4 264.9L644 258.5Z" fill="#0F6FC6"/><path d="M648.8 209.8 642.6 216C642.2 216.4 642.2 217 642.5 217.4 642.9 217.8 643.5 217.8 643.9 217.5 643.9 217.5 643.9 217.5 644 217.4L650.4 211C650.8 210.6 650.8 210 650.4 209.6 650 209.2 649.4 209.2 649 209.6L648.8 209.8Z" fill="#0F6FC6"/><path d="M600.2 258.5 593.8 264.9C593.4 265.3 593.4 265.9 593.8 266.3 594.2 266.7 594.8 266.7 595.2 266.3 595.2 266.3 595.2 266.3 595.2 266.3L601.6 259.9C602 259.5 602 258.9 601.6 258.5 601.2 258.1 600.6 258.1 600.2 258.5L600.2 258.5Z" fill="#0F6FC6"/><path d="M622.1 285C619.1 285 616.6 282.7 616.3 279.7 616.3 279.1 616.7 278.7 617.2 278.6 617.2 278.6 617.3 278.6 617.3 278.6L626.9 278.6C627.5 278.6 627.9 279 627.9 279.6 627.9 279.6 627.9 279.7 627.9 279.7 627.6 282.7 625.1 285 622.1 285ZM618.6 280.6C619.4 282.5 621.6 283.5 623.5 282.8 624.5 282.4 625.3 281.6 625.7 280.6L618.6 280.6Z" fill="#0F6FC6"/></g></g></g><text fill="#17406D" font-family="Open Sans,Open Sans_MSFontService,sans-serif" font-weight="700" font-size="19" transform="translate(303.096 296)">Text Here</text><text font-family="Open Sans Light,Open Sans Light_MSFontService,sans-serif" font-weight="300" font-size="16" transform="translate(148.682 327)">Lorem Ipsum comes from section</text><text font-family="Open Sans Light,Open Sans Light_MSFontService,sans-serif" font-weight="300" font-size="16" transform="translate(147.349 350)">Contrary to popular belief, Lorem.</text><text fill="#17406D" font-family="Open Sans,Open Sans_MSFontService,sans-serif" font-weight="700" font-size="19" transform="translate(583.882 489)">Text Here</text><text font-family="Open Sans Light,Open Sans Light_MSFontService,sans-serif" font-weight="300" font-size="16" transform="translate(506.731 519)">Lorem Ipsum comes from section</text><text font-family="Open Sans Light,Open Sans Light_MSFontService,sans-serif" font-weight="300" font-size="16" transform="translate(506.064 542)">Contrary to popular belief, Lorem.</text><text fill="#17406D" font-family="Open Sans,Open Sans_MSFontService,sans-serif" font-weight="700" font-size="19" transform="translate(871.859 296)">Text Here</text><text font-family="Open Sans Light,Open Sans Light_MSFontService,sans-serif" font-weight="300" font-size="16" transform="translate(871.859 327)">Lorem Ipsum comes from section</text><text font-family="Open Sans Light,Open Sans Light_MSFontService,sans-serif" font-weight="300" font-size="16" transform="translate(871.859 350)">Contrary to popular belief, Lorem.</text><text fill="#17406D" font-family="Open Sans,Open Sans_MSFontService,sans-serif" font-weight="700" font-size="19" transform="translate(586.142 164)">Text Here</text><g><g><g><path d="M478.5 279.797 464.417 279.797 464.417 276.005C464.413 274.81 463.445 273.842 462.25 273.838L439.5 273.838C438.305 273.842 437.337 274.81 437.333 276.005L437.333 290.634C437.337 291.829 438.305 292.797 439.5 292.801L442.75 292.801 442.75 298.218 448.167 292.801 453.583 292.801 453.583 296.593C453.587 297.788 454.555 298.756 455.75 298.759L469.833 298.759 475.25 304.176 475.25 298.759 478.5 298.759C479.695 298.756 480.663 297.788 480.667 296.593L480.667 281.964C480.663 280.768 479.695 279.8 478.5 279.797ZM453.583 281.963 453.583 291.718 447.719 291.718 447.402 292.035 443.833 295.604 443.833 291.718 439.5 291.718C438.902 291.718 438.417 291.233 438.417 290.635L438.417 276.005C438.417 275.407 438.902 274.922 439.5 274.922L462.25 274.922C462.848 274.922 463.333 275.407 463.333 276.005L463.333 279.797 455.75 279.797C454.555 279.801 453.587 280.769 453.583 281.964ZM479.583 296.593C479.583 297.191 479.098 297.676 478.5 297.676L474.167 297.676 474.167 301.562 470.601 297.992 470.284 297.674 455.75 297.674C455.152 297.674 454.667 297.189 454.667 296.591L454.667 281.964C454.667 281.365 455.152 280.88 455.75 280.88L478.5 280.88C479.098 280.88 479.583 281.365 479.583 281.964Z" fill="#009DD9"/></g></g></g><g><g><g><path d="M-11.4 566.9C-11.4 563.1-12.1 559.4-13.6 555.9-13.8 555.4-14.4 555.1-14.9 555.4-15.4 555.6-15.7 556.2-15.4 556.7-9.7 570.5-16.3 586.3-30.1 592-31.6 592.6-33.1 593.1-34.7 593.4-34.7 593.4-34.7 593.4-34.7 593.4L-30.7 586.3C-30.4 585.8-30.6 585.2-31.1 584.9-31.6 584.6-32.2 584.8-32.5 585.3L-32.5 585.3-37.6 594.3C-37.9 594.8-37.7 595.4-37.2 595.7-37.2 595.7-37.2 595.7-37.2 595.7L-28.3 600.8C-27.8 601.1-27.2 600.9-26.9 600.4-26.6 599.9-26.8 599.3-27.3 599L-33.9 595.3C-33.9 595.3-33.9 595.3-33.9 595.3-20.8 592.1-11.5 580.4-11.4 566.9Z" fill="#C9FAFC"/><path d="M-44 593.7C-58.8 591.7-69.2 578.1-67.2 563.3-67 561.7-66.6 560.2-66.1 558.6-66.1 558.6-66.1 558.6-66.1 558.6L-62 565.6C-61.7 566.1-61.1 566.2-60.6 566-60.1 565.7-60 565.1-60.2 564.6L-60.2 564.6-65.4 555.7C-65.7 555.2-66.3 555.1-66.8 555.3L-75.7 560.5C-76.2 560.8-76.3 561.4-76.1 561.9-75.9 562.4-75.2 562.5-74.7 562.3L-68.2 558.5C-68.2 558.5-68.2 558.5-68.2 558.5-72 571.4-66.6 585.3-54.9 592.1-51.6 594-48 595.2-44.3 595.7-44.3 595.7-44.2 595.7-44.2 595.7-43.6 595.7-43.2 595.3-43.2 594.7-43.1 594.2-43.5 593.8-44 593.7Z" fill="#C9FAFC"/><path d="M-62.6 550.8C-62.3 550.8-62 550.7-61.8 550.4-52.7 538.6-35.7 536.4-23.9 545.5-22.6 546.5-21.5 547.6-20.4 548.7-20.4 548.7-20.4 548.7-20.4 548.7L-28.4 548.7C-29 548.7-29.4 549.2-29.4 549.7-29.4 550.3-28.9 550.7-28.4 550.7L-28.4 550.7-18.1 550.6C-17.5 550.6-17.1 550.2-17.1 549.6L-17.2 539.3C-17.2 538.7-17.6 538.3-18.2 538.3L-18.2 538.3C-18.8 538.3-19.2 538.7-19.2 539.3L-19.2 546.9C-19.2 546.9-19.2 546.9-19.2 546.9-30.1 535.2-48.5 534.5-60.2 545.5-61.3 546.6-62.4 547.7-63.4 549-63.7 549.4-63.7 550.1-63.2 550.4-63.1 550.5-62.9 550.6-62.8 550.6-62.7 550.8-62.6 550.8-62.6 550.8Z" fill="#C9FAFC"/><path d="M-36.7 572.6-33.6 570.9-33.6 567.8-36.7 569.6Z" fill="#C9FAFC"/><path d="M-25.1 558.2-40.4 548.9-55.7 558.2-55.7 575.6-40.4 585-25.1 575.7-25.1 558.2ZM-28 558.8-32.6 561.6-45.1 554.1-40.4 551.2-28 558.8ZM-40.4 566.3-52.8 558.8-47 555.3-34.5 562.8-40.4 566.3ZM-53.7 560.6-41.4 568.1-41.4 582.1-53.7 574.6-53.7 560.6ZM-39.4 582-39.4 568-27.1 560.5-27.1 574.5-39.4 582Z" fill="#C9FAFC"/></g></g></g><g><g><g><path d="M29.3042 38.4583C29.3042 38.1875 29.25 37.9167 29.25 37.6458 29.25 37.5375 29.25 37.4833 29.25 37.375L22.75 37.375C22.75 37.4833 22.75 37.5375 22.75 37.6458 22.75 37.9167 22.75 38.1875 22.6958 38.4583L29.3042 38.4583Z" fill="#0BD0D9" transform="matrix(1 0 0 1.01923 606 382)"/><path d="M17.8208 30.0083 20.8542 24.7542C20.5292 24.5917 20.2583 24.375 19.9333 24.1583L16.7917 29.6292C17.1708 29.7375 17.4958 29.8458 17.8208 30.0083Z" fill="#0BD0D9" transform="matrix(1 0 0 1.01923 606 382)"/><path d="M34.775 29.7917 31.525 24.1583C31.2542 24.375 30.9292 24.5375 30.6042 24.7542L33.7458 30.225C34.0708 30.0625 34.45 29.9 34.775 29.7917Z" fill="#0BD0D9" transform="matrix(1 0 0 1.01923 606 382)"/><path d="M14.3542 30.875C10.6167 30.875 7.58333 33.9083 7.58333 37.6458 7.58333 41.3833 10.6167 44.4167 14.3542 44.4167 18.0917 44.4167 21.125 41.3833 21.125 37.6458 21.125 33.9083 18.0917 30.875 14.3542 30.875ZM11.1042 42.3042C11.2667 40.5167 12.8917 39.1625 14.6792 39.325 16.25 39.4875 17.4958 40.7333 17.6583 42.3042 15.6542 43.6583 13.0542 43.6583 11.1042 42.3042ZM12.8375 36.725C12.8375 35.9125 13.4875 35.2083 14.3542 35.2083 15.1667 35.2083 15.8708 35.8583 15.8708 36.725 15.8708 37.5375 15.2208 38.2417 14.3542 38.2417 13.5417 38.2417 12.8375 37.5375 12.8375 36.725ZM18.5792 41.4375C18.2542 40.1917 17.3333 39.1083 16.1417 38.5667 17.1708 37.5917 17.225 35.9667 16.25 34.8833 15.275 33.8542 13.65 33.8 12.5667 34.775 11.5375 35.75 11.4833 37.375 12.4583 38.4583 12.5125 38.5125 12.5667 38.5667 12.5667 38.5667 11.375 39.1083 10.4542 40.1375 10.1292 41.4375 8.01667 39.1083 8.17917 35.5333 10.5083 33.4208 12.8375 31.3083 16.4125 31.4708 18.525 33.8 20.5292 35.9667 20.5292 39.2708 18.5792 41.4375Z" fill="#0BD0D9" transform="matrix(1 0 0 1.01923 606 382)"/><path d="M37.6458 30.875C33.9083 30.875 30.875 33.9083 30.875 37.6458 30.875 41.3833 33.9083 44.4167 37.6458 44.4167 41.3833 44.4167 44.4167 41.3833 44.4167 37.6458 44.4167 33.9083 41.3833 30.875 37.6458 30.875ZM34.3958 42.3042C34.5583 40.5167 36.1833 39.1625 37.9708 39.325 39.5417 39.4875 40.7875 40.7333 40.95 42.3042 38.9458 43.6583 36.3458 43.6583 34.3958 42.3042ZM36.1292 36.725C36.1292 35.9125 36.7792 35.2083 37.6458 35.2083 38.4583 35.2083 39.1625 35.8583 39.1625 36.725 39.1625 37.5375 38.5125 38.2417 37.6458 38.2417 36.8333 38.2417 36.1292 37.5375 36.1292 36.725ZM41.8708 41.4375C41.5458 40.1917 40.625 39.1083 39.4333 38.5667 40.4625 37.5917 40.5167 35.9667 39.5417 34.8833 38.5667 33.8542 36.9417 33.8 35.8583 34.775 34.775 35.75 34.775 37.375 35.75 38.4583 35.8042 38.5125 35.8583 38.5667 35.8583 38.5667 34.6667 39.1083 33.7458 40.1375 33.4208 41.4375 31.3083 39.1083 31.4708 35.5333 33.8 33.4208 36.1292 31.3083 39.7042 31.4708 41.8167 33.8 43.8208 35.9667 43.8208 39.2708 41.8708 41.4375Z" fill="#0BD0D9" transform="matrix(1 0 0 1.01923 606 382)"/><path d="M25.7292 7.58333C21.0708 7.58333 17.3333 11.3208 17.3333 15.9792 17.3333 20.6375 21.0708 24.375 25.7292 24.375 30.3875 24.375 34.125 20.6375 34.125 15.9792 34.125 11.3208 30.3875 7.58333 25.7292 7.58333ZM21.45 21.8833C21.6125 19.5 23.6708 17.7667 26.0542 17.9292 28.1667 18.0917 29.8458 19.7708 30.0083 21.8833 27.4625 23.7792 23.9958 23.7792 21.45 21.8833ZM23.6708 14.7875C23.6708 13.65 24.5917 12.7292 25.7292 12.7292 26.8667 12.7292 27.7875 13.65 27.7875 14.7875 27.7875 15.925 26.8667 16.8458 25.7292 16.8458 24.5917 16.8458 23.6708 15.925 23.6708 14.7875L23.6708 14.7875ZM30.9833 20.9625C30.6042 19.2292 29.3583 17.8208 27.7333 17.225 29.0875 16.1417 29.25 14.1917 28.1667 12.8375 27.0833 11.4833 25.1333 11.3208 23.7792 12.4042 22.425 13.4875 22.2083 15.4375 23.2917 16.7917 23.4 16.9542 23.5625 17.1167 23.725 17.225 22.0458 17.875 20.8542 19.3375 20.475 21.0708 17.6583 18.2 17.7125 13.5417 20.6375 10.725 23.5625 7.90833 28.1667 7.9625 30.9833 10.8875 33.7458 13.7042 33.7458 18.2542 30.9833 21.0708 30.9833 21.0708 30.9833 21.0167 30.9833 20.9625Z" fill="#0BD0D9" transform="matrix(1 0 0 1.01923 606 382)"/></g></g></g><g><g><g><path d="M811.708 306.792 811.708 274.292C811.708 271.125 803.615 269.417 796 269.417 788.385 269.417 780.292 271.125 780.292 274.292L780.292 306.792C780.292 309.958 788.385 311.667 796 311.667 803.615 311.667 811.708 309.958 811.708 306.792ZM796 270.5C804.37 270.5 810.625 272.504 810.625 274.292 810.625 276.079 804.37 278.083 796 278.083 787.63 278.083 781.375 276.079 781.375 274.292 781.375 272.504 787.63 270.5 796 270.5ZM781.375 276.166C783.828 278.127 790.06 279.167 796 279.167 801.94 279.167 808.172 278.127 810.625 276.166L810.625 285.125C810.625 286.913 804.37 288.917 796 288.917 787.63 288.917 781.375 286.913 781.375 285.125ZM781.375 286.999C783.828 288.96 790.06 290 796 290 801.94 290 808.172 288.96 810.625 286.999L810.625 295.958C810.625 297.746 804.37 299.75 796 299.75 787.63 299.75 781.375 297.746 781.375 295.958ZM781.375 306.792 781.375 297.832C783.828 299.793 790.06 300.833 796 300.833 801.94 300.833 808.172 299.793 810.625 297.832L810.625 306.792C810.625 308.579 804.37 310.583 796 310.583 787.63 310.583 781.375 308.579 781.375 306.792Z" fill="#7CCA62"/><path d="M807.917 283.5C807.917 284.098 807.432 284.583 806.833 284.583 806.235 284.583 805.75 284.098 805.75 283.5 805.75 282.902 806.235 282.417 806.833 282.417 807.432 282.417 807.917 282.902 807.917 283.5Z" fill="#7CCA62"/><path d="M807.917 294.333C807.917 294.932 807.432 295.417 806.833 295.417 806.235 295.417 805.75 294.932 805.75 294.333 805.75 293.735 806.235 293.25 806.833 293.25 807.432 293.25 807.917 293.735 807.917 294.333Z" fill="#7CCA62"/><path d="M807.917 305.167C807.917 305.765 807.432 306.25 806.833 306.25 806.235 306.25 805.75 305.765 805.75 305.167 805.75 304.568 806.235 304.083 806.833 304.083 807.432 304.083 807.917 304.568 807.917 305.167Z" fill="#7CCA62"/></g></g></g><path d="M1173 661.5C1173 657.358 1176.36 654 1180.5 654L1245.5 654C1249.64 654 1253 657.358 1253 661.5L1253 691.5C1253 695.642 1249.64 699 1245.5 699L1180.5 699C1176.36 699 1173 695.642 1173 691.5Z" fill="#C8E3FB" fill-rule="evenodd"/><text fill="#17406D" font-family="Open Sans,Open Sans_MSFontService,sans-serif" font-weight="700" font-size="13" transform="translate(1194.08 673)">LOGO</text><text fill="#17406D" font-family="Open Sans,Open Sans_MSFontService,sans-serif" font-weight="700" font-size="13" transform="translate(1196.34 689)">HERE</text></g></svg>