<?xml version="1.0" encoding="utf-8" standalone="yes"?>
<!DOCTYPE svg PUBLIC "-//W3C//DTD SVG 1.1//EN" "http://www.w3.org/Graphics/SVG/1.1/DTD/svg11.dtd">
<svg width="900" height="373" viewBox="0 0 636 373" style="fill:none;stroke:none;fill-rule:evenodd;clip-rule:evenodd;stroke-linecap:round;stroke-linejoin:round;stroke-miterlimit:1.5;" version="1.1" xmlns="http://www.w3.org/2000/svg">
    <style id="fontImports">@import url("https://fonts.googleapis.com/css2?family=Shantell+Sans:wght@300..800&amp;display=block");</style>
    <rect id="" x="0" y="0" width="636" height="373" style="fill: #ffffff;"></rect>
    <g id="items" style="isolation: isolate">
        <g id="blend" style="mix-blend-mode:normal">
            <g id="g-root-3.cu_sy_4hbpx3lylbt4-fill" data-item-order="999907846" data-item-id="3.cu_sy_4hbpx3lylbt4" data-item-class="Part Indexed Fill Stroke" data-item-index="3" data-renderer-id="0" transform="translate(326, 110)">
                <g id="3.cu_sy_4hbpx3lylbt4-fill" stroke="none" fill="#d5f7e8">
                    <g>
                        <path d="M 10 226.009C 39.147 204.116 58 169.26 58 130C 58 90.74 39.147 55.884 10 33.991C 30.056 18.927 54.985 10 82 10C 148.274 10 202 63.726 202 130C 202 196.274 148.274 250 82 250C 54.985 250 30.056 241.073 10 226.009Z"></path>
                    </g>
                </g>
            </g>
            <g id="g-root-1.cu_sy_1i7snlylcld-fill" data-item-order="999907850" data-item-id="1.cu_sy_1i7snlylcld" data-item-class="Part Indexed Indexed_1 Fill Stroke" data-item-index="1" data-renderer-id="0" transform="translate(134, 110)">
                <g id="1.cu_sy_1i7snlylcld-fill" stroke="none" fill="#cedfff">
                    <g>
                        <path d="M 202 33.991C 172.853 55.884 154 90.74 154 130C 154 169.26 172.853 204.116 202 226.009C 181.944 241.073 157.015 250 130 250C 63.726 250 10 196.274 10 130C 10 63.726 63.726 10 130 10C 157.015 10 181.944 18.927 202 33.991Z"></path>
                    </g>
                </g>
            </g>
            <g id="g-root-2.cu_sy_1i7snlylcle-fill" data-item-order="999907854" data-item-id="2.cu_sy_1i7snlylcle" data-item-class="Part Indexed Fill Stroke" data-item-index="2" data-renderer-id="0" transform="translate(278, 134)">
                <g id="2.cu_sy_1i7snlylcle-fill" stroke="none" fill="#cef3ff">
                    <g>
                        <path d="M 58 202.018C 87.147 180.125 106 145.268 106 106.009C 106 66.749 87.147 31.893 58 10C 28.853 31.893 10 66.749 10 106.009C 10 145.268 28.853 180.125 58 202.018Z"></path>
                    </g>
                </g>
            </g>
            <g id="g-root-tx_theessen_1lrs8hjlylath-fill" data-item-order="1000000000" data-item-id="tx_theessen_1lrs8hjlylath" data-item-class="Label Stroke Title ColorStrokeBlack" data-item-index="none" data-renderer-id="0" transform="translate(170, 2)">
                <g id="tx_theessen_1lrs8hjlylath-fill" stroke="none" fill="#484848">
                    <g>
                        <text style="font: 20px &quot;Shantell Sans&quot;, cursive; white-space: pre;" font-size="20px" font-family="'Shantell Sans', cursive" text-anchor="middle">
                            <tspan x="255" y="35.5" dominant-baseline="ideographic">Movies</tspan>
                        </text>
                    </g>
                </g>
            </g>
            <g id="g-root-tx_profound_1hd7ojblysdmx-fill" data-item-order="1000000000" data-item-id="tx_profound_1hd7ojblysdmx" data-item-class="Label Stroke Indexed ColorStrokeBlack" data-item-index="2" data-renderer-id="0" transform="translate(236, 74)">
                <g id="tx_profound_1hd7ojblysdmx-fill" stroke="none" fill="#484848">
                    <g>
                        <text style="font: 20px &quot;Shantell Sans&quot;, cursive; white-space: pre;" font-size="20px" font-family="'Shantell Sans', cursive" text-anchor="middle">
                            <tspan x="190" y="35.5" dominant-baseline="ideographic">Balance</tspan>
                        </text>
                    </g>
                </g>
            </g>
            <g id="g-root-tx_storytel_1q6z9ivlyld70-fill" data-item-order="1000000000" data-item-id="tx_storytel_1q6z9ivlyld70" data-item-class="Label Stroke Indexed Indexed_1 ColorStrokeBlack" data-item-index="1" data-renderer-id="0" transform="translate(2, 218)">
                <g id="tx_storytel_1q6z9ivlyld70-fill" stroke="none" fill="#484848">
                    <g>
                        <text style="font: 20px &quot;Shantell Sans&quot;, cursive; white-space: pre;" font-size="20px" font-family="'Shantell Sans', cursive" text-anchor="end">
                            <tspan x="295" y="35.5" dominant-baseline="ideographic">Pros</tspan>
                        </text>
                    </g>
                </g>
            </g>
            <g id="g-root-page_1q8uos7lyscu8-fill" data-item-order="1000000000" data-item-id="page_1q8uos7lyscu8" data-item-class="Icon Stroke Indexed Indexed_1 InsideFill InsideColorFill" data-item-index="1" data-renderer-id="0" transform="translate(194, 206)"></g>
            <g id="g-root-dive_1qf3fnblyqzgo-fill" data-item-order="1000000000" data-item-id="dive_1qf3fnblyqzgo" data-item-class="Icon Stroke Indexed InsideFill InsideColorFill" data-item-index="2" data-renderer-id="0" transform="translate(302, 206)"></g>
            <g id="g-root-myth_htepdjlyqznr-fill" data-item-order="1000000000" data-item-id="myth_htepdjlyqznr" data-item-class="Icon Stroke Indexed InsideFill InsideColorFill" data-item-index="3" data-renderer-id="0" transform="translate(410, 206)"></g>
            <g id="g-root-tx_themes_1q6z9ivlyld6z-fill" data-item-order="1000000000" data-item-id="tx_themes_1q6z9ivlyld6z" data-item-class="Label Stroke Indexed ColorStrokeBlack" data-item-index="3" data-renderer-id="0" transform="translate(530, 218)">
                <g id="tx_themes_1q6z9ivlyld6z-fill" stroke="none" fill="#484848">
                    <g>
                        <text style="font: 20px &quot;Shantell Sans&quot;, cursive; white-space: pre;" font-size="20px" font-family="'Shantell Sans', cursive" text-anchor="start">
                            <tspan x="12" y="35.5" dominant-baseline="ideographic">Cons</tspan>
                        </text>
                    </g>
                </g>
            </g>
            <g id="g-root-3.cu_sy_4hbpx3lylbt4-stroke" data-item-order="999907846" data-item-id="3.cu_sy_4hbpx3lylbt4" data-item-class="Part Indexed Fill Stroke" data-item-index="3" data-renderer-id="0" transform="translate(326, 110)">
                <g id="3.cu_sy_4hbpx3lylbt4-stroke" fill="none" stroke-linecap="round" stroke-linejoin="round" stroke-miterlimit="4" stroke="#ffffff" stroke-width="2">
                    <g>
                        <path d="M 10 226.009C 39.147 204.116 58 169.26 58 130C 58 90.74 39.147 55.884 10 33.991C 30.056 18.927 54.985 10 82 10C 148.274 10 202 63.726 202 130C 202 196.274 148.274 250 82 250C 54.985 250 30.056 241.073 10 226.009Z"></path>
                    </g>
                </g>
            </g>
            <g id="g-root-1.cu_sy_1i7snlylcld-stroke" data-item-order="999907850" data-item-id="1.cu_sy_1i7snlylcld" data-item-class="Part Indexed Indexed_1 Fill Stroke" data-item-index="1" data-renderer-id="0" transform="translate(134, 110)">
                <g id="1.cu_sy_1i7snlylcld-stroke" fill="none" stroke-linecap="round" stroke-linejoin="round" stroke-miterlimit="4" stroke="#ffffff" stroke-width="2">
                    <g>
                        <path d="M 202 33.991C 172.853 55.884 154 90.74 154 130C 154 169.26 172.853 204.116 202 226.009C 181.944 241.073 157.015 250 130 250C 63.726 250 10 196.274 10 130C 10 63.726 63.726 10 130 10C 157.015 10 181.944 18.927 202 33.991Z"></path>
                    </g>
                </g>
            </g>
            <g id="g-root-2.cu_sy_1i7snlylcle-stroke" data-item-order="999907854" data-item-id="2.cu_sy_1i7snlylcle" data-item-class="Part Indexed Fill Stroke" data-item-index="2" data-renderer-id="0" transform="translate(278, 134)">
                <g id="2.cu_sy_1i7snlylcle-stroke" fill="none" stroke-linecap="round" stroke-linejoin="round" stroke-miterlimit="4" stroke="#ffffff" stroke-width="2">
                    <g>
                        <path d="M 58 202.018C 87.147 180.125 106 145.268 106 106.009C 106 66.749 87.147 31.893 58 10C 28.853 31.893 10 66.749 10 106.009C 10 145.268 28.853 180.125 58 202.018Z"></path>
                    </g>
                </g>
            </g>
            <g id="g-root-tx_theessen_1lrs8hjlylath-stroke" data-item-order="1000000000" data-item-id="tx_theessen_1lrs8hjlylath" data-item-class="Label Stroke Title ColorStrokeBlack" data-item-index="none" data-renderer-id="0" transform="translate(170, 2)"></g>
            <g id="g-root-tx_profound_1hd7ojblysdmx-stroke" data-item-order="1000000000" data-item-id="tx_profound_1hd7ojblysdmx" data-item-class="Label Stroke Indexed ColorStrokeBlack" data-item-index="2" data-renderer-id="0" transform="translate(236, 74)"></g>
            <g id="g-root-tx_storytel_1q6z9ivlyld70-stroke" data-item-order="1000000000" data-item-id="tx_storytel_1q6z9ivlyld70" data-item-class="Label Stroke Indexed Indexed_1 ColorStrokeBlack" data-item-index="1" data-renderer-id="0" transform="translate(2, 218)"></g>
            <g id="g-root-page_1q8uos7lyscu8-stroke" data-item-order="1000000000" data-item-id="page_1q8uos7lyscu8" data-item-class="Icon Stroke Indexed Indexed_1 InsideFill InsideColorFill" data-item-index="1" data-renderer-id="0" transform="translate(194, 206)">
                <g id="page_1q8uos7lyscu8-stroke" fill="none" stroke-linecap="round" stroke-linejoin="round" stroke-miterlimit="4" stroke="#4682e3" stroke-width="2">
                    <g transform="translate(7, 10) scale(2)">
                        <path d="M7 10v12" /><path d="M15 5.88 14 10h5.83a2 2 0 0 1 1.92 2.56l-2.33 8A2 2 0 0 1 17.5 22H4a2 2 0 0 1-2-2v-8a2 2 0 0 1 2-2h2.76a2 2 0 0 0 1.79-1.11L12 2a3.13 3.13 0 0 1 3 3.88Z" />
                    </g>
                </g>
            </g>
            <g id="g-root-dive_1qf3fnblyqzgo-stroke" data-item-order="1000000000" data-item-id="dive_1qf3fnblyqzgo" data-item-class="Icon Stroke Indexed InsideFill InsideColorFill" data-item-index="2" data-renderer-id="0" transform="translate(302, 206)">
                <g id="dive_1qf3fnblyqzgo-stroke" fill="none" stroke-linecap="round" stroke-linejoin="round" stroke-miterlimit="4" stroke="#17b0e3" stroke-width="2">
                    <g transform="translate(7, 10) scale(2)">
                        <rect width="18" height="18" x="3" y="3" rx="2" /><path d="M7 3v18" /><path d="M3 7.5h4" /><path d="M3 12h18" /><path d="M3 16.5h4" /><path d="M17 3v18" /><path d="M17 7.5h4" /><path d="M17 16.5h4" />
                    </g>
                </g>
            </g>
            <g id="g-root-myth_htepdjlyqznr-stroke" data-item-order="1000000000" data-item-id="myth_htepdjlyqznr" data-item-class="Icon Stroke Indexed InsideFill InsideColorFill" data-item-index="3" data-renderer-id="0" transform="translate(410, 206)">
                <g id="myth_htepdjlyqznr-stroke" fill="none" stroke-linecap="round" stroke-linejoin="round" stroke-miterlimit="4" stroke="#3bc482" stroke-width="2">
                    <g transform="translate(7, 10) scale(2)">
                        <path d="M17 14V2" /><path d="M9 18.12 10 14H4.17a2 2 0 0 1-1.92-2.56l2.33-8A2 2 0 0 1 6.5 2H20a2 2 0 0 1 2 2v8a2 2 0 0 1-2 2h-2.76a2 2 0 0 0-1.79 1.11L12 22a3.13 3.13 0 0 1-3-3.88Z" />
                    </g>
                </g>
            </g>
            <g id="g-root-tx_themes_1q6z9ivlyld6z-stroke" data-item-order="1000000000" data-item-id="tx_themes_1q6z9ivlyld6z" data-item-class="Label Stroke Indexed ColorStrokeBlack" data-item-index="3" data-renderer-id="0" transform="translate(530, 218)"></g>
        </g>
    </g>
</svg>